<svg xmlns="http://www.w3.org/2000/svg" viewBox="0 0 207 124">
  <path fill="#fff" d="M48.9422 32.632h38.95896v3.08164H52.51343v23.19337h33.27745v3.08164H52.51343v25.46404h35.79355v3.08164H48.9422V32.63201Zm42.44903 0h4.1394l18.34317 25.46405 18.749-25.46404L158.1245.2868l-41.89693 60.4854 21.58976 29.76212h-4.30172L113.8738 63.44837 94.15083 90.53433h-4.22056l21.75209-29.76212-20.29113-28.1402Zm47.96823 3.08164v-3.08163h44.39698v3.08163h-20.45346v54.82069h-3.57124V35.71364h-20.37229ZM.20292 32.63201h4.46405l61.55661 91.67108-25.4384-33.76876L3.93649 37.01117l-.16233 53.52316H.20292zm183.1937 53.89071c.73832 0 1.27685-.56261 1.27685-1.28968 0-.72707-.53853-1.28969-1.27685-1.28969-.72963 0-1.27685.56262-1.27685 1.28969s.54722 1.28968 1.27685 1.28968Zm3.50917-3.393c0 2.1466 1.5548 3.5488 3.82187 3.5488 2.41473 0 3.87399-1.44548 3.87399-3.95561v-8.83738h-1.94568v8.82872c0 1.39356-.70357 2.13794-1.94568 2.13794-1.11182 0-1.8675-.69245-1.89356-1.72247h-1.91094Zm10.24087-.11252c.13898 2.23315 2.00648 3.66132 4.78603 3.66132 2.97063 0 4.82945-1.49742 4.82945-3.88637 0-1.87826-1.0597-2.91693-3.63078-3.51417l-1.38108-.33757c-1.63298-.38085-2.29312-.89153-2.29312-1.78306 0-1.12523 1.02495-1.86095 2.56239-1.86095 1.45926 0 2.46684.71841 2.64925 1.8696h1.89356c-.11292-2.1033-1.97174-3.58341-4.51676-3.58341-2.7361 0-4.56018 1.4801-4.56018 3.7046 0 1.83499 1.03364 2.9256 3.3007 3.45359l1.61561.3895c1.65904.3895 2.38867.96077 2.38867 1.91289 0 1.10792-1.14656 1.91289-2.71005 1.91289-1.67641 0-2.84034-.75304-3.00538-1.93886h-1.9283Z"/>
</svg>