<svg xmlns="http://www.w3.org/2000/svg" viewBox="0 0 294 188">
  <defs/>
  <g fill="none" fill-rule="evenodd" transform="translate(8 -33)">
    <g fill="#FFF" fill-rule="nonzero">
      <path d="M146.2 80L145 59h-12l-1.236 21M146.2 174l-1.2 21h-12l-1.236-21"/>
      <g>
        <path d="M186 134.2l21-1.2v-12l-21-1.236M92 134.2L71 133v-12l21-1.236"/>
      </g>
      <g>
        <path d="M177.3252 98.8572l14.0007-15.6978-8.4853-8.4853-15.7232 13.9753M110.8572 165.3252l-15.6978 14.0007-8.4853-8.4853 13.9753-15.7232"/>
        <g>
          <path d="M167.1428 165.3252l15.6978 14.0007 8.4853-8.4853-13.9753-15.7232M100.6748 98.8572L86.6741 83.1594l8.4853-8.4853 15.7232 13.9753"/>
        </g>
      </g>
    </g>
    <g fill="#FFF" fill-rule="nonzero">
      <path d="M163.638 86.333l6.9278-19.8607-11.0866-4.5922-9.1783 18.9285M127.6658 173.1777l-9.145 18.9422-11.0866-4.5922 6.8945-19.8745"/>
      <g>
        <path d="M179.667 151.638l19.8607 6.9278 4.5922-11.0866-18.9285-9.1783M92.8223 115.6658l-18.9422-9.145 4.5922-11.0866 19.8745 6.8945"/>
      </g>
      <g>
        <path d="M185.1777 115.6658l18.9422-9.145-4.5922-11.0866-19.8745 6.8945M98.333 151.638l-19.8607 6.9278-4.5922-11.0866 18.9285-9.1783"/>
        <g>
          <path d="M150.3342 173.1777l9.145 18.9422 11.0866-4.5922-6.8945-19.8745M114.362 86.333l-6.9278-19.8607 11.0866-4.5922 9.1783 18.9285"/>
        </g>
      </g>
    </g>
    <circle cx="139" cy="127" r="23" fill="#FFF" fill-rule="nonzero"/>
    <g stroke="#FFF" transform="translate(0 40)">
      <path stroke-width="14" d="M139 174C73 174 22 120 .5 87 22 54 73 0 139 0s117 54 138.5 87C256 120 205 174 139 174z"/>
      <circle cx="139" cy="87" r="47.5" stroke-width="19"/>
    </g>
  </g>
</svg>