<svg width="37" height="37" viewBox="0 0 37 37" fill="none" xmlns="http://www.w3.org/2000/svg">
<path d="M36.0032 8.46362L34.0032 34.4636L8.00317 36.4636L36.0032 8.46362Z" fill="#9B1010"/>
<path d="M22.0032 22.4636L34.0032 34.4636L36.0032 8.46362L22.0032 22.4636Z" fill="#B71C1C"/>
<path d="M9.75536 10.2161C5.51318 14.4584 2.3137 19.3959 0.860795 23.9424C-0.592115 28.4889 -0.179446 32.272 2.00802 34.4594C4.19548 36.6468 7.97855 37.0593 12.525 35.6062C17.0714 34.1532 22.0088 30.9535 26.251 26.7112C30.4932 22.4689 33.6927 17.5313 35.1456 12.9848C36.5985 8.43835 36.1858 4.65529 33.9984 2.4679C31.8109 0.280519 28.0278 -0.132017 23.4814 1.32105C18.935 2.77412 13.9975 5.97376 9.75536 10.2161V10.2161Z" fill="#C62828"/>
<path d="M4.00317 11.4636L11.0032 4.46362L19.0032 0.463623L25.0032 4.46362L22.0032 13.4636L13.0032 21.4636L4.00317 24.4636L0.00317383 18.4636L4.00317 11.4636Z" fill="#E53935"/>
<path d="M25.0032 4.46362L19.0032 0.463623H30.0032L25.0032 4.46362ZM36.0032 9.46362L25.0032 4.46362L22.0032 13.4636L36.0032 9.46362ZM13.0032 21.4636L26.2382 26.6986L22.0032 13.4636L13.0032 21.4636ZM4.00317 24.4636L8.00317 36.4636L13.0032 21.4636L4.00317 24.4636ZM0.00317383 18.4636V29.4636L4.00317 24.4636L0.00317383 18.4636Z" fill="#FF5252"/>
</svg>
