<svg xmlns="http://www.w3.org/2000/svg" viewBox="0 0 1771 2499.8">
  <defs/>
  <path fill="#1572b6" d="M161.2 2299.1L0 491.4h1771l-161.4 1807.4-725.2 201z"/>
  <path fill="#33a9dc" d="M885.5 2346.2l586-162.5 137.8-1544.5H885.5z"/>
  <path fill="#fff" d="M885.5 1294.1h293.4l20.2-227H885.5V845.5h556l-5.3 59.5-54.5 611H885.5z"/>
  <path fill="#ebebeb" d="M886.7 1869.9h-1l-246.9-66.7-15.8-176.8H400.6l31.1 348.1 454.2 126.4h1.3v-231z"/>
  <path fill="#fff" d="M1160.1 1506.3l-26.7 296.7-247.3 66.7v231l454.5-126 3.3-37.5 38.6-431h-222.4z"/>
  <path fill="#ebebeb" d="M886.3 845.5v221.7H350.9l-4.6-49.8L336.2 905l-5.3-59.5zm-.8 448.6v221.7H641.4l-4.3-49.8-10.1-112.4-5.3-59.5h263.7z"/>
</svg>
