<svg xmlns="http://www.w3.org/2000/svg" viewBox="0 0 60 56">
  <defs/>
  <g fill="none" fill-rule="evenodd">
    <path fill="#FFF" d="M29.809 5.638c1.11 0 2.063.669 2.48 1.625a.248.248 0 00.229.148.234.234 0 00.181-.084 2.714 2.714 0 012.778-.88 2.708 2.708 0 011.977 2.218.244.244 0 00.379.162 2.722 2.722 0 011.56-.493 2.707 2.707 0 012.685 3.016.245.245 0 00.325.254c.3-.109.616-.164.93-.164a2.707 2.707 0 012.516 3.701.245.245 0 00.248.33 2.705 2.705 0 012.415 4.308.245.245 0 00.154.382 2.707 2.707 0 011.217 4.786.245.245 0 00.05.409 2.707 2.707 0 01-.059 4.936c-.163.072-.2.294-.063.409a2.706 2.706 0 01-1.339 4.754.245.245 0 00-.161.38 2.706 2.706 0 01-2.551 4.243.245.245 0 00-.227.326 2.706 2.706 0 01-3.537 3.447.232.232 0 00-.086-.017.246.246 0 00-.243.264 2.707 2.707 0 01-4.309 2.415.233.233 0 00-.14-.046.246.246 0 00-.242.2 2.706 2.706 0 01-4.787 1.216.236.236 0 00-.187-.088c-.09 0-.18.048-.222.138a2.708 2.708 0 01-4.936-.058.248.248 0 00-.228-.148.234.234 0 00-.182.084 2.714 2.714 0 01-2.778.88 2.708 2.708 0 01-1.977-2.218.244.244 0 00-.378-.161 2.722 2.722 0 01-1.56.492 2.708 2.708 0 01-2.685-3.017.245.245 0 00-.325-.254 2.716 2.716 0 01-2.844-.627 2.708 2.708 0 01-.604-2.91.245.245 0 00-.247-.328 2.705 2.705 0 01-2.415-4.308.245.245 0 00-.154-.383 2.707 2.707 0 01-1.217-4.786.245.245 0 00-.05-.409 2.707 2.707 0 01.06-4.936c.163-.072.2-.294.063-.409a2.707 2.707 0 011.338-4.755.245.245 0 00.162-.379 2.706 2.706 0 012.55-4.243.245.245 0 00.228-.326 2.707 2.707 0 013.537-3.447.232.232 0 00.085.016.246.246 0 00.244-.263 2.707 2.707 0 014.309-2.415.246.246 0 00.382-.154 2.707 2.707 0 014.787-1.216c.047.06.117.088.186.088.09 0 .18-.048.223-.138a2.707 2.707 0 012.455-1.567"/>
    <g fill="#2F2F2F">
      <path d="M39.828 38.39c-2.483 0-2.288-3.507 0-3.507 2.29 0 2.484 3.506 0 3.506m-20.523 0c-2.483 0-2.289-3.506 0-3.506s2.484 3.506 0 3.506m28.027-12.954h-.841a3.71 3.71 0 01-3.385-2.194 3.709 3.709 0 01-6.77 0 3.71 3.71 0 01-6.77 0 3.71 3.71 0 01-3.384 2.194 3.71 3.71 0 01-3.385-2.194 3.709 3.709 0 01-6.77 0 3.71 3.71 0 01-3.384 2.194h-.832c-1.262 1.358-.461 2.505 2.655 2.505v6.973c0 6.552 7.546 9.829 15.093 9.829 7.546 0 15.092-3.277 15.092-9.83V27.94c3.12 0 3.933-1.147 2.681-2.505"/>
      <path d="M29.809 3.005a5.34 5.34 0 00-3.041.955 5.342 5.342 0 00-6.02 1.532 5.34 5.34 0 00-3.256.682 5.341 5.341 0 00-2.157 2.351 5.299 5.299 0 00-2.968 1.503 5.339 5.339 0 00-1.477 2.833 5.346 5.346 0 00-2.478 2.216 5.338 5.338 0 00-.693 3.116 5.333 5.333 0 00-1.682 5.973 5.334 5.334 0 00-.08 6.205 5.334 5.334 0 00-.183 3.322 5.343 5.343 0 001.713 2.693 5.333 5.333 0 003.035 5.415 5.336 5.336 0 001.503 2.967 5.302 5.302 0 002.832 1.48 5.334 5.334 0 005.335 3.17 5.332 5.332 0 004.166 1.998 5.34 5.34 0 001.811-.315 5.337 5.337 0 003.156 1.032 5.34 5.34 0 003.04-.955 5.337 5.337 0 003.327.18 5.34 5.34 0 002.693-1.713 5.34 5.34 0 003.256-.682 5.34 5.34 0 002.157-2.35 5.298 5.298 0 002.969-1.504 5.343 5.343 0 001.476-2.832 5.344 5.344 0 002.478-2.216 5.338 5.338 0 00.693-3.115 5.333 5.333 0 001.683-5.974c.66-.899 1.036-2 1.036-3.161a5.34 5.34 0 00-.957-3.044 5.332 5.332 0 00-1.53-6.015 5.333 5.333 0 00-3.035-5.415 5.335 5.335 0 00-1.502-2.967 5.298 5.298 0 00-2.832-1.48 5.332 5.332 0 00-4.883-3.19 5.44 5.44 0 00-.453.019 5.334 5.334 0 00-4.165-1.999c-.626 0-1.238.11-1.812.316a5.335 5.335 0 00-3.155-1.032m0 2.633c1.11 0 2.063.669 2.48 1.625a.248.248 0 00.229.148.234.234 0 00.181-.084 2.714 2.714 0 012.778-.88 2.708 2.708 0 011.977 2.218.244.244 0 00.379.162 2.722 2.722 0 011.56-.493 2.707 2.707 0 012.685 3.016.245.245 0 00.325.254c.3-.109.616-.164.93-.164a2.707 2.707 0 012.516 3.701.245.245 0 00.248.33 2.705 2.705 0 012.415 4.308.245.245 0 00.154.382 2.707 2.707 0 011.217 4.786.245.245 0 00.05.409 2.707 2.707 0 01-.059 4.936c-.163.072-.2.294-.063.409a2.706 2.706 0 01-1.339 4.754.245.245 0 00-.161.38 2.706 2.706 0 01-2.551 4.243.245.245 0 00-.227.326 2.706 2.706 0 01-3.537 3.447.232.232 0 00-.086-.017.246.246 0 00-.243.264 2.707 2.707 0 01-4.309 2.415.233.233 0 00-.14-.046.246.246 0 00-.242.2 2.706 2.706 0 01-4.787 1.216.236.236 0 00-.187-.088c-.09 0-.18.048-.222.138a2.708 2.708 0 01-4.936-.058.248.248 0 00-.228-.148.234.234 0 00-.182.084 2.714 2.714 0 01-2.778.88 2.708 2.708 0 01-1.977-2.218.244.244 0 00-.378-.161 2.722 2.722 0 01-1.56.492 2.708 2.708 0 01-2.685-3.017.245.245 0 00-.325-.254 2.716 2.716 0 01-2.844-.627 2.708 2.708 0 01-.604-2.91.245.245 0 00-.247-.328 2.705 2.705 0 01-2.415-4.308.245.245 0 00-.154-.383A2.707 2.707 0 019.25 30.19a.245.245 0 00-.05-.409 2.707 2.707 0 01.06-4.936c.163-.072.2-.294.063-.409a2.707 2.707 0 011.338-4.755.245.245 0 00.162-.379 2.706 2.706 0 012.55-4.243.245.245 0 00.228-.326 2.707 2.707 0 013.537-3.447.232.232 0 00.085.016.246.246 0 00.244-.263 2.707 2.707 0 014.309-2.415.246.246 0 00.382-.154 2.707 2.707 0 014.787-1.216c.047.06.117.088.186.088.09 0 .18-.048.223-.138a2.707 2.707 0 012.455-1.567"/>
    </g>
  </g>
</svg>