<svg xmlns="http://www.w3.org/2000/svg" viewBox="0 0 256 215">
  <defs/>
  <g fill="none" fill-rule="evenodd">
    <path fill="#364548" d="M38.62 173.98v-16.36c0-2.15 1.34-3.87 3.57-3.87h.61c2.23 0 3.57 1.72 3.57 3.87v34.45c0 8.4-4.15 15.08-11.39 19.34a21.37 21.37 0 01-10.94 2.99H22.5c-8.4 0-15.07-4.16-19.34-11.38a21.31 21.31 0 01-2.98-10.95v-1.54c0-8.4 4.15-15.08 11.37-19.34a21.3 21.3 0 0110.95-2.99h1.54c5.69 0 10.5 2.2 14.58 5.78zM7.92 191.3c0 6.07 2.94 10.63 8.26 13.54a14.33 14.33 0 006.94 1.8c5.95 0 10.37-2.8 13.42-7.85a14.54 14.54 0 002.08-7.65c0-5.26-2.5-9.36-6.73-12.41a14.46 14.46 0 00-8.62-2.78c-6.5 0-11.16 3.28-13.97 9.11a14.23 14.23 0 00-1.38 6.24zm65.33-23.1h1.07c8.98 0 15.8 4.36 20.13 12.2a20.83 20.83 0 012.66 10.13v1.54c0 8.4-4.14 15.1-11.38 19.34a21.43 21.43 0 01-10.95 2.99h-1.53c-8.4 0-15.08-4.16-19.34-11.38a21.32 21.32 0 01-3-10.95v-1.54c0-8.4 4.18-15.06 11.39-19.34a21.2 21.2 0 0110.95-2.99zm-14.58 23.1c0 5.89 2.89 10.22 7.86 13.27a14.36 14.36 0 007.64 2.08c5.82 0 10.12-2.95 13.12-7.86a14.4 14.4 0 002.07-7.65c0-5.47-2.64-9.66-7.15-12.69a14.41 14.41 0 00-8.2-2.5c-6.49 0-11.16 3.28-13.96 9.11a14.2 14.2 0 00-1.38 6.24zm70.65-14.73c-1.17-.54-3.36-.73-4.62-.77-6.47-.25-11.16 3.4-13.9 9.1a14.17 14.17 0 00-1.39 6.24c0 6.64 3.49 11.29 9.41 14.12 2.17 1.03 4.96 1.23 7.32 1.23 2.08 0 5.02-1.27 6.87-2.15l.32-.15h1.43l.16.03c1.76.37 3.1 1.48 3.1 3.38v.77c0 4.71-8.63 5.8-11.92 6.02-11.6.8-20.3-5.57-23.6-16.64a20.07 20.07 0 01-.84-5.84v-1.53c0-8.4 4.17-15.06 11.38-19.34a21.21 21.21 0 0110.95-3h1.54c4.13 0 7.93 1.18 11.34 3.5l.28.2.18.3c.37.6.68 1.31.68 2.04v.76c0 1.98-1.48 3.05-3.26 3.39l-.15.03h-.46c-1.16 0-3.78-1.2-4.82-1.69zm25.14 5.25c3-3.01 6.03-6.02 9.08-8.99.85-.82 4.08-4.32 5.35-4.32h1.38l.16.03c1.77.37 3.1 1.49 3.1 3.39v.76c0 1.3-1.52 2.8-2.36 3.7-1.78 1.88-3.65 3.7-5.48 5.55l-9.36 9.5c4.03 4.04 8.06 8.09 12.06 12.16a313.3 313.3 0 013.3 3.4c.38.4.95.9 1.27 1.46.35.53.56 1.12.56 1.76v.8l-.04.18c-.44 1.77-1.56 3.2-3.52 3.2h-.61c-1.29 0-2.73-1.45-3.61-2.28-1.81-1.7-3.56-3.5-5.33-5.25l-5.95-5.84v9.34c0 2.15-1.35 3.88-3.57 3.88h-.61c-2.23 0-3.57-1.73-3.57-3.88v-52.6c0-2.15 1.34-3.87 3.57-3.87h.6c2.23 0 3.58 1.72 3.58 3.87v24.05zm96.58-13.31h.77c2.32 0 3.87 1.56 3.87 3.87 0 3.21-3.07 4.03-5.72 4.03-3.48 0-6.8 2.11-9.2 4.47-3 2.95-4.3 6.73-4.3 10.88v18.76c0 2.15-1.34 3.88-3.57 3.88h-.61c-2.23 0-3.57-1.73-3.57-3.88v-19.84c0-7.61 3.7-13.83 9.89-18.2 3.69-2.6 7.92-3.97 12.44-3.97zm-55.08 37.17c2.82.99 6.04.85 8.93.34 1.48-.63 5.26-2.28 6.66-2.04l.21.04.2.1c.85.41 1.66 1 2.1 1.86 1.01 2.03.52 4.07-1.47 5.22l-.66.38c-7.35 4.24-15.17 3.65-22.5-.3-3.5-1.9-6.18-4.71-8.16-8.14l-.46-.8c-4.72-8.17-4.08-16.77 1.24-24.54a21.2 21.2 0 017.05-6.38l1.06-.62c6.92-4 14.34-3.72 21.45-.21a20.98 20.98 0 019.05 8.4l.39.66c1.55 2.68-.46 5.02-2.53 6.62-2.41 1.86-4.84 4.1-7.15 6.08l-15.4 13.33zm-6.65-4.67c5.75-4.93 11.5-9.87 17.23-14.82 1.96-1.69 4.11-3.44 6.06-5.22-1.56-1.96-4.17-3.38-6.38-4.23-4.47-1.7-8.88-1.13-12.98 1.24-5.37 3.1-7.65 8.03-7.45 14.17a13.6 13.6 0 002.01 6.8c.46.73.96 1.41 1.5 2.06zM147.49 45.73h22.86v23.38h11.56c5.34 0 10.84-.95 15.9-2.67a40.69 40.69 0 007.72-3.49c-3.23-4.21-4.88-9.53-5.36-14.78-.66-7.13.78-16.42 5.6-22l2.4-2.78 2.87 2.3c7.21 5.8 13.28 13.89 14.35 23.12 8.68-2.56 18.87-1.95 26.53 2.47l3.14 1.8-1.65 3.23c-6.48 12.64-20.01 16.55-33.24 15.86-19.8 49.3-62.9 72.65-115.16 72.65-27 0-51.77-10.1-65.87-34.05l-.23-.39-2.06-4.18c-4.77-10.54-6.35-22.1-5.28-33.64l.33-3.45h19.55V45.73h22.86V22.87h45.74V0h27.44v45.73"/>
    <path fill="#22A0C8" d="M221.57 54.38c1.53-11.92-7.38-21.27-12.91-25.72-6.38 7.37-7.37 26.68 2.63 34.8-5.58 4.97-17.34 9.46-29.37 9.46H35.36c-1.17 12.56 1.04 24.14 6.08 34.04l1.66 3.05a56.54 56.54 0 003.46 5.19c6.02.38 11.58.52 16.66.4 9.99-.22 18.14-1.4 24.31-3.54a1.76 1.76 0 011.16 3.33c-.83.29-1.68.55-2.57.8a76.45 76.45 0 01-16.8 2.74c.4.01-.42.06-.42.06l-.75.06c-2.65.15-5.5.18-8.43.18-3.2 0-6.34-.06-9.86-.24l-.09.06c12.21 13.73 31.3 21.96 55.23 21.96 50.65 0 93.61-22.45 112.64-72.86 13.5 1.39 26.46-2.06 32.36-13.57-9.4-5.43-21.48-3.7-28.44-.2"/>
    <path fill="#37B1D9" d="M221.57 54.38c1.53-11.92-7.38-21.27-12.91-25.72-6.38 7.37-7.37 26.68 2.63 34.8-5.58 4.97-17.34 9.46-29.37 9.46H44.04c-.6 19.24 6.54 33.85 19.18 42.68 9.99-.22 18.14-1.4 24.31-3.54a1.76 1.76 0 011.16 3.33c-.83.29-1.68.55-2.57.8a80.38 80.38 0 01-17.25 2.86l-.17-.15c17.24 8.84 42.23 8.8 70.89-2.2 32.13-12.34 62.03-35.86 82.89-62.76l-.92.44"/>
    <path fill="#1B81A5" d="M35.65 88.19a58.57 58.57 0 005.8 18.77l1.66 3.05a56.43 56.43 0 003.46 5.19c6.02.38 11.58.52 16.66.4 9.99-.22 18.14-1.4 24.31-3.54a1.76 1.76 0 011.16 3.33c-.83.29-1.68.55-2.57.8a80.4 80.4 0 01-17.22 2.8c-.23.02-.64.02-.87.03-2.65.15-5.47.24-8.4.24-3.2 0-6.46-.06-9.98-.24 12.21 13.73 31.42 21.99 55.35 21.99 43.36 0 81.09-16.46 102.98-52.82H35.65"/>
    <path fill="#1D91B4" d="M45.37 88.19c2.59 11.82 8.82 21.1 17.86 27.41 9.99-.22 18.14-1.4 24.31-3.54a1.76 1.76 0 011.16 3.33c-.83.29-1.68.55-2.57.8A81.6 81.6 0 0168.8 119c17.23 8.84 42.15 8.72 70.8-2.29 17.34-6.66 34.02-16.57 49-28.51H45.36"/>
    <path fill="#23A3C2" d="M55.26 49.54h19.82v19.82H55.26V49.54zm1.65 1.66h1.57V67.7H56.9V51.2zm2.94 0h1.63V67.7h-1.63V51.2zm3 0h1.63V67.7h-1.63V51.2zm3 0h1.63V67.7h-1.62V51.2zm3.01 0h1.63V67.7h-1.63V51.2zm3 0h1.57V67.7h-1.57V51.2zm6.27-24.52h19.82v19.81H78.13V26.68zm1.65 1.65h1.56v16.51h-1.56V28.33zm2.94 0h1.62v16.51h-1.62V28.33zm3 0h1.63v16.51h-1.63V28.33zm3 0h1.63v16.51h-1.63V28.33zm3 0h1.63v16.51h-1.62V28.33zm3 0h1.57v16.51h-1.56V28.33z"/>
    <path fill="#34BBDE" d="M78.13 49.54h19.82v19.82H78.13V49.54zm1.65 1.66h1.56V67.7h-1.56V51.2zm2.94 0h1.62V67.7h-1.62V51.2zm3 0h1.63V67.7h-1.63V51.2zm3 0h1.63V67.7h-1.63V51.2zm3 0h1.63V67.7h-1.62V51.2zm3 0h1.57V67.7h-1.56V51.2z"/>
    <path fill="#23A3C2" d="M101 49.54h19.81v19.82H101V49.54zm1.64 1.66h1.57V67.7h-1.57V51.2zm2.94 0h1.63V67.7h-1.63V51.2zm3 0h1.63V67.7h-1.62V51.2zm3.01 0h1.63V67.7h-1.63V51.2zm3 0h1.63V67.7h-1.63V51.2zm3 0h1.57V67.7h-1.57V51.2z"/>
    <path fill="#34BBDE" d="M101 26.68h19.81v19.81H101V26.68zm1.64 1.65h1.57v16.51h-1.57V28.33zm2.94 0h1.63v16.51h-1.63V28.33zm3 0h1.63v16.51h-1.62V28.33zm3.01 0h1.63v16.51h-1.63V28.33zm3 0h1.63v16.51h-1.63V28.33zm3 0h1.57v16.51h-1.57V28.33zm6.27 21.21h19.82v19.82h-19.82V49.54zm1.65 1.66h1.56V67.7h-1.56V51.2zm2.94 0h1.63V67.7h-1.63V51.2zm3 0h1.63V67.7h-1.63V51.2zm3 0h1.63V67.7h-1.62V51.2zm3 0h1.64V67.7h-1.63V51.2zm3.01 0h1.57V67.7h-1.57V51.2z"/>
    <path fill="#23A3C2" d="M123.86 26.68h19.82v19.81h-19.82V26.68zm1.65 1.65h1.56v16.51h-1.56V28.33zm2.94 0h1.63v16.51h-1.63V28.33zm3 0h1.63v16.51h-1.63V28.33zm3 0h1.63v16.51h-1.62V28.33zm3 0h1.64v16.51h-1.63V28.33zm3.01 0h1.57v16.51h-1.57V28.33z"/>
    <path fill="#34BBDE" d="M123.86 3.81h19.82v19.82h-19.82V3.81zm1.65 1.65h1.56v16.52h-1.56V5.46zm2.94 0h1.63v16.52h-1.63V5.46zm3 0h1.63v16.52h-1.63V5.46zm3 0h1.63v16.52h-1.62V5.46zm3 0h1.64v16.52h-1.63V5.46zm3.01 0h1.57v16.52h-1.57V5.46z"/>
    <path fill="#23A3C2" d="M146.72 49.54h19.82v19.82h-19.81V49.54zm1.65 1.66h1.57V67.7h-1.56V51.2zm2.94 0h1.63V67.7h-1.62V51.2zm3 0h1.64V67.7h-1.63V51.2zm3.01 0h1.63V67.7h-1.63V51.2zm3 0h1.63V67.7h-1.62V51.2zm3 0h1.57V67.7h-1.56V51.2z"/>
    <path fill="#D3ECEC" d="M96.7 101.5a5.47 5.47 0 110 10.93 5.47 5.47 0 010-10.94"/>
    <path fill="#364548" d="M96.7 103.04c.5 0 .98.1 1.42.27a1.6 1.6 0 00.8 2.98c.6 0 1.13-.34 1.4-.83a3.92 3.92 0 11-3.62-2.42M0 90.16h254.33c-5.54-1.4-17.52-3.3-15.55-10.56-10.07 11.65-34.35 8.18-40.48 2.43-6.82 9.9-46.55 6.14-49.32-1.57-8.56 10.04-35.07 10.04-43.63 0-2.77 7.7-42.5 11.47-49.32 1.57-6.13 5.75-30.41 9.22-40.48-2.43C17.52 86.86 5.54 88.76 0 90.16"/>
    <path fill="#BDD9D7" d="M111.24 140.89c-13.54-6.42-20.97-15.16-25.1-24.7-5.04 1.44-11.08 2.36-18.1 2.75-2.66.15-5.44.23-8.36.23-3.37 0-6.92-.1-10.64-.3 12.42 12.41 27.69 21.96 55.97 22.14 2.1 0 4.16-.04 6.23-.12"/>
    <path fill="#D3ECEC" d="M91.16 125a47.46 47.46 0 01-5.03-8.8c-5.03 1.43-11.07 2.35-18.1 2.74 4.83 2.62 11.73 5.05 23.13 6.05"/>
  </g>
</svg>