<svg xmlns="http://www.w3.org/2000/svg" fill="none" viewBox="0 0 37 33">
  <path fill="#fff" fill-rule="evenodd" d="M19.4602 3.4349c-8.8639 0-13.5014 7.5167-16.0921 14.8621-.3132.888-1.287 1.354-2.175 1.0408-.888-.3132-1.354-1.287-1.0409-2.175C2.7815 9.7082 8.164.0249 19.4602.0249c5.9045 0 10.1395 3.9093 12.879 8.606 2.7469 4.7094 4.2127 10.5419 4.532 15.2537a1.7045 1.7045 0 0 1-.2237.9664c-1.5844 2.7503-4.2202 4.5426-7.2247 5.6404-2.9967 1.0948-6.4678 1.5422-9.9472 1.5435a20.575 20.575 0 0 1-15.7398-6.9022 1.705 1.705 0 0 1-.3238-1.7267l1.5982.5939c-1.5983-.5939-1.5984-.5936-1.5983-.5939l.0038-.01.0083-.0223.0303-.0795a28.474 28.474 0 0 1 .1127-.2889 39.579 39.579 0 0 1 .4174-1.0106c.3559-.8296.8668-1.9476 1.4801-3.0763.6052-1.1139 1.349-2.3112 2.1842-3.2545.7605-.8588 1.9444-1.9087 3.4599-1.919h.0116c1.0716 0 1.9519.4906 2.5856.9623.6387.4755 1.2187 1.0797 1.6836 1.5716l.1556.1649c.4329.459.7639.81 1.0785 1.0729.0353.0295.0678.0556.0974.0785.1023-.1045.2243-.2415.3648-.4157.4998-.6195 1.061-1.4922 1.6042-2.4264.536-.922 1.0239-1.8508 1.3796-2.5532.1772-.3501.3202-.6412.4184-.8437.0491-.1012.0869-.1802.1121-.2331l.0281-.0593.0081-.0172c.3997-.8525 1.4151-1.22 2.2676-.8204.8526.3997 1.2198 1.4148.8202 2.2675l-1.5438-.7237c1.5438.7237 1.5439.7235 1.5438.7237l-.0005.0009-.0007.0016-.0025.0053-.0089.0188-.0328.0691a38.5763 38.5763 0 0 1-.1223.2544 59.2648 59.2648 0 0 1-.4445.8964c-.3734.7375-.8937 1.7287-1.4739 2.7268-.5731.9857-1.2362 2.033-1.898 2.8535-.3282.4068-.7003.8138-1.1026 1.1338-.3557.2829-.983.7007-1.7871.7007-1.0634 0-1.9013-.5937-2.4134-1.0217-.4826-.4033-.9647-.9159-1.3697-1.3465-.0535-.0568-.1056-.1122-.1562-.1657-.4801-.5081-.8726-.9039-1.2414-1.1784-.3215-.2394-.4865-.2798-.5348-.2864l-.0071.0026c-.0539.0196-.3655.1329-.926.7658-.586.6617-1.186 1.6007-1.7408 2.6218-.5467 1.0063-1.012 2.022-1.3425 2.7925a37.8653 37.8653 0 0 0-.1203.2837 17.1653 17.1653 0 0 0 12.4308 5.0026l.0314-.0003c3.2254 0 6.2784-.4179 8.7923-1.3365 2.3136-.8452 4.0782-2.0773 5.1748-3.7131-.3629-4.1872-1.6994-9.2244-4.0337-13.2263-2.443-4.1884-5.758-6.9141-9.9334-6.9141Zm-3.0196 14.4025a.1181.1181 0 0 1 .0218-.013c-.0147.01-.0219.0137-.0218.013Z" clip-rule="evenodd"/>
</svg>