<svg xmlns="http://www.w3.org/2000/svg" viewBox="0 0 78 54">
  <defs/>
  <g fill="none" fill-rule="evenodd">
    <path fill="#4D4D4D" d="M0 53.55h16.8L18 39.149 2.399 35.55zM3 33.149l15 3.601 3.601-12.601L9 17.55zM10.2 15.149l12 6.601 9.6-6.601-9-10.2zM77.399 53.55H60.601l-1.202-14.401L75 35.55zM74.399 33.149l-15 3.601L55.8 24.149l12.599-6.599zM67.2 15.149l-12 6.601-9.599-6.601 9-10.2zM25.8 3.149l9 10.8h8.4l7.8-10.8L43.2.75h-8.611z"/>
    <path fill="#9C0000" d="M0 53.55h16.8L18 39.149 2.399 35.55z"/>
    <path fill="#B50808" d="M3 33.149l15 3.601 3.601-12.601L9 17.55z"/>
    <path fill="#C61818" d="M10.2 15.149l12 6.601 9.6-6.601-9-10.2z"/>
    <path fill="#9C0000" d="M77.399 53.55H60.601l-1.202-14.401L75 35.55z"/>
    <path fill="#B50808" d="M74.399 33.149l-15 3.601L55.8 24.149l12.599-6.599z"/>
    <path fill="#C61818" d="M67.2 15.149l-12 6.601-9.599-6.601 9-10.2z"/>
    <path fill="#CE3129" d="M25.8 3.149l9 10.8h8.4l7.8-10.8L43.2.75h-8.611z"/>
  </g>
</svg>