<?xml version="1.0" standalone="no"?>
<!DOCTYPE svg PUBLIC "-//W3C//DTD SVG 1.1//EN" "http://www.w3.org/Graphics/SVG/1.1/DTD/svg11.dtd" >
<svg>
<defs>
<font id="Exan" horiz-adv-x="600" >
  <font-face 
    font-family="ExanModified"
    font-weight="500"
    font-stretch="normal"
    units-per-em="1000"
    panose-1="0 0 0 0 0 0 0 0 0 0"
    ascent="800"
    descent="-200"
    x-height="700"
    cap-height="700"
    bbox="20 -64 553 700"
    underline-thickness="0"
    underline-position="0"
    unicode-range="U+0020-U+2014"
  />
<missing-glyph horiz-adv-x="472" 
d="M20 700v-700h432v700h-432zM70 50v600h332v-600h-332z" />
    <glyph glyph-name=".notdef" horiz-adv-x="472" 
d="M20 700v-700h432v700h-432zM70 50v600h332v-600h-332z" />
    <glyph glyph-name=".notdef" horiz-adv-x="472" 
d="M20 700v-700h432v700h-432zM70 50v600h332v-600h-332z" />
    <glyph glyph-name=".null" horiz-adv-x="0" 
 />
    <glyph glyph-name="nonmarkingreturn" horiz-adv-x="333" 
 />
    <glyph glyph-name="space" unicode=" " 
 />
    <glyph glyph-name="hyphen" unicode="-" 
 />
    <glyph glyph-name="zero" unicode="0" 
d="M98 44q19 -18 47 -27q22 -7 67 -12q48 -5 88 -5q41 0 89 5q43 5 66 12q25 7 47 26q22 20 32 51q10 30 13 86v340q-3 56 -13 86q-10 31 -32 51q-22 19 -47 26q-27 9 -66 13t-89 4q-49 0 -88 -4q-41 -4 -67 -13q-28 -9 -47 -27q-20 -19 -31 -51q-11 -35 -14 -87v-337
q3 -52 14 -85q10 -33 31 -52zM300 638q60 0 100 -8q34 -7 53 -17q15 -11 15 -12q13 -19 16 -74v-355q-2 -38 -10 -61l-296 513q51 14 122 14zM126 587l296 -511q-51 -14 -122 -14q-79 0 -118 13q-43 14 -50 24q-13 24 -16 75v350q3 45 10 63z" />
    <glyph glyph-name="one" unicode="1" 
d="M354 523q-3 54 -13 84q-10 31 -31 50q-22 19 -45 26q-27 9 -66 13t-86 4h-10v-61h10q53 0 89 -6q36 -7 54 -15q18 -7 21 -14q13 -25 16 -74v-463h-211v-67h437v67h-165v456z" />
    <glyph glyph-name="two" unicode="2" 
d="M301 318q37 0 87 5q44 5 68 12q23 8 41 22l9 8q19 18 30 50q9 31 12 84v22q-3 56 -13 86q-10 31 -32 51q-9 8 -45 21t-80 18q-36 3 -77 3q-50 0 -89 -4q-41 -4 -67 -13q-28 -9 -47 -27q-20 -20 -30 -50q-11 -32 -15 -82v-25h63v25q3 55 16 77q9 10 50 24q40 12 119 12
q77 0 108 -9q33 -9 46 -16q14 -8 14 -9q13 -22 16 -75v-37q-3 -55 -16 -74q0 -2 -15 -11q-19 -10 -53 -17q-40 -8 -100 -8q-47 0 -75 -4q-50 -1 -81 -12q-28 -11 -47 -27q-20 -18 -31 -52q-11 -35 -14 -87v-19q3 -52 14 -85q11 -34 31 -52q22 -19 47 -26q22 -7 67 -12
q48 -5 89 -5h247v63h-252q-55 0 -89 7q-34 6 -54 14q-18 7 -21 14q-13 21 -16 76v32q3 55 16 77q9 11 50 23t119 12z" />
    <glyph glyph-name="three" unicode="3" 
d="M145 17q22 -7 67 -12q48 -5 88 -5q46 0 87 4q47 4 69 12q30 11 46 26q23 20 33 52q10 30 13 86v22q-3 53 -13 83q-11 32 -29 50l-20 15l17 13q21 20 32 52q10 30 13 86v19q-3 56 -13 86q-11 32 -33 51q-19 18 -46 26q-42 16 -154 17h-2q-49 0 -88 -4q-41 -4 -67 -13
q-28 -9 -47 -28q-20 -17 -31 -50t-14 -86l-1 -12h63v18q5 57 17 75q3 6 21 15q16 7 52 15q32 7 85 7h21q75 -2 112 -13q39 -14 45 -24q12 -18 17 -74v-32q-5 -58 -17 -76q-3 -8 -21 -15q-20 -9 -55 -15q-35 -7 -92 -7h-10v-62h10q61 0 101 -8q34 -7 53 -17q15 -10 15 -12
q7 -14 12 -39q4 -24 4 -56q0 -29 -5 -57q-4 -25 -14 -35q-15 -15 -66 -24t-93 -9h-7q-80 0 -119 13q-41 12 -49 24q-13 20 -17 75v27h-62v-26q3 -48 14 -81q9 -28 31 -50q19 -18 47 -27z" />
    <glyph glyph-name="four" unicode="4" 
d="M150 324q24 -8 76 -12q36 -3 74 -3q58 0 96 -8q33 -7 51 -16q15 -9 15 -11q10 -15 15 -62l1 -5v-207h61v700h-61v-361q-5 4 -28 14q-18 6 -65 11q-39 4 -85 4q-76 0 -115 13q-40 12 -48 23q-12 20 -16 73v223h-61v-216q3 -53 13 -83q10 -31 31 -50q18 -17 46 -27z" />
    <glyph glyph-name="five" unicode="5" 
d="M505 335l-9 8q-16 12 -41 22q-22 7 -67 12q-39 4 -88 4q-80 0 -120 13q-41 12 -49 24q-11 19 -16 75v32q5 55 16 76q8 12 47 23q37 11 112 13h172v63h-162q-48 0 -87 -4q-40 -4 -69 -13q-24 -8 -46 -27q-21 -18 -32 -51t-14 -86v-19q3 -53 14 -86t32 -51q22 -19 46 -28
q25 -8 80 -13q38 -3 76 -3q60 0 100 -8q34 -7 53 -17q15 -9 15 -11q13 -19 16 -74v-36q-3 -53 -16 -75q0 -2 -14 -10t-46 -16q-21 -3 -22 -3l-7 -2h-6l-6 -1q-25 -4 -67 -4q-80 0 -120 13q-41 12 -49 24l-39 -50l6 -5q16 -16 46 -27q24 -7 68 -12q48 -5 88 -5t77 3l48 6
l19 4q1 1 2 1q2 1 3 1q2 1 6 1q1 0 4 1.5t8.5 4.5t10.5 5q12 6 24 16q21 20 32 52q12 35 13 85v22q-2 52 -12 83q-10 30 -30 50z" />
    <glyph glyph-name="six" unicode="6" 
d="M548 509v12q-3 69 -22 108q-20 41 -70 56q-22 7 -67 12q-43 3 -90 3q-111 0 -154 -15q-31 -10 -48 -26q-20 -19 -31 -51q-11 -35 -14 -87v-346q0 -25 6 -48l4.5 -19.5t2.5 -11.5q6 -18 13 -28q7 -12 19 -24q11 -12 34 -22q4 -2 8.5 -3.5t5.5 -1.5q45 -17 155 -17h1
q48 0 88 4q43 3 67 11q28 11 47 27q22 20 32 52q10 30 13 86v21q-3 56 -13 85q-11 32 -32 52q-26 21 -54 29q-21 6 -73 11q-29 4 -76 4t-76 -4q-31 -3 -61 -8q-27 -6 -48 -19v174q4 55 16 77q7 10 50 24q39 13 119 13h8q39 0 95 -10q59 -11 66 -27q5 -9 10 -27q4 -13 7 -47
v-19h62zM131 282q7 12 49 25q42 12 120 12t120 -12q42 -13 49 -25q5 -8 10 -28q4 -13 7 -47v-33q-3 -34 -7 -47q-5 -20 -10 -28q-8 -11 -45 -23q-36 -12 -112 -14h-11l-1 -1v1h-9q-76 2 -113 13q-39 12 -47 24q-11 21 -16 75v32q5 58 16 76z" />
    <glyph glyph-name="seven" unicode="7" 
d="M478 656q-20 18 -47 27q-26 9 -67 13q-39 4 -90 4h-199v-63h199q80 0 122 -12q41 -14 48 -25q12 -21 17 -75v-525h10h44h9v518q-3 56 -13 87q-11 31 -33 51z" />
    <glyph glyph-name="eight" unicode="8" 
d="M547 500v19q-3 56 -13 85q-11 32 -32 52q-19 16 -47 27q-29 9 -68 13q-40 4 -87 4t-86 -4q-40 -4 -69 -13q-28 -11 -47 -27q-20 -18 -31 -52q-11 -33 -14 -86v-19q3 -51 14 -84q11 -34 31 -52q7 -7 16 -13l-10 -7l-9 -8q-19 -19 -30 -51t-12 -83v-21q1 -50 13 -85
q11 -32 32 -52q22 -19 47 -26q22 -7 67 -12q48 -5 88 -5t88 5q45 5 67 12q25 7 47 26q21 20 32 52q12 35 13 85v22q-1 51 -12 83q-10 30 -30 50l-9 8q0 1 -2 2l-2 1q-3 3 -6 4q9 6 16 13q21 20 32 52q10 30 13 85zM468 418q-8 -12 -48 -24q-40 -13 -120 -13t-119 13
q-41 12 -49 24q-13 20 -17 75v32q5 57 17 76q8 11 49 24q42 12 119 12t119 -12q41 -13 49 -24q12 -19 17 -76v-31q-5 -58 -17 -76zM468 99q0 -3 -15 -12q-17 -10 -52 -17q-40 -8 -101 -8q-60 0 -100 8q-36 7 -52 17q-16 9 -16 11q-12 19 -17 74v37q4 53 17 74q0 2 16 11
q16 10 52 17q40 8 100 8t100 -8q34 -7 53 -17q15 -9 15 -11q13 -21 17 -73v-37q-4 -55 -17 -74z" />
    <glyph glyph-name="nine" unicode="9" 
d="M502 657q-22 19 -47 27q-24 7 -68 12q-40 4 -85 4h-2q-49 0 -88 -4q-45 -5 -67 -12q-30 -11 -47 -28q-21 -18 -32 -51t-14 -86v-19q3 -53 14 -86t32 -51q27 -32 126 -41q38 -3 76 -3t75 3q56 5 80 14l29 14v-177q-2 -32 -3 -44q-1 -11 -10 -23q-8 -11 -27 -23
q-41 -16 -97 -19h-4q-7 -1 -36 -1h-8q-79 0 -119 13q-41 12 -49 23q-13 24 -16 75v27h-63v-20l1 -5q3 -47 12 -77q9 -31 27 -49l3 -4l3 -3q21 -19 47 -26q24 -7 68 -12q48 -5 86 -5h1q28 0 83 5q49 5 72 12q25 7 47 26q21 20 32 52q12 35 13 86v340q-1 50 -13 85
q-10 31 -32 51zM468 418q-8 -12 -48 -24q-40 -13 -120 -13t-120 13q-41 12 -49 24q-13 24 -16 76v31q3 55 16 76q8 12 47 23q37 11 111 13h21q75 -2 112 -13q38 -12 46 -23q13 -22 16 -75v-32q-3 -52 -16 -76z" />
    <glyph glyph-name="A" unicode="A" 
d="M432 684q-42 16 -132 16q-85 0 -130 -16q-47 -17 -68 -54q-20 -37 -25 -112v-518h63v311h320v-311h63v521q-5 75 -24 111q-20 35 -67 52zM140 378v148q5 56 16 75q22 37 144 37q124 0 144 -36q13 -19 16 -73v-151h-320z" />
    <glyph glyph-name="B" unicode="B" 
d="M268 1h7q66 0 116 5q45 5 74 19q19 10 31 23q38 47 38 156q0 82 -17 122q-19 39 -46 55l-13 8l3 15q9 46 9 92q0 79 -16 121q-17 43 -47 60q-32 18 -85 23h-256v-700h198zM130 634l20 1q13 0 28 1t54 1q80 0 109 -6q29 -7 37 -16q14 -14 21 -44q7 -29 7 -75q0 -50 -6 -72
l-4 -18l-266 4v224zM130 345h229l43 -6q25 -4 35 -11q14 -8 24 -31q10 -24 10 -93q0 -25 -1 -34q-6 -74 -32 -88q-20 -11 -68 -15l-6 -1l-1 -1h-233v280z" />
    <glyph glyph-name="C" unicode="C" 
d="M177 16l22 -8l19 -4l46 -4h249v64h-249q-59 3 -81 16q-13 7 -23 32q-10 23 -10 92v291q0 107 32 124q22 12 71 15l14 1h246v65h-157q-119 -2 -173 -15q-55 -15 -76 -56q-21 -42 -21 -134v-291q0 -91 23 -132t68 -56z" />
    <glyph glyph-name="D" unicode="D" 
d="M275 700h-210v-700h293l46 4l19 5l21 7q45 14 68 56q23 41 23 133v291q0 94 -24 138q-24 42 -75 54q-51 10 -161 12zM472 205q0 -69 -10 -92q-11 -25 -24 -32q-22 -13 -80 -16h-229v572l239 -1q52 -4 71 -16q33 -15 33 -124v-291z" />
    <glyph glyph-name="E" unicode="E" 
d="M176 17l24 -8l18 -4l46 -4l249 -1v64h-248q-57 4 -81 17q-34 19 -34 124v111h363v68h-363v112q0 106 32 124q22 10 72 15l13 1h246v64h-157q-119 -2 -173 -15q-55 -13 -75 -56q-21 -42 -21 -133v-291q0 -91 23 -132t66 -56z" />
    <glyph glyph-name="F" unicode="F" 
d="M182 620q25 11 72 14l13 1h246v65h-167q-109 -1 -160 -12q-51 -12 -75 -54q-24 -44 -24 -139v-495h62v316h364v69h-364v110q0 65 10 89q9 25 23 36z" />
    <glyph glyph-name="G" unicode="G" 
d="M144 17q24 -7 69 -12q48 -5 87 -5q37 0 87 5q49 5 68 11q27 10 47 27q22 20 32 52q12 35 13 85v181h-257v-69h194v-119q-3 -51 -16 -75q0 -2 -15 -10q-19 -10 -53 -17q-40 -8 -100 -8q-78 0 -119 12q-43 12 -50 24q-11 21 -16 76v350q5 55 16 76q7 12 50 24q41 12 119 12
q60 0 100 -8q32 -6 53 -16q15 -9 15 -11q13 -24 16 -75v-7l64 -13l-1 14q-1 50 -13 85q-10 31 -32 51q-20 17 -47 27q-22 7 -67 12q-39 4 -88 4t-88 -4t-68 -13q-31 -12 -46 -28q-22 -19 -32 -50q-11 -33 -14 -86v-338q3 -52 14 -85t32 -51q18 -17 46 -28z" />
    <glyph glyph-name="H" unicode="H" 
d="M83 700v-700h61v300h311l1 -300h61v700h-62v-333h-311v333h-61z" />
    <glyph glyph-name="I" unicode="I" horiz-adv-x="300" 
d="M119 0h62v700h-62v-700z" />
    <glyph glyph-name="J" unicode="J" 
d="M100 42q22 -19 46 -26q22 -7 67 -12q39 -4 87 -4t87 4q43 4 66 12q28 9 47 28q21 20 32 52q10 30 13 84v520h-63v-527q-3 -54 -16 -76q-8 -11 -49 -23q-39 -13 -117 -13q-59 0 -99 8q-35 7 -52 17q-16 9 -16 11q-12 21 -17 74v7l-62 13l1 -14q3 -52 14 -85q10 -31 31 -50
z" />
    <glyph glyph-name="K" unicode="K" 
d="M486 479q-4 -54 -16 -74q0 -2 -14 -10q-14 -10 -47 -17q-33 -8 -87 -9h-208v331h-64v-700h64v305h208q58 -2 93 -10q37 -9 47 -17l8 -8q12 -22 16 -75v-195h63v187q-3 56 -13 85q-11 33 -29 51l-9 7l-11 7l11 7l9 8q18 18 29 51q10 30 13 83v214h-63v-221z" />
    <glyph glyph-name="L" unicode="L" horiz-adv-x="560" 
d="M139 700h-64v-519q3 -52 14 -85q11 -34 32 -52q21 -21 47 -28q22 -7 67 -12q39 -4 89 -4h200v62h-200q-80 0 -120 13q-42 13 -49 25q-12 18 -16 74v526z" />
    <glyph glyph-name="M" unicode="M" 
d="M461 667l-161 -280l-161 280l-23 33h-56v-700h61v576l150 -259h58l150 259v-576h60v700h-56z" />
    <glyph glyph-name="N" unicode="N" 
d="M84 0h62v558l322 -558h49v700h-62v-557l-322 557h-49v-700z" />
    <glyph glyph-name="O" unicode="O" 
d="M503 657q-16 16 -46 27q-24 7 -68 12q-39 4 -88 4t-88 -4q-44 -4 -67 -12q-26 -10 -48 -28q-20 -19 -31 -51q-11 -35 -14 -86v-338q3 -52 14 -85q10 -33 31 -52q20 -18 48 -27q23 -8 67 -12q48 -5 88 -5q49 0 88 4q44 5 68 12q30 11 46 27q23 19 33 51q10 31 12 86v341
q-2 55 -12 86q-10 30 -33 50zM470 98q1 0 -1.5 -1.5t-12.5 -8.5q-18 -11 -55 -18q-40 -8 -100 -8q-57 0 -91 7q-38 8 -55 16q-19 7 -22 14q-13 20 -17 75v351q5 57 17 76q3 7 22 16q18 8 55 15q36 6 91 6q60 0 100 -8q34 -7 53 -17q15 -9 15 -11q13 -21 17 -74v-356
q-4 -52 -16 -74z" />
    <glyph glyph-name="P" unicode="P" 
d="M534 495q0 90 -20 133q-20 42 -75 57q-56 14 -175 15h-199v-700h63v291l230 1l45 4l19 4l22 8q45 13 68 55q22 40 22 132zM437 372q-25 -14 -81 -16h-228v280h225q53 0 84 -17q15 -6 24 -33t9 -91q0 -107 -33 -123z" />
    <glyph glyph-name="Q" unicode="Q" 
d="M547 532q-5 59 -19 89q-7 20 -26 37q-19 18 -46 26q-32 10 -62 11q-40 5 -94 5q-56 0 -96 -5q-41 -5 -59 -11q-29 -10 -47 -28q-16 -13 -25 -34q-15 -32 -20 -89v-4l-1 -11v-338q5 -52 10 -69q11 -45 36 -67q18 -18 47 -27q45 -17 155 -17q40 0 77 3q15 -18 21 -23
q53 -44 118 -44q10 0 24 2q8 2 8 4l-29 55q-30 0 -43 4q-16 5 -25 14l5 1q10 3 26 13q15 8 20 13q17 15 25 35q8 14 12 34q6 29 9 69v341v5q0 4 -1 6zM482 144q-7 -34 -13 -46q1 0 -1.5 -1.5t-12.5 -8.5q-18 -11 -55 -18q-40 -8 -100 -8q-56 0 -91 7q-37 6 -55 15
q-19 9 -22 15q-10 15 -13 44q-3 19 -4 31v351q3 42 9 58q3 9 8 18q3 6 27 17q23 10 67 16q23 3 74 3q44 0 66 -3q44 -5 61 -11q22 -7 32 -13l9 -8q3 -6 9 -20q5 -24 7 -54v-355q0 -5 -2 -29z" />
    <glyph glyph-name="R" unicode="R" 
d="M413 300l22 8q45 15 67 55t22 133q0 94 -24 138q-24 43 -75 55q-53 11 -160 11h-210v-700h64v291l222 1l136 -292h69l-139 298zM119 355v281l239 -1q49 -4 71 -16q33 -17 33 -123q0 -69 -10 -92q-11 -25 -24 -32q-27 -14 -80 -17h-229z" />
    <glyph glyph-name="S" unicode="S" 
d="M54 201v-20l1 -6q3 -48 14 -81q10 -30 30 -50q19 -20 48 -27q22 -7 67 -12q48 -5 88 -5q30 0 39 1h3q4 0 34 2q18 2 47 6l14.5 3.5t17.5 3.5l26 11q15 10 17 13l4 3l2 3q20 20 30 51q11 32 12 83v21q-1 51 -12 83q-10 30 -30 50l-8 8q-18 16 -41 23q-25 7 -69 12
q-39 4 -86 4q-79 0 -119 13q-42 12 -50 23q-13 26 -16 75v32q3 55 16 76q7 12 49 25q42 12 120 12q59 0 99 -8q34 -7 53 -17q15 -9 15 -11q13 -16 18 -74v-19h61v13q-2 54 -12 85q-10 32 -33 51q-17 15 -46 26q-29 9 -67 13q-39 4 -88 4t-88 -4q-41 -4 -67 -13
q-27 -11 -48 -27q-20 -19 -31 -51q-11 -35 -14 -86v-19q3 -52 14 -85q10 -33 31 -52q24 -21 48 -28q21 -7 80 -12q28 -4 75 -4q59 0 99 -8q32 -6 53 -16q15 -9 15 -11q14 -23 18 -74v-37q-5 -55 -18 -75q-6 -7 -20 -14q-18 -8 -49 -14q-22 -4 -32 -5q-24 -3 -44 -3h-11h-11
q-56 0 -91 7q-38 8 -55 16q-18 7 -23 14q-13 24 -16 75v27h-63z" />
    <glyph glyph-name="T" unicode="T" 
d="M265 0h67v632h217v68h-498v-68h214v-632z" />
    <glyph glyph-name="U" unicode="U" 
d="M97 44q18 -18 47 -27q24 -7 68 -12q48 -5 88 -5q49 0 89 4q45 5 67 12q29 11 47 27q23 20 33 52q12 35 13 86v519h-63v-526q-5 -56 -16 -75q0 -2 -15 -11q-18 -10 -54 -17q-40 -8 -101 -8q-80 0 -120 13q-41 12 -49 24q-12 19 -17 75v525h-63v-518q3 -53 14 -86
q11 -34 32 -52z" />
    <glyph glyph-name="V" unicode="V" 
d="M485 388l-184 -315l-167 288l-18 28v311h-63v-324l217 -376h56l167 281l55 102v317h-63v-312z" />
    <glyph glyph-name="W" unicode="W" 
d="M480 124l-150 260h-60l-149 -260v576h-61v-700h56l23 34l161 278l162 -279l22 -33h56v700h-60v-576z" />
    <glyph glyph-name="X" unicode="X" 
d="M138 195q3 53 16 75q6 9 42 21t104 15q68 -3 104 -15q37 -12 44 -21q12 -22 16 -74v-196h63v188q-2 52 -12 83q-11 31 -30 51l-10 8q-1 1 -9 7l9 7l10 8q19 19 30 52q11 32 12 83v213h-63v-221q-5 -54 -16 -75q-3 -5 -19 -12q-17 -8 -48 -15q-28 -6 -80 -8q-66 1 -104 14
q-37 12 -43 21q-13 22 -16 75v221h-64v-214q3 -53 13 -83q11 -31 30 -51l9 -8l2 -1q2 -1 2 -2q3 -3 6 -4h-1q-8 -6 -9 -7l-9 -8q-20 -20 -30 -50q-10 -29 -13 -85v-187h64v195z" />
    <glyph glyph-name="Y" unicode="Y" 
d="M84 700v-187q4 -73 24 -108q19 -35 65 -52q36 -13 101 -16v-337h60v338q57 3 93 15q47 17 66 51q18 33 23 107v189h-61v-196q-3 -50 -16 -72q-20 -35 -139 -35q-120 0 -139 36q-13 21 -16 73v194h-61z" />
    <glyph glyph-name="Z" unicode="Z" 
d="M485 173q-4 -55 -16 -74q-11 -11 -45 -24q-33 -13 -124 -13q-82 0 -129 16l333 577l-7 6q-10 10 -39 22l-2 1q-22 7 -67 12q-40 4 -89 4t-88 -4q-41 -4 -67 -13q-28 -9 -47 -27q-20 -19 -31 -51q-11 -35 -14 -86l-1 -11h64v17q3 54 16 76q7 10 50 24q39 13 118 13
q66 0 115 -11l-325 -563v-1l-1 -2l-1 -6l4 -5l6 -6q14 -12 31 -20l3 -2l13 -6q22 -7 67 -12q39 -4 88 -4t89 4q45 5 67 12q28 10 47 26q22 20 32 52q10 30 13 86v21h-63v-28z" />
    <glyph glyph-name="a" unicode="a" 
d="M476 0h47v521q-5 75 -24 111q-22 36 -68 52q-45 16 -131 16q-84 0 -130 -17q-48 -17 -68 -53q-20 -37 -25 -112v-518h63v525l3 32zM179 621q40 17 121 17q124 0 144 -36q12 -20 16 -74v-394z" />
    <glyph glyph-name="b" unicode="b" 
d="M268 1h7q66 0 116 5q45 5 74 19q19 10 31 23q38 47 38 156q0 82 -17 122q-19 39 -46 55l-13 8l3 15q9 46 9 92q0 79 -16 121q-17 43 -47 60q-32 18 -85 23h-256v-700h198zM130 634l20 1q13 0 28 1t54 1q80 0 109 -6q29 -7 37 -16q14 -14 21 -44q7 -29 7 -75q0 -50 -6 -72
l-4 -18l-266 4v224zM130 345h229l43 -6q25 -4 35 -11q14 -8 24 -31q10 -24 10 -93q0 -25 -1 -34q-6 -74 -32 -88q-20 -11 -68 -15l-6 -1l-1 -1h-233v280z" />
    <glyph glyph-name="c" unicode="c" 
d="M177 16l22 -8l19 -4l46 -4h249v64h-249q-59 3 -81 16q-13 7 -23 32q-10 23 -10 92v291q0 107 32 124q22 12 71 15l14 1h246v65h-157q-119 -2 -173 -15q-55 -15 -76 -56q-21 -42 -21 -134v-291q0 -91 23 -132t68 -56z" />
    <glyph glyph-name="d" unicode="d" 
d="M275 700h-210v-700h293l46 4l19 5l21 7q45 14 68 56q23 41 23 133v291q0 94 -24 138q-24 42 -75 54q-51 10 -161 12zM472 205q0 -69 -10 -92q-11 -25 -24 -32q-22 -13 -80 -16h-229v572l239 -1q52 -4 71 -16q33 -15 33 -124v-291z" />
    <glyph glyph-name="e" unicode="e" 
d="M176 17l24 -8l18 -4l46 -4l249 -1v64h-248q-57 4 -81 17q-34 19 -34 124v111h363v68h-363v112q0 106 32 124q22 10 72 15l13 1h246v64h-157q-119 -2 -173 -15q-55 -13 -75 -56q-21 -42 -21 -133v-291q0 -91 23 -132t66 -56z" />
    <glyph glyph-name="f" unicode="f" 
d="M182 620q25 11 72 14l13 1h246v65h-167q-109 -1 -160 -12q-51 -12 -75 -54q-24 -44 -24 -139v-495h62v316h364v69h-364v110q0 65 10 89q9 25 23 36z" />
    <glyph glyph-name="g" unicode="g" 
d="M144 17q24 -7 69 -12q48 -5 87 -5q37 0 87 5q49 5 68 11q27 10 47 27q22 20 32 52q12 35 13 85v181h-257v-69h194v-119q-3 -51 -16 -75q0 -2 -15 -10q-19 -10 -53 -17q-40 -8 -100 -8q-78 0 -119 12q-43 12 -50 24q-11 21 -16 76v350q5 55 16 76q7 12 50 24q41 12 119 12
q60 0 100 -8q32 -6 53 -16q15 -9 15 -11q13 -24 16 -75v-7l64 -13l-1 14q-1 50 -13 85q-10 31 -32 51q-20 17 -47 27q-22 7 -67 12q-39 4 -88 4t-88 -4t-68 -13q-31 -12 -46 -28q-22 -19 -32 -50q-11 -33 -14 -86v-338q3 -52 14 -85t32 -51q18 -17 46 -28z" />
    <glyph glyph-name="h" unicode="h" 
d="M83 700v-700h61v300h311l1 -300h61v700h-62v-333h-311v333h-61z" />
    <glyph glyph-name="i" unicode="i" horiz-adv-x="300" 
d="M119 0h62v700h-62v-700z" />
    <glyph glyph-name="j" unicode="j" 
d="M246 700h299v-520q-3 -54 -13 -84q-11 -32 -32 -52q-19 -19 -47 -28q-23 -8 -66 -12q-39 -4 -87 -4t-87 4q-45 5 -67 12q-24 7 -46 26q-21 19 -31 50q-11 33 -14 85l-1 14l62 -13v-7q5 -53 17 -74q0 -2 16 -11q16 -10 52 -17q40 -8 99 -8q78 0 117 13q41 12 49 23
q13 22 16 76v464h-236v63z" />
    <glyph glyph-name="k" unicode="k" 
d="M329 385l181 315h-71l-331 -571v571h-62v-700h57l190 322l187 -322h73z" />
    <glyph glyph-name="l" unicode="l" 
d="M139 700h-64v-519q3 -52 14 -85q11 -34 32 -52q21 -21 47 -28q22 -7 67 -12q39 -4 89 -4h200v62h-200q-80 0 -120 13q-42 13 -49 25q-12 18 -16 74v526z" />
    <glyph glyph-name="m" unicode="m" 
d="M461 667l-161 -280l-161 280l-23 33h-56v-700h61v576l150 -259h58l150 259v-576h60v700h-56z" />
    <glyph glyph-name="n" unicode="n" 
d="M84 0h62v558l322 -558h49v700h-62v-557l-322 557h-49v-700z" />
    <glyph glyph-name="o" unicode="o" 
d="M98 44q19 -18 47 -27q22 -7 67 -12q48 -5 88 -5q41 0 89 5q43 5 66 12q25 7 47 26q22 20 32 51q10 30 13 86v340q-3 56 -13 86q-10 31 -32 51q-22 19 -47 26q-27 9 -66 13t-89 4q-49 0 -88 -4q-41 -4 -67 -13q-28 -9 -47 -27q-20 -19 -31 -51q-11 -35 -14 -87v-337
q3 -52 14 -85q10 -33 31 -52zM300 638q60 0 100 -8q34 -7 53 -17q15 -11 15 -12q13 -19 16 -74v-355q-2 -38 -10 -61l-296 513q51 14 122 14zM126 587l296 -511q-51 -14 -122 -14q-79 0 -118 13q-43 14 -50 24q-13 24 -16 75v350q3 45 10 63z" />
    <glyph glyph-name="p" unicode="p" 
d="M534 495q0 90 -20 133q-20 42 -75 57q-56 14 -175 15h-199v-700h63v291l230 1l45 4l19 4l22 8q45 13 68 55q22 40 22 132zM437 372q-25 -14 -81 -16h-228v280h225q53 0 84 -17q15 -6 24 -33t9 -91q0 -107 -33 -123z" />
    <glyph glyph-name="q" unicode="q" 
d="M547 532q-5 59 -19 89q-7 20 -26 37q-19 18 -46 26q-32 10 -62 11q-40 5 -94 5q-56 0 -96 -5q-41 -5 -59 -11q-29 -10 -47 -28q-16 -13 -25 -34q-15 -32 -20 -89v-4l-1 -11v-338q5 -52 10 -69q11 -45 36 -67q18 -18 47 -27q45 -17 155 -17q40 0 77 3q15 -18 21 -23
q53 -44 118 -44q10 0 24 2q8 2 8 4l-29 55q-30 0 -43 4q-16 5 -25 14l5 1q10 3 26 13q15 8 20 13q17 15 25 35q8 14 12 34q6 29 9 69v341v5q0 4 -1 6zM482 144q-7 -34 -13 -46q1 0 -1.5 -1.5t-12.5 -8.5q-18 -11 -55 -18q-40 -8 -100 -8q-56 0 -91 7q-37 6 -55 15
q-19 9 -22 15q-10 15 -13 44q-3 19 -4 31v351q3 42 9 58q3 9 8 18q3 6 27 17q23 10 67 16q23 3 74 3q44 0 66 -3q44 -5 61 -11q22 -7 32 -13l9 -8q3 -6 9 -20q5 -24 7 -54v-355q0 -5 -2 -29z" />
    <glyph glyph-name="r" unicode="r" 
d="M413 300l22 8q45 15 67 55t22 133q0 94 -24 138q-24 43 -75 55q-53 11 -160 11h-210v-700h64v291l222 1l136 -292h69l-139 298zM119 355v281l239 -1q49 -4 71 -16q33 -17 33 -123q0 -69 -10 -92q-11 -25 -24 -32q-27 -14 -80 -17h-229z" />
    <glyph glyph-name="s" unicode="s" 
d="M54 201v-20l1 -6q3 -48 14 -81q10 -30 30 -50q19 -20 48 -27q22 -7 67 -12q48 -5 88 -5q30 0 39 1h3q4 0 34 2q18 2 47 6l14.5 3.5t17.5 3.5l26 11q15 10 17 13l4 3l2 3q20 20 30 51q11 32 12 83v21q-1 51 -12 83q-10 30 -30 50l-8 8q-18 16 -41 23q-25 7 -69 12
q-39 4 -86 4q-79 0 -119 13q-42 12 -50 23q-13 26 -16 75v32q3 55 16 76q7 12 49 25q42 12 120 12q59 0 99 -8q34 -7 53 -17q15 -9 15 -11q13 -16 18 -74v-19h61v13q-2 54 -12 85q-10 32 -33 51q-17 15 -46 26q-29 9 -67 13q-39 4 -88 4t-88 -4q-41 -4 -67 -13
q-27 -11 -48 -27q-20 -19 -31 -51q-11 -35 -14 -86v-19q3 -52 14 -85q10 -33 31 -52q24 -21 48 -28q21 -7 80 -12q28 -4 75 -4q59 0 99 -8q32 -6 53 -16q15 -9 15 -11q14 -23 18 -74v-37q-5 -55 -18 -75q-6 -7 -20 -14q-18 -8 -49 -14q-22 -4 -32 -5q-24 -3 -44 -3h-11h-11
q-56 0 -91 7q-38 8 -55 16q-18 7 -23 14q-13 24 -16 75v27h-63z" />
    <glyph glyph-name="t" unicode="t" 
d="M265 0h67v632h217v68h-498v-68h214v-632z" />
    <glyph glyph-name="u" unicode="u" 
d="M97 44q18 -18 47 -27q24 -7 68 -12q48 -5 88 -5q49 0 89 4q45 5 67 12q29 11 47 27q23 20 33 52q12 35 13 86v519h-63v-526q-5 -56 -16 -75q0 -2 -15 -11q-18 -10 -54 -17q-40 -8 -101 -8q-80 0 -120 13q-41 12 -49 24q-12 19 -17 75v525h-63v-518q3 -53 14 -86
q11 -34 32 -52z" />
    <glyph glyph-name="v" unicode="v" 
d="M485 388l-184 -315l-167 288l-18 28v311h-63v-324l217 -376h56l167 281l55 102v317h-63v-312z" />
    <glyph glyph-name="w" unicode="w" 
d="M480 124l-150 260h-60l-149 -260v576h-61v-700h56l23 34l161 278l162 -279l22 -33h56v700h-60v-576z" />
    <glyph glyph-name="x" unicode="x" 
d="M138 195q3 53 16 75q6 9 42 21t104 15q68 -3 104 -15q37 -12 44 -21q12 -22 16 -74v-196h63v188q-2 52 -12 83q-11 31 -30 51l-10 8q-1 1 -9 7l9 7l10 8q19 19 30 52q11 32 12 83v213h-63v-221q-5 -54 -16 -75q-3 -5 -19 -12q-17 -8 -48 -15q-28 -6 -80 -8q-66 1 -104 14
q-37 12 -43 21q-13 22 -16 75v221h-64v-214q3 -53 13 -83q11 -31 30 -51l9 -8l2 -1q2 -1 2 -2q3 -3 6 -4h-1q-8 -6 -9 -7l-9 -8q-20 -20 -30 -50q-10 -29 -13 -85v-187h64v195z" />
    <glyph glyph-name="y" unicode="y" 
d="M84 700v-187q4 -73 24 -108q19 -35 65 -52q36 -13 101 -16v-337h60v338q57 3 93 15q47 17 66 51q18 33 23 107v189h-61v-196q-3 -50 -16 -72q-20 -35 -139 -35q-120 0 -139 36q-13 21 -16 73v194h-61z" />
    <glyph glyph-name="z" unicode="z" 
d="M485 173q-4 -55 -16 -74q-11 -11 -45 -24q-33 -13 -124 -13q-82 0 -129 16l333 577l-7 6q-10 10 -39 22l-2 1q-22 7 -67 12q-40 4 -89 4t-88 -4q-41 -4 -67 -13q-28 -9 -47 -27q-20 -19 -31 -51q-11 -35 -14 -86l-1 -11h64v17q3 54 16 76q7 10 50 24q39 13 118 13
q66 0 115 -11l-325 -563v-1l-1 -2l-1 -6l4 -5l6 -6q14 -12 31 -20l3 -2l13 -6q22 -7 67 -12q39 -4 88 -4t89 4q45 5 67 12q28 10 47 26q22 20 32 52q10 30 13 86v21h-63v-28z" />
    <glyph glyph-name="endash" unicode="&#x2013;" 
 />
    <glyph glyph-name="emdash" unicode="&#x2014;" 
d="M548 317h-496v66h496v-66z" />
  </font>
</defs>
</svg>
