<svg xmlns="http://www.w3.org/2000/svg" fill="none" viewBox="0 0 12 9">
  <path fill="#fff" d="M10.743.374a.674.674 0 0 0-.141 0H.968a.674.674 0 0 0-.182.028l4.971 5.06L10.743.374Z"/>
  <path fill="#fff" d="m11.252.862-5.01 5.1a.68.68 0 0 1-.97 0L.307.9a.718.718 0 0 0-.024.176V8.11c0 .187.073.366.202.498a.68.68 0 0 0 .486.206h9.634a.68.68 0 0 0 .487-.206.711.711 0 0 0 .201-.498V1.077a.716.716 0 0 0-.041-.215ZM1.442 8.11H.965v-.503l2.502-2.535.485.496L1.443 8.11Zm9.156 0h-.482L7.609 5.568l.485-.496 2.502 2.535.003.503Z"/>
</svg>