<svg xmlns="http://www.w3.org/2000/svg" viewBox="0 0 512 512">
  <defs/>
  <path fill="#526065" d="M437.02 74.98C388.67 26.63 324.38 0 256 0S123.33 26.63 74.98 74.98C26.63 123.33 0 187.62 0 256s26.63 132.67 74.98 181.02C123.33 485.37 187.62 512 256 512s132.67-26.63 181.02-74.98C485.37 388.67 512 324.38 512 256s-26.63-132.67-74.98-181.02zM256 30c60.37 0 117.12 23.5 159.8 66.2a227.39 227.39 0 0134.85 44.8H256c-54.97 0-101.05 38.78-112.34 90.41l-66-114.3A229.55 229.55 0 0196.2 96.2 224.52 224.52 0 01256 30zm85 226c0 46.87-38.13 85-85 85s-85-38.13-85-85 38.13-85 85-85 85 38.13 85 85zm-311 0c0-39.56 10.1-77.57 29.07-111.09l96.62 167.34.41.67C175.93 347.59 213.28 371 256 371c12.15 0 23.87-1.9 34.88-5.41L224.9 479.87c-48.57-6.64-93.44-28.8-128.7-64.06A224.52 224.52 0 0130 256zm385.8 159.8a224.47 224.47 0 01-157.47 66.17l96.61-167.34.3-.59A114.3 114.3 0 00371 256c0-33.64-14.52-63.95-37.62-85h132.14A225.7 225.7 0 01482 256c0 60.37-23.5 117.12-66.2 159.8z"/>
</svg>