<svg width="43" height="48" fill="none" xmlns="http://www.w3.org/2000/svg">
  <path fill-rule="evenodd" clip-rule="evenodd" d="M21.3525 24.248V48c.4136 0 .6854-.0898 1.0566-.3018l19.019-10.8678c.7508-.4304 1.057-1.0968 1.057-1.9624V12.8303c0-.4342-.0915-.694-.3024-1.0566L21.9609 23.1995c-.3762.215-.6084.6152-.6084 1.0485zm10.566 13.6389c0 .6037-.2263.9056-.7546 1.2076l-6.3397 3.6226c-.4527.3017-1.0566.151-1.0566-.4529v-16.151c0-.432.3802-.9919.7547-1.2075l14.4907-8.3018c.4025-.2317.7546.1393.7546.6037v8.6039c0 .4459-.2103.8467-.6039 1.0566l-6.4904 3.4716c-.3936.2099-.7548.6105-.7548 1.0566v6.4906z" fill="#999"/>
  <path fill-rule="evenodd" clip-rule="evenodd" d="M.219971 34.8678V12.8302c0-.8667.455077-1.6832 1.207539-2.1132L19.8425.301881C20.2393.0916235 20.8991 0 21.352 0c.4529 0 1.1514.112145 1.5095.301886L41.1256 10.717c.3613.2135.8523.7053 1.0566 1.0566L21.9557 23.2453c-.3762.2149-.6037.6232-.6037 1.0565V48c-.4135 0-.8363-.0899-1.2075-.3019L1.57846 36.9811C.825974 36.551.219971 35.7345.219971 34.8678zM2.93695 17.2075v8.6038c0 .6037.15095.9056.75472 1.2076l6.33963 3.6226c.6038.3019.7547.7546.7547 1.2075v6.0377c0 .6037.1509.9057.7547 1.2076l6.3396 3.6226c.6037.302 1.0566.151 1.0566-.4529V26.1133c0-.4529-.1509-.9059-.7546-1.2076l-14.18875-8.151c-.45283-.3019-1.0566-.151-1.0566.4528zM27.6917 6.94338l-5.585 3.16982c-.4527.3019-1.0566.3019-1.5093 0l-5.585-3.16982c-.3676-.20779-.8393-.20672-1.2075 0L6.86148 10.8679c-.60378.3019-.60378.9057 0 1.2075l13.88672 8c.3716.2128.836.2128 1.2075 0l13.8868-8c.453-.3018.6039-.9056 0-1.2075l-6.9433-3.92452c-.3683-.20672-.8399-.20779-1.2075 0z" fill="#F2F2F2"/>
</svg>
