<svg xmlns="http://www.w3.org/2000/svg" fill="none" viewBox="0 0 45 49">
  <defs/>
  <path stroke="#526065" d="M31.5352 19.8818h.5v-.5c0-3.0787-.6702-5.7553-2.3371-7.6655-1.6783-1.9233-4.2892-2.98247-7.9749-2.98247C13.83 8.73379 5.85087 13.3928 1.3251 19.5188 3.3237 8.80824 11.441.540039 23.2539.540039c10.7991 0 21.0376 8.247471 21.0376 22.011961v4.844H14.1296v.5c0 3.808 1.6731 6.5001 4.2237 8.2199 2.5264 1.7035 5.8828 2.4356 9.2669 2.4356 4.119 0 7.4563-.9255 9.7666-1.853 1.1553-.4638 2.0547-.9285 2.668-1.2792.056-.032.1096-.063.1608-.093v8.9881c-.1651.09-.4134.2202-.7406.3772-.6545.3142-1.6241.7355-2.8728 1.1577-2.4979.8443-6.1098 1.6907-10.5519 1.6907-11.4522 0-19.47713-8.186-19.47713-18.3291 0-7.2218 3.95113-13.1202 9.65793-16.1215-.9057 1.3513-1.437 2.6592-1.7486 3.7274-.2187.7497-.3295 1.3824-.3856 1.8311-.0281.2244-.0426.4032-.05.5279-.0037.0624-.0057.1113-.0068.1457-.0005.0172-.0008.0308-.0009.0407l-.0002.0119v.0057c0 .0003 0 .0005.5.002l-.5-.0015-.0015.5015H31.5352z"/>
</svg>
