<svg xmlns="http://www.w3.org/2000/svg" viewBox="0 0 368 368">
  <defs/>
  <path fill="#526065" d="M184 0C82.54 0 0 82.54 0 184s82.54 184 184 184 184-82.54 184-184S285.46 0 184 0zm0 352c-92.64 0-168-75.36-168-168S91.36 16 184 16s168 75.36 168 168-75.36 168-168 168zm0 0"/>
  <path fill="#526065" d="M260.85 96.65L149 144.59l-.14.06a8 8 0 00-4.2 4.2l-.06.13v.01L96.65 260.84a8 8 0 0010.5 10.51L219 223.41l.14-.06a8 8 0 004.2-4.2l.06-.13V219l47.94-111.85a8 8 0 00-10.5-10.51zM154.7 166.02l47.28 47.28-82.76 35.48zm58.6 35.96l-47.28-47.28 82.76-35.48zm0 0"/>
</svg>