<svg xmlns="http://www.w3.org/2000/svg" viewBox="0 0 240 234"><rect width="240" height="234" fill="#00005b" rx="42.5"/><path fill="#99f" d="M96.415 140H59.224l-7.567 23.551A1.894 1.894 0 0 1 49.725 165H30.888q-1.612 0-1.127-1.771l32.2-92.353c.322-.966.644-1.91.966-3.145a34.4 34.4 0 0 0 .644-6.52.997.997 0 0 1 1.127-1.128h25.599q1.124 0 1.288.806l36.547 102.501q.483 1.611-.966 1.61h-20.93a1.49 1.49 0 0 1-1.61-1.127ZM65.02 120.142h25.438q-.966-3.218-2.254-7.245-1.29-4.022-2.737-8.613l-2.898-9.177q-1.449-4.589-2.657-8.855-1.207-4.264-2.173-7.809h-.161a130 130 0 0 1-3.381 12.88q-2.257 7.245-4.589 14.812-2.335 7.57-4.588 14.007m122.36 10.691h-31.716a22.6 22.6 0 0 0 3.059 8.87 16.56 16.56 0 0 0 7.325 6.038 30.6 30.6 0 0 0 12.8 2.509 58 58 0 0 0 10.384-1.14 38.3 38.3 0 0 0 8.929-2.328q.804-.642.805.806v15.295a2.4 2.4 0 0 1-.242 1.207 2.3 2.3 0 0 1-.725.724 41 41 0 0 1-9.974 2.972 70.8 70.8 0 0 1-14.168 1.207q-11.434 0-19.16-3.542a34.15 34.15 0 0 1-12.557-9.499 37.2 37.2 0 0 1-6.923-13.121 51.7 51.7 0 0 1-2.093-14.57 50.8 50.8 0 0 1 2.495-15.86 41.4 41.4 0 0 1 7.487-13.684 36 36 0 0 1 12.075-9.5c4.722-2.306 10.304-3.134 16.744-3.134a36.3 36.3 0 0 1 15.536 3.06 27.4 27.4 0 0 1 10.546 7.964 36.6 36.6 0 0 1 5.957 11.35 40.5 40.5 0 0 1 1.932 12.236q0 3.544-.242 6.44-.24 2.898-.402 4.186a1.46 1.46 0 0 1-1.45 1.288q-.965 0-3.3.242-2.335.241-5.796.322c-2.31.055-4.75-.338-7.325-.338Zm-31.716-14.666h21.09q3.865 0 5.716-.08a5.6 5.6 0 0 0 2.335-.775v-.966a12.9 12.9 0 0 0-.644-3.703 13.15 13.15 0 0 0-13.04-9.177 13.99 13.99 0 0 0-13.283 7.567 23.3 23.3 0 0 0-2.174 7.134"/></svg>