<svg xmlns="http://www.w3.org/2000/svg" viewBox="0 0 240 234">
  <g>
    <g>
      <rect width="240" height="234" fill="#00005b" rx="42.5"/>
    </g>
    <path fill="#99f" d="M96.415 140H59.2236l-7.5669 23.551a1.8936 1.8936 0 0 1-1.932 1.449h-18.837q-1.6113 0-1.127-1.771l32.2002-92.3528c.3218-.9658.644-1.91.9658-3.1454a34.395 34.395 0 0 0 .644-6.5203.9966.9966 0 0 1 1.127-1.1272H90.297q1.1242 0 1.288.8052L128.132 163.39q.4826 1.6113-.9659 1.6101h-20.9302a1.488 1.488 0 0 1-1.6098-1.127ZM65.02 120.1423h25.438q-.966-3.2186-2.2544-7.245-1.2905-4.0225-2.7368-8.6136-1.4487-4.5883-2.898-9.177-1.4487-4.5883-2.6568-8.855-1.207-4.2638-2.1733-7.8084h-.1611a129.838 129.838 0 0 1-3.3809 12.88q-2.2566 7.245-4.5884 14.812-2.3356 7.5695-4.5883 14.007Zm122.3609 10.691H155.664a22.6179 22.6179 0 0 0 3.059 8.8706 16.5644 16.5644 0 0 0 7.3252 6.0373 30.5893 30.5893 0 0 0 12.7998 2.5088 58.0028 58.0028 0 0 0 10.3843-1.1401 38.2738 38.2738 0 0 0 8.9283-2.3275c.5356-.4275.8052-.1609.8052.8052v15.295a2.3844 2.3844 0 0 1-.2417 1.2075 2.3098 2.3098 0 0 1-.7247.7243 40.9437 40.9437 0 0 1-9.9746 2.9715 70.761 70.761 0 0 1-14.168 1.2075q-11.4338 0-19.1592-3.542a34.1467 34.1467 0 0 1-12.5576-9.499 37.1975 37.1975 0 0 1-6.9233-13.1216 51.6676 51.6676 0 0 1-2.0928-14.5705 50.7458 50.7458 0 0 1 2.4956-15.8584 41.4246 41.4246 0 0 1 7.4864-13.6851 35.9638 35.9638 0 0 1 12.0752-9.499c4.7217-2.3069 10.3037-3.1344 16.7436-3.1344a36.3346 36.3346 0 0 1 15.5367 3.0588 27.3821 27.3821 0 0 1 10.5454 7.9645 36.6155 36.6155 0 0 1 5.957 11.3506 40.448 40.448 0 0 1 1.9321 12.236q0 3.5432-.2417 6.44-.241 2.8979-.4023 4.186a1.4587 1.4587 0 0 1-1.4493 1.2881q-.966 0-3.3003.2415-2.3357.2413-5.7959.322c-2.3095.0552-4.7495-.3376-7.3256-.3376Zm-31.7168-14.6666h21.0908q3.8642 0 5.7153-.0806a5.6242 5.6242 0 0 0 2.335-.7738v-.9661a12.8804 12.8804 0 0 0-.644-3.7029 13.1526 13.1526 0 0 0-13.041-9.177 13.9859 13.9859 0 0 0-13.2827 7.5669 23.2892 23.2892 0 0 0-2.1734 7.1335Z" />
  </g>
</svg>