<svg xmlns="http://www.w3.org/2000/svg" fill="none" viewBox="0 0 29 29">
  <path fill="#fff" d="M17.796 19.8318h3.0241L16.0014 7.319H12.67L7.8513 19.8318h3.0241l.7932-2.1218h4.551l-.823-2.3499h-3.0042l1.9532-5.3839 3.4504 9.8556Zm9.9646-9.2706c-.109-.3767-.5056-.6048-.8923-.5056-.3768.1091-.6048.5057-.5057.8923.2975 1.0907.4561 2.221.4561 3.3513 0 6.9108-5.6218 12.5425-12.5425 12.5425S1.7337 21.2199 1.7337 14.3091 7.3655 1.7666 14.2762 1.7666c2.9249 0 5.7706 1.051 8.0014 2.8952a1.709 1.709 0 0 0-.1388.6742c0 .9617.7734 1.755 1.755 1.755.9617 0 1.7549-.7734 1.7549-1.755 0-.9816-.7733-1.755-1.7549-1.755-.1884 0-.3669.0298-.5354.0893C20.84 1.5187 17.6176.309 14.2861.309c-7.7138 0-14 6.2762-14 14s6.2762 14 13.9901 14 14-6.2861 14-14c0-1.2691-.1785-2.5283-.5156-3.7479Z"/>
</svg>