<svg xmlns="http://www.w3.org/2000/svg" fill="none" viewBox="0 0 29 29"><path fill="#fff" d="M17.796 19.832h3.024L16.001 7.319H12.67L7.851 19.832h3.024l.794-2.122h4.55l-.822-2.35h-3.005l1.954-5.384zm9.965-9.27a.74.74 0 0 0-.893-.506.74.74 0 0 0-.505.892c.297 1.09.456 2.22.456 3.351 0 6.911-5.622 12.543-12.543 12.543S1.734 21.22 1.734 14.309 7.366 1.767 14.276 1.767c2.925 0 5.77 1.05 8.002 2.895a1.7 1.7 0 0 0-.14.674c0 .962.774 1.755 1.756 1.755.962 0 1.755-.773 1.755-1.755a1.74 1.74 0 0 0-2.29-1.666A14 14 0 0 0 14.285.31c-7.714 0-14 6.276-14 14s6.276 14 13.99 14 14-6.286 14-14c0-1.27-.178-2.528-.515-3.748"/></svg>