<svg xmlns="http://www.w3.org/2000/svg" fill="none" viewBox="0 0 37 33"><path fill="#fff" fill-rule="evenodd" d="M19.46 3.435c-8.864 0-13.501 7.517-16.092 14.862a1.705 1.705 0 0 1-3.216-1.134C2.782 9.708 8.164.025 19.46.025c5.905 0 10.14 3.91 12.88 8.606 2.746 4.71 4.212 10.542 4.531 15.254a1.7 1.7 0 0 1-.224.966c-1.584 2.75-4.22 4.543-7.224 5.64-2.997 1.095-6.468 1.543-9.947 1.544a20.58 20.58 0 0 1-15.74-6.902 1.7 1.7 0 0 1-.324-1.727L5.01 24l-1.598-.594.004-.01.008-.022.03-.08.113-.289a40 40 0 0 1 .417-1.01c.356-.83.867-1.948 1.48-3.077.606-1.114 1.35-2.31 2.185-3.254.76-.859 1.944-1.909 3.46-1.92h.011c1.072 0 1.952.491 2.586.963.638.476 1.218 1.08 1.683 1.572l.156.165c.433.459.764.81 1.078 1.073q.053.044.098.078.153-.155.365-.416c.5-.62 1.06-1.492 1.604-2.426a52 52 0 0 0 1.798-3.397l.112-.233.028-.06.008-.017a1.705 1.705 0 0 1 3.088 1.448l-1.544-.724 1.544.724-.001.002-.003.005-.009.02-.032.068-.123.255a59 59 0 0 1-.444.896 55 55 0 0 1-1.474 2.727c-.573.986-1.236 2.033-1.898 2.853-.328.407-.7.814-1.103 1.134-.355.283-.983.7-1.787.7-1.063 0-1.901-.593-2.413-1.02-.483-.404-.965-.917-1.37-1.347l-.156-.166c-.48-.508-.873-.904-1.242-1.178-.321-.24-.486-.28-.534-.287l-.007.003c-.054.02-.366.133-.926.766-.586.661-1.186 1.6-1.741 2.621a34 34 0 0 0-1.343 2.793l-.12.284a17.17 17.17 0 0 0 12.43 5.002h.032c3.226 0 6.279-.418 8.792-1.337 2.314-.845 4.079-2.077 5.175-3.713-.363-4.187-1.7-9.224-4.033-13.226-2.443-4.188-5.758-6.914-9.934-6.914m-3.02 14.402.022-.013z" clip-rule="evenodd"/></svg>