<svg xmlns="http://www.w3.org/2000/svg" fill="none" viewBox="0 0 33 33"><path fill="#78B0B5" d="M29.052 3.138h-3.435a.71.71 0 0 0-.699.699v2.002c0 .318-.007.632 0 .95 0 .021-.003.042 0 .06.007.066-1.464 2.4.06-.22l.157-.158q.11-.028.223-.06c-.003-.003-.014 0-.017 0-.08-.017-.182 0-.266 0h-2.847c-.032 0-.063-.003-.094 0 .108-.006.475.186.436.438.032-.228 0-.483 0-.71V3.837a.71.71 0 0 0-.699-.699H11.246a.71.71 0 0 0-.699.699v2.002c0 .318-.007.632 0 .95 0 .021-.003.042 0 .06.01.066-1.586 2.452.063-.22l.056-.074c.112-.049.224-.094.336-.143h-.018c-.084-.014-.182 0-.265 0H7.87c-.031 0-.063-.004-.094 0 .129-.01.454.188.419.437.031-.228 0-.483 0-.71V3.837a.71.71 0 0 0-.699-.699h-2.13c-.825 0-1.726-.084-2.512.21-1.44.538-2.411 1.886-2.422 3.43V28.04c0 .394.007.775.091 1.167a3.6 3.6 0 0 0 1.122 1.907 3.73 3.73 0 0 0 2.128.912c.227.021.457.014.688.014H28.87c.664 0 1.303-.119 1.897-.43 1.181-.622 1.911-1.897 1.918-3.221V8.246c0-.86.098-1.841-.199-2.662-.531-1.447-1.883-2.436-3.434-2.446-.367-.004-.717.325-.7.699.018.38.308.695.7.699q.119 0 .244.01l.049.004-.042-.007c.014-.01.098.017.119.02q.24.046.472.133c.014.007.028.01.042.018q.104.043-.039-.018c.01-.007.09.042.105.05q.104.05.203.111c.066.038.129.084.192.126.101.066.031-.018-.014-.014.024 0 .101.084.122.101.115.101.217.213.315.329.087.097.017-.014-.011-.014.014 0 .07.097.08.111q.07.106.133.217c.039.066.063.14.105.206.049.084-.06-.164-.007-.017q.021.066.049.132c.052.158.087.318.115.48.018.1-.014-.183-.003-.022l.01.143q.005.074.004.147v19.525c0 .695.003 1.394 0 2.089v.01q-.001.099-.007.196c0 .017 0 .133-.014.143q.02-.148.01-.066l-.01.07a3 3 0 0 1-.12.454c-.006.025-.027.119-.048.13.028-.018.06-.126.014-.04-.042.085-.08.165-.13.245q-.058.1-.122.193l-.027.038q-.067.09.027-.031c0 .014-.045.055-.055.07a3 3 0 0 1-.388.384l.035-.025c0 .007-.063.046-.074.053a2 2 0 0 1-.192.122q-.11.062-.223.119c-.091.045-.035.063.02-.004-.02.025-.097.039-.129.05a3 3 0 0 1-.475.125c-.13.021-.007.035.02 0-.01.014-.1.01-.118.01q-.11.009-.22.007H5.687c-.57 0-1.139.018-1.708 0q-.074 0-.147-.007l-.049-.003c.119.004-.028-.007-.049-.01q-.057-.01-.115-.025c-.077-.017-.15-.038-.227-.06q-.057-.016-.112-.038c-.028-.01-.06-.02-.087-.031q-.083-.037-.004 0c.073.066-.01-.007-.042-.021q-.054-.026-.101-.053a3 3 0 0 1-.294-.178l-.038-.028q-.09-.067.031.028c-.038.004-.16-.136-.188-.164a2.4 2.4 0 0 1-.238-.252c-.06 0-.227-.356-.251-.408q-.027-.053-.05-.105c-.073-.143.053.15-.003-.004l-.077-.22a4 4 0 0 1-.06-.227q-.01-.047-.017-.094-.01-.048-.014-.094l.007.041c-.014-.24-.014-.482-.014-.723V8.833c0-.685-.003-1.366 0-2.05v-.057c0-.08.01-.16.014-.24.01-.169-.031.16 0-.004a3.3 3.3 0 0 1 .16-.587c.057-.154-.069.14.005-.004q.022-.042.038-.084.063-.12.136-.24c.014-.025.102-.19.13-.19l-.053.07.056-.07.06-.07q.084-.094.174-.177c.028-.028.15-.168.189-.165l-.07.053.073-.053.077-.052a4 4 0 0 1 .217-.13l.101-.052c.032-.014.115-.087.042-.02-.07.062.007-.004.046-.018q.063-.026.132-.046.122-.041.248-.066c.039-.007.077-.018.116-.024.02-.004.167-.014.049-.011l.049-.003q.06-.006.122-.007.062-.005.13-.004h3.427l-.7-.699v2.15c0 .286-.01.572 0 .855.018.538.427.95.965.968.077.003.154 0 .23 0h2.555c.465 0 .968.031 1.247-.44.196-.329.15-.72.15-1.083v-2.45l-.698.699h10.625l-.699-.699v2.15c0 .286-.007.572 0 .855.018.531.405.947.944.968.076.003.153 0 .23 0h2.554c.475 0 .957.024 1.258-.44.206-.322.157-.72.157-1.083v-2.45l-.699.699h3.435c.367 0 .716-.321.699-.699-.028-.377-.318-.695-.71-.695"/><path fill="#78B0B5" d="M29.073 27.736H5.05c-.325 0-.65-.011-.974 0h-.042l.698.698V13.875c0-.668.028-1.342 0-2.01v-.027l-.698.699h24.02c.326 0 .65.01.976 0h.042l-.7-.7v14.56c0 .668-.017 1.338 0 2.01v.027c0 .367.322.716.7.7.377-.018.698-.308.698-.7V13.875c0-.668.018-1.338 0-2.01v-.027a.71.71 0 0 0-.699-.699H5.053c-.326 0-.65-.007-.975 0h-.042a.71.71 0 0 0-.7.699v14.56c0 .667-.017 1.337 0 2.008v.028a.71.71 0 0 0 .7.7h24.02c.326 0 .65.006.976 0h.042c.366 0 .716-.322.698-.7-.017-.377-.307-.699-.699-.699M10.54 6.82c.021-.22.126-.357.332-.413l.112-.031h-.003c-.004-.004-.014 0-.018 0-.031-.004-.07 0-.105 0H8.056c-.094 0-.192-.007-.286 0h-.021c.119-.014.321.098.377.22-.003-.01.046.304.06.203.027-.168 0-.36 0-.528v-4.71c0-.178.013-.363 0-.538v-.02c.031.205-.242.474-.444.443h.02c.088.007.182 0 .27 0h2.812c.032 0 .07.003.102 0 .007 0 .02.003.024 0h.004q.059 0-.112-.032a.35.35 0 0 1-.273-.188c-.101-.171-.059-.311-.059-.133V6.73c.01.028.01.06.01.09 0 .367.322.717.7.7s.698-.308.698-.7V2.594c0-.528.018-1.059 0-1.59a.97.97 0 0 0-.954-.957c-.07-.004-.143 0-.213 0H8.28c-.34 0-.706-.042-1.013.13-.413.23-.472.652-.472 1.068v.926c0 1.534-.025 3.068 0 4.598.01.594.433 1 1.02 1.006.325.004.65 0 .975 0 .727 0 1.457.021 2.187 0 .56-.017.92-.415.964-.953.032-.364-.345-.717-.698-.7-.41.018-.668.308-.703.7m14.375-5.807v5.75c0 .172-.039.029.06-.136l.156-.157q.11-.028.224-.06h-.004c-.007-.003-.014 0-.017 0-.035-.006-.08 0-.115 0h-2.313c-.248 0-.524-.034-.769 0h-.017q-.094.001.167.07c.154.067.325.144.287.368v-.03c.003-.063 0-.126 0-.19V1.21c0-.06.003-.122 0-.178-.004-.045.028-.049-.01.073-.057.182-.242.357-.444.332h.027c.266.018.539 0 .804 0h2.289c.031 0 .063.004.094 0h.02c-.254.039-.418-.206-.44-.422.036.363.298.716.7.698.349-.014.737-.307.698-.698-.052-.542-.412-.95-.978-.968-.09-.004-.185 0-.276 0h-2.53c-.464 0-.978-.01-1.233.482-.136.269-.126.524-.126.81v3.736c0 .583-.014 1.167 0 1.75.01.353.175.71.503.874.178.087.364.111.556.111h1.058c.689 0 1.38.025 2.069 0a.983.983 0 0 0 .96-.967c.004-.053 0-.109 0-.161V1.014c0-.367-.32-.717-.698-.7-.38.018-.702.308-.702.7"/><path fill="#78B0B5" d="M10.995 18.25H8.287c-.077 0-.245-.035-.315 0l.116.03q.127.005.195.113l.08.08.064.23V18.7c.003-.014 0-.035 0-.045.003-.063 0-.126 0-.189V16.08c0-.112.031-.283 0-.392v-.007l-.063.23c-.07.12-.255.245-.392.225h.021c.053.003.109 0 .161 0h2.366c.143 0 .307.024.45 0 .007 0 .018.003.021 0l-.23-.063a.44.44 0 0 1-.193-.276c-.157-.584-.024-.13-.031-.109-.01.032 0 .088 0 .12v1.488c0 .45-.028.908 0 1.355 0 .014-.003.032 0 .046v.007l.063-.231a.52.52 0 0 1 .395-.224c-.364.032-.717.297-.7.7.015.349.308.733.7.698.51-.045.894-.374.94-.898q.004-.067.003-.136v-2.47c0-.15.007-.304 0-.455-.02-.559-.444-.943-.996-.95-.503-.007-1.01 0-1.513 0-.478 0-.957-.014-1.432 0a.967.967 0 0 0-.968.964c-.007.168 0 .336 0 .503v1.845c0 .2-.003.399 0 .598.007.545.388.982.947.999.971.031 1.95 0 2.92 0h.099c.367 0 .716-.321.699-.699-.015-.377-.305-.699-.7-.699m7.187 0h-2.708c-.077 0-.245-.035-.315 0l.116.03q.127.005.195.113l.08.08.064.23V18.7c.003-.014 0-.035 0-.045.003-.063 0-.126 0-.189V16.08c0-.112.031-.283 0-.392v-.007l-.063.23c-.07.12-.255.245-.392.225h.021c.053.003.109 0 .161 0h2.366c.143 0 .307.024.45 0 .007 0 .018.003.021 0l-.23-.063a.44.44 0 0 1-.192-.276c-.158-.584-.025-.13-.032-.109-.01.032 0 .088 0 .12v1.488c0 .45-.028.908 0 1.355 0 .014-.003.032 0 .046v.007l.063-.231a.52.52 0 0 1 .395-.224c-.364.032-.716.297-.699.7.014.349.308.733.699.698.51-.045.894-.374.94-.898q.004-.067.003-.136v-2.47c0-.15.007-.304 0-.455-.02-.559-.444-.943-.996-.95-.503-.007-1.01 0-1.513 0-.478 0-.957-.014-1.432 0a.967.967 0 0 0-.968.964c-.007.168 0 .336 0 .503v1.845c0 .2-.003.399 0 .598.007.545.388.982.947.999.971.031 1.95 0 2.92 0h.099c.367 0 .716-.321.699-.699-.014-.377-.308-.699-.7-.699m7.187 0H22.66c-.077 0-.245-.035-.314 0l.115.03q.126.005.196.113l.08.08q.03.116.063.23V18.7c.003-.014 0-.035 0-.045.003-.063 0-.126 0-.189V16.08c0-.112.031-.283 0-.392v-.007l-.063.23c-.07.12-.255.245-.391.225h.02c.053.003.109 0 .161 0h2.366c.143 0 .307.024.45 0 .007 0 .018.003.021 0l-.23-.063a.44.44 0 0 1-.192-.276c-.158-.584-.025-.13-.032-.109-.01.032 0 .088 0 .12v1.488c0 .45-.028.908 0 1.355 0 .014-.003.032 0 .046v.007l.063-.231a.52.52 0 0 1 .395-.224c-.363.032-.716.297-.699.7.014.349.308.733.699.698.51-.045.894-.374.94-.898q.004-.067.003-.136v-2.47c0-.15.007-.304 0-.455-.02-.559-.443-.943-.995-.95-.504-.007-1.01 0-1.513 0-.48 0-.958-.014-1.433 0a.967.967 0 0 0-.968.964c-.007.168 0 .336 0 .503v1.845c0 .2-.003.399 0 .598.007.545.388.982.947.999.971.031 1.95 0 2.921 0h.098c.367 0 .716-.321.699-.699s-.308-.699-.7-.699"/></svg>