<svg xmlns="http://www.w3.org/2000/svg" viewBox="0 0 56 70"><g fill="none" fill-rule="evenodd"><path fill="#61A706" d="M23.859 69.309h8.027l1.559-6.185-11.257.101z"/><path fill="#72B021" d="M23.662.24c-1.164.051-.916-.02-2.12.277-29.515 7.234-10.79 46.464 2.866 58.132l1.143.856C16.117 44.786.471 9.333 23.661.24zm8.715 0c23.191 9.093 7.55 44.546-1.889 59.265l1.143-.856C45.286 46.98 64.012 7.75 34.497.517 33.293.22 33.54.29 32.377.24m-4.6.41c-2.263.133-4.282 2.235-5.289 4-6.579 11.535-2.378 31.427.695 43.22l1.036 4.044c.68 2.344 1.454 4.424 2.155 7.008l.305.86.194.383 1.935.01.228-.102.278-.601c1.194-2.797 4.33-14.733 4.981-17.78 1.768-8.265 3.092-16.688 2.447-25.13-.244-3.19-.904-6.754-2.214-9.735-1.001-2.289-2.505-4.91-5.152-5.927a3.8 3.8 0 0 0-1.598-.25zM12.019 3.355C6.212 5.814 1.752 11.154.792 16.946l-.225 2.46.025 1.978.305 2.181.168 1.04c2.286 11.452 12.742 26.464 21.942 34.42C10.287 43.58-8.912 19.145 12.018 3.354zm32.005 0c20.93 15.791 1.732 40.225-10.994 55.67 9.2-7.956 19.654-22.968 21.94-34.42l.168-1.04.305-2.18.03-1.98-.222-2.459c-.96-5.792-5.42-11.132-11.227-13.591"/></g></svg>