<svg xmlns="http://www.w3.org/2000/svg" fill="none" viewBox="0 0 1771 2009">
  <path fill="#1572B6" d="M161.2 1808.1 0 .3999h1771L1609.6 1807.8l-725.2 201-723.2-200.7Z"/>
  <path fill="#33A9DC" d="m885.5 1855.2 586-162.5 137.8-1544.5H885.5v1707Z"/>
  <path fill="#fff" d="M885.5 803.1h293.4l20.2-227H885.5V354.5h556l-5.3 59.5-54.5 611H885.5V803.1Z"/>
  <path fill="#EBEBEB" d="M886.7 1378.9h-1l-246.9-66.7-15.8-176.8H400.6l31.1 348.1 454.2 126.4h1.3v-231h-.5Z"/>
  <path fill="#fff" d="m1160.1 1015.3-26.7 296.7-247.3 66.7v231l454.5-126 3.3-37.5 38.6-431h-222.4v.1Z"/>
  <path fill="#EBEBEB" d="M886.3 354.5v221.7H350.9l-4.6-49.8L336.2 414l-5.3-59.5h555.4Zm-.8 448.6v221.7H641.4l-4.3-49.8L627 862.6l-5.3-59.5h263.8Z"/>
</svg>