<svg xmlns="http://www.w3.org/2000/svg" viewBox="0 0 854 702"><g fill="none" fill-rule="evenodd"><path fill="#fff" fill-rule="nonzero" d="M96.7 325c15.2 0 27 4 35.38 12 8.39 8.01 13.05 17.1 13.97 27.3H130.2c-1.8-7.74-5.4-13.87-10.79-18.39-5.33-4.52-12.85-6.78-22.55-6.78-11.82 0-21.38 4.17-28.68 12.5-7.25 8.28-10.87 21-10.87 38.16 0 14.06 3.27 25.47 9.8 34.24 6.6 8.72 16.4 13.08 29.42 13.08 11.99 0 21.11-4.6 27.38-13.82 3.32-4.84 5.8-11.22 7.43-19.12h15.86c-1.42 12.64-6.1 23.24-14.06 31.8-9.53 10.29-22.39 15.44-38.57 15.44-13.94 0-25.66-4.23-35.14-12.67-12.47-11.17-18.7-28.41-18.7-51.73 0-17.7 4.68-32.22 14.05-43.55 10.13-12.31 24.1-18.47 41.92-18.47zm80.98 84.56c.38 6.81 1.99 12.34 4.82 16.59 5.4 7.95 14.9 11.93 28.52 11.93 6.1 0 11.66-.87 16.67-2.61 9.7-3.38 14.54-9.43 14.54-18.15 0-6.53-2.04-11.2-6.12-13.97-4.14-2.72-10.63-5.1-19.45-7.1l-16.26-3.69c-10.63-2.4-18.14-5.03-22.56-7.92-7.62-5.01-11.44-12.5-11.44-22.47 0-10.8 3.73-19.64 11.2-26.56 7.46-6.92 18.03-10.38 31.7-10.38q18.885 0 32.04 9.15c8.82 6.05 13.24 15.75 13.24 29.1h-15.29c-.81-6.43-2.56-11.36-5.23-14.8-4.95-6.26-13.37-9.4-25.25-9.4-9.58 0-16.48 2.02-20.67 6.05-4.2 4.03-6.3 8.72-6.3 14.06 0 5.88 2.46 10.19 7.36 12.91 3.22 1.74 10.49 3.92 21.82 6.54l16.83 3.84c8.12 1.85 14.39 4.38 18.8 7.6 7.62 5.6 11.44 13.75 11.44 24.43 0 13.3-4.85 22.8-14.55 28.52q-14.46 8.58-33.66 8.58c-14.93 0-26.62-3.81-35.06-11.44-8.45-7.57-12.59-17.84-12.42-30.8h15.28zm111.46 0c.38 6.81 1.99 12.34 4.82 16.59 5.4 7.95 14.9 11.93 28.52 11.93 6.1 0 11.66-.87 16.67-2.61 9.7-3.38 14.54-9.43 14.54-18.15 0-6.53-2.04-11.2-6.13-13.97-4.14-2.72-10.62-5.1-19.44-7.1l-16.27-3.69c-10.62-2.4-18.14-5.03-22.55-7.92-7.63-5.01-11.44-12.5-11.44-22.47 0-10.8 3.73-19.64 11.2-26.56 7.46-6.92 18.03-10.38 31.7-10.38 12.59 0 23.26 3.05 32.04 9.15q13.23 9.075 13.23 29.1h-15.28c-.81-6.43-2.56-11.36-5.23-14.8-4.95-6.26-13.37-9.4-25.25-9.4-9.59 0-16.48 2.02-20.67 6.05-4.2 4.03-6.3 8.72-6.3 14.06 0 5.88 2.46 10.19 7.36 12.91 3.22 1.74 10.49 3.92 21.82 6.54l16.83 3.84c8.12 1.85 14.38 4.38 18.8 7.6 7.62 5.6 11.44 13.75 11.44 24.43 0 13.3-4.85 22.8-14.55 28.52-9.64 5.72-20.86 8.58-33.67 8.58-14.92 0-26.6-3.81-35.05-11.44-8.45-7.57-12.59-17.84-12.42-30.8h15.28zM45.7 537.44h23.29l34.48 101.49 34.24-101.5h23.04v120.05h-15.44v-70.85c0-2.45.05-6.5.16-12.17s.17-11.74.17-18.23L111.4 657.48H95.3L60.8 556.23v3.68c0 2.94.06 7.44.17 13.48.16 6 .24 10.4.24 13.24v70.85H45.7zm191.78-3.26c21.2 0 36.88 6.81 47.07 20.43 7.95 10.63 11.93 24.22 11.93 40.78q0 26.88-13.65 44.7c-10.68 13.95-25.9 20.92-45.68 20.92-18.46 0-32.98-6.1-43.55-18.3-9.43-11.77-14.14-26.65-14.14-44.62 0-16.24 4.03-30.13 12.1-41.68 10.35-14.82 25.65-22.22 45.92-22.22zm1.63 112.28c14.33 0 24.68-5.12 31.06-15.36 6.42-10.3 9.64-22.12 9.64-35.46 0-14.11-3.7-25.47-11.11-34.08-7.36-8.6-17.44-12.91-30.24-12.91-12.42 0-22.55 4.28-30.4 12.83-7.84 8.5-11.77 21.05-11.77 37.67 0 13.3 3.35 24.52 10.06 33.67 6.75 9.1 17.67 13.64 32.76 13.64m122.75-2.86c5.5 0 10.03-.57 13.57-1.72 6.32-2.12 11.5-6.2 15.52-12.26 3.22-4.84 5.53-11.05 6.95-18.63a71 71 0 0 0 1.22-12.58c0-14.87-2.96-26.42-8.9-34.65q-8.835-12.33-28.53-12.33h-28.84v92.18h29zm-45.35-106.15h48.62c16.5 0 29.3 5.85 38.4 17.57 8.12 10.57 12.18 24.1 12.18 40.61 0 12.75-2.4 24.27-7.19 34.57-8.44 18.2-22.96 27.29-43.55 27.29H316.5V537.45zm137.84-.01v74.2c0 8.71 1.64 15.96 4.9 21.73 4.86 8.72 13.03 13.08 24.52 13.08 13.78 0 23.16-4.72 28.11-14.14 2.67-5.12 4-12.01 4-20.67v-74.2h16.51v67.41c0 14.77-1.99 26.13-5.96 34.08-7.3 14.49-21.08 21.74-41.35 21.74s-34.02-7.25-41.27-21.74c-3.97-7.95-5.96-19.31-5.96-34.08v-67.41zm102.98 0h16.26v105.74h60.8v14.3h-77.06zm94.71 0h87.51v14.7H667.9v36.46h66.27v13.89H667.9v40.69h72.9v14.3h-88.76V537.45zm120.85 81.31c.38 6.81 1.98 12.34 4.82 16.6 5.4 7.95 14.9 11.92 28.52 11.92 6.1 0 11.65-.87 16.67-2.61 9.7-3.38 14.54-9.43 14.54-18.14 0-6.54-2.04-11.2-6.13-13.98-4.14-2.72-10.62-5.09-19.45-7.1l-16.26-3.68c-10.62-2.4-18.14-5.04-22.55-7.93-7.63-5.01-11.44-12.5-11.44-22.47 0-10.79 3.73-19.64 11.2-26.56 7.46-6.92 18.03-10.38 31.7-10.38 12.58 0 23.26 3.05 32.03 9.16 8.83 6.04 13.24 15.74 13.24 29.09H834.5c-.82-6.43-2.56-11.36-5.23-14.8-4.96-6.26-13.37-9.39-25.25-9.39-9.59 0-16.48 2.02-20.67 6.05-4.2 4.03-6.3 8.71-6.3 14.05 0 5.89 2.46 10.19 7.36 12.91 3.21 1.75 10.49 3.93 21.82 6.54l16.83 3.84c8.12 1.85 14.38 4.39 18.8 7.6 7.62 5.61 11.44 13.76 11.44 24.44 0 13.29-4.85 22.8-14.55 28.51-9.64 5.72-20.87 8.58-33.67 8.58-14.92 0-26.6-3.8-35.05-11.44-8.45-7.57-12.59-17.84-12.42-30.8h15.28z"/><path stroke="#fff" stroke-width="5" d="M3.2 3.49h695.02v695.02H3.2z"/></g></svg>