<svg xmlns="http://www.w3.org/2000/svg" fill="none" viewBox="0 0 56 56"><path fill="#fff" fill-rule="evenodd" d="M27.8.1C12.6.1.3 12.4.3 27.6s12.3 27.5 27.5 27.5 27.5-12.3 27.5-27.5S42.9.1 27.8.1M14.9 33.5c.9 1.2 2.1 1.7 3.8 1.7.8 0 1.6-.1 2.3-.4s1.5-.7 2.5-1.3l2.8 4c-2.3 1.9-4.9 2.8-7.9 2.8-2.4 0-4.4-.5-6.2-1.5-1.7-1-3.1-2.5-4-4.4s-1.4-4.1-1.4-6.7c0-2.5.5-4.8 1.4-6.7.9-2 2.3-3.5 4-4.6s3.8-1.6 6.1-1.6c1.6 0 3.1.2 4.3.7 1.3.5 2.5 1.2 3.7 2.2l-2.8 3.8c-.8-.6-1.6-1-2.3-1.3s-1.6-.4-2.4-.4c-3.4 0-5.1 2.6-5.1 7.9-.1 2.7.4 4.6 1.2 5.8m27.5 6.2c-1 3.1-2.5 5.4-4.6 7.1s-4.9 2.6-8.4 2.9l-.7-4.7c2.3-.3 4-.8 5.1-1.6.4-.3 1.2-1.2 1.2-1.2l-8.3-26.6h6.9l4.8 19.9 5.1-19.9h6.7z" clip-rule="evenodd"/></svg>