<svg xmlns="http://www.w3.org/2000/svg" fill="none" viewBox="0 0 256 145"><path fill="#364548" fill-rule="evenodd" d="M147.49 45.73h22.86v23.38h11.56c5.34 0 10.84-.95 15.9-2.67a40.7 40.7 0 0 0 7.72-3.49c-3.23-4.21-4.88-9.53-5.36-14.78-.66-7.13.78-16.42 5.6-22l2.4-2.78 2.87 2.3c7.21 5.8 13.28 13.89 14.35 23.12 8.68-2.56 18.87-1.95 26.53 2.47l3.14 1.8-1.65 3.23c-6.48 12.64-20.01 16.55-33.24 15.86-19.8 49.3-62.9 72.65-115.16 72.65-27 0-51.77-10.1-65.87-34.05l-.23-.39-2.06-4.18c-4.77-10.54-6.35-22.1-5.28-33.64l.33-3.45h19.55V45.73h22.86V22.87h45.74V0h27.44z" clip-rule="evenodd"/><path fill="#22A0C8" fill-rule="evenodd" d="M221.57 54.38c1.53-11.92-7.38-21.27-12.91-25.72-6.38 7.37-7.37 26.68 2.63 34.8-5.58 4.97-17.34 9.46-29.37 9.46H35.36c-1.17 12.56 1.04 24.14 6.08 34.04l1.66 3.05a57 57 0 0 0 3.46 5.19c6.02.38 11.58.52 16.66.4 9.99-.22 18.14-1.4 24.31-3.54a1.76 1.76 0 0 1 1.348.077c.42.204.744.566.897 1.008a1.764 1.764 0 0 1-1.085 2.245c-.83.29-1.68.55-2.57.8a76.4 76.4 0 0 1-16.8 2.74c.4.01-.42.06-.42.06l-.75.06c-2.65.15-5.5.18-8.43.18-3.2 0-6.34-.06-9.86-.24l-.09.06c12.21 13.73 31.3 21.96 55.23 21.96 50.65 0 93.61-22.45 112.64-72.86 13.5 1.39 26.46-2.06 32.36-13.57-9.4-5.43-21.48-3.7-28.44-.2" clip-rule="evenodd"/><path fill="#37B1D9" fill-rule="evenodd" d="M221.57 54.38c1.53-11.92-7.38-21.27-12.91-25.72-6.38 7.37-7.37 26.68 2.63 34.8-5.58 4.97-17.34 9.46-29.37 9.46H44.04c-.6 19.24 6.54 33.85 19.18 42.68 9.99-.22 18.14-1.4 24.31-3.54a1.76 1.76 0 0 1 1.347.077c.421.204.744.566.898 1.008a1.763 1.763 0 0 1-1.085 2.245c-.83.29-1.68.55-2.57.8a80.4 80.4 0 0 1-17.25 2.86l-.17-.15c17.24 8.84 42.23 8.8 70.89-2.2 32.13-12.34 62.03-35.86 82.89-62.76l-.92.44" clip-rule="evenodd"/><path fill="#1B81A5" fill-rule="evenodd" d="M35.65 88.19a58.6 58.6 0 0 0 5.8 18.77l1.66 3.05a57 57 0 0 0 3.46 5.19c6.02.38 11.58.52 16.66.4 9.99-.22 18.14-1.4 24.31-3.54a1.76 1.76 0 0 1 1.348.077c.42.204.744.566.897 1.008a1.764 1.764 0 0 1-1.085 2.245c-.83.29-1.68.55-2.57.8a80.4 80.4 0 0 1-17.22 2.8c-.23.02-.64.02-.87.03-2.65.15-5.47.24-8.4.24-3.2 0-6.46-.06-9.98-.24 12.21 13.73 31.42 21.99 55.35 21.99 43.36 0 81.09-16.46 102.98-52.82z" clip-rule="evenodd"/><path fill="#1D91B4" fill-rule="evenodd" d="M45.37 88.19c2.59 11.82 8.82 21.1 17.86 27.41 9.99-.22 18.14-1.4 24.31-3.54a1.76 1.76 0 0 1 1.348.077 1.765 1.765 0 0 1 .82 2.355 1.76 1.76 0 0 1-1.008.898c-.83.29-1.68.55-2.57.8A81.6 81.6 0 0 1 68.8 119c17.23 8.84 42.15 8.72 70.8-2.29 17.34-6.66 34.02-16.57 49-28.51H45.36" clip-rule="evenodd"/><path fill="#23A3C2" fill-rule="evenodd" d="M55.26 49.54h19.82v19.82H55.26zm1.65 1.66h1.57v16.5H56.9V51.2zm2.94 0h1.63v16.5h-1.63zm3 0h1.63v16.5h-1.63zm3 0h1.63v16.5h-1.62V51.2zm3.01 0h1.63v16.5h-1.63zm3 0h1.57v16.5h-1.57zm6.27-24.52h19.82v19.81H78.13zm1.65 1.65h1.56v16.51h-1.56zm2.94 0h1.62v16.51h-1.62zm3 0h1.63v16.51h-1.63zm3 0h1.63v16.51h-1.63zm3 0h1.63v16.51h-1.62V28.33zm3 0h1.57v16.51h-1.56V28.33z" clip-rule="evenodd"/><path fill="#34BBDE" fill-rule="evenodd" d="M78.13 49.54h19.82v19.82H78.13zm1.65 1.66h1.56v16.5h-1.56zm2.94 0h1.62v16.5h-1.62zm3 0h1.63v16.5h-1.63zm3 0h1.63v16.5h-1.63zm3 0h1.63v16.5h-1.62V51.2zm3 0h1.57v16.5h-1.56V51.2z" clip-rule="evenodd"/><path fill="#23A3C2" fill-rule="evenodd" d="M101 49.54h19.81v19.82H101zm1.64 1.66h1.57v16.5h-1.57zm2.94 0h1.63v16.5h-1.63zm3 0h1.63v16.5h-1.62V51.2zm3.01 0h1.63v16.5h-1.63zm3 0h1.63v16.5h-1.63zm3 0h1.57v16.5h-1.57z" clip-rule="evenodd"/><path fill="#34BBDE" fill-rule="evenodd" d="M101 26.68h19.81v19.81H101zm1.64 1.65h1.57v16.51h-1.57zm2.94 0h1.63v16.51h-1.63zm3 0h1.63v16.51h-1.62V28.33zm3.01 0h1.63v16.51h-1.63zm3 0h1.63v16.51h-1.63zm3 0h1.57v16.51h-1.57zm6.27 21.21h19.82v19.82h-19.82zm1.65 1.66h1.56v16.5h-1.56zm2.94 0h1.63v16.5h-1.63zm3 0h1.63v16.5h-1.63zm3 0h1.63v16.5h-1.62V51.2zm3 0h1.64v16.5h-1.63V51.2zm3.01 0h1.57v16.5h-1.57z" clip-rule="evenodd"/><path fill="#23A3C2" fill-rule="evenodd" d="M123.86 26.68h19.82v19.81h-19.82zm1.65 1.65h1.56v16.51h-1.56zm2.94 0h1.63v16.51h-1.63zm3 0h1.63v16.51h-1.63zm3 0h1.63v16.51h-1.62V28.33zm3 0h1.64v16.51h-1.63V28.33zm3.01 0h1.57v16.51h-1.57z" clip-rule="evenodd"/><path fill="#34BBDE" fill-rule="evenodd" d="M123.86 3.81h19.82v19.82h-19.82zm1.65 1.65h1.56v16.52h-1.56zm2.94 0h1.63v16.52h-1.63zm3 0h1.63v16.52h-1.63zm3 0h1.63v16.52h-1.62V5.46zm3 0h1.64v16.52h-1.63V5.46zm3.01 0h1.57v16.52h-1.57z" clip-rule="evenodd"/><path fill="#23A3C2" fill-rule="evenodd" d="M146.72 49.54h19.82v19.82h-19.81V49.54zm1.65 1.66h1.57v16.5h-1.56V51.2zm2.94 0h1.63v16.5h-1.62V51.2zm3 0h1.64v16.5h-1.63V51.2zm3.01 0h1.63v16.5h-1.63zm3 0h1.63v16.5h-1.62V51.2zm3 0h1.57v16.5h-1.56V51.2z" clip-rule="evenodd"/><path fill="#D3ECEC" fill-rule="evenodd" d="M96.7 101.5a5.45 5.45 0 0 1 2.164.347c.691.26 1.322.658 1.855 1.168a5.48 5.48 0 0 1 1.685 3.95 5.48 5.48 0 0 1-1.685 3.95 5.5 5.5 0 0 1-1.855 1.168 5.45 5.45 0 0 1-2.164.347 5.47 5.47 0 0 1-3.867-1.602 5.47 5.47 0 0 1 3.868-9.338" clip-rule="evenodd"/><path fill="#364548" fill-rule="evenodd" d="M96.7 103.04c.5 0 .98.1 1.42.27a1.6 1.6 0 0 0-.67.773 1.6 1.6 0 0 0 .502 1.874 1.6 1.6 0 0 0 .968.333c.6 0 1.13-.34 1.4-.83.322.777.385 1.637.181 2.453a3.93 3.93 0 0 1-1.316 2.078 3.92 3.92 0 0 1-2.295.884 3.9 3.9 0 0 1-2.37-.656 3.9 3.9 0 0 1-1.513-1.939 3.92 3.92 0 0 1-.06-2.459 3.9 3.9 0 0 1 1.417-2.01 3.92 3.92 0 0 1 2.336-.771M0 90.16h254.33c-5.54-1.4-17.52-3.3-15.55-10.56-10.07 11.65-34.35 8.18-40.48 2.43-6.82 9.9-46.55 6.14-49.32-1.57-8.56 10.04-35.07 10.04-43.63 0-2.77 7.7-42.5 11.47-49.32 1.57-6.13 5.75-30.41 9.22-40.48-2.43C17.52 86.86 5.54 88.76 0 90.16" clip-rule="evenodd"/><path fill="#BDD9D7" fill-rule="evenodd" d="M111.24 140.89c-13.54-6.42-20.97-15.16-25.1-24.7-5.04 1.44-11.08 2.36-18.1 2.75-2.66.15-5.44.23-8.36.23-3.37 0-6.92-.1-10.64-.3 12.42 12.41 27.69 21.96 55.97 22.14 2.1 0 4.16-.04 6.23-.12" clip-rule="evenodd"/><path fill="#D3ECEC" fill-rule="evenodd" d="M91.16 125a47.5 47.5 0 0 1-5.03-8.8c-5.03 1.43-11.07 2.35-18.1 2.74 4.83 2.62 11.73 5.05 23.13 6.05" clip-rule="evenodd"/></svg>