<svg xmlns="http://www.w3.org/2000/svg" viewBox="0 0 485 213">
  <defs/>
  <g fill="#BFAD7D" fill-rule="nonzero">
    <path d="M119.13 1.21h29.47c.2 9.85.2 19.69.14 29.54 9.67 0 19.34 0 29-.14 0-9.78 0-19.58.15-29.38a94.2 94.2 0 0129.94 1.99c-.68 16.26-.16 32.53-.35 48.8h176.6a56.6 56.6 0 0127.11-28.54 53.1 53.1 0 0154.86 7.12 52.03 52.03 0 0114 61.7 51.93 51.93 0 01-55.89 29.55 53.8 53.8 0 01-39.99-32.26H102.05c-.46-12.53-.24-25.1-.27-37.65h17.26c.1-16.93 0-33.86.14-50.8l-.05.07zM427.4 56.87a14.9 14.9 0 003.62 28.6c6.71.88 13.17-2.89 15.72-9.17a15.05 15.05 0 00-19.34-19.43zM28.36 98.05a52.58 52.58 0 0157.69 5.51 65.89 65.89 0 0116.33 21.9c94-.33 188.02 0 281.98-.1v36.5H366.7v51.08h-28.5v-29.2h-28.62v29.2h-30.37c0-16.97 0-33.94.1-50.88-58.84-.52-117.69.19-176.55-.35a57.52 57.52 0 01-33.53 31.36 51.78 51.78 0 01-64.97-28.35 51.88 51.88 0 0124.1-66.73v.06zm10.67 50.21a17.09 17.09 0 0019.15 10.37c3.83-3.73 9.24-6.91 9.75-12.8a15.4 15.4 0 00-16.14-17.14 15.26 15.26 0 00-12.76 19.62v-.05z"/>
  </g>
</svg>