<svg xmlns="http://www.w3.org/2000/svg" viewBox="0 0 485 213"><path fill="#BFAD7D" d="M119.13 1.21h29.47c.2 9.85.2 19.69.14 29.54 9.67 0 19.34 0 29-.14 0-9.78 0-19.58.15-29.38a94.2 94.2 0 0 1 29.94 1.99c-.68 16.26-.16 32.53-.35 48.8h176.6a56.6 56.6 0 0 1 27.11-28.54 53.1 53.1 0 0 1 54.86 7.12 52.03 52.03 0 0 1 14 61.7 51.93 51.93 0 0 1-55.89 29.55 53.8 53.8 0 0 1-39.99-32.26H102.05c-.46-12.53-.24-25.1-.27-37.65h17.26c.1-16.93 0-33.86.14-50.8zM427.4 56.87a14.9 14.9 0 0 0 3.62 28.6c6.71.88 13.17-2.89 15.72-9.17a15.05 15.05 0 0 0-19.34-19.43M28.36 98.05a52.58 52.58 0 0 1 57.69 5.51 65.9 65.9 0 0 1 16.33 21.9c94-.33 188.02 0 281.98-.1v36.5H366.7v51.08h-28.5v-29.2h-28.62v29.2h-30.37c0-16.97 0-33.94.1-50.88-58.84-.52-117.69.19-176.55-.35a57.52 57.52 0 0 1-33.53 31.36 51.78 51.78 0 0 1-64.97-28.35 51.88 51.88 0 0 1 24.1-66.73zm10.67 50.21a17.09 17.09 0 0 0 19.15 10.37c3.83-3.73 9.24-6.91 9.75-12.8a15.4 15.4 0 0 0-16.14-17.14 15.26 15.26 0 0 0-12.76 19.62z"/></svg>