<svg xmlns="http://www.w3.org/2000/svg" fill="none" viewBox="0 0 12 9">
  <path fill="#fff" d="M10.7424.3738a.6737.6737 0 0 0-.1411 0H.9676A.6744.6744 0 0 0 .7852.402L5.757 5.4625 10.7424.3738Z"/>
  <path fill="#fff" d="M11.252.8623 6.2425 5.9615a.6804.6804 0 0 1-.4852.2046.6805.6805 0 0 1-.485-.2046L.3072.901a.7179.7179 0 0 0-.024.1759v7.0333c0 .1866.0725.3655.2016.4974.129.1319.304.206.4865.206h9.6338a.681.681 0 0 0 .4866-.206.7117.7117 0 0 0 .2015-.4974V1.0768a.714.714 0 0 0-.0412-.2145Zm-9.8092 7.248H.9645v-.503l2.5014-2.5355.4851.4959-2.5082 2.5426Zm9.1555 0h-.4817L7.6084 5.5676l.4851-.4959 2.5014 2.5356.0034.503Z"/>
</svg>