<svg xmlns="http://www.w3.org/2000/svg" fill="none" viewBox="0 0 12 9">
  <path fill="#fff" d="M10.7428.3737a.6737.6737 0 0 0-.1411 0H.968a.6744.6744 0 0 0-.1824.0281l4.9718 5.0606L10.7428.3737Z"/>
  <path fill="#fff" d="M11.2519.8623 6.2424 5.9615a.6806.6806 0 0 1-.4852.2046.6806.6806 0 0 1-.485-.2046L.3071.901a.7179.7179 0 0 0-.024.1759v7.0333c0 .1866.0725.3655.2016.4974.129.1319.304.206.4865.206h9.6338a.6808.6808 0 0 0 .4866-.206.7115.7115 0 0 0 .2015-.4974V1.0768a.7163.7163 0 0 0-.0413-.2145Zm-9.8092 7.248H.9644v-.503l2.5014-2.5355.4851.4959-2.5082 2.5425Zm9.1555 0h-.4817L7.6083 5.5676l.4851-.4959 2.5014 2.5356.0034.5028Z"/>
</svg>