<svg xmlns="http://www.w3.org/2000/svg" fill="none" viewBox="0 0 27 29"><path fill="#FF5A5F" d="M25.72 20.21c-.14-.337-.281-.702-.421-1.01-.224-.504-.449-.98-.645-1.43l-.028-.027a293 293 0 0 0-6.194-12.669l-.084-.168c-.224-.42-.448-.869-.673-1.317-.28-.505-.56-1.037-1.009-1.542C15.77.926 14.48.31 13.106.31c-1.4 0-2.662.617-3.587 1.682-.42.504-.729 1.037-1.009 1.541-.224.449-.448.897-.673 1.318l-.084.168c-2.158 4.204-4.26 8.465-6.194 12.669l-.028.056c-.196.448-.42.925-.645 1.43a18 18 0 0 0-.42 1.008C.102 21.218-.011 22.2.13 23.208a5.96 5.96 0 0 0 3.643 4.653 5.8 5.8 0 0 0 2.27.448A7.4 7.4 0 0 0 9.575 27.3c1.15-.644 2.243-1.57 3.476-2.915 1.234 1.346 2.355 2.27 3.476 2.915a7.4 7.4 0 0 0 3.532 1.01c.784 0 1.57-.14 2.27-.45 1.962-.784 3.335-2.578 3.644-4.652.224-.98.112-1.962-.253-2.999Zm-12.641 1.457c-1.514-1.906-2.495-3.7-2.831-5.214-.14-.644-.168-1.205-.084-1.71.056-.448.224-.84.448-1.176.533-.757 1.43-1.234 2.467-1.234s1.962.449 2.466 1.234c.224.336.393.728.449 1.177.084.504.056 1.093-.084 1.71-.337 1.485-1.318 3.279-2.831 5.213m11.183 1.317a4.17 4.17 0 0 1-2.55 3.28 4.25 4.25 0 0 1-2.13.28 5.5 5.5 0 0 1-2.131-.73c-1.009-.56-2.018-1.429-3.195-2.718 1.85-2.27 2.97-4.344 3.391-6.194a7 7 0 0 0 .14-2.383 4.55 4.55 0 0 0-.756-1.905c-.87-1.262-2.327-1.99-3.952-1.99s-3.083.756-3.952 1.99a4.55 4.55 0 0 0-.757 1.905 5.8 5.8 0 0 0 .14 2.383c.42 1.85 1.57 3.952 3.392 6.222-1.15 1.29-2.187 2.158-3.196 2.719-.728.42-1.43.645-2.13.729a4.5 4.5 0 0 1-2.13-.28 4.17 4.17 0 0 1-2.55-3.28 4.64 4.64 0 0 1 .252-2.186c.084-.28.224-.56.364-.897.196-.448.42-.925.645-1.401l.028-.056A307 307 0 0 1 9.35 5.887l.084-.168c.224-.42.448-.87.673-1.29.224-.448.476-.868.785-1.233.588-.672 1.373-1.037 2.242-1.037s1.653.365 2.242 1.037c.308.365.56.785.785 1.233.224.42.448.87.672 1.29l.085.168A372 372 0 0 1 23.057 18.5v.028c.224.448.42.953.644 1.4.14.337.28.618.365.898.224.729.308 1.43.196 2.158"/></svg>