<svg xmlns="http://www.w3.org/2000/svg" fill="none" viewBox="0 0 25 28"><path fill="#689F63" d="M12.503 28a2.16 2.16 0 0 1-1.076-.288l-3.425-2.028c-.512-.286-.262-.387-.093-.445.682-.239.82-.293 1.548-.706.077-.044.177-.029.255.018l2.632 1.561a.35.35 0 0 0 .318 0l10.26-5.922a.32.32 0 0 0 .157-.278V8.072a.33.33 0 0 0-.16-.282L12.665 1.873a.32.32 0 0 0-.316 0L2.094 7.79a.33.33 0 0 0-.163.28v11.84c0 .113.062.22.16.275l2.81 1.623c1.525.763 2.457-.136 2.457-1.04V9.082c0-.167.131-.295.298-.295h1.3a.294.294 0 0 1 .295.295v11.69c0 2.035-1.11 3.203-3.038 3.203-.594 0-1.061 0-2.366-.642l-2.691-1.551A2.17 2.17 0 0 1 .08 19.91V8.07c0-.77.41-1.49 1.076-1.87L11.426.275a2.25 2.25 0 0 1 2.158 0L23.84 6.203a2.16 2.16 0 0 1 1.076 1.87v11.84a2.17 2.17 0 0 1-1.076 1.869l-10.257 5.925a2.16 2.16 0 0 1-1.082.288"/><path fill="#689F63" d="M10.242 16.052a.295.295 0 0 1 .297-.295h1.325a.3.3 0 0 1 .293.251c.2 1.35.796 2.032 3.51 2.032 2.163 0 3.083-.489 3.083-1.635 0-.66-.262-1.151-3.621-1.48-2.81-.277-4.546-.896-4.546-3.143 0-2.07 1.746-3.303 4.671-3.303 3.285 0 4.913 1.14 5.119 3.59a.3.3 0 0 1-.08.229.3.3 0 0 1-.218.095h-1.333a.294.294 0 0 1-.288-.231c-.32-1.42-1.096-1.875-3.205-1.875-2.36 0-2.635.822-2.635 1.438 0 .747.324.966 3.508 1.387 3.154.419 4.651 1.01 4.651 3.226 0 2.234-1.864 3.516-5.116 3.516-4.474-.012-5.415-2.073-5.415-3.802"/></svg>