<svg xmlns="http://www.w3.org/2000/svg" fill="none" viewBox="0 0 25 28">
  <defs/>
  <path fill="#689F63" d="M12.5033 28c-.375 0-.7474-.0984-1.0761-.2876l-3.4253-2.0279c-.5116-.2861-.262-.3873-.0932-.4456.682-.2389.8205-.2928 1.5486-.7063.0765-.0437.1767-.0283.255.018l2.6315 1.5615c.095.0513.2298.0513.3179 0l10.2602-5.9224c.095-.054.1567-.1644.1567-.2774V8.0727a.3295.3295 0 00-.1588-.2825l-10.256-5.9173a.3156.3156 0 00-.3159 0L2.0939 7.7902a.327.327 0 00-.1626.2799v11.8396c0 .113.0616.2209.1592.2748l2.8097 1.6232c1.5255.7628 2.4578-.1361 2.4578-1.0402V9.082c0-.167.131-.2954.298-.2954h1.2995a.2937.2937 0 01.2953.2954v11.6907c0 2.034-1.1095 3.2026-3.0382 3.2026-.5933 0-1.0607 0-2.3654-.6421L1.1557 21.782C.4905 21.3968.0796 20.6777.0796 19.9097V8.0701c0-.7705.411-1.4896 1.076-1.8697L11.4262.2754c.6498-.3672 1.5127-.3672 2.1574 0L23.8411 6.203c.6626.3826 1.0761 1.0992 1.0761 1.8697v11.8396c0 .7679-.4135 1.4845-1.0761 1.8697l-10.2576 5.925a2.1573 2.1573 0 01-1.0813.2876"/>
  <path fill="#689F63" d="M10.2419 16.0524a.2951.2951 0 01.2971-.2953h1.3252a.2967.2967 0 01.2928.2512c.2003 1.3503.7962 2.0314 3.5108 2.0314 2.1625 0 3.0819-.4884 3.0819-1.6352 0-.66-.262-1.1505-3.6212-1.4793-2.8097-.2773-4.5458-.8963-4.5458-3.1435 0-2.07 1.7464-3.3028 4.6716-3.3028 3.2848 0 4.9131 1.1403 5.1185 3.5904a.299.299 0 01-.0796.2286.3052.3052 0 01-.2183.095H18.742c-.1387 0-.2594-.0976-.2876-.2311-.3211-1.4203-1.0967-1.8748-3.2052-1.8748-2.3602 0-2.6351.8218-2.6351 1.4382 0 .7473.3236.9656 3.5083 1.3868 3.1538.4187 4.6511 1.0094 4.6511 3.2258 0 2.2343-1.8646 3.5159-5.116 3.5159-4.4744-.0121-5.4156-2.0728-5.4156-3.8013z"/>
</svg>