<svg xmlns="http://www.w3.org/2000/svg" fill="none" viewBox="0 0 338 311">
  <path fill="#FC6D26" d="m337.17 177.83-18.91-58.12L280.84 4.43a6.4711 6.4711 0 0 0-6.135-4.415 6.471 6.471 0 0 0-3.78 1.2184A6.4633 6.4633 0 0 0 268.57 4.43l-37.42 115.21H106.82L69.3996 4.43a6.46 6.46 0 0 0-12.26 0l-37.36 115.21-18.91 58.19a12.8797 12.8797 0 0 0 4.66 14.39L169 311l163.44-118.78a12.8935 12.8935 0 0 0 4.699-6.428c.85-2.584.86-5.371.031-7.962Z"/>
  <path fill="#E24329" d="m169 310.91 62.16-191.28H106.87L169 310.91Z"/>
  <path fill="#FC6D26" d="m169 310.91-62.18-191.28H19.8203L169 310.91Z"/>
  <path fill="#FCA326" d="m19.7503 119.69-18.91 58.12a12.8797 12.8797 0 0 0 4.66 14.39L169 311 19.7503 119.69Z"/>
  <path fill="#E24329" d="M19.7803 119.69H106.89L69.4003 4.49a6.4703 6.4703 0 0 0-9.9143-3.1965A6.47 6.47 0 0 0 57.1303 4.49l-37.35 115.2Z"/>
  <path fill="#FC6D26" d="m169 310.91 62.16-191.28h87.14L169 310.91Z"/>
  <path fill="#FCA326" d="m318.24 119.69 18.91 58.12c.845 2.583.849 5.368.012 7.953a12.854 12.854 0 0 1-4.672 6.437L169 310.91l149.2-191.22h.04Z"/>
  <path fill="#E24329" d="M318.28 119.69h-87.1L268.6 4.49a6.4557 6.4557 0 0 1 2.351-3.2009A6.4581 6.4581 0 0 1 274.73.0684a6.4604 6.4604 0 0 1 6.13 4.4217L318.28 119.69Z"/>
</svg>