<svg xmlns="http://www.w3.org/2000/svg" fill="none" viewBox="0 0 338 311"><path fill="#FC6D26" d="m337.17 177.83-18.91-58.12L280.84 4.43a6.47 6.47 0 0 0-6.135-4.415 6.47 6.47 0 0 0-3.78 1.218 6.46 6.46 0 0 0-2.355 3.197l-37.42 115.21H106.82L69.4 4.43a6.46 6.46 0 0 0-12.26 0L19.78 119.64.87 177.83a12.88 12.88 0 0 0 4.66 14.39L169 311l163.44-118.78a12.9 12.9 0 0 0 4.699-6.428 12.9 12.9 0 0 0 .031-7.962"/><path fill="#E24329" d="m169 310.91 62.16-191.28H106.87z"/><path fill="#FC6D26" d="m169 310.91-62.18-191.28h-87z"/><path fill="#FCA326" d="M19.75 119.69.84 177.81A12.88 12.88 0 0 0 5.5 192.2L169 311z"/><path fill="#E24329" d="M19.78 119.69h87.11L69.4 4.49a6.47 6.47 0 0 0-9.914-3.197A6.47 6.47 0 0 0 57.13 4.49z"/><path fill="#FC6D26" d="m169 310.91 62.16-191.28h87.14z"/><path fill="#FCA326" d="m318.24 119.69 18.91 58.12a12.85 12.85 0 0 1 .012 7.953 12.85 12.85 0 0 1-4.672 6.437L169 310.91l149.2-191.22z"/><path fill="#E24329" d="M318.28 119.69h-87.1L268.6 4.49a6.46 6.46 0 0 1 2.351-3.2A6.46 6.46 0 0 1 274.73.067a6.46 6.46 0 0 1 6.13 4.422z"/></svg>