<svg xmlns="http://www.w3.org/2000/svg" fill="none" viewBox="0 0 12 12"><path fill="#fff" fill-rule="evenodd" d="M.853 5.966h1.712c.02-.603.095-1.18.215-1.718H1.304a4.8 4.8 0 0 0-.45 1.718m.85-2.406h1.262a6.4 6.4 0 0 1 .44-1.058 4.6 4.6 0 0 1 .41-.641A4.83 4.83 0 0 0 1.705 3.56M5.654.81a5.5 5.5 0 1 0 0 11 5.5 5.5 0 0 0 0-11m-.343.74c-.461.14-.918.564-1.298 1.276a5.5 5.5 0 0 0-.321.734H5.31zm0 2.697H3.486a8.6 8.6 0 0 0-.233 1.72H5.31zm.687 1.72v-1.72h1.824c.129.526.21 1.106.232 1.72zm-.687.687H3.254a8.6 8.6 0 0 0 .232 1.719H5.31zm.687 1.719v-1.72h2.056a8.6 8.6 0 0 1-.232 1.72zm-.687.687H3.69q.143.399.322.734c.38.712.838 1.135 1.298 1.276zm-1.494 1.7a4.6 4.6 0 0 1-.41-.642 6.4 6.4 0 0 1-.44-1.058H1.703a4.83 4.83 0 0 0 2.112 1.7M1.304 8.373H2.78a9.4 9.4 0 0 1-.215-1.72H.853a4.8 4.8 0 0 0 .451 1.72m6.187 2.387a4.83 4.83 0 0 0 2.112-1.7h-1.26a6.4 6.4 0 0 1-.442 1.058 4.6 4.6 0 0 1-.41.641m.125-1.7H5.997v2.01c.46-.14.918-.564 1.297-1.276q.188-.355.322-.734m.911-.687h1.475a4.8 4.8 0 0 0 .451-1.72H8.742a9.4 9.4 0 0 1-.215 1.72m.215-2.407h1.711a4.8 4.8 0 0 0-.45-1.718H8.526c.12.537.194 1.115.215 1.718m-.4-2.406a6.4 6.4 0 0 0-.44-1.058 4.6 4.6 0 0 0-.411-.641 4.83 4.83 0 0 1 2.113 1.7zm-.726 0H5.997V1.55c.46.14.918.564 1.297 1.276q.18.335.322.734" clip-rule="evenodd"/></svg>