<svg xmlns="http://www.w3.org/2000/svg" fill="none" viewBox="0 0 12 12">
  <path fill="#fff" fill-rule="evenodd" d="M.8532 5.9662H2.565c.0206-.6029.0948-1.181.2145-1.7187H1.3042a4.7835 4.7835 0 0 0-.451 1.7188ZM1.7036 3.56h1.2616a6.3694 6.3694 0 0 1 .44-1.058 4.6059 4.6059 0 0 1 .4104-.6415A4.829 4.829 0 0 0 1.7036 3.56ZM5.6533.81a5.5 5.5 0 1 0 0 11 5.5 5.5 0 0 0 0-11Zm-.3437.7404c-.4606.1403-.9178.5638-1.2973 1.2754-.119.2227-.227.4688-.3218.7342h1.619V1.5504Zm0 2.6971h-1.824a8.5938 8.5938 0 0 0-.2323 1.7188h2.0563V4.2474Zm.6875 1.7188V4.2474h1.824c.1285.526.2103 1.1055.2323 1.7188H5.997Zm-.6875.6874H3.254a8.5935 8.5935 0 0 0 .2316 1.7188h1.824V6.6537Zm.6875 1.7188V6.6537h2.0556a8.5913 8.5913 0 0 1-.2317 1.7188H5.997Zm-.6875.6875h-1.619c.0948.2654.2027.5115.3217.7342.3795.7116.8373 1.1344 1.2973 1.2754V9.06Zm-1.494 1.6995a4.6072 4.6072 0 0 1-.4104-.6414 6.3716 6.3716 0 0 1-.44-1.0581H1.7036a4.8289 4.8289 0 0 0 2.112 1.6995Zm-2.5114-2.387h1.4754a9.3853 9.3853 0 0 1-.2145-1.7188H.853a4.7637 4.7637 0 0 0 .4511 1.7188Zm6.1868 2.387A4.8289 4.8289 0 0 0 9.603 9.06H8.3421a6.381 6.381 0 0 1-.4407 1.0581 4.5986 4.5986 0 0 1-.4104.6414ZM7.6161 9.06h-1.619v2.0096c.4606-.1403.9178-.5638 1.2973-1.2753.125-.2366.2325-.482.3217-.7343Zm.911-.6875h1.4753a4.76 4.76 0 0 0 .451-1.7188H8.7416a9.3844 9.3844 0 0 1-.2145 1.7188Zm.2145-2.4063h1.7118a4.7813 4.7813 0 0 0-.451-1.7187H8.5271c.1196.5376.1938 1.1158.2145 1.7188ZM8.3414 3.56a6.378 6.378 0 0 0-.44-1.058 4.6014 4.6014 0 0 0-.4104-.6415A4.829 4.829 0 0 1 9.603 3.56H8.3414Zm-.7253 0h-1.619V1.5504c.4606.1403.9178.5638 1.2973 1.2754.119.2227.2269.4688.3217.7342Z" clip-rule="evenodd"/>
</svg>