<svg xmlns="http://www.w3.org/2000/svg" fill="none" viewBox="0 0 12 12">
  <path fill="#fff" fill-rule="evenodd" d="M.8532 5.9663H2.565c.0206-.603.0948-1.181.2145-1.7187H1.3042a4.7831 4.7831 0 0 0-.451 1.7187ZM1.7036 3.56h1.2616a6.3688 6.3688 0 0 1 .44-1.058 4.6063 4.6063 0 0 1 .4104-.6415A4.829 4.829 0 0 0 1.7036 3.56ZM5.6533.81a5.5 5.5 0 1 0 0 11 5.5 5.5 0 0 0 0-11Zm-.3437.7404c-.4606.1403-.9178.5638-1.2973 1.2754-.119.2227-.227.4688-.3218.7342h1.619l.0001-2.0096Zm0 2.697h-1.824a8.5936 8.5936 0 0 0-.2323 1.7189h2.0563V4.2476Zm.6875 1.7189v-1.719h1.824c.1285.526.2103 1.1056.2323 1.7189H5.9971Zm-.6875.6874H3.254a8.5939 8.5939 0 0 0 .2316 1.7188h1.824V6.6538Zm.6875 1.7188V6.6538h2.0556a8.5917 8.5917 0 0 1-.2317 1.7188H5.9971Zm-.6875.6875h-1.619c.0948.2654.2027.5115.3217.7342.3795.7116.8373 1.1344 1.2973 1.2754V9.0601Zm-1.494 1.6995a4.6166 4.6166 0 0 1-.4104-.6414 6.3737 6.3737 0 0 1-.44-1.0581H1.7036a4.8296 4.8296 0 0 0 2.112 1.6995Zm-2.5114-2.387h1.4754a9.385 9.385 0 0 1-.2145-1.7188H.8531a4.764 4.764 0 0 0 .4511 1.7188Zm6.1868 2.387A4.8296 4.8296 0 0 0 9.603 9.06H8.3421a6.3835 6.3835 0 0 1-.4407 1.0581 4.6033 4.6033 0 0 1-.4104.6414ZM7.6161 9.06h-1.619v2.0096c.4606-.1403.9178-.5638 1.2973-1.2753.125-.2366.2325-.482.3217-.7343Zm.911-.6875h1.4753a4.7597 4.7597 0 0 0 .451-1.7188H8.7416a9.385 9.385 0 0 1-.2145 1.7188Zm.2145-2.4063h1.7118a4.7809 4.7809 0 0 0-.451-1.7187H8.5271c.1196.5376.1938 1.1157.2145 1.7187ZM8.3414 3.56a6.3783 6.3783 0 0 0-.44-1.058 4.6009 4.6009 0 0 0-.4104-.6415A4.829 4.829 0 0 1 9.603 3.56H8.3414Zm-.7253 0h-1.619V1.5505c.4606.1403.9178.5638 1.2973 1.2754.119.2227.227.4688.3217.7342Z" clip-rule="evenodd"/>
</svg>