<svg xmlns="http://www.w3.org/2000/svg" fill="none" viewBox="0 0 25 28"><path fill="#E10098" d="m14.933 3.21 5.757 3.325A2.502 2.502 0 0 1 24.667 7a2.503 2.503 0 0 1-1.58 3.676v6.65A2.487 2.487 0 0 1 24.66 21a2.5 2.5 0 0 1-4.028.412l-5.723 3.304a2.498 2.498 0 1 1-4.866.791q0-.361.103-.71l-5.759-3.322a2.497 2.497 0 1 1-2.394-4.152l.001-6.649A2.498 2.498 0 0 1 .411 7a2.5 2.5 0 0 1 3.975-.473l5.76-3.325A2.494 2.494 0 0 1 12.54 0a2.493 2.493 0 0 1 2.393 3.21m-.601 1.023a1 1 0 0 1-.068.067l7.538 13.055c.03-.01.065-.018.096-.027V10.67a2.49 2.49 0 0 1-1.818-3.019l.022-.084zm-3.518.069-.07-.07-5.77 3.327a2.49 2.49 0 0 1-1.705 3.086l-.088.024v6.66l.098.026L10.817 4.3zm2.422.591c-.455.13-.937.13-1.39 0L4.309 17.947c.343.33.585.752.7 1.214h15.063a2.5 2.5 0 0 1 .703-1.218zm1.15 18.932 5.732-3.311a2 2 0 0 1-.044-.166H5.005l-.024.097 5.762 3.327a2.48 2.48 0 0 1 1.797-.762 2.5 2.5 0 0 1 1.847.814"/></svg>