<svg xmlns="http://www.w3.org/2000/svg" fill="none" viewBox="0 0 1584 1798"><path fill="#E34E26" d="M144.732 1617.4.627.984H1583.37L1439.09 1617.53l-647.475 179.49z"/><path fill="#EF662A" d="M792 133.108V1659.72l523.56-145.14 123.36-1381.472z"/><path fill="#fff" d="m295.468 331.378 53.438 599.519h687.144l-23.06 257.143-221.246 59.82-220.825-59.73-14.764-165.11h-199l28.456 318.28 406.086 112.79L1198.3 1341.3l54.51-608.631H530.229l-18.143-203.021h758.684l17.76-198.27z"/><path fill="#EBEBEB" d="M792 331.378H295.468l53.438 599.519H792V732.669H530.229l-18.143-203.021H792zm0 916.392-.256.09-220.825-59.73-14.764-165.11h-199l28.456 318.28 406.086 112.79.303-.09z"/></svg>