<svg xmlns="http://www.w3.org/2000/svg" fill="none" viewBox="0 0 29 28"><path fill="#000" d="M5.976 10.36h20.558v16.23H5.976z"/><path fill="#F8DB39" d="M.08 0h28v28h-28zm25.705 21.322c-.204-1.277-1.036-2.35-3.503-3.352-.859-.402-1.813-.682-2.097-1.33-.106-.385-.122-.595-.053-.822.175-.754 1.067-.98 1.767-.77.455.14.875.49 1.139 1.05 1.206-.789 1.206-.789 2.047-1.313-.315-.49-.47-.701-.683-.91-.735-.822-1.714-1.242-3.307-1.206l-.822.104c-.789.192-1.54.612-1.995 1.172-1.33 1.506-.946 4.131.664 5.216 1.592 1.19 3.92 1.452 4.218 2.573.28 1.365-1.015 1.802-2.293 1.645-.946-.21-1.47-.684-2.048-1.559l-2.135 1.226c.245.56.525.804.945 1.294 2.03 2.049 7.105 1.944 8.016-1.171.034-.105.28-.823.087-1.925zm-10.48-8.452h-2.622c0 2.26-.01 4.507-.01 6.772 0 1.437.073 2.757-.162 3.163-.385.804-1.377.701-1.827.56-.462-.229-.696-.544-.968-.998-.074-.122-.129-.228-.148-.228l-2.13 1.312c.356.735.875 1.367 1.545 1.77.998.595 2.338.788 3.742.473.913-.264 1.7-.807 2.112-1.647.595-1.085.47-2.415.464-3.903.014-2.397 0-4.794 0-7.21z"/></svg>