<svg xmlns="http://www.w3.org/2000/svg" fill="none" viewBox="0 0 29 28">
  <defs/>
  <path fill="#000" d="M5.97534 10.3599h20.558v16.23h-20.558z"/>
  <path fill="#F8DB39" d="M.0795898 0H28.0796v28H.0795898V0zM25.7859 21.322c-.2041-1.2775-1.036-2.3508-3.5035-3.3518-.8586-.4025-1.813-.6825-2.0965-1.33-.1061-.385-.1225-.595-.0536-.8225.175-.7537 1.0675-.98 1.7675-.77.455.14.875.49 1.1386 1.05 1.2064-.7887 1.2064-.7887 2.0475-1.3125-.315-.49-.4713-.7012-.6836-.91-.735-.8225-1.7139-1.2425-3.3064-1.2064l-.8225.1039c-.7886.1925-1.54.6125-1.995 1.1725-1.33 1.5061-.9461 4.1311.6639 5.2161 1.5925 1.19 3.9211 1.4514 4.2186 2.5725.28 1.365-1.015 1.8025-2.2936 1.645-.9462-.21-1.47-.6836-2.0475-1.5586l-2.135 1.2261c.245.56.525.8039.945 1.2939 2.03 2.0486 7.105 1.9436 8.0161-1.1714.0339-.105.28-.8225.0864-1.925l.0536.0782zm-10.4801-8.4525h-2.6227c0 2.261-.0105 4.508-.0105 6.7725 0 1.4373.0735 2.7568-.161 3.1628-.385.8039-1.3767.7012-1.827.56-.462-.2286-.69651-.5436-.96834-.9975-.0735-.1225-.12834-.2286-.14817-.2286l-2.12917 1.3125c.35584.735.875 1.3673 1.54467 1.7698.9975.595 2.33801.7875 3.74151.4725.9135-.2637 1.701-.8062 2.1128-1.6462.595-1.085.469-2.415.4632-3.9036.014-2.3964 0-4.7939 0-7.2089l.0047-.0653z"/>
</svg>
