<svg xmlns="http://www.w3.org/2000/svg" viewBox="0 0 226 312"><path fill="#d33833" fill-rule="evenodd" d="M222.15 150.42c0 61.79-48.97 111.87-109.38 111.87-60.4 0-109.37-50.08-109.37-111.87S52.37 38.54 112.77 38.54s109.38 50.1 109.38 111.88"/><path fill="#ef3d3a" d="M7.86 178.13s-7.92-116.67 99.58-120l-7.5-12.5L41.6 65.2 24.94 84.38 10.36 112.3l-8.34 32.5 2.5 21.66"/><path fill="#231f20" d="M37.86 74.1A109.42 109.42 0 0 0 6.8 150.84c0 29.98 11.87 57.1 31.06 76.73 19.2 19.63 45.66 31.74 74.91 31.74s55.72-12.11 74.91-31.74a109.42 109.42 0 0 0 31.07-76.73c0-30-11.88-57.1-31.07-76.74-19.2-19.63-45.66-31.74-74.9-31.74-29.26 0-55.72 12.11-74.92 31.74M33 232.32a116.22 116.22 0 0 1-33-81.48c0-31.8 12.6-60.63 33-81.49s48.62-33.79 79.77-33.79 59.38 12.93 79.77 33.8c20.4 20.85 33 49.68 33 81.48s-12.6 60.62-33 81.48c-20.39 20.86-48.62 33.79-79.77 33.79S53.4 253.18 33 232.3"/><path fill="#f0d6b7" fill-rule="evenodd" d="m158.81 151.04-16.66 2.5-22.5 2.5-14.59.42-14.16-.42-10.84-3.33-9.58-10.42-7.5-21.25-1.67-4.58-10-3.34-5.83-9.58-4.17-13.75 4.59-12.08 10.83-3.75 8.75 4.16 4.17 9.17 5-.83 1.66-2.09-1.66-9.58-.42-12.08 2.5-16.67-.1-9.52 7.6-12.15 13.33-9.58 23.34-10 25.83 3.75 22.5 16.25 10.42 16.67 6.66 12.08 1.67 30-5 25.83-9.17 22.92-8.75 12.08"/><path fill="#335061" fill-rule="evenodd" d="m144.65 223.12-59.59 2.5v10l5 35-2.5 2.92-41.66-14.17-2.92-5-4.17-47.08-9.58-28.33-2.08-6.67 33.33-22.92 10.42-4.16 9.16 11.25 7.92 7.08 9.17 2.92 4.16 1.25 5 21.66 3.75 4.59 9.59-3.34-6.67 12.92 36.25 17.08z"/><path fill="#6d6b6d" fill-rule="evenodd" d="m45.9 77.7 10.83-3.74 8.75 4.16 4.17 9.17 5-.83 1.25-5-2.5-9.59 2.5-22.91-2.09-12.5 7.5-8.75 16.25-12.92-4.58-6.25-22.92 11.25-9.58 7.5-5.42 11.67-8.33 11.25-2.5 13.33 1.67 14.17"/><path fill="#dcd9d8" fill-rule="evenodd" d="M62.98 38.54s6.25-15.42 31.25-22.92 1.25-5.41 1.25-5.41L68.4 20.62 57.98 31.04l-4.58 8.33zm-12.5 36.25s-8.75-29.17 24.58-33.33l-1.25-5-22.91 5.41-6.67 21.67 1.67 14.17z"/><path fill="#f7e4cd" fill-rule="evenodd" d="m63.81 113.54 5.46-5.29s2.46.29 2.88 3.2c.41 2.92 1.66 29.17 19.58 43.34 1.63 1.3-13.33-2.08-13.33-2.08l-13.34-20.84m75.42-26.25s.97-12.63 4.37-11.66c3.4.98 3.4 4.38 3.4 4.38s-8.25 5.34-7.77 7.28"/><path fill="#f7e4cd" d="M175.06 59.37s-6.87 1.45-7.5 7.5 7.5 1.25 8.75.84m-51.66-7.91s-9.17 1.24-9.17 7.07c0 5.84 10.42 5.42 13.33 2.92"/><path fill="#f7e4cd" fill-rule="evenodd" d="M67.98 86.87s-15.84-9.58-17.5-.41c-1.67 9.16-5.42 15.83 2.5 25.41l-5.42-1.66-5-12.92-1.66-12.5 9.58-10 10.83.83 6.25 5zm7.5-26.25s7.08-36.66 42.92-43.75c29.5-5.83 45 1.25 50.83 7.92 0 0-26.25-31.25-51.25-21.67-25 9.59-43.33 27.09-42.92 38.34.71 19.16.42 19.16.42 19.16m96.67-31.66s-12.09-.42-12.5 10.41c0 0 0 1.67.83 3.34 0 0 9.58-10.84 15.42-5"/><path fill="#f7e4cd" fill-rule="evenodd" d="M119.24 43.83s-2.08-16.62-16.26-6.96c-9.17 6.25-8.33 15-6.67 16.67 1.67 1.67 1.22 5.02 2.48 2.72 1.27-2.3.85-9.8 5.44-11.89 4.58-2.08 12.1-4.4 15-.54"/><path fill="#49728b" fill-rule="evenodd" d="m80.06 156.46-39.16 17.5s16.25 64.58 7.91 84.58l-5.83-2.08-.42-24.59-10.83-46.66-4.58-12.92 40.83-27.5zm4.03 35.72 5.56 6.78v25h-6.67s-.83-17.5-.83-19.59c0-2.08.83-9.58.83-9.58m1.25 32.91-18.75.84 5.42 3.75 13.33 2.08"/><path fill="#335061" fill-rule="evenodd" d="m148.4 223.54 15.41-.42 3.75 38.34-15.83 2.08z"/><path fill="#335061" fill-rule="evenodd" d="m152.56 223.54 23.34-1.25s9.58-24.17 9.58-25.42 8.33-35 8.33-35l-18.75-19.58-3.75-3.33-10 10v38.75z"/><path fill="#49728b" fill-rule="evenodd" d="m162.98 220.62-14.58 2.92 2.08 11.67c5.42 2.5 14.58-4.17 14.58-4.17m-1.66-83.34 29.16 21.67.84-10-22.09-20.41-7.91 8.75"/><path fill="#fff" fill-rule="evenodd" d="m98.69 305.63-8.63-35-4.29-25.84-.7-19.17 39.04-2.08h24.29l-2.21 43.75 3.75 33.75-.42 6.25-31.66 2.5z"/><path fill="#dcd9d8" fill-rule="evenodd" d="M142.98 223.12s-2.08 43.34 4.17 74.17c0 0-12.5 7.92-30.84 10l35-1.25 4.17-2.5-5-68.33-1.25-14.59"/><path fill="#fff" fill-rule="evenodd" d="m168.27 258.13 16.25-4.59 30.83-1.66 4.59-14.17-8.33-24.58-9.59-1.25-13.33 4.16-12.8 6.25-6.79-1.25-5.29 2.08"/><path fill="#dcd9d8" fill-rule="evenodd" d="M167.98 249.79s10.83-5 12.5-4.58l-4.58-22.92 5.41-2.08s3.75 21.66 3.75 24.16c0 0 23.33 1.25 25.42 1.25 0 0 5-9.58 3.75-19.58l4.58 13.33.42 7.5-6.67 10-7.5 1.67-12.5-.42-4.16-5.41-14.59 2.08-4.58 1.67"/><path fill="#fff" d="m151.6 220.21-9.16-23.33-9.58-13.75s2.08-5.84 5-5.84h9.58l9.17 3.34-.84 15.41z"/><path fill="#dcd9d8" fill-rule="evenodd" d="M153.4 212.29s-11.67-22.5-11.67-25.83c0 0 2.08-5 5-3.75s9.17 4.58 9.17 4.58v-7.92l-14.17-2.91-9.58 1.25 16.25 38.33 3.33.42"/><path fill="#fff" d="m102.44 157.3-11.54-1.26-10.84-3.33v3.75l5.3 5.83 16.66 7.5"/><path fill="#dcd9d8" fill-rule="evenodd" d="M83.81 158.54s12.92 5.42 17.09 4.17l.41 5-11.66-2.5-7.09-5z"/><path fill="#d33833" fill-rule="evenodd" d="M168.23 178.71c-7.07-.2-13.46-1.05-19.05-2.62.38-2.3-.33-4.54.24-6.2 1.56-1.12 4.17-1.1 6.53-1.36-2.04-1-4.9-1.4-7.26-.82-.05-1.6-.77-2.58-1.2-3.83 3.98-1.41 13.36-10.72 18.64-7.64 2.52 1.47 3.58 9.84 3.78 13.9.16 3.38-.3 6.79-1.68 8.57"/><path fill="none" stroke="#d33833" stroke-width="2.5" d="M168.23 178.71c-7.07-.2-13.46-1.05-19.05-2.62.38-2.3-.33-4.54.24-6.2 1.56-1.12 4.17-1.1 6.53-1.36-2.04-1-4.9-1.4-7.26-.82-.05-1.6-.77-2.58-1.2-3.83 3.98-1.41 13.36-10.72 18.64-7.64 2.52 1.47 3.58 9.84 3.78 13.9.16 3.38-.3 6.79-1.68 8.57z"/><path fill="#d33833" fill-rule="evenodd" d="m134.42 167.16-.06 1.6c-2.21 1.46-5.78 1.44-8.2 2.66 3.57.16 6.38 1.02 8.82 2.23l-.16 4.04c-4.05 2.77-7.74 6.9-12.5 9.5-2.26 1.22-10.16 4.38-12.56 3.82-1.36-.31-1.48-2-2.02-3.58-1.16-3.4-3.81-8.8-4.05-13.92-.3-6.45-.94-17.27 6.02-15.94a62.2 62.2 0 0 1 16.49 6.03c2.65 1.45 4.19 3.25 8.22 3.56"/><path fill="none" stroke="#d33833" stroke-width="2.5" d="m134.42 167.16-.06 1.6c-2.21 1.46-5.78 1.44-8.2 2.66 3.57.16 6.38 1.02 8.82 2.23l-.16 4.04c-4.05 2.77-7.74 6.9-12.5 9.5-2.26 1.22-10.16 4.38-12.56 3.82-1.36-.31-1.48-2-2.02-3.58-1.16-3.4-3.81-8.8-4.05-13.92-.3-6.45-.94-17.27 6.02-15.94a62.2 62.2 0 0 1 16.49 6.03c2.65 1.45 4.19 3.25 8.22 3.56z"/><path fill="#d33833" fill-rule="evenodd" d="M138.44 174.86c-.62-3.52-1.33-4.52-1.06-7.59 9.38-6.26 11.14 10.74 1.06 7.59"/><path fill="none" stroke="#d33833" stroke-width="2.5" d="M138.44 174.86c-.62-3.52-1.33-4.52-1.06-7.59 9.38-6.26 11.14 10.74 1.06 7.59z"/><path fill="#ef3d3a" fill-rule="evenodd" d="M152.02 177.71s-2.92-4.17-.83-5.42c2.08-1.25 4.17 0 5.42-2.08 1.24-2.08 0-3.33.41-5.83.42-2.5 2.5-2.92 4.58-3.34 2.09-.41 7.92-1.25 8.75.84l-2.5-7.5-5-1.67-15.83 9.17-.83 4.58v9.17m-37.92 15.83c-.5-6.5-1.03-13-1.62-19.5-.88-9.7 2.33-8 10.74-8 1.28 0 7.9 1.53 8.38 2.5 2.27 4.64-3.8 3.61 2.62 7.11 5.42 2.96 14.99-1.8 12.8-8.36-1.23-1.46-6.38-.45-8.23-1.41l-9.77-5.06c-4.14-2.15-13.71-5.29-18.13-2.28-11.19 7.6.7 26.62 4.7 34.55"/><path fill="#231f20" fill-rule="evenodd" d="M119.24 43.83c-11.36-2.64-17 4.76-20.45 12.43-3.07-.75-1.85-4.93-1.07-7.06 2.03-5.59 10.22-13.03 16.92-12.02 2.88.44 6.78 3.07 4.6 6.65m55.33 12.94.54.02c2.56 5.33 4.78 10.98 8.02 15.68-2.17 5.05-16.42 9.52-16.2.45 3.08-1.34 8.4-.27 11.14-2-1.58-4.33-3.86-8.02-3.5-14.15m-49.52.13c2.44 4.47 3.23 9.16 6.69 12.53 1.56 1.52 4.59 3.37 3.09 7.6-.35 1-2.92 3.22-4.4 3.65-5.41 1.6-18.02.33-13.75-6.42 4.47.21 10.49 2.91 13.83-.34-2.57-4.1-7.15-12.23-5.46-17.01m47.49 45.36c-8.15 5.24-17.23 10.93-30.59 9.6-2.85-2.47-3.94-7.99-1.16-11.63 1.44 2.48.53 7.04 4.55 7.72 7.58 1.3 16.4-4.63 21.84-6.7 3.38-5.7-.29-7.8-3.33-11.46-6.23-7.51-14.6-16.82-14.29-28.07 2.52-1.82 2.74 2.79 3.1 3.63 3.25 7.62 11.44 17.35 17.42 23.87 1.46 1.6 3.88 3.15 4.15 4.2.78 3.1-2.02 6.8-1.7 8.84m-107.4-5.51c-2.56-1.45-3.16-7.87-6.16-8.06-4.29-.26-3.5 8.33-3.49 13.36-2.95-2.68-3.47-10.93-1.3-15.16-2.47-1.21-3.57 1.34-4.94 2.24 1.76-12.8 18.7-5.93 15.89 7.62m112.6 10.84c-3.8 7.22-9.16 15.17-20.3 15.4-.22-2.33-.4-5.88.02-7.28 8.5-.82 13.76-5.15 20.28-8.12m-53.33 4.68c7.1 3.73 20.15 4.13 29.8 3.85.52 2.11.5 4.72.52 7.3-12.4.62-27.06-2.45-30.31-11.15m-1.35 6.96c4.9 12.32 21.78 10.9 36 10.56-.62 1.6-1.98 3.5-3.67 4.18-4.56 1.85-17.13 3.26-23.46-.1-4.01-2.13-6.6-6.96-8.79-9.78-1.06-1.37-6.35-4.85-.08-4.86"/><path fill="#81b0c4" fill-rule="evenodd" d="M171.95 187.22c-5.76 9.86-11.28 20-18.11 28.7 2.87-8.43 4.1-22.53 4.52-33.27 6-2.81 11.13.63 13.59 4.57"/><path fill="#231f20" fill-rule="evenodd" d="M202.94 222.67c-6.45 1.3-10.98 7.56-17.27 7.16 3.46-4.87 9.52-6.93 17.27-7.16m2.84 10.1c-5.25.55-11.43 1.4-16.76.96 2.53-3.85 12.25-2.52 16.76-.96m1.82 8.7c-5.9.13-13.24 0-18.86-.46 3.32-3.57 15.03-1.33 18.87.46"/><path fill="#dcd9d8" fill-rule="evenodd" d="M160.83 265.28c.85 7.42 3.79 14.93 3.42 23.06-3.27 1.1-5.14 2.06-9.52 2.06-.3-6.9-1.23-17.46-.96-24.04 2.16.14 5.33-1.54 7.06-1.08"/><path fill="#f0d6b7" fill-rule="evenodd" d="M151.3 155.94c-2.96 1.94-5.49 4.35-8.34 6.42-6.31.31-9.76-.44-14.4-4.07.08-.29.54-.16.56-.51 6.76 3.01 15.36-1.23 22.19-1.84"/><path fill="#81b0c4" fill-rule="evenodd" d="M115.8 202.04c1.86-8.06 9.14-12.22 15.75-16.66 6.83 8.66 10.98 19.8 15.55 30.55-10.8-3.26-21.83-8.54-31.3-13.9"/><path fill="#231f20" fill-rule="evenodd" d="M153.78 266.36c-.28 6.58.64 17.13.95 24.04 4.38 0 6.25-.96 9.52-2.06.37-8.13-2.57-15.64-3.42-23.06-1.73-.46-4.9 1.22-7.05 1.08m-68.15-37.44c2.89 26.53 7.07 48.83 14.73 72.32 17.02 5.17 37.53 5.62 52.57.95-2.76-13.25-1.56-29.4-3.17-43.54-1.22-10.64-.6-21.34-2.26-32.19-18.23-3.8-43.98-.89-61.87 2.46m66.17-2.3c-.15 11.4.51 22.64 1.38 34.05 4.38-.66 7.35-1.1 11.41-1.99-1.32-10.98-1.16-23.34-3.84-33.05-3.11.02-5.85-.04-8.95 1zm22.2-1.83c-2.08-.48-4.5-.02-6.48.02.93 9.29 3.2 19.54 4 29.29 3.11.1 4.78-1.38 7.35-1.87.14-8.56-.75-20.35-4.87-27.44m33.6 30.7c6.5-1.58 10.6-9.55 8.78-17.73-1.22-5.5-3.4-15.86-5.72-19.37-1.72-2.6-6.39-6.01-10.11-3.63-6.06 3.88-16.73 5-21.15 9.7 2.22 7.38 2.9 17.5 3.82 26.85 7.57.47 16.88-2.08 23.17.63-4.4 1.42-10.1 1.43-13.89 3.5 3.1 1.5 10.37 1.2 15.1.05m-60.5-39.56c-4.57-10.75-8.72-21.89-15.54-30.55-6.62 4.44-13.9 8.6-15.75 16.66 9.46 5.35 20.5 10.63 31.29 13.89m11.26-33.28c-.43 10.74-1.65 24.84-4.52 33.27 6.83-8.7 12.35-18.84 18.1-28.7-2.45-3.94-7.58-7.38-13.58-4.57m-12.77-4.54c-2.58-.28-4.78 2.97-8.15 1.57-.77.85-1.47 1.77-2.26 2.6 7.44 8.97 10.82 21.68 16.56 32.2 3.08-10.1 2.73-21.19 3.4-32.23-4.23.27-6.58-3.83-9.55-4.14m-8.2-10.84c-.28 3.07.43 4.07 1.05 7.59 10.09 3.15 8.32-13.85-1.06-7.59zm-11.2-3.67a62.2 62.2 0 0 0-16.48-6.03c-6.96-1.34-6.31 9.49-6.02 15.95.24 5.1 2.9 10.51 4.05 13.91.54 1.59.66 3.27 2.02 3.58 2.4.56 10.3-2.6 12.55-3.83 4.77-2.6 8.46-6.72 12.51-9.49l.16-4.04a21.3 21.3 0 0 0-8.82-2.23c2.43-1.22 5.99-1.2 8.2-2.65l.06-1.62c-4.03-.3-5.57-2.1-8.22-3.55zm-41.51-7.54c-3.6 3.66 10.12 8.65 14.49 8.92-.03-2.32 1.32-4.5 1.05-6.16-5.2-.92-12.01-.31-15.54-2.76m44.44 1.72c-.02.35-.48.22-.56.52 4.64 3.62 8.09 4.37 14.4 4.06 2.85-2.07 5.38-4.49 8.35-6.42-6.83.6-15.43 4.85-22.2 1.84zm40.79 12.37c-.2-4.07-1.26-12.44-3.78-13.9-5.28-3.09-14.66 6.22-18.64 7.63.44 1.25 1.15 2.24 1.2 3.83 2.36-.58 5.22-.19 7.26.82-2.36.26-4.97.24-6.53 1.36-.57 1.66.14 3.9-.24 6.2 5.59 1.58 11.98 2.42 19.05 2.62 1.37-1.79 1.84-5.19 1.68-8.57zM78.6 159.6c-1.14-.8-8.8-10.78-9.85-10.37-13.87 5.47-26.83 14.93-38.42 23.87 11.05 23.7 15.5 52.75 16.3 80.74 12.65 5.92 23.77 14.45 40.94 15.35-1.99-14.06-3.8-26.6-4.93-39.85-4.32-1.82-10.5.09-14.54-.56-.04-4.87 6.16-2.13 6.68-5.4.39-2.48-3.41-2.67-2.18-6.56 3.16 1.14 4.82 3.68 8.19 4.63 3.07-6.73-.05-18.64.4-24.26.08-1.06.52-5.85 2.89-5.01 2.1.74-.12 12.75.1 18.07.22 4.9-.58 9.65 1.4 12.73a474 474 0 0 1 51.41-4.2c-3.95-1.7-8.64-3.3-13.78-6.2-2.8-1.58-11.58-4.85-12.39-7.5-1.28-4.22 3.37-6.47 4.17-10.09-8.38 4.57-10.01-4.38-12-10.72-1.79-5.74-2.81-10.03-3.25-13.34-7.22-3.44-14.93-6.92-21.14-11.33m83.97-9.16c11.55-5.6 13.64 20.94 9.1 29.49.7 2.55 3.12 3.53 4.1 5.82-6.45 11.55-13.61 22.33-20.19 33.74 4.9-3.04 11.88-.54 17.64-2.82 2.1-.83 3.63-5.65 5.23-9.5 4.38-10.61 8.98-23.99 11.03-34.1.46-2.31 1.72-7.34 1.44-9.4-.5-3.67-5.5-6.4-8.03-8.66-4.67-4.2-7.61-7.9-12.49-11.82-1.97 2.92-6.21 4.88-7.83 7.25M52.18 47.98c-5.5 6.06-4.35 17.4-3.68 25.48 9.95-6.26 23.16.5 23.03 11.15 4.75-.13 1.78-5.94.92-9.68-2.81-12.22 4.73-25.5.34-36.67-8.52.65-15.53 4.13-20.6 9.72zm39.4-35.16c-12.47 3.54-28.44 12.6-33.56 23.79 3.96-.58 6.72-2.58 10.63-2.83 1.48-.1 3.41.62 5.11.2 3.39-.84 6.25-8.43 8.8-11.26 2.5-2.75 5.48-3.93 7.53-6.45 1.32-.63 3.26-.59 3.34-2.57-.57-.6-1.17-1.07-1.86-.88zm64.87 3.33c-12.93-7.3-34.83-12.8-48.59-5.93-11.1 5.53-26.11 14.7-31.23 26.3 4.78 11.2-1.42 21.47-1.81 32.84-.21 6.05 2.85 11.33 3.08 17.92-1.63 2.7-6.63 3.03-10.09 2.85-1.16-5.83-3.2-12.38-9.2-13.04-8.5-.93-14.7 6.1-15.09 13.44-.46 8.64 6.63 22.95 16.68 21.96 3.88-.38 4.84-4.28 9.07-4.24 2.29 4.58-3.54 6.01-4.14 9.29-.15.84.49 4.14.86 5.7 1.82 7.53 5.9 17.3 9.9 23.03 5.08 7.29 15.07 8.38 25.8 9.1 1.93-4.14 9-3.8 13.6-2.71-5.52-2.2-10.65-7.5-14.9-12.18-4.89-5.38-9.84-11.16-10.09-18.2 9.24 12.81 16.86 24 33.65 29.63 12.7 4.26 27.54-1.95 37.3-8.8 4.05-2.85 6.47-7.37 9.34-11.51 10.78-15.5 15.8-37.6 14.7-59.04-.46-8.84-.44-17.65-3.4-23.6-3.1-6.22-13.59-11.78-19.73-6.16-1.13-6.05 5.1-9.79 12.44-7.61-5.23-6.75-10.72-14.85-18.15-19.05zm24.1 199.45c10.11-5.02 29-13.52 35.34.02 2.34 5 5.08 13.44 6.3 18.59 1.7 7.27-1.86 22.55-9.34 25-6.6 2.15-14.3 2.02-22.25.42a12.1 12.1 0 0 1-2.7-3.55c-5.69-.22-11 .3-15.49 2.64.43 4.2-2.41 4.87-5.08 5.73-1.97 7.83 3.95 18.05 2.54 25.19-1.02 5.08-7.27 5.87-11.87 6.82-.15 2.82.2 5.18.52 7.57-1.05 3.87-5.77 6.08-10.24 6.62-14.7 1.77-37.01 2.56-51.15-2.52-3.95-9.68-7.05-21.45-10.34-32.5-13.79 1.47-24.94-5.95-35.46-10.81-3.64-1.69-8.67-2.62-10.03-5.52-1.32-2.8-.78-8.18-1.1-13.26-.84-12.97-1.55-25.48-4.98-38.76-1.54-5.96-4.22-11.22-6.09-16.96-1.73-5.32-4.75-11.9-5.53-17.21-1.17-7.87 6.24-8.3 10.97-11.71 7.32-5.27 13.07-8.19 21-12.95 2.35-1.4 9.43-4.97 10.24-6.61 1.6-3.26-2.75-7.85-3.91-10.4a31.3 31.3 0 0 1-3.07-11.45 22.08 22.08 0 0 1-14.74-9.47c-5.04-7.4-8.53-21.06-4.17-31.46.34-.82 2.05-2.43 2.3-3.68.5-2.48-.94-5.77-1.02-8.4-.46-13.52 2.28-25.16 11.38-29.24 3.7-14.7 16.9-19.6 29.36-26.9 4.66-2.74 9.79-4.5 15.09-6.44 19-7 48.17-5.68 63.95 6.26 6.7 5.06 17.38 15.74 21.21 23.47 10.1 20.43 9.38 54.55 2.32 79.4-.95 3.33-2.33 8.23-4.25 12.24-1.34 2.8-5.51 8.4-5 10.87.51 2.55 9.5 9.37 11.42 11.23 3.47 3.34 10.06 7.79 10.6 12 .57 4.5-1.98 10.65-3.28 14.98-4.32 14.48-8.54 27.85-13.45 40.75"/><path fill="#f7e4cd" fill-rule="evenodd" d="M113.11 115.43c.55-.73 3.57-1.84 7.79.2 0 0-5 .83-4.59 9.16l-2.08-.41s-2.15-7.56-1.12-8.95"/><path fill="#1d1919" fill-rule="evenodd" d="M149.65 187.08a2.3 2.3 0 1 1-4.59 0 2.3 2.3 0 0 1 4.59 0m2.29 10.62a2.3 2.3 0 1 1-4.59 0 2.3 2.3 0 0 1 4.59 0"/></svg>