<svg xmlns="http://www.w3.org/2000/svg" viewBox="0 0 52 50">
  <defs/>
  <g fill="#7BC9E5" fill-rule="evenodd">
    <path d="M3.27 11.7c-4.56 6.54-4 15.06-.5 22.02.07.17.16.33.25.5.04.1.1.2.16.3l.1.19.18.32c.1.2.22.38.33.57l.2.31.38.6a15.64 15.64 0 00.74 1.08l.09.13.51.68.19.24c.16.2.31.4.47.58l.18.22.66.75v.01c.02 0 .02.02.04.03a31.14 31.14 0 001.4 1.44l.23.2c.23.23.47.45.72.67h.02l.12.11.66.56.27.22.56.43.3.23a33.03 33.03 0 00.84.6l.06.05.6.4.26.16a42.58 42.58 0 001.9 1.12l.4.2.5.27.12.05.2.1.82.38.16.07.94.4.23.08a35.01 35.01 0 001.97.69l.24.07c.34.1.67.22 1.01.29 22.04 4.01 28.44-13.25 28.44-13.25-5.38 7-14.92 8.85-23.96 6.8-.34-.08-.67-.19-1.01-.29a29.76 29.76 0 01-1.22-.39l-.14-.05-.85-.31-.24-.1-.93-.38-.18-.08a47 47 0 01-.78-.37l-.23-.1-.6-.31-.4-.21-.73-.4-.24-.14a37.05 37.05 0 01-1.87-1.2l-.21-.15a37.27 37.27 0 01-.92-.67l-.57-.44a24.6 24.6 0 01-.96-.8l-.09-.07-.74-.68-.21-.2-.54-.53-.21-.22A21.88 21.88 0 0111.03 33l-.18-.2-.48-.6-.18-.23c-.19-.24-.37-.48-.55-.74C4.62 24.38 2.8 14.94 6.82 7.18"/>
    <path d="M17.42 6.18c-3.3 4.74-3.12 11.08-.55 16.1.42.84.9 1.66 1.45 2.43.5.7 1.04 1.55 1.7 2.12.23.26.48.51.74.77l.2.2.75.69.03.03c.3.26.59.5.89.73l.2.16c.3.23.6.46.92.68l.03.01c.13.1.28.19.42.28.07.04.13.1.2.13.22.15.45.29.68.42l.1.06.6.33c.07.05.15.08.22.12l.42.22.07.03.87.4.2.09.72.3.31.1.67.23.3.1c.31.1.63.23.96.28C47.52 36 51.46 22.9 51.46 22.9c-3.54 5.1-10.4 7.53-17.71 5.63a14.95 14.95 0 01-1.25-.37l-.68-.23-.3-.12c-.25-.1-.5-.18-.73-.29l-.19-.08-.9-.41-.44-.23-.25-.13c-.2-.1-.38-.21-.57-.32l-.13-.07-.68-.42-.21-.14a21.2 21.2 0 01-1.36-.96l-.2-.17a20.43 20.43 0 01-6.96-9.9c-1.27-4.06-.99-8.62 1.2-12.32"/>
    <path d="M29.3 2.05a9.9 9.9 0 00-.78 9.57 13.48 13.48 0 007.73 7.22l.42.15.2.06c.2.06.39.14.6.18 9.39 1.81 11.93-4.82 12.62-5.8-2.24 3.21-5.99 3.98-10.6 2.87a14.77 14.77 0 01-2.43-.9c-.8-.39-1.59-.86-2.31-1.41-4.13-3.13-6.68-9.08-3.99-13.94"/>
  </g>
</svg>