<svg xmlns="http://www.w3.org/2000/svg" fill="none" viewBox="0 0 12 12">
  <path fill="#fff" d="M2.6004.81C1.414.81.443 1.781.443 2.9675v6.6953c0 1.1865.971 2.1572 2.1575 2.1572h6.6953c1.1865 0 2.1572-.9707 2.1572-2.1572V2.9675C11.453 1.7811 10.4823.81 9.2958.81H2.6004Zm.5427 1.8169c.5689 0 .9193.3734.9301.8644 0 .48-.3613.864-.9411.864h-.0107c-.558 0-.9188-.384-.9188-.864 0-.491.3717-.8644.9405-.8644Zm4.9025 2.2945c1.094 0 1.9142.715 1.9142 2.2518v2.8688H8.2971V7.3655c0-.6725-.2407-1.1314-.8424-1.1314-.4593 0-.7331.3093-.8534.608-.0439.107-.0547.2562-.0547.4057v2.7942H4.884s.0218-4.5339 0-5.0033h1.663v.7085c.221-.3409.6163-.8258 1.4987-.8258Zm-5.7449.1177h1.6627v5.0029H2.3007V5.039Z"/>
</svg>