<svg xmlns="http://www.w3.org/2000/svg" fill="none" viewBox="0 0 12 12"><path fill="#fff" d="M2.6.81A2.164 2.164 0 0 0 .444 2.968v6.695c0 1.187.971 2.157 2.158 2.157h6.695c1.187 0 2.157-.97 2.157-2.157V2.968c0-1.187-.97-2.158-2.157-2.158zm.543 1.817c.57 0 .92.373.93.864 0 .48-.36.864-.94.864h-.011c-.558 0-.919-.384-.919-.864 0-.49.372-.864.94-.864m4.903 2.295c1.094 0 1.914.715 1.914 2.251v2.87H8.297V7.365c0-.673-.24-1.132-.842-1.132-.46 0-.733.31-.853.608a1.1 1.1 0 0 0-.055.406v2.794H4.884s.022-4.534 0-5.003h1.663v.708c.221-.34.617-.826 1.499-.826m-5.745.117h1.663v5.003H2.3z"/></svg>