<svg xmlns="http://www.w3.org/2000/svg" fill="none" viewBox="0 0 414 414">
  <path fill="#78B0B5" fill-rule="evenodd" d="M299.113 1.488C286.228 4.398 276.626 8.41 265 15.738c-6.153 3.878-64.258 61.085-66.655 65.623-3.535 6.692-.991 15.94 5.607 20.386 3.709 2.499 11.55 3.082 15.364 1.142 1.201-.612 15.234-14.035 31.184-29.829 15.95-15.795 31.262-30.127 34.026-31.849 19.786-12.329 46.697-12.812 66.987-1.204 30.598 17.507 40.316 60.091 20.607 90.3-2.657 4.072-21.264 23.344-54.33 56.272-47.962 47.76-50.666 50.271-58.414 54.235-11.314 5.788-19.346 7.501-32.376 6.904-16.503-.757-28.105-5.456-41.331-16.742-6.163-5.26-10.285-6.646-16.37-5.504-4.922.923-10.904 6.905-11.827 11.827-1.335 7.117.144 10.619 7.47 17.68 12.232 11.79 31.492 21.185 49.297 24.048 10.618 1.707 29.982.767 40.261-1.955 10.29-2.724 24.242-9.544 32.5-15.886 9.851-7.565 107.161-105.685 111.261-112.186 5.63-8.927 9.544-17.334 12.433-26.703 2.535-8.222 2.712-10.006 2.712-27.297 0-17.29-.177-19.075-2.712-27.297-9.871-32.015-32.671-54.789-64.406-64.333C338.712 1.092 335.294.68 321.5.386c-11.413-.243-17.831.073-22.387 1.102ZM164 135.9c-14.114 3.118-27.041 9.116-37.93 17.599C118.204 159.628 19.907 258.55 16.268 264c-4.964 7.434-10.092 18.396-12.964 27.712C.771 299.924.594 301.713.594 319c0 17.366.17 19.052 2.763 27.5 3.152 10.266 9.881 23.528 15.888 31.316 13.435 17.419 34.272 30.189 56.664 34.726 11.647 2.36 34.409 1.6 45.091-1.504 8.875-2.58 21.921-8.537 28.673-13.093 5.984-4.038 63.921-61.376 65.988-65.306 3.526-6.703.982-15.941-5.613-20.386-3.713-2.502-11.558-3.082-15.364-1.136-1.201.614-15.459 14.276-31.684 30.359-23.45 23.244-30.833 29.97-36 32.796-24.689 13.505-55.289 9.972-75.913-8.763-5.869-5.331-13.436-17.042-16.003-24.766-6.029-18.141-4.196-38.043 5.026-54.579 2.39-4.283 15.746-18.243 54.775-57.251 49.417-49.391 51.96-51.764 59.729-55.73 10.047-5.13 18.351-7.149 29.476-7.168 15.413-.027 29.472 4.973 41.257 14.673 7.608 6.262 11.41 8.309 15.435 8.31 10.306.005 17.71-9.231 15.755-19.652-1.379-7.353-18.391-21.104-34.483-27.875-12.629-5.314-19.228-6.643-35.054-7.064-11.572-.307-16.216-.006-23 1.493Z" clip-rule="evenodd"/>
</svg>