<svg xmlns="http://www.w3.org/2000/svg" viewBox="0 0 294 188"><g fill="none" fill-rule="evenodd" transform="translate(8 -33)"><path fill="#FFF" fill-rule="nonzero" d="M146.2 80 145 59h-12l-1.236 21m14.436 94-1.2 21h-12l-1.236-21M186 134.2l21-1.2v-12l-21-1.236M92 134.2 71 133v-12l21-1.236m85.325-20.907 14-15.698-8.484-8.485-15.724 13.975m-56.26 76.676-15.698 14-8.485-8.484 13.975-15.724m66.494 10.208 15.698 14 8.485-8.484-13.975-15.724m-76.676-56.26-14-15.698 8.484-8.485 15.724 13.975m52.755-2.316 6.928-19.86-11.087-4.593-9.178 18.929m-22.635 92.369-9.145 18.942-11.087-4.592 6.895-19.875m65.338-16.015 19.86 6.928 4.593-11.087-18.929-9.178m-92.369-22.635L73.88 106.52l4.592-11.087 19.875 6.895m86.831 13.338 18.942-9.145-4.592-11.087-19.875 6.895m-81.32 49.309-19.86 6.928-4.593-11.087 18.929-9.178m57.525 34.877 9.145 18.942 11.087-4.592-6.895-19.875m-49.309-81.32-6.928-19.86 11.087-4.593 9.178 18.929"/><circle cx="139" cy="127" r="23" fill="#FFF" fill-rule="nonzero"/><g stroke="#FFF" transform="translate(0 40)"><path stroke-width="14" d="M139 174C73 174 22 120 .5 87 22 54 73 0 139 0s117 54 138.5 87C256 120 205 174 139 174z"/><circle cx="139" cy="87" r="47.5" stroke-width="19"/></g></g></svg>