<svg xmlns="http://www.w3.org/2000/svg" viewBox="0 0 240 234"><g data-name="Layer 2"><g data-name="Photo Surface"><rect width="240" height="234" fill="#001e36" data-name="Outline no shadow" rx="42.5"/></g><path fill="#31a8ff" d="M54.042 164.095V61.216q0-1.126.966-1.127c1.715 0 3.282-.025 5.644-.08q3.54-.08 7.647-.161 4.106-.08 8.695-.161 4.588-.08 9.096-.08 12.233 0 20.608 3.058a35.76 35.76 0 0 1 13.444 8.211 31.5 31.5 0 0 1 7.325 11.35 37.7 37.7 0 0 1 2.254 12.961q0 12.883-5.957 21.252a33.66 33.66 0 0 1-16.1 12.156c-6.762 2.523-14.276 3.379-22.54 3.379q-3.543 0-4.991-.08-1.449-.08-4.347-.082v32.122a1.28 1.28 0 0 1-1.449 1.45H55.169q-1.127.001-1.127-1.289M75.786 79.41v33.555q2.09.162 3.864.161h5.313a37.8 37.8 0 0 0 11.512-1.838 17.36 17.36 0 0 0 8.21-5.313q3.14-3.701 3.14-10.304a16.3 16.3 0 0 0-2.335-8.855 15 15 0 0 0-7.003-5.715 29.8 29.8 0 0 0-11.753-2.013q-3.864 0-6.842.08-2.981.084-4.106.242m116.185 27.454a37.6 37.6 0 0 0-9.58-3.381 51 51 0 0 0-11.189-1.288 20.8 20.8 0 0 0-6.037.724 5.43 5.43 0 0 0-3.14 2.013 5.07 5.07 0 0 0-.805 2.737 4.28 4.28 0 0 0 .966 2.576 11 11 0 0 0 3.38 2.656 68 68 0 0 0 7.085 3.3 70.2 70.2 0 0 1 15.375 7.326 23.4 23.4 0 0 1 7.89 8.292 22.1 22.1 0 0 1 2.334 10.304 23.14 23.14 0 0 1-3.864 13.282 25.4 25.4 0 0 1-11.19 8.936q-7.328 3.219-18.112 3.22a65.5 65.5 0 0 1-13.605-1.288 43.4 43.4 0 0 1-10.223-3.22 2.09 2.09 0 0 1-1.127-1.932v-17.388a.95.95 0 0 1 .403-.886.78.78 0 0 1 .885.08 43 43 0 0 0 12.397 4.911 51 51 0 0 0 11.753 1.53q5.634 0 8.291-1.45a4.55 4.55 0 0 0 2.657-4.185q0-2.09-2.415-4.025-2.415-1.932-9.821-4.67a59.2 59.2 0 0 1-14.249-7.244 24.6 24.6 0 0 1-7.567-8.453 22.2 22.2 0 0 1-2.334-10.223 23.1 23.1 0 0 1 3.38-12.075 24.57 24.57 0 0 1 10.466-9.177q7.083-3.54 17.71-3.542a78.4 78.4 0 0 1 12.397.885 32.5 32.5 0 0 1 8.63 2.335 1.47 1.47 0 0 1 .967.885 4.5 4.5 0 0 1 .16 1.208v16.26a1.08 1.08 0 0 1-.482.967 1.56 1.56 0 0 1-1.386 0" data-name="Outlined Mnemonics &amp; Logos"/></g></svg>