<svg xmlns="http://www.w3.org/2000/svg" viewBox="0 0 240 234">
  <g data-name="Layer 2">
    <g data-name="Photo Surface">
      <rect width="240" height="234" fill="#001e36" data-name="Outline no shadow" rx="42.5"/>
    </g>
    <path fill="#31a8ff" d="M54.0417 164.0952V61.2163c0-.7498.3222-1.127.9663-1.127 1.7153 0 3.2816-.0251 5.6439-.0806q3.5398-.079 7.6474-.1609 4.106-.0794 8.6944-.161 4.5878-.0792 9.0961-.0807 12.2337 0 20.608 3.0591a35.755 35.755 0 0 1 13.4438 8.211 31.496 31.496 0 0 1 7.3252 11.3506 37.649 37.649 0 0 1 2.2544 12.9604q0 12.8826-5.957 21.252a33.6584 33.6584 0 0 1-16.1001 12.1555c-6.7622 2.5232-14.2764 3.379-22.54 3.379q-3.5435 0-4.9912-.0806-1.4487-.0795-4.3467-.0806v32.1218a1.281 1.281 0 0 1-1.4492 1.449H55.1686c-.752 0-1.127-.4277-1.127-1.288Zm21.7444-84.686v33.555q2.0904.1622 3.8638.1608h5.313a37.7594 37.7594 0 0 0 11.5117-1.8376 17.3582 17.3582 0 0 0 8.211-5.313q3.1391-3.7017 3.1396-10.304a16.2828 16.2828 0 0 0-2.335-8.8552 15.014 15.014 0 0 0-7.0034-5.7154 29.8395 29.8395 0 0 0-11.753-2.0124q-3.8642 0-6.8422.0803-2.981.0832-4.1055.2415Zm116.185 27.4538a37.6431 37.6431 0 0 0-9.5796-3.3811 50.875 50.875 0 0 0-11.1894-1.288 20.8218 20.8218 0 0 0-6.0376.7245 5.4248 5.4248 0 0 0-3.1397 2.0125 5.0699 5.0699 0 0 0-.8046 2.737 4.2754 4.2754 0 0 0 .9658 2.576 10.9582 10.9582 0 0 0 3.3808 2.6565 67.449 67.449 0 0 0 7.084 3.3005 70.2008 70.2008 0 0 1 15.3755 7.3254 23.3824 23.3824 0 0 1 7.8892 8.2915 22.1074 22.1074 0 0 1 2.3345 10.3042 23.143 23.143 0 0 1-3.8638 13.2825 25.4157 25.4157 0 0 1-11.19 8.9353q-7.3278 3.219-18.1122 3.2202a65.5037 65.5037 0 0 1-13.6045-1.288 43.4084 43.4084 0 0 1-10.2236-3.22 2.085 2.085 0 0 1-1.127-1.9322v-17.388a.9457.9457 0 0 1 .4028-.8854.781.781 0 0 1 .8852.0805 43.0113 43.0113 0 0 0 12.397 4.9104 51.1218 51.1218 0 0 0 11.753 1.5296q5.6338 0 8.2915-1.449a4.5512 4.5512 0 0 0 2.6567-4.186q0-2.0904-2.415-4.025-2.4148-1.932-9.8213-4.6691a59.184 59.184 0 0 1-14.2485-7.2449 24.5718 24.5718 0 0 1-7.5669-8.4526 22.202 22.202 0 0 1-2.3345-10.2234 23.0804 23.0804 0 0 1 3.3809-12.075 24.5705 24.5705 0 0 1 10.4653-9.177q7.0825-3.5394 17.71-3.542a78.4012 78.4012 0 0 1 12.397.8855 32.4968 32.4968 0 0 1 8.6307 2.3345 1.4683 1.4683 0 0 1 .9658.8855 4.4487 4.4487 0 0 1 .1611 1.2075v16.261a1.0822 1.0822 0 0 1-.4829.966 1.556 1.556 0 0 1-1.3857.0001Z" data-name="Outlined Mnemonics &amp; Logos"/>
  </g>
</svg>