<svg xmlns="http://www.w3.org/2000/svg" fill="none" viewBox="0 0 12 15"><path fill="#fff" fill-rule="evenodd" d="M5.79 4C4.924 4 3.5 5.12 3.5 6s1.424 2.284 2.29 2.284c.417 0 .915.016 1.21-.284s1-1.076 1-1.5-.342-1.403-.637-1.703S6.207 4 5.79 4m0-2.723c2.572 0 4.968 1.36 4.968 5.113 0 2.384-1.407 4.494-4.758 7.11-.284.224-.217.224-.5 0C2.148 10.876.917 8.774.917 6.39c0-3.752 2.3-5.113 4.873-5.113" clip-rule="evenodd"/><path fill="#22272A" fill-rule="evenodd" d="M5.79 13.007c3.19-2.523 4.507-4.74 4.507-6.617 0-3.114-2.396-4.72-4.507-4.72S1.283 3.276 1.283 6.39c0 1.876 1.316 4.086 4.508 6.617M3.218 6.27c0-1.416 1.14-2.6 2.573-2.6a2.56 2.56 0 0 1 1.826.767 2.6 2.6 0 0 1 .748 1.833 2.6 2.6 0 0 1-.748 1.833 2.56 2.56 0 0 1-1.826.767c-1.433 0-2.573-1.184-2.573-2.6m3.053 7.632c3.352-2.616 5.027-5.128 5.027-7.512 0-3.752-2.934-5.72-5.507-5.72S.283 2.638.283 6.39q0 3.576 5.027 7.512a.77.77 0 0 0 .96 0M4.217 6.27c0-.88.708-1.6 1.573-1.6.418 0 .818.169 1.113.469s.46.707.46 1.13a1.6 1.6 0 0 1-.46 1.132 1.56 1.56 0 0 1-1.113.469c-.865 0-1.573-.72-1.573-1.6" clip-rule="evenodd"/></svg>