<svg xmlns="http://www.w3.org/2000/svg" fill="none" viewBox="0 0 320 320"><circle cx="160" cy="160" r="160" fill="#fff"/><path fill="#111" fill-rule="evenodd" d="M135.16 39 60.88 58.45l-20.47 74.67 25.6 26.27L40 185.24l19.27 75 73.95 20.65 26.02-25.85 25.6 26.28 74.28-19.45 20.46-74.68-25.6-26.26L280 135.08l-19.27-75-73.96-20.66-26 25.85L135.15 39ZM89.58 72.81l39.13-10.25 17.1 17.56-24.95 24.79-31.28-32.1Zm85.9 7.54 17.38-17.26 38.95 10.88-31.79 31.58-24.55-25.2ZM63.84 127l10.78-39.33 31.28 32.1-24.95 24.78L63.86 127Zm150.87-6.35 31.8-31.59 10.14 39.51-17.39 17.27-24.55-25.19Zm-79.15-.64 24.95-24.8 24.54 25.2-24.94 24.79-24.55-25.2Zm-39.9 39.63 24.95-24.79 24.56 25.2-24.96 24.78-24.55-25.19Zm79.16.65 24.94-24.79 24.55 25.2-24.95 24.78-24.54-25.2Zm-111.5 31.48 17.4-17.28 24.54 25.2-31.79 31.57-10.15-39.5Zm71.6 8.15 24.95-24.78 24.55 25.2-24.95 24.78-24.55-25.2Zm79.15.66 24.95-24.79 17.11 17.55-10.77 39.33-31.3-32.1Zm-125.9 45.78 31.8-31.59 24.55 25.2-17.39 17.27-38.95-10.88Zm86-6.15 24.95-24.79 31.28 32.1-39.12 10.24-17.1-17.55Z" clip-rule="evenodd"/></svg>