<svg xmlns="http://www.w3.org/2000/svg" fill="none" viewBox="0 0 346 260">
  <path fill="#2D4552" d="M114.444 146.556c-12.886 3.657-21.3399 10.069-26.9089 16.476 5.334-4.668 12.4789-8.952 22.1169-11.684 9.858-2.794 18.268-2.774 25.217-1.433v-5.434c-5.928-.542-12.724-.11-20.425 2.075Zm-27.4979-45.68-47.8565 12.608s.8722 1.232 2.4872 2.876l40.5763-10.692s-.575 7.409-5.5683 14.037c9.4453-7.146 10.3613-18.829 10.3613-18.829Zm40.0589 112.471C59.6583 231.486 24.0273 153.438 13.2397 112.928 8.2557 94.2291 6.08 80.0671 5.5001 70.9281c-.0623-.949-.0335-1.749.0336-2.482-3.4936.211-5.1662 2.027-4.8259 7.275.58 9.134 2.7556 23.295 7.7396 41.9999C19.2302 158.225 54.866 236.273 122.213 218.134c14.659-3.949 25.672-11.142 33.939-20.324-7.62 6.882-17.157 12.302-29.147 15.537Zm12.656-160.2369v4.793h26.416c-.542-1.697-1.088-3.226-1.63-4.793h-24.786Z"/>
  <path fill="#2D4552" d="M171.981 92.584c11.88 3.374 18.163 11.703 21.484 19.074l13.246 3.762s-1.807-25.797-25.141-32.425c-21.829-6.202-35.262 12.129-36.896 14.501 6.35-4.524 15.623-8.228 27.307-4.912Zm105.441 19.193c-21.849-6.23-35.277 12.139-36.887 14.478 6.355-4.519 15.623-8.224 27.302-4.893 11.861 3.379 18.139 11.698 21.47 19.074l13.265 3.776s-1.836-25.802-25.15-32.435Zm-13.16 68.018-110.19-30.805s1.193 6.048 5.77 13.879l92.775 25.936c7.638-4.419 11.645-9.01 11.645-9.01Zm-76.395 66.307c-87.249-23.392-76.701-134.559-62.583-187.237 5.813-21.709 11.789-37.8447 16.745-48.661-2.957-.6087-5.406.9489-7.826 5.8706C128.941 26.747 122.212 44.124 115.7 68.45c-14.114 52.677-24.6622 163.84 62.583 187.232 41.123 11.017 73.159-5.727 97.04-32.023-22.668 20.531-51.609 32.042-87.456 22.443Z"/>
  <path fill="#E2574C" d="M139.661 187.296v-22.433l-62.3287 17.674s4.6056-26.76 37.1117-35.981c9.858-2.794 18.269-2.775 25.217-1.433V53.11h31.208c-3.398-10.5-6.685-18.584-9.446-24.201-4.567-9.297-9.249-3.134-19.878 5.756-7.486 6.254-26.406 19.596-54.8771 27.268-28.4714 7.677-51.489 5.641-61.0928 3.978C11.96 63.562 4.8386 60.572 5.5048 70.928c.5798 9.134 2.7556 23.296 7.7396 42C24.0271 153.433 59.6629 231.481 127.01 213.342c17.592-4.74 30.009-14.109 38.616-26.051h-25.965v.005ZM39.0847 113.484l47.8612-12.608s-1.395 18.412-19.3373 23.142c-17.9473 4.725-28.5239-10.534-28.5239-10.534Z"/>
  <path fill="#2EAD33" d="M319.786 54.174c-12.441 2.181-42.288 4.898-79.174-4.989-36.896-9.881-61.376-27.1626-71.075-35.2856-13.749-11.516-19.797-19.5192-25.749-7.4137-5.262 10.6773-11.991 28.0543-18.504 52.3803-14.113 52.677-24.661 163.84 62.583 187.232 87.226 23.372 133.663-78.178 147.777-130.86 6.513-24.321 9.369-42.738 10.155-54.613.896-13.452-8.344-9.547-26.013-6.451ZM144.497 97.756S158.246 76.372 181.565 83c23.334 6.628 25.141 32.425 25.141 32.425l-62.209-17.669Zm56.923 95.957c-41.017-12.015-47.343-44.723-47.343-44.723l110.185 30.806c0-.005-22.241 25.782-62.842 13.917Zm38.957-67.218s13.73-21.369 37.045-14.722c23.314 6.638 25.15 32.435 25.15 32.435l-62.195-17.713Z"/>
  <path fill="#D65348" d="m117.88 171.04-40.5478 11.492s4.4046-25.092 34.2748-35.036L88.6468 61.3301l-1.984.603c-28.4712 7.678-51.4888 5.641-61.0926 3.978-13.615-2.348-20.7364-5.339-20.0703 5.018.5799 9.134 2.7556 23.295 7.7396 41.9999 10.7828 40.504 46.4186 118.552 113.7655 100.413l1.984-.623-11.109-41.679Zm-78.7954-57.555 47.8612-12.609s-1.395 18.412-19.3373 23.142c-17.9472 4.725-28.5239-10.533-28.5239-10.533Z"/>
  <path fill="#1D8D22" d="m203.27 194.163-1.855-.451c-41.017-12.014-47.343-44.722-47.343-44.722l56.818 15.882 30.081-115.591-.364-.096c-36.896-9.881-61.375-27.1626-71.075-35.2856-13.749-11.516-19.797-19.5192-25.749-7.4137-5.257 10.6773-11.986 28.0543-18.499 52.3803-14.113 52.677-24.661 163.84 62.583 187.231l1.788.403 13.615-52.337Zm-58.773-96.407S158.246 76.372 181.565 83c23.334 6.628 25.141 32.425 25.141 32.425l-62.209-17.669Z"/>
  <path fill="#C04B41" d="m119.946 170.451-10.874 3.086c2.569 14.482 7.097 28.38 14.204 40.658 1.237-.273 2.464-.508 3.724-.853 3.302-.891 6.364-1.994 9.312-3.197-7.941-11.784-13.194-25.356-16.366-39.694Zm-4.246-102c-5.588 20.856-10.587 50.875-9.211 80.985 2.463-1.069 5.065-2.065 7.955-2.885l2.013-.45c-2.454-32.162 2.851-64.936 8.827-87.235 1.515-5.641 3.034-10.888 4.548-15.781-2.439 1.552-5.065 3.143-8.056 4.782-2.017 6.226-4.054 13.031-6.076 20.584Z"/>
</svg>