<svg xmlns="http://www.w3.org/2000/svg" fill="none" viewBox="0 0 25 26"><path fill="#9AC656" d="M24.233 21.098c-.502-1.604-1.29-2.76-2.271-3.675a11.44 11.44 0 0 0 1.164-5.037C23.126 6.036 17.96.871 11.61.871S.095 6.036.095 12.386 5.262 23.9 11.61 23.9c2.414 0 4.655-.748 6.508-2.021-3.963.265-10.37-.218-13.227-5.495h.002a7.77 7.77 0 0 1-1.11-3.998c0-4.315 3.512-7.828 7.827-7.828 4.316 0 7.829 3.513 7.829 7.828a7.8 7.8 0 0 1-.595 2.98l-.075-.039c-.332-.167-2.886-1.42-3.164-1.559-1.532-.771-2.992-1.632-3.721-2.747-.12.34-.216.461-.273 1.114-.106 1.2.778 2.558 1.894 3.768.969 1.048 2.149 1.958 3.438 2.839 2.099 1.434 6.09 4 6.653 7.258.122-.235.252-.507.376-.807.56-1.361.62-2.947.26-4.095"/></svg>