<svg xmlns="http://www.w3.org/2000/svg" viewBox="0 0 25 26">
  <defs/>
  <path fill="#9AC656" fill-rule="nonzero" d="M24.233 21.098c-.502-1.604-1.289-2.76-2.271-3.675a11.4386 11.4386 0 001.164-5.037C23.126 6.036 17.96.871 11.61.871 5.261.871.095 6.036.095 12.386c0 6.35 5.167 11.514 11.515 11.514 2.414 0 4.655-.748 6.508-2.021-3.963.265-10.369-.218-13.227-5.495h.002c-.7-1.172-1.11-2.536-1.11-3.998 0-4.315 3.512-7.828 7.827-7.828 4.316 0 7.829 3.513 7.829 7.828 0 1.056-.214 2.061-.595 2.98-.025-.014-.05-.026-.075-.039-.332-.167-2.886-1.42-3.164-1.559-1.532-.771-2.992-1.632-3.721-2.747-.12.34-.216.461-.273 1.114-.106 1.2.778 2.558 1.894 3.768.969 1.048 2.149 1.958 3.438 2.839 2.099 1.434 6.09 4 6.653 7.258.122-.235.252-.507.376-.807.56-1.361.621-2.947.261-4.095z"/>
</svg>