<svg xmlns="http://www.w3.org/2000/svg" viewBox="0 0 61 62"><g fill="none" fill-rule="evenodd"><path fill="#8C3582" d="M60.3 54.5c0 3.27-3.29 6.72-6.56 6.72H6.22C2.97 61.22 0 57.77 0 54.51V6.98C0 3.72 2.96.92 6.22.92h47.52c3.27 0 6.56 2.8 6.56 6.06v47.53"/><path fill="#FFF" d="M52.85 32.81h-3.3c-.18 0-.37.25-.4.43l-1.17 5.47-1.17 5.68c-.04.19-.23.6-.4.6h-2.34c-2.31 0-2.05-1.84-1.58-4.03l.02-.19.05-.34.01-.08.11-.58.11-.6.12-.62.54-2.6.53-2.71c.04-.18-.08-.43-.26-.43h-3.4c-.18 0-.36.25-.4.43l-.53 3.5-.8 3.7c-.84 3.82-.8 7.45 3.75 7.45h7.29c.18 0 .36 0 .4-.19l1.54-7.18 1.55-7.32c.04-.17-.08-.39-.27-.39m-23.94-2.54-1.34 5.34-1.3 4.44c-.08.33-.5.3-.82.3h-6.31c-4.78 0-5.95-3.9-4.78-10.1 1.17-6.34 3.56-10.13 8.27-10.53 6.45-.54 7.84 4.68 6.28 10.55m4.11 10.3s2.98-8.1 3.65-12.79C37.6 21.52 34.8 12.43 24 12.43c-10.73 0-15.4 8.68-17.18 18.11-1.78 9.5.55 17.84 11.23 17.77l8.43-.03 7.88-.03c.3 0 .6-.28.68-.6l1.38-5.87c.07-.34-.11-.6-.41-.6l-1.32-.02h-1.31c-.27-.01-.41-.2-.38-.45l.03-.13"/></g></svg>