<svg xmlns="http://www.w3.org/2000/svg" fill="none" viewBox="0 0 32 28"><path fill="#61DAFB" d="M15.815 11.195a2.804 2.804 0 1 0 0 5.608 2.804 2.804 0 0 0 0-5.608m-7.857 8.384-.62-.158C2.727 18.256.08 16.277.08 13.994s2.646-4.261 7.259-5.427l.619-.156.174.613a31 31 0 0 0 1.787 4.692l.133.28-.133.279a30.6 30.6 0 0 0-1.787 4.691zM7.052 10c-3.507.985-5.659 2.491-5.659 3.994 0 1.501 2.152 3.008 5.659 3.994a33 33 0 0 1 1.55-3.994A32.5 32.5 0 0 1 7.051 10m16.62 9.579-.175-.615a30.6 30.6 0 0 0-1.788-4.69l-.133-.28.133-.28a31 31 0 0 0 1.788-4.69l.175-.615.62.157c4.612 1.165 7.258 3.144 7.258 5.428s-2.646 4.262-7.258 5.427zm-.644-5.585a32 32 0 0 1 1.55 3.994c3.507-.986 5.658-2.492 5.658-3.994S28.084 10.986 24.578 10a32.5 32.5 0 0 1-1.55 3.994m-15.986-4-.174-.613c-1.297-4.57-.903-7.846 1.08-8.99 1.944-1.122 5.066.203 8.337 3.562l.446.457-.446.458a31 31 0 0 0-3.175 3.89l-.178.253-.308.027a31 31 0 0 0-4.963.8zM9.53 1.3a1.83 1.83 0 0 0-.925.227c-1.303.751-1.534 3.363-.636 6.888a33 33 0 0 1 4.24-.657 33 33 0 0 1 2.69-3.336C12.853 2.43 10.916 1.3 9.528 1.3M22.102 28q-.002 0 0 0c-1.868 0-4.268-1.407-6.758-3.964l-.446-.458.446-.457a31 31 0 0 0 3.175-3.892l.177-.253.306-.027a31 31 0 0 0 4.966-.798l.619-.156.176.613c1.294 4.569.902 7.846-1.08 8.988a3.1 3.1 0 0 1-1.58.404m-5.37-4.434c2.045 1.992 3.982 3.122 5.369 3.122h.001c.35 0 .662-.076.923-.226 1.304-.752 1.536-3.365.636-6.89a33 33 0 0 1-4.24.657 32 32 0 0 1-2.69 3.337m7.855-13.573-.619-.156a31 31 0 0 0-4.966-.8l-.306-.026-.177-.253a31 31 0 0 0-3.175-3.89l-.446-.458.446-.457C18.614.596 21.735-.73 23.682.39c1.983 1.144 2.376 4.42 1.08 8.989zm-5.166-2.235c1.497.136 2.92.358 4.24.657.9-3.525.668-6.137-.636-6.888-1.295-.749-3.73.398-6.294 2.895a33 33 0 0 1 2.69 3.336M9.529 28a3.1 3.1 0 0 1-1.582-.404c-1.982-1.142-2.376-4.418-1.079-8.988l.173-.613.619.156c1.514.381 3.185.65 4.963.798l.308.027.176.253a31 31 0 0 0 3.176 3.892l.446.457-.446.458C13.794 26.593 11.394 28 9.529 28m-1.56-8.428c-.9 3.525-.668 6.138.635 6.89 1.294.738 3.728-.4 6.294-2.896a33 33 0 0 1-2.69-3.337 33 33 0 0 1-4.24-.657m7.846.824a40 40 0 0 1-3.3-.14l-.308-.025-.177-.254a40 40 0 0 1-1.77-2.782 40 40 0 0 1-1.529-2.922l-.13-.279.13-.28q.705-1.492 1.53-2.92a40 40 0 0 1 1.77-2.783l.176-.253.309-.026a39 39 0 0 1 6.6 0l.306.026.176.253a39.4 39.4 0 0 1 3.3 5.704l.132.28-.132.278a39 39 0 0 1-3.3 5.704l-.176.254-.307.026c-1.11.092-2.221.139-3.3.139m-2.881-1.422c1.94.146 3.82.146 5.763 0a38 38 0 0 0 2.88-4.98 37.5 37.5 0 0 0-2.881-4.98 38 38 0 0 0-5.762 0 37 37 0 0 0-2.881 4.98 38 38 0 0 0 2.88 4.98"/></svg>