<svg xmlns="http://www.w3.org/2000/svg" fill="none" viewBox="0 0 190 170"><path fill="#002C4B" d="M150.276 51.344c3.093-14.98 3.756-26.47 1.757-34.815-1.189-4.962-3.362-9.01-6.668-11.93-3.49-3.084-7.901-4.597-12.858-4.597-8.178 0-16.775 3.725-25.963 10.802-3.747 2.887-7.636 6.366-11.676 10.44a9 9 0 0 0-1.09-1.163C82.36 9.915 72.746 3.6 64.523 1.164c-4.89-1.448-9.48-1.586-13.66-.18-4.414 1.482-7.93 4.55-10.41 8.844-4.094 7.09-5.174 16.403-3.648 27.904.623 4.688 1.686 9.794 3.189 15.327a8.7 8.7 0 0 0-1.698.38c-14.49 4.797-24.75 9.955-30.96 15.85C3.64 72.795 1.226 76.7.355 81.022c-.921 4.562-.023 9.137 2.454 13.43 4.087 7.078 11.6 12.66 22.304 17.082 4.298 1.776 9.16 3.384 14.595 4.83a8.8 8.8 0 0 0-.57 1.776c-3.092 14.98-3.756 26.47-1.756 34.814 1.188 4.962 3.362 9.01 6.667 11.93 3.49 3.084 7.902 4.597 12.86 4.597 8.177 0 16.774-3.725 25.962-10.802q5.679-4.375 11.805-10.57c.42.656.936 1.267 1.546 1.81 11.42 10.166 21.034 16.482 29.257 18.917 4.89 1.448 9.48 1.586 13.66.181 4.414-1.483 7.93-4.55 10.41-8.845 4.094-7.089 5.174-16.403 3.648-27.904-.645-4.857-1.764-10.164-3.354-15.929a8.7 8.7 0 0 0 1.863-.398c14.489-4.797 24.749-9.955 30.96-15.85 3.696-3.506 6.109-7.41 6.981-11.733.921-4.562.023-9.137-2.454-13.43-4.087-7.078-11.6-12.66-22.304-17.082q-6.639-2.741-15.082-4.959c.2-.49.359-1.006.469-1.543"/><path fill="#FFD94C" fill-rule="evenodd" d="M80.397 54h29.211c.88 0 1.744.232 2.506.673a5 5 0 0 1 1.831 1.839l14.632 25.5a5 5 0 0 1 .663 2.488 5 5 0 0 1-.663 2.488l-14.632 25.5a5 5 0 0 1-1.831 1.839 5 5 0 0 1-2.506.673H80.397a5 5 0 0 1-2.506-.673 5 5 0 0 1-1.831-1.839l-14.632-25.5a5 5 0 0 1 0-4.976l14.632-25.5a5 5 0 0 1 1.831-1.839A5 5 0 0 1 80.397 54m25.59 6.277a5 5 0 0 1 4.339 2.513l11.017 19.224a5 5 0 0 1 0 4.972l-11.017 19.224a5 5 0 0 1-1.831 1.839 5 5 0 0 1-2.507.674h-21.97a5 5 0 0 1-2.507-.673 5 5 0 0 1-1.832-1.84L68.662 86.986a5 5 0 0 1 0-4.972L79.679 62.79a5 5 0 0 1 4.338-2.513zm-3.906 6.864H87.924a5 5 0 0 0-4.335 2.51l-7.1 12.358a5 5 0 0 0 0 4.982l7.1 12.358a5 5 0 0 0 4.335 2.51h14.157c.879 0 1.743-.232 2.504-.673a5 5 0 0 0 1.831-1.837l7.1-12.358a5 5 0 0 0 0-4.982l-7.1-12.358a5 5 0 0 0-1.831-1.837 5 5 0 0 0-2.504-.673m-3.762 6.571a5 5 0 0 1 2.503.672 5 5 0 0 1 1.831 1.834l3.33 5.788a5 5 0 0 1 0 4.988l-3.33 5.788a5 5 0 0 1-1.831 1.835 5 5 0 0 1-2.503.671h-6.633a5 5 0 0 1-4.334-2.506l-3.33-5.788a5 5 0 0 1 0-4.988l3.33-5.788a5 5 0 0 1 4.334-2.506zm-3.315 6.473a4.3 4.3 0 0 0-3.052 1.263 4.32 4.32 0 0 0-.937 4.702 4.3 4.3 0 0 0 2.335 2.336 4.315 4.315 0 0 0 5.968-3.984 4.315 4.315 0 0 0-4.314-4.317M60 84.5h7.768Z" clip-rule="evenodd"/><path fill="#FF4154" fill-rule="evenodd" d="M54.86 98.358a2.7 2.7 0 0 1 2.077-.256 2.7 2.7 0 0 1 1.641 1.297l.475.845a269 269 0 0 0 11.888 19.191q7.3 10.726 16.421 21.716a2.78 2.78 0 0 1 .63 1.984 2.77 2.77 0 0 1-.926 1.863l-.612.537q-30.16 26.353-39.206 10.527-8.847-15.48 6.403-56.28a2.75 2.75 0 0 1 1.209-1.424m85.674 20.684a2.7 2.7 0 0 1 2.003.437 2.7 2.7 0 0 1 1.123 1.715l.153.792q7.454 39.015-10.497 39.014-17.559 0-44.703-33.273a2.72 2.72 0 0 1-.613-1.745 2.71 2.71 0 0 1 2.73-2.694l.955.007q11.431.062 22.226-.794 12.747-1.01 26.623-3.46zm6.875-55.23c.523-1.41 2.1-2.149 3.546-1.663l.788.266q38.761 13.204 29.455 29.022-9.103 15.471-52.936 22.527a2.85 2.85 0 0 1-1.88-.345 2.7 2.7 0 0 1-.815-.708 2.7 2.7 0 0 1-.476-.969 2.7 2.7 0 0 1-.063-1.077c.052-.36.174-.706.361-1.018l.5-.837q5.982-10.041 10.813-19.986 5.704-11.744 10.707-25.212m-85.67-7.776a2.85 2.85 0 0 1 1.878.345 2.725 2.725 0 0 1 .994 3.772l-.5.837q-5.982 10.041-10.813 19.986-5.704 11.744-10.707 25.212c-.523 1.41-2.1 2.149-3.546 1.663l-.788-.266Q-.504 94.381 8.802 78.563q9.103-15.47 52.937-22.527m41.807-31.57q30.16-26.355 39.206-10.528 8.847 15.48-6.403 56.28a2.75 2.75 0 0 1-1.21 1.424 2.7 2.7 0 0 1-2.076.256 2.7 2.7 0 0 1-.95-.484 2.7 2.7 0 0 1-.691-.813l-.475-.845a270 270 0 0 0-11.888-19.19q-7.3-10.726-16.421-21.717a2.78 2.78 0 0 1-.63-1.983 2.78 2.78 0 0 1 .926-1.864zM57.684 8q17.559 0 44.703 33.273c.402.492.618 1.11.613 1.745a2.7 2.7 0 0 1-.213 1.037 2.7 2.7 0 0 1-.594.876 2.7 2.7 0 0 1-1.923.781l-.955-.007q-11.431-.061-22.226.794-12.748 1.01-26.623 3.46a2.71 2.71 0 0 1-3.126-2.153l-.153-.792Q39.733 8 57.684 8" clip-rule="evenodd"/></svg>