<svg xmlns="http://www.w3.org/2000/svg" fill="none" viewBox="0 0 32 28">
  <defs/>
  <path fill="#61DAFB" d="M15.8147 11.1946c-.3683 0-.7331.0725-1.0734.2135-.3402.1409-.6494.3475-.9099.608-.2604.2604-.467.5696-.608.9099-.1409.3403-.2135.705-.2135 1.0734 0 .3683.0726.733.2135 1.0733.141.3403.3476.6495.608.9099.2605.2605.5697.4671.9099.608.3403.141.7051.2135 1.0734.2135.3683 0 .733-.0725 1.0733-.2135.3403-.1409.6495-.3475.91-.608.2604-.2604.467-.5696.608-.9099.1409-.3403.2135-.705.2135-1.0733 0-.3684-.0726-.7331-.2135-1.0734-.141-.3403-.3476-.6495-.608-.9099-.2605-.2605-.5697-.4671-.91-.608-.3403-.141-.705-.2135-1.0733-.2135zm-7.85707 8.3842l-.61891-.1574C2.72571 18.2557.0795898 16.277.0795898 13.9941c0-2.2829 2.6461202-4.26157 7.2591302-5.42728l.61891-.15604.1744.61367c.4673 1.60985 1.06503 3.17895 1.78724 4.69165l.13243.2793-.13243.2793c-.72341 1.5123-1.32118 3.0814-1.78724 4.6917l-.1744.6124zM7.05155 10c-3.5063.9848-5.65808 2.4914-5.65808 3.9941 0 1.5014 2.15178 3.008 5.65808 3.9941.42881-1.3638.94656-2.698 1.54991-3.9941-.60404-1.2958-1.12181-2.63-1.54991-3.9941zm16.62015 9.5788l-.1744-.615c-.4668-1.6098-1.065-3.1785-1.7885-4.6904l-.1324-.2793.1324-.2793c.7232-1.5124 1.3214-3.0816 1.7885-4.69166l.1744-.61367.6203.15604c4.6117 1.16571 7.2578 3.14439 7.2578 5.42859s-2.6461 4.2616-7.2578 5.4273l-.6203.1574zm-.6438-5.5847c.6294 1.3624 1.15 2.7012 1.5499 3.9941 3.5076-.9861 5.6581-2.4927 5.6581-3.9941 0-1.5027-2.1518-3.008-5.6581-3.9941-.4282 1.364-.946 2.6983-1.5499 3.9941zM7.04237 9.99347l-.1744-.61236C5.57114 4.81007 5.96452 1.53455 7.94714.391129 9.89174-.731308 13.0138.594374 16.2854 3.95251l.4459.45763-.4459.45762c-1.1625 1.20847-2.2246 2.5096-3.1758 3.89051l-.1771.25307-.3081.02623c-1.6733.1319-3.33311.39941-4.96312.79986l-.61891.15604zm2.48615-8.69364c-.35142 0-.66219.07605-.92444.22685-1.30339.75135-1.53417 3.36338-.63596 6.88804 1.39732-.31086 2.81338-.53031 4.23928-.65694.8227-1.1698 1.7216-2.28416 2.6907-3.33584-2.0455-1.9918-3.9823-3.12211-5.36958-3.12211zM22.1022 27.9997c-.0013 0-.0013 0 0 0-1.8686 0-4.2682-1.407-6.7583-3.964l-.4458-.4576.4458-.4576c1.1622-1.2089 2.2239-2.5105 3.1746-3.8918l.177-.2531.3069-.0262c1.6741-.1312 3.3348-.3983 4.9657-.7986l.6189-.156.1757.6136c1.2942 4.5685.9022 7.8453-1.0805 8.9874-.4815.2723-1.0269.4117-1.58.4039zm-5.3709-4.4334c2.0455 1.9918 3.9823 3.1221 5.3696 3.1221h.0013c.3501 0 .6622-.076.9231-.2268 1.3034-.7514 1.5355-3.3647.636-6.8894-1.3977.3113-2.8143.5308-4.2407.657-.8217 1.1706-1.7201 2.2854-2.6893 3.3371zM24.587 9.99347l-.6189-.15604c-1.6307-.40161-3.2915-.66913-4.9657-.79986l-.3069-.02623-.177-.25307c-.9502-1.38134-2.0119-2.68253-3.1746-3.89051l-.4458-.45762.4458-.45763C18.6142.595685 21.735-.729997 23.6822.391129c1.9827 1.143421 2.376 4.418941 1.0805 8.988671l-.1757.61367zm-5.1664-2.23569c1.4975.13637 2.9202.35797 4.2407.65694.8995-3.52466.6674-6.13669-.636-6.88804-1.2955-.74873-3.7305.39862-6.294 2.89526.9686 1.05173 1.867 2.16609 2.6893 3.33584zM9.52852 27.9997c-.55362.008-1.09941-.1314-1.58138-.4039-1.98262-1.1421-2.376-4.4176-1.07917-8.9874l.17309-.6136.61891.156c1.51451.3816 3.18503.6504 4.96313.7986l.3081.0262.1757.2531c.9514 1.3812 2.0136 2.6827 3.1759 3.8918l.4458.4576-.4458.4576c-2.4888 2.557-4.8884 3.964-6.75428 3.964zm-1.5604-8.4275c-.89952 3.5247-.66743 6.138.63596 6.8894 1.29421.7382 3.72792-.4 6.29402-2.8953-.9687-1.0525-1.8676-2.1672-2.6907-3.3371-1.4259-.1261-2.84206-.3456-4.23928-.657zm7.84658.8235c-1.0792 0-2.1885-.0472-3.2991-.139l-.3082-.0262-.177-.2531c-.6282-.9027-1.2188-1.831-1.7702-2.7825-.54978-.9523-1.05986-1.927-1.52893-2.9215l-.13112-.2793.13112-.2793c.469-.9945.97908-1.9692 1.52893-2.9215.5429-.93882 1.1395-1.87506 1.7702-2.78245l.177-.25307.3082-.02623c2.1959-.18619 4.4036-.18619 6.5995 0l.3069.02623.1757.25307c1.2577 1.80569 2.3617 3.71375 3.3004 5.70395l.1324.2793-.1324.2793c-.9364 1.9915-2.0406 3.8997-3.3004 5.704l-.1757.2531-.3069.0262c-1.1106.0918-2.2212.139-3.3004.139zm-2.8808-1.4214c1.9406.1455 3.821.1455 5.7629 0 1.0842-1.585 2.0468-3.2498 2.8796-4.9802-.8313-1.7314-1.7944-3.3963-2.8809-4.98014-1.9178-.14555-3.8438-.14555-5.7616 0-1.087 1.58354-2.0501 3.24854-2.8809 4.98014.8337 1.7302 1.7967 3.395 2.8809 4.9802z"/>
</svg>
