<svg xmlns="http://www.w3.org/2000/svg" fill="none" viewBox="0 0 29 29">
  <defs/>
  <path stroke="#78B0B5" d="M2.6925 7.598L14.317.8867 25.9412 7.598v13.4227L14.3169 27.732 2.6925 21.0207V7.598z"/>
  <path fill="#78B0B5" d="M8.7411 17.2807h-.793l-1.7363-2.5475h-.9251v2.5475h-.6243v-5.9473H6.622c.6532 0 1.159.1428 1.5176.4284.3585.2826.5377.7064.5377 1.2715 0 .2491-.044.4739-.1321.6745-.0881.1974-.2081.3661-.36.5058-.152.1398-.3343.2522-.547.3373-.2096.085-.439.1367-.688.1549l1.791 2.5749zm-.711-4.2474c0-.4041-.126-.6988-.3782-.8841-.2491-.1884-.5924-.2826-1.03-.2826H5.2868V14.2H6.622c.4375 0 .7808-.0912 1.03-.2735.2521-.1853.3782-.4831.3782-.8932zM13.5582 17.2807H9.7574v-5.9473h3.8008v.5332h-3.1764v2.1283h2.3424v.5332h-2.3424v2.2194h3.1764v.5332zM18.7262 15.7312c0 .2491-.0517.4755-.155.679a1.6765 1.6765 0 01-.4147.5196c-.1732.1458-.3722.2582-.597.3372a2.1016 2.1016 0 01-.7018.1185c-.3342 0-.6411-.0623-.9206-.1869-.2795-.1245-.5013-.3083-.6654-.5514v.6335h-.5286v-1.8093h.5286c0 .2036.0471.3904.1413.5606a1.548 1.548 0 00.36.4329c.1459.1216.313.2173.5013.2871.1914.0669.3859.1003.5834.1003.1762 0 .3387-.0243.4876-.0729.1489-.0517.2795-.1231.3919-.2142a1.0056 1.0056 0 00.2643-.3418c.0669-.1337.1003-.2856.1003-.4557 0-.1914-.0425-.3555-.1276-.4922-.082-.1367-.1944-.2537-.3372-.3509-.1398-.0973-.2978-.1793-.474-.2461a21.7809 21.7809 0 00-.5378-.2051 28.0985 28.0985 0 01-.6471-.237c-.2157-.0851-.4086-.1914-.5788-.319a1.5576 1.5576 0 01-.4147-.4648c-.1063-.1854-.1595-.4148-.1595-.6882 0-.2431.0517-.4588.155-.6471a1.5244 1.5244 0 01.4056-.4831c.1671-.1306.3615-.2294.5833-.2962a2.2606 2.2606 0 01.6836-.1048c.2886 0 .5545.0592.7975.1777.2461.1185.4375.2993.5742.5423v-.6198h.5515v1.6999h-.5515c0-.1793-.0379-.3464-.1139-.5013a1.1626 1.1626 0 00-.3008-.4011 1.4513 1.4513 0 00-.4375-.2643 1.364 1.364 0 00-.5195-.1002c-.161 0-.3145.0182-.4603.0546-.1458.0365-.2734.0957-.3828.1778-.1094.079-.1975.1823-.2643.3099-.0638.1276-.0957.2795-.0957.4557 0 .155.0379.2871.1139.3965.079.1094.1838.2066.3144.2917.1307.082.2811.1579.4512.2278.1732.0669.3494.1352.5287.2051.2248.079.4481.1671.6699.2643.2218.0972.4208.2142.597.3509.1762.1368.3205.3054.4329.5059.1124.1975.1687.439.1687.7246zM23.9716 13.3432h-.5332v-1.4766h-1.276v4.8809h.957v.5332h-2.5475v-.5332h.9615v-4.8809h-1.276v1.4766h-.5332v-2.0098h4.2474v2.0098z"/>
</svg>