<svg xmlns="http://www.w3.org/2000/svg" fill="none" viewBox="0 0 25 29"><path stroke="#78B0B5" d="M.692 7.598 12.317.887 23.94 7.598v13.423l-11.624 6.711L.692 21.021z"/><path fill="#78B0B5" d="M6.74 17.28h-.792L4.21 14.734h-.925v2.548h-.624v-5.948h1.96q.98 0 1.517.429.538.423.538 1.271 0 .374-.132.675a1.5 1.5 0 0 1-.36.506 1.8 1.8 0 0 1-.547.337q-.316.128-.688.155zm-.71-4.247q0-.606-.378-.884-.375-.282-1.03-.282H3.287V14.2h1.335q.655 0 1.03-.273.378-.279.378-.894m5.528 4.248h-3.8v-5.948h3.8v.534H8.382v2.128h2.342v.533H8.382v2.22h3.176zm5.168-1.55q0 .374-.155.68a1.7 1.7 0 0 1-.415.519 1.9 1.9 0 0 1-.597.337 2.1 2.1 0 0 1-.702.119q-.5 0-.92-.187a1.54 1.54 0 0 1-.666-.552v.634h-.528v-1.81h.528q0 .305.142.561a1.6 1.6 0 0 0 .36.433 1.7 1.7 0 0 0 1.572.314q.224-.077.392-.214a1 1 0 0 0 .264-.342q.1-.2.1-.455a.9.9 0 0 0-.127-.493 1.1 1.1 0 0 0-.337-.35 2.2 2.2 0 0 0-.474-.247 21 21 0 0 0-.538-.205 28 28 0 0 1-.647-.237 2.5 2.5 0 0 1-.579-.319 1.6 1.6 0 0 1-.415-.464 1.37 1.37 0 0 1-.16-.689q0-.364.156-.647c.1-.187.238-.352.405-.483q.25-.196.584-.296a2.3 2.3 0 0 1 .683-.105q.434 0 .798.178.369.178.574.542v-.62h.551v1.7h-.551q0-.269-.114-.501a1.2 1.2 0 0 0-.3-.401 1.5 1.5 0 0 0-.438-.264 1.4 1.4 0 0 0-.52-.1q-.24 0-.46.054a1.1 1.1 0 0 0-.383.178.9.9 0 0 0-.264.31q-.096.191-.096.455 0 .232.114.397.12.164.314.292.197.122.452.227l.528.205q.337.12.67.265t.597.35.433.507q.17.296.169.724m5.245-2.388h-.533v-1.476h-1.276v4.88h.957v.534h-2.547v-.533h.961v-4.881h-1.276v1.476h-.533v-2.01h4.247z"/></svg>