<svg xmlns="http://www.w3.org/2000/svg" fill="none" viewBox="0 0 130 79">
  <path fill="#C00" d="M4.0644 78.9103h44.9723s-8.596-38.999 19.8675-54.7911c6.2051-2.9999 25.9587-14.2071 58.2928 9.5658 1.025-.849 1.993-1.5282 1.993-1.5282S99.5879 2.7802 66.6271 6.0631C50.0614 7.5348 29.6815 22.5344 17.7269 42.3452 5.7722 62.156 4.0644 78.9103 4.0644 78.9103ZM97.7662 9.2328l.2277-3.7923c-.5123-.283-1.9355-.9623-5.5219-1.981l-.2277 3.7357c1.8786.6226 3.7002 1.3018 5.5219 2.0376Zm-5.4081 11.9997-.2277 3.566c1.8786.0566 3.7572.283 5.6358.6792l.2277-3.5093c-1.9355-.3963-3.8141-.6227-5.6358-.7359ZM71.2951 3.5726h.5693L70.7259.12c-1.7648 0-3.5864.1132-5.465.3396l1.0816 3.3395c1.6509-.1698 3.3018-.2264 4.9526-.2264Zm2.7325 20.8297 1.3094 3.9055c1.6508-.7924 3.3017-1.4716 4.9526-1.9811l-1.2524-3.7357c-1.9355.566-3.5864 1.1886-5.0096 1.8113ZM48.1828 9.5159l-2.5617-3.9056c-1.4232.7358-2.9033 1.5283-4.4403 2.4339l2.6186 3.9622c1.4801-.9057 2.9033-1.7547 4.3834-2.4905Zm11.67 25.471 2.7325 4.0754c.9678-1.4151 2.1063-2.717 3.3587-4.0188l-2.5617-3.849c-1.3093 1.1887-2.5048 2.4905-3.5295 3.7924Zm-8.2544 18.2259 4.6111 3.6226c.2277-2.2075.6262-4.415 1.1955-6.6225l-4.0988-3.2263c-.74 2.0943-1.2524 4.1885-1.7078 6.2262Zm-24.934-26.8861-4.0418-3.5093c-1.4801 1.4151-2.9033 2.8301-4.2126 4.2452l4.3834 3.7357c1.1955-1.5282 2.5048-3.0565 3.871-4.4716ZM9.4724 51.628 2.926 49.2507C1.8443 51.6846.6488 54.5147.0795 56.0429l6.5466 2.3773c.74-1.9244 1.9355-4.698 2.8464-6.7922Zm41.2721 15.9618c.1139 2.9999.3985 5.4338.6831 7.1319l6.8313 2.4339c-.5124-2.2075-1.0247-4.698-1.3663-7.3583l-6.1481-2.2075Z"/>
</svg>