<svg xmlns="http://www.w3.org/2000/svg" fill="none" viewBox="0 0 130 79"><path fill="#C00" d="M4.064 78.91h44.973S40.44 39.911 68.904 24.12c6.205-3 25.959-14.208 58.293 9.565 1.025-.849 1.993-1.528 1.993-1.528S99.588 2.78 66.627 6.063c-16.566 1.472-36.945 16.471-48.9 36.282S4.064 78.91 4.064 78.91M97.766 9.233l.228-3.793c-.512-.283-1.936-.962-5.522-1.98l-.228 3.735c1.879.623 3.7 1.302 5.522 2.038m-5.408 12-.228 3.565a32 32 0 0 1 5.636.68l.228-3.51a40.5 40.5 0 0 0-5.636-.736M71.295 3.572h.57L70.724.12a46 46 0 0 0-5.464.34l1.081 3.34c1.651-.17 3.302-.227 4.953-.227m2.733 20.83 1.309 3.905c1.65-.793 3.302-1.472 4.953-1.981l-1.253-3.736a41 41 0 0 0-5.01 1.811M48.183 9.515 45.62 5.61a91 91 0 0 0-4.44 2.434l2.618 3.962c1.48-.905 2.904-1.754 4.384-2.49m11.67 25.47 2.732 4.076c.968-1.415 2.107-2.717 3.359-4.018l-2.562-3.85a31.4 31.4 0 0 0-3.53 3.793m-8.255 18.227 4.611 3.622a45 45 0 0 1 1.196-6.622l-4.099-3.226c-.74 2.094-1.252 4.188-1.708 6.226M26.664 26.327l-4.041-3.51a98 98 0 0 0-4.213 4.246l4.383 3.735a58 58 0 0 1 3.871-4.471M9.472 51.628l-6.546-2.377C1.844 51.685.649 54.515.079 56.043l6.547 2.377c.74-1.924 1.936-4.698 2.846-6.792M50.745 67.59c.113 3 .398 5.434.683 7.132l6.83 2.434c-.511-2.208-1.024-4.698-1.365-7.359z"/></svg>