<svg xmlns="http://www.w3.org/2000/svg" fill="none" viewBox="0 0 37 37">
  <path fill="#9B1010" d="m36.0032 8.4636-2 26-26 2 28-28Z"/>
  <path fill="#B71C1C" d="m22.0032 22.4636 12 12 2-26-14 14Z"/>
  <path fill="#C62828" d="M9.7554 10.2161C5.5132 14.4584 2.3137 19.3959.8608 23.9424c-1.453 4.5465-1.0402 8.3296 1.1472 10.517 2.1875 2.1874 5.9706 2.5999 10.517 1.1468 4.5464-1.453 9.4838-4.6527 13.726-8.895 4.2422-4.2423 7.4417-9.1799 8.8946-13.7264 1.4529-4.5465 1.0402-8.3295-1.1472-10.5169-2.1875-2.1874-5.9706-2.6-10.517-1.1469-4.5464 1.4531-9.4839 4.6528-13.726 8.8951Z"/>
  <path fill="#E53935" d="m4.0032 11.4636 7-7 8-4 6 4-3 9-9 8-9 3-4-6 4-7Z"/>
  <path fill="#FF5252" d="m25.0032 4.4636-6-4h11l-5 4Zm11 5-11-5-3 9 14-4Zm-23 12 13.235 5.235-4.235-13.235-9 8Zm-9 3 4 12 5-15-9 3Zm-4-6v11l4-5-4-6Z"/>
</svg>