<svg xmlns="http://www.w3.org/2000/svg" fill="none" viewBox="0 0 37 37"><path fill="#9B1010" d="m36.003 8.464-2 26-26 2z"/><path fill="#B71C1C" d="m22.003 22.464 12 12 2-26z"/><path fill="#C62828" d="M9.755 10.216c-4.242 4.242-7.441 9.18-8.894 13.726s-1.04 8.33 1.147 10.517c2.187 2.188 5.97 2.6 10.517 1.147s9.484-4.653 13.726-8.895 7.442-9.18 8.895-13.726 1.04-8.33-1.148-10.517-5.97-2.6-10.517-1.147-9.483 4.653-13.726 8.895"/><path fill="#E53935" d="m4.003 11.464 7-7 8-4 6 4-3 9-9 8-9 3-4-6z"/><path fill="#FF5252" d="m25.003 4.464-6-4h11zm11 5-11-5-3 9zm-23 12 13.235 5.235-4.235-13.235zm-9 3 4 12 5-15zm-4-6v11l4-5z"/></svg>