<svg xmlns="http://www.w3.org/2000/svg" fill="none" viewBox="0 0 106 106"><path fill="#fff" d="M53.05 5.68A47.34 47.34 0 0 0 5.78 52.95a47.34 47.34 0 0 0 47.27 47.27 47.34 47.34 0 0 0 47.27-47.27A47.34 47.34 0 0 0 53.05 5.68Zm-.07 4.2A3.1 3.1 0 0 1 56 12.99a3.11 3.11 0 1 1-3.02-3.11ZM60.1 15a38.27 38.27 0 0 1 26.2 18.66l-3.67 8.28a2.86 2.86 0 0 0 1.44 3.75l7.06 3.13c.22 2.2.25 4.43.08 6.64h-3.93c-.39 0-.55.26-.55.64v1.8c0 4.24-2.39 5.17-4.49 5.4-2 .23-4.21-.84-4.49-2.06-1.18-6.63-3.14-8.04-6.24-10.49 3.85-2.44 7.85-6.05 7.85-10.87 0-5.21-3.57-8.49-6-10.1a17.06 17.06 0 0 0-8.22-2.7h-40.6A38.27 38.27 0 0 1 45.95 15l4.79 5.02a2.82 2.82 0 0 0 4 .09L60.1 15ZM15.9 38.02a3.11 3.11 0 1 1-.18 6.22 3.11 3.11 0 0 1 .18-6.22Zm74.15.14a3.11 3.11 0 1 1-.18 6.22 3.11 3.11 0 0 1 .18-6.22Zm-68.29.5h5.42V63.1H16.24A38.27 38.27 0 0 1 15 48.49l6.7-2.98a2.83 2.83 0 0 0 1.44-3.74l-1.38-3.11Zm22.62.26h12.91c.67 0 4.71.77 4.71 3.8 0 2.51-3.1 3.41-5.65 3.41H44.37l.01-7.21Zm0 17.56h9.89c.9 0 4.83.26 6.08 5.28.39 1.54 1.26 6.56 1.85 8.17.59 1.8 2.98 5.4 5.53 5.4h16.14a38.27 38.27 0 0 1-3.54 4.1l-6.57-1.41a2.84 2.84 0 0 0-3.37 2.18l-1.56 7.28a38.27 38.27 0 0 1-31.91-.15l-1.56-7.28A2.83 2.83 0 0 0 32 77.87l-6.43 1.38a38.3 38.3 0 0 1-3.32-3.92h31.27c.35 0 .59-.06.59-.39V63.88c0-.32-.24-.39-.59-.39h-9.15l.01-7.01ZM29.95 81.81a3.11 3.11 0 1 1-.18 6.22 3.11 3.11 0 0 1 .18-6.22Zm46.05.14a3.11 3.11 0 1 1-.18 6.22 3.11 3.11 0 0 1 .18-6.22Z"/><path fill="#fff" fill-rule="evenodd" d="M97.68 52.95a44.63 44.63 0 1 1-89.26 0 44.63 44.63 0 0 1 89.26 0Zm-.84-4.31 6.96 4.31-6.96 4.31 5.98 5.59-7.66 2.87 4.78 6.65-8.09 1.32 3.4 7.46-8.19-.29 1.88 7.98-7.98-1.88.29 8.19-7.46-3.4-1.32 8.09-6.65-4.78-2.87 7.66-5.59-5.98-4.31 6.96-4.31-6.96-5.59 5.98-2.87-7.66-6.65 4.78-1.32-8.09-7.46 3.4.29-8.19-7.98 1.88 1.88-7.98-8.19.29 3.4-7.46-8.09-1.32 4.78-6.65-7.66-2.87 5.98-5.59-6.96-4.31 6.96-4.31-5.98-5.59 7.66-2.87-4.78-6.65 8.09-1.32-3.4-7.46 8.19.29-1.88-7.98 7.98 1.88-.29-8.19 7.46 3.4 1.32-8.09 6.65 4.78 2.87-7.66 5.59 5.98 4.31-6.96 4.31 6.96 5.59-5.98 2.87 7.66 6.65-4.78 1.32 8.09 7.46-3.4-.29 8.19 7.98-1.88-1.88 7.98 8.19-.29-3.4 7.46 8.09 1.32-4.78 6.65 7.66 2.87-5.98 5.59Z" clip-rule="evenodd"/><path fill="#fff" fill-rule="evenodd" d="M53.05.7c.52 0 1 .27 1.28.71l3.27 5.3 4.25-4.55a1.5 1.5 0 0 1 2.5.5l2.19 5.82 5.05-3.64a1.5 1.5 0 0 1 2.36.98l1 6.15 5.68-2.58a1.5 1.5 0 0 1 2.12 1.41l-.22 6.23 6.07-1.43a1.5 1.5 0 0 1 1.8 1.8l-1.43 6.07 6.23-.22a1.5 1.5 0 0 1 1.41 2.12l-2.58 5.68 6.15 1a1.5 1.5 0 0 1 .98 2.36l-3.64 5.05 5.83 2.19a1.5 1.5 0 0 1 .5 2.5L99.3 48.4l5.29 3.27a1.5 1.5 0 0 1 0 2.56l-5.3 3.27 4.55 4.25a1.5 1.5 0 0 1-.5 2.5l-5.82 2.19 3.64 5.05a1.5 1.5 0 0 1-.98 2.36l-6.15 1 2.58 5.68a1.5 1.5 0 0 1-1.41 2.12l-6.23-.22 1.43 6.07a1.5 1.5 0 0 1-1.8 1.8l-6.07-1.43.22 6.23a1.5 1.5 0 0 1-2.12 1.42l-5.68-2.6-1 6.16a1.5 1.5 0 0 1-2.36.98l-5.05-3.64-2.19 5.83a1.5 1.5 0 0 1-2.5.5L57.6 99.2l-3.27 5.29a1.5 1.5 0 0 1-2.56 0l-3.27-5.3-4.25 4.56a1.5 1.5 0 0 1-2.5-.5l-2.19-5.83-5.05 3.64a1.5 1.5 0 0 1-2.36-.98l-1-6.15-5.68 2.59a1.5 1.5 0 0 1-2.12-1.42l.22-6.23-6.07 1.43a1.5 1.5 0 0 1-1.8-1.8l1.43-6.07-6.23.22a1.5 1.5 0 0 1-1.41-2.12l2.58-5.68-6.15-1a1.5 1.5 0 0 1-.98-2.36l3.64-5.05-5.83-2.19a1.5 1.5 0 0 1-.5-2.5L6.8 57.5l-5.29-3.27a1.5 1.5 0 0 1 0-2.56l5.3-3.27-4.55-4.25a1.5 1.5 0 0 1 .5-2.5l5.82-2.19-3.64-5.05a1.5 1.5 0 0 1 .98-2.36l6.15-1-2.58-5.68a1.5 1.5 0 0 1 1.41-2.12l6.23.22-1.43-6.07a1.5 1.5 0 0 1 1.8-1.8l6.07 1.43-.22-6.23a1.5 1.5 0 0 1 2.12-1.41l5.68 2.58 1-6.15a1.5 1.5 0 0 1 2.36-.98l5.05 3.64 2.19-5.83a1.5 1.5 0 0 1 2.5-.5L48.5 6.7l3.27-5.29A1.5 1.5 0 0 1 53.05.7Zm-7.91 6.8L43.7 5.97l-.74 1.96a52 52 0 0 1 2.17-.43Zm-5.76 4.54.02.02a1.5 1.5 0 0 0 2.28-.7l.01-.02c1.94-.53 3.93-.92 5.93-1.18l.02.02a1.5 1.5 0 0 0 2.38-.23l.01-.02a43.15 43.15 0 0 1 6.04 0l.01.02a1.5 1.5 0 0 0 2.38.23l.02-.02c2 .26 3.99.65 5.93 1.18v.03a1.5 1.5 0 0 0 2.29.69l.02-.02c1.91.64 3.78 1.42 5.58 2.32l.01.03a1.5 1.5 0 0 0 2.1 1.13l.03-.02c1.75 1 3.42 2.12 5.02 3.35v.04a1.5 1.5 0 0 0 1.84 1.51h.04a43.14 43.14 0 0 1 4.27 4.26l-.01.04a1.5 1.5 0 0 0 1.51 1.84h.04a43.1 43.1 0 0 1 3.35 5.02l-.01.03a1.5 1.5 0 0 0 1.12 2.1h.03c.9 1.81 1.68 3.68 2.32 5.6l-.02.01a1.5 1.5 0 0 0 .7 2.28l.02.01c.53 1.94.92 3.93 1.18 5.93l-.02.02a1.5 1.5 0 0 0 .23 2.38l.02.01a43.14 43.14 0 0 1 0 6.04l-.02.01a1.5 1.5 0 0 0-.23 2.38l.02.02c-.26 2-.65 3.99-1.18 5.93h-.03a1.5 1.5 0 0 0-.69 2.29l.02.02a43.16 43.16 0 0 1-2.32 5.58l-.03.01a1.5 1.5 0 0 0-1.12 2.1l.01.03a43.1 43.1 0 0 1-3.35 5.02h-.04a1.5 1.5 0 0 0-1.51 1.84v.04a43.14 43.14 0 0 1-4.26 4.27l-.04-.01a1.5 1.5 0 0 0-1.84 1.51v.04a43.12 43.12 0 0 1-5.02 3.35l-.03-.01a1.5 1.5 0 0 0-2.1 1.12v.03c-1.81.9-3.68 1.68-5.6 2.32l-.01-.02a1.5 1.5 0 0 0-2.28.7l-.01.02c-1.94.53-3.93.92-5.93 1.18l-.02-.02a1.5 1.5 0 0 0-2.38.23l-.01.02a43.14 43.14 0 0 1-6.04 0l-.01-.02a1.5 1.5 0 0 0-2.38-.23l-.02.02c-2-.26-3.99-.65-5.93-1.18v-.03a1.5 1.5 0 0 0-2.29-.69l-.02.02a43.13 43.13 0 0 1-5.58-2.32v-.03a1.5 1.5 0 0 0-2.11-1.12l-.03.01c-1.75-1-3.42-2.12-5.02-3.35V87a1.5 1.5 0 0 0-1.84-1.51h-.04a43.18 43.18 0 0 1-4.27-4.26l.01-.04a1.5 1.5 0 0 0-1.51-1.84h-.04a43.1 43.1 0 0 1-3.35-5.02l.02-.03a1.5 1.5 0 0 0-1.13-2.1h-.03a43.44 43.44 0 0 1-2.32-5.6l.02-.01a1.5 1.5 0 0 0-.7-2.28l-.02-.01a43.13 43.13 0 0 1-1.18-5.93l.02-.02a1.5 1.5 0 0 0-.23-2.38l-.02-.01a43.17 43.17 0 0 1 0-6.04l.02-.01a1.5 1.5 0 0 0 .23-2.38l-.02-.02c.26-2 .65-3.99 1.18-5.93h.03a1.5 1.5 0 0 0 .69-2.29l-.02-.02a43.16 43.16 0 0 1 2.32-5.58h.03a1.5 1.5 0 0 0 1.13-2.11l-.02-.03a43.1 43.1 0 0 1 3.35-5.02H19a1.5 1.5 0 0 0 1.51-1.84v-.04a43.14 43.14 0 0 1 4.26-4.27l.04.01a1.5 1.5 0 0 0 1.84-1.51v-.04a43.13 43.13 0 0 1 5.02-3.35l.03.02a1.5 1.5 0 0 0 2.1-1.13v-.03c1.81-.9 3.68-1.68 5.6-2.32Zm-2.95-2.12c-.7.26-1.37.55-2.05.85l.34-2.08 1.7 1.23Zm-8.08 4.07-1.92-.87.08 2.1c.6-.42 1.22-.83 1.84-1.23Zm-7.13 5.57-2.04-.48.48 2.04a46.1 46.1 0 0 1 1.56-1.56Zm-5.9 6.85-2.1-.07.87 1.9c.4-.61.8-1.23 1.23-1.83Zm-4.45 7.87-2.08.34 1.23 1.7c.26-.68.55-1.36.85-2.04Zm-2.84 8.6-1.96.73 1.53 1.43a52 52 0 0 1 .43-2.17Zm-1.1 8.97-1.78 1.1 1.78 1.1a46.14 46.14 0 0 1 0-2.2Zm.67 9.01L6.07 62.3l1.96.74a46.1 46.1 0 0 1-.43-2.17Zm2.42 8.71-1.23 1.71 2.08.34c-.3-.68-.59-1.36-.85-2.05Zm4.07 8.08-.87 1.92 2.1-.08c-.42-.6-.83-1.21-1.23-1.84Zm5.57 7.13-.48 2.04 2.04-.48a46.12 46.12 0 0 1-1.56-1.56Zm6.85 5.9-.08 2.1 1.92-.87c-.62-.4-1.24-.8-1.84-1.23Zm7.87 4.45.34 2.08 1.7-1.23a44.1 44.1 0 0 1-2.04-.85Zm8.59 2.84.74 1.96 1.43-1.53a52 52 0 0 1-2.17-.43Zm8.98 1.1 1.1 1.78 1.1-1.78a46.19 46.19 0 0 1-2.2 0Zm9.01-.67 1.43 1.53.74-1.96a52 52 0 0 1-2.17.43Zm8.71-2.42 1.7 1.23.35-2.08c-.68.3-1.36.59-2.05.85Zm8.08-4.07 1.92.87-.08-2.1c-.6.42-1.22.83-1.84 1.23Zm7.13-5.57 2.04.48-.48-2.04a46.47 46.47 0 0 1-1.56 1.56Zm5.9-6.85 2.1.08-.87-1.92c-.4.63-.8 1.24-1.23 1.84Zm4.45-7.87 2.08-.34-1.23-1.7a44.1 44.1 0 0 1-.85 2.04Zm2.84-8.59 1.96-.74-1.53-1.43a52 52 0 0 1-.43 2.17Zm1.1-8.98 1.78-1.1-1.78-1.1a46.18 46.18 0 0 1 0 2.2Zm-.67-9.01 1.53-1.43-1.96-.74a52 52 0 0 1 .43 2.17Zm-2.42-8.71 1.23-1.7-2.08-.35c.3.68.59 1.36.85 2.05Zm-4.07-8.08.87-1.91-2.1.07c.42.6.83 1.22 1.23 1.84Zm-5.57-7.13.48-2.04-2.04.48a45.75 45.75 0 0 1 1.56 1.56Zm-6.85-5.9.08-2.1-1.92.87c.63.4 1.24.8 1.84 1.23Zm-7.87-4.45-.34-2.08-1.7 1.23c.68.26 1.36.55 2.04.85Zm-8.59-2.84-.74-1.96-1.43 1.53a52 52 0 0 1 2.17.43Zm-8.98-1.1-1.1-1.78-1.1 1.78a46.2 46.2 0 0 1 2.2 0Z" clip-rule="evenodd"/></svg>