<svg xmlns="http://www.w3.org/2000/svg" fill="none" viewBox="0 0 246 162">
  <path fill="#F3EFE9" d="M3.9 128.8s-20.6-39.9999 47.4-62.3999c31.8-10.5 69.1-17.4 102.4-18.6 38-1.3 71.7 5.3 86.4 27.7 10.6 16.2 4.2 35.9999-16.3 51.3999-12.3 9.2-39.3 18.4-57.3 23.6-18 5.1-53.3 12-82.2 10.4-28.9-1.6-64.8-5.8-80.4-32.1Z"/>
  <path fill="#F3EFE9" d="M58.3 96.9c-5.9-4.3-14.2-25.4-11-30 3.2-4.6 8-14.2 10.7-23.6 2.7-9.3 6.5-29.1 14-36.1s18.7-7 33.5-5.4c14.7 1.6 57.8 9.4 68.3 13.1 10.4 3.7 24 10.7 23.2 27-.8 16.3.7 24.4-1.2 33.5-1.9 9.1-21.7 26.8-46.6 28.1-25 1.5-85-2.3-90.9-6.6Z"/>
  <path fill="#262222" d="M196.6 72.6999c-.3 0-.4.9-.8 1.4-3.3 5.4-13.1 14.6-35.4 14.6H99.8c-38.2 0-49.3-10.3-52.1-17.7-.2-.7-.5-1.6-.8-1.6-.3 0-.5 1.6-.5 1.6l-2.9 27.7C43.5 111.4 76.4 121.7 118.7 121.7c42.3 0 78.6-6 78.6-23.0001 0 0 .2-16.9.1-24.4 0-.8-.1-1.6-.8-1.6Z"/>
</svg>