<svg xmlns="http://www.w3.org/2000/svg" fill="none" viewBox="0 0 246 162"><path fill="#F3EFE9" d="M3.9 128.8s-20.6-40 47.4-62.4C83.1 55.9 120.4 49 153.7 47.8c38-1.3 71.7 5.3 86.4 27.7 10.6 16.2 4.2 36-16.3 51.4-12.3 9.2-39.3 18.4-57.3 23.6-18 5.1-53.3 12-82.2 10.4s-64.8-5.8-80.4-32.1"/><path fill="#F3EFE9" d="M58.3 96.9c-5.9-4.3-14.2-25.4-11-30s8-14.2 10.7-23.6c2.7-9.3 6.5-29.1 14-36.1s18.7-7 33.5-5.4c14.7 1.6 57.8 9.4 68.3 13.1 10.4 3.7 24 10.7 23.2 27s.7 24.4-1.2 33.5-21.7 26.8-46.6 28.1c-25 1.5-85-2.3-90.9-6.6"/><path fill="#262222" d="M196.6 72.7c-.3 0-.4.9-.8 1.4-3.3 5.4-13.1 14.6-35.4 14.6H99.8c-38.2 0-49.3-10.3-52.1-17.7-.2-.7-.5-1.6-.8-1.6s-.5 1.6-.5 1.6l-2.9 27.7c0 12.7 32.9 23 75.2 23s78.6-6 78.6-23c0 0 .2-16.9.1-24.4 0-.8-.1-1.6-.8-1.6"/></svg>