<svg xmlns="http://www.w3.org/2000/svg" preserveAspectRatio="xMidYMid" viewBox="0 0 256 253"><g fill="#264970"><path d="M156.487 127.66c0-16.48-13.353-29.84-29.833-29.84-16.482 0-29.834 13.36-29.837 29.84 0 16.472 13.351 29.831 29.837 29.831 16.478-.002 29.833-13.359 29.833-29.832m67.047 73.052-15.514-8.957a4.75 4.75 0 0 0-5.928.958c-19.092 21.48-46.447 33.803-75.05 33.808-28.609 0-55.964-12.322-75.056-33.806a4.754 4.754 0 0 0-5.93-.958l-15.514 8.958a4.75 4.75 0 0 0-1.266 7.168c24.36 29.073 59.995 45.747 97.767 45.747 37.766-.005 73.398-16.682 97.757-45.75a4.748 4.748 0 0 0-1.266-7.168"/><path d="M142.488 201.877q.566.002 1.13-.127c34.394-7.68 59.359-38.823 59.359-74.052 0-7.74-1.17-15.387-3.48-22.729a5.2 5.2 0 0 0-3.065-3.276 5.2 5.2 0 0 0-4.473.342l-9.252 5.339a5.19 5.19 0 0 0-2.41 5.854 55 55 0 0 1 1.94 14.47c0 24.998-16.89 46.924-41.075 53.32a5.19 5.19 0 0 0-3.859 5.015v10.658a5.187 5.187 0 0 0 5.184 5.186M127.614 50.292c-21.125 0-41.472 8.953-55.833 24.57a5.19 5.19 0 0 0 1.224 8.003l9.232 5.332a5.18 5.18 0 0 0 6.27-.84c10.45-10.518 24.337-16.312 39.107-16.312 14.771 0 28.66 5.793 39.109 16.309a5.19 5.19 0 0 0 6.268.84l9.237-5.33a5.2 5.2 0 0 0 2.531-3.708 5.19 5.19 0 0 0-1.311-4.297c-14.357-15.616-34.708-24.567-55.834-24.567"/><path d="M32.266 158.405a99.9 99.9 0 0 1-5.157-31.692c.008-47.497 33.76-88.897 80.252-98.419a4.75 4.75 0 0 0 3.8-4.656V5.76a4.75 4.75 0 0 0-1.695-3.637 4.73 4.73 0 0 0-3.874-1.045C44.419 11.74.012 64.569 0 126.709c0 15.047 2.609 29.786 7.756 43.81a4.75 4.75 0 0 0 2.843 2.831 4.75 4.75 0 0 0 3.996-.352l15.54-8.974a4.75 4.75 0 0 0 2.131-5.619"/><path d="m71.32 107.376-9.25-5.34a5.19 5.19 0 0 0-4.473-.342 5.2 5.2 0 0 0-3.065 3.277 75.7 75.7 0 0 0-3.483 22.726c0 35.234 24.964 66.38 59.357 74.056a5 5 0 0 0 1.128.127 5.19 5.19 0 0 0 5.186-5.188v-10.657a5.19 5.19 0 0 0-3.858-5.015c-24.183-6.395-41.073-28.322-41.073-53.321 0-4.873.654-9.742 1.941-14.468a5.186 5.186 0 0 0-2.41-5.855M149.913 1.075a4.75 4.75 0 0 0-3.875 1.045 4.75 4.75 0 0 0-1.693 3.637v17.88a4.754 4.754 0 0 0 3.798 4.655c46.502 9.52 80.253 50.919 80.253 98.415a100 100 0 0 1-5.158 31.696 4.75 4.75 0 0 0 2.132 5.62l15.54 8.971a4.75 4.75 0 0 0 3.995.353 4.75 4.75 0 0 0 2.843-2.83c5.147-14.025 7.756-28.764 7.756-43.81 0-62.14-44.407-114.972-105.591-125.632"/></g></svg>