<svg xmlns="http://www.w3.org/2000/svg" fill="none" viewBox="0 0 64 40">
  <path fill="url(#a)" fill-rule="evenodd" d="M16 13.6C18.133 5.067 23.467.8 32 .8 44.8.8 46.4 10.4 52.8 12c4.267 1.067 8-.533 11.2-4.8C61.867 15.733 56.533 20 48 20c-12.8 0-14.4-9.6-20.8-11.2-4.267-1.067-8 .533-11.2 4.8ZM0 32.8C2.133 24.267 7.467 20 16 20c12.8 0 14.4 9.6001 20.8 11.2001 4.267 1.067 8-.533 11.2-4.8-2.133 8.533-7.467 12.8-16 12.8C19.2 39.2001 17.6 29.6 11.2 28c-4.267-1.067-8 .533-11.2 4.8Z" clip-rule="evenodd"/>
  <defs>
    <linearGradient id="a" x1="0" x2="64" y1="-33.333" y2="73.333" gradientUnits="userSpaceOnUse">
      <stop stop-color="#2383AE"/>
      <stop offset="1" stop-color="#6DD7B9"/>
    </linearGradient>
  </defs>
</svg>