<svg xmlns="http://www.w3.org/2000/svg" fill="none" viewBox="0 0 52 31"><path fill="#38BDF8" fill-rule="evenodd" d="M25.517 0Q15.31 0 12.758 10.146q3.828-5.073 8.931-3.805c1.941.482 3.329 1.882 4.864 3.432 2.502 2.524 5.398 5.445 11.722 5.445q10.206 0 12.758-10.145-3.827 5.073-8.93 3.804c-1.942-.482-3.33-1.882-4.865-3.431C34.736 2.92 31.841 0 25.517 0M12.758 15.218Q2.552 15.218 0 25.364q3.828-5.073 8.93-3.805c1.942.482 3.33 1.882 4.865 3.432 2.502 2.524 5.397 5.445 11.722 5.445q10.206 0 12.758-10.145-3.828 5.073-8.931 3.805c-1.941-.483-3.329-1.883-4.864-3.432-2.502-2.524-5.398-5.446-11.722-5.446" clip-rule="evenodd"/></svg>