<svg xmlns="http://www.w3.org/2000/svg" fill="none" viewBox="0 0 50 50"><path fill="#fff" fill-rule="evenodd" d="M24.808 2.638c1.11 0 2.063.669 2.48 1.625a.25.25 0 0 0 .23.148.23.23 0 0 0 .18-.084 2.71 2.71 0 0 1 2.778-.88 2.71 2.71 0 0 1 1.977 2.218.25.25 0 0 0 .145.185.24.24 0 0 0 .234-.023 2.7 2.7 0 0 1 1.56-.493 2.707 2.707 0 0 1 2.685 3.016.245.245 0 0 0 .325.254c.3-.11.616-.164.93-.164a2.707 2.707 0 0 1 2.516 3.7.25.25 0 0 0 .034.234.25.25 0 0 0 .214.097 2.7 2.7 0 0 1 1.505.3 2.705 2.705 0 0 1 .91 4.008.24.24 0 0 0-.027.233.24.24 0 0 0 .181.149 2.71 2.71 0 0 1 2.157 2 2.71 2.71 0 0 1-.94 2.786.245.245 0 0 0 .05.409 2.71 2.71 0 0 1 1.566 2.487 2.71 2.71 0 0 1-1.625 2.449c-.163.072-.2.294-.063.409a2.707 2.707 0 0 1 .053 4.109 2.7 2.7 0 0 1-1.392.645.25.25 0 0 0-.184.146.24.24 0 0 0 .023.234c.302.429.473.936.492 1.46a2.706 2.706 0 0 1-3.043 2.783.25.25 0 0 0-.197.105.24.24 0 0 0-.03.22 2.71 2.71 0 0 1-.652 2.87 2.71 2.71 0 0 1-2.885.578.2.2 0 0 0-.086-.017.3.3 0 0 0-.097.021.25.25 0 0 0-.146.243 2.71 2.71 0 0 1-1.373 2.602 2.71 2.71 0 0 1-2.936-.187.23.23 0 0 0-.14-.046.25.25 0 0 0-.242.2 2.706 2.706 0 0 1-3.532 2.1 2.7 2.7 0 0 1-1.255-.884.24.24 0 0 0-.187-.088c-.09 0-.18.048-.222.138a2.71 2.71 0 0 1-2.487 1.565 2.71 2.71 0 0 1-2.449-1.623.25.25 0 0 0-.228-.148.23.23 0 0 0-.182.084 2.71 2.71 0 0 1-2.778.88 2.71 2.71 0 0 1-1.977-2.218.245.245 0 0 0-.264-.202.25.25 0 0 0-.114.04 2.7 2.7 0 0 1-1.56.493 2.708 2.708 0 0 1-2.685-3.017.24.24 0 0 0-.019-.12.25.25 0 0 0-.185-.145.25.25 0 0 0-.12.01 2.72 2.72 0 0 1-2.845-.626 2.71 2.71 0 0 1-.604-2.91.245.245 0 0 0-.128-.306.25.25 0 0 0-.119-.022A2.705 2.705 0 0 1 5.62 32.36a.245.245 0 0 0-.044-.332.25.25 0 0 0-.11-.051 2.71 2.71 0 0 1-2.156-2 2.71 2.71 0 0 1 .94-2.786.245.245 0 0 0-.05-.41 2.707 2.707 0 0 1 .06-4.935c.162-.072.2-.294.062-.41a2.707 2.707 0 0 1-.053-4.108 2.7 2.7 0 0 1 1.391-.646.24.24 0 0 0 .185-.145.25.25 0 0 0-.023-.234 2.706 2.706 0 0 1 1.03-3.992 2.7 2.7 0 0 1 1.52-.251.245.245 0 0 0 .24-.212.25.25 0 0 0-.012-.114 2.707 2.707 0 0 1 3.537-3.447.2.2 0 0 0 .085.016.25.25 0 0 0 .23-.164.3.3 0 0 0 .014-.1 2.708 2.708 0 0 1 2.869-2.941 2.7 2.7 0 0 1 1.44.527.246.246 0 0 0 .33-.045.25.25 0 0 0 .052-.109 2.707 2.707 0 0 1 3.533-2.098c.494.167.93.473 1.254.882.047.06.117.088.186.088.09 0 .18-.048.223-.138a2.71 2.71 0 0 1 2.455-1.567" clip-rule="evenodd"/><path fill="#2F2F2F" fill-rule="evenodd" d="M34.827 35.39c-2.483 0-2.288-3.507 0-3.507 2.29 0 2.484 3.507 0 3.507m-20.523-.001c-2.483 0-2.289-3.506 0-3.506s2.484 3.506 0 3.506m28.027-12.954h-.84a3.71 3.71 0 0 1-3.386-2.194 3.709 3.709 0 0 1-6.77 0 3.71 3.71 0 0 1-3.385 2.192 3.71 3.71 0 0 1-3.385-2.192 3.7 3.7 0 0 1-1.368 1.597 3.7 3.7 0 0 1-2.016.597 3.71 3.71 0 0 1-3.385-2.194 3.709 3.709 0 0 1-6.77 0 3.71 3.71 0 0 1-3.384 2.194H6.81c-1.262 1.358-.46 2.505 2.655 2.505v6.973c0 6.552 7.546 9.829 15.093 9.829s15.092-3.277 15.092-9.83V24.94c3.12 0 3.933-1.147 2.681-2.505" clip-rule="evenodd"/><path fill="#2F2F2F" fill-rule="evenodd" d="M24.809.005a5.34 5.34 0 0 0-3.041.955 5.34 5.34 0 0 0-6.02 1.532 5.34 5.34 0 0 0-3.256.682 5.34 5.34 0 0 0-2.157 2.351 5.3 5.3 0 0 0-2.968 1.503A5.34 5.34 0 0 0 5.89 9.861a5.35 5.35 0 0 0-2.478 2.216 5.34 5.34 0 0 0-.693 3.116 5.33 5.33 0 0 0-1.682 5.973 5.33 5.33 0 0 0-.08 6.205 5.33 5.33 0 0 0-.183 3.322 5.34 5.34 0 0 0 1.713 2.693A5.33 5.33 0 0 0 5.522 38.8a5.34 5.34 0 0 0 1.503 2.967 5.3 5.3 0 0 0 2.832 1.48 5.33 5.33 0 0 0 5.335 3.17 5.33 5.33 0 0 0 4.166 1.998 5.3 5.3 0 0 0 1.81-.315 5.34 5.34 0 0 0 3.157 1.032 5.34 5.34 0 0 0 3.04-.955 5.34 5.34 0 0 0 3.327.18 5.34 5.34 0 0 0 2.693-1.713 5.34 5.34 0 0 0 3.256-.682 5.34 5.34 0 0 0 2.157-2.35 5.3 5.3 0 0 0 2.969-1.504 5.34 5.34 0 0 0 1.476-2.832 5.34 5.34 0 0 0 2.478-2.216 5.34 5.34 0 0 0 .693-3.115 5.33 5.33 0 0 0 1.683-5.974c.66-.9 1.036-2 1.036-3.161a5.34 5.34 0 0 0-.957-3.044 5.33 5.33 0 0 0-1.53-6.015 5.33 5.33 0 0 0-3.035-5.415 5.34 5.34 0 0 0-1.502-2.967 5.3 5.3 0 0 0-2.832-1.48 5.33 5.33 0 0 0-5.336-3.171A5.33 5.33 0 0 0 29.776.72c-.626 0-1.238.11-1.812.316A5.34 5.34 0 0 0 24.809.004m0 2.633c1.11 0 2.063.669 2.48 1.625a.25.25 0 0 0 .328.126.2.2 0 0 0 .082-.062 2.72 2.72 0 0 1 2.778-.88 2.71 2.71 0 0 1 1.977 2.218.25.25 0 0 0 .145.185.24.24 0 0 0 .234-.023 2.7 2.7 0 0 1 1.56-.493 2.707 2.707 0 0 1 2.685 3.016.245.245 0 0 0 .325.254c.3-.109.616-.164.93-.164a2.707 2.707 0 0 1 2.688 2.408 2.7 2.7 0 0 1-.172 1.293.25.25 0 0 0 .033.233.25.25 0 0 0 .215.097 2.7 2.7 0 0 1 2.604 1.371 2.71 2.71 0 0 1-.19 2.937.245.245 0 0 0 .155.382 2.707 2.707 0 0 1 2.098 3.531 2.7 2.7 0 0 1-.881 1.255.245.245 0 0 0 .05.409 2.71 2.71 0 0 1 1.565 2.487 2.71 2.71 0 0 1-1.624 2.449c-.163.072-.2.294-.063.409a2.706 2.706 0 0 1-1.34 4.754.25.25 0 0 0-.184.146.25.25 0 0 0 .024.234 2.706 2.706 0 0 1-2.551 4.243.24.24 0 0 0-.197.105.24.24 0 0 0-.03.221 2.71 2.71 0 0 1-.652 2.869 2.71 2.71 0 0 1-2.885.578.2.2 0 0 0-.086-.017.25.25 0 0 0-.179.08.25.25 0 0 0-.064.184 2.707 2.707 0 0 1-2.869 2.942 2.7 2.7 0 0 1-1.44-.527.23.23 0 0 0-.14-.046.246.246 0 0 0-.242.2 2.706 2.706 0 0 1-4.787 1.216.24.24 0 0 0-.187-.088c-.09 0-.18.048-.222.138a2.708 2.708 0 0 1-4.936-.058.25.25 0 0 0-.228-.148.24.24 0 0 0-.182.084 2.71 2.71 0 0 1-2.778.88 2.71 2.71 0 0 1-1.977-2.218.24.24 0 0 0-.145-.184.24.24 0 0 0-.233.023 2.7 2.7 0 0 1-1.56.492 2.71 2.71 0 0 1-2.577-1.891 2.7 2.7 0 0 1-.108-1.126.25.25 0 0 0-.02-.12.25.25 0 0 0-.184-.144.25.25 0 0 0-.121.01 2.72 2.72 0 0 1-2.844-.627 2.71 2.71 0 0 1-.604-2.91.245.245 0 0 0-.247-.328 2.705 2.705 0 0 1-2.415-4.308.245.245 0 0 0-.154-.383 2.71 2.71 0 0 1-2.157-2 2.71 2.71 0 0 1 .94-2.786.245.245 0 0 0-.05-.41 2.707 2.707 0 0 1 .06-4.935.246.246 0 0 0 .063-.41 2.707 2.707 0 0 1 1.338-4.754.25.25 0 0 0 .184-.145.25.25 0 0 0-.022-.234 2.706 2.706 0 0 1 2.55-4.243.245.245 0 0 0 .228-.326 2.707 2.707 0 0 1 3.537-3.447.2.2 0 0 0 .085.016.246.246 0 0 0 .244-.263 2.708 2.708 0 0 1 2.868-2.942 2.7 2.7 0 0 1 1.44.527.246.246 0 0 0 .33-.045.25.25 0 0 0 .053-.11 2.707 2.707 0 0 1 4.787-1.215c.047.06.117.088.186.088.09 0 .18-.048.223-.138a2.71 2.71 0 0 1 2.455-1.567" clip-rule="evenodd"/></svg>