<svg xmlns="http://www.w3.org/2000/svg" fill="none" viewBox="0 0 23 23">
  <path fill="#fff" d="M2.6143 2.9954h17.3081v17.2949H2.6143V2.9953Z"/>
  <path fill="#0052CC" d="M19.7502.5H2.7859A2.637 2.637 0 0 0 .143 3.143v16.9999a2.637 2.637 0 0 0 2.6428 2.6428h16.9643a2.6375 2.6375 0 0 0 2.6429-2.6428v-17A2.6374 2.6374 0 0 0 20.7625.6996 2.6369 2.6369 0 0 0 19.7502.5ZM9.7145 16.5357c0 .5-.393.8929-.893.8929h-3.714c-.5 0-.893-.3929-.893-.8929V5.5c0-.5.393-.8929.893-.8929h3.7142c.5 0 .8929.393.8929.893v11.0356Zm8.5714-5.0714c0 .5-.3928.8928-.8571.8928h-3.75c-.5 0-.8929-.3928-.8929-.8928V5.5c0-.5.3929-.8929.8929-.8929h3.7143c.5 0 .8928.393.8928.893v5.9642Z"/>
</svg>