<svg xmlns="http://www.w3.org/2000/svg" fill="none" viewBox="0 0 23 23">
  <path fill="#fff" d="M2.6143 2.9954h17.3081v17.2949H2.6143z"/>
  <path fill="#0052CC" d="M19.7502.5H2.7859A2.6369 2.6369 0 0 0 .1431 3.1429v17a2.6369 2.6369 0 0 0 2.6428 2.6428h16.9643a2.637 2.637 0 0 0 2.6429-2.6428v-17A2.637 2.637 0 0 0 19.7502.5ZM9.7145 16.5357c0 .5-.3929.8929-.8929.8929H5.1074c-.5 0-.8929-.3929-.8929-.8929V5.5c0-.5.3929-.8929.8929-.8929h3.7142c.5 0 .8929.3929.8929.8929v11.0357Zm8.5714-5.0714c0 .5-.3928.8928-.8571.8928h-3.75c-.5 0-.8929-.3928-.8929-.8928V5.5c0-.5.3929-.8929.8929-.8929h3.7143c.5 0 .8928.3929.8928.8929v5.9643Z"/>
</svg>