<svg xmlns="http://www.w3.org/2000/svg" fill="none" viewBox="0 0 23 23"><path fill="#fff" d="M2.614 2.995h17.308V20.29H2.614z"/><path fill="#0052CC" d="M19.75.5H2.786A2.637 2.637 0 0 0 .143 3.143v17a2.637 2.637 0 0 0 2.643 2.643H19.75a2.64 2.64 0 0 0 2.643-2.643v-17A2.64 2.64 0 0 0 20.763.7 2.6 2.6 0 0 0 19.75.5M9.715 16.536c0 .5-.394.893-.894.893H5.107a.884.884 0 0 1-.893-.893V5.5c0-.5.393-.893.893-.893h3.715c.5 0 .893.393.893.893zm8.57-5.072c0 .5-.392.893-.856.893h-3.75a.884.884 0 0 1-.893-.893V5.5c0-.5.393-.893.893-.893h3.714c.5 0 .893.393.893.893z"/></svg>