<svg xmlns="http://www.w3.org/2000/svg" fill="none" viewBox="0 0 29 28"><path fill="#fff" d="M.079 0h28v28h-28z"/><path fill="#006EC1" d="M.08 14V0h28v28h-28"/><path fill="#fff" d="M6.218 14.05v1.14h3.64v10.36h2.583V15.19h3.64v-1.12c0-.63 0-1.14-.028-1.155 0-.02-2.219-.028-4.914-.028l-4.9.021v1.148l-.02-.007zm16.36-1.17a3.4 3.4 0 0 1 1.75 1.001c.258.28.643.77.671.896 0 .042-1.21.861-1.946 1.316-.028.021-.14-.098-.252-.28-.364-.518-.735-.742-1.316-.784-.84-.056-1.4.385-1.4 1.12 0 .224.042.35.126.532.19.385.54.616 1.624 1.092 2.002.861 2.87 1.428 3.395 2.24.595.91.728 2.338.33 3.41-.449 1.168-1.54 1.96-3.102 2.218-.49.084-1.61.07-2.135-.02-1.12-.21-2.19-.77-2.849-1.492-.259-.28-.756-1.029-.728-1.078l.266-.168 1.05-.609.791-.462.182.245c.231.364.75.854 1.05 1.022.91.47 2.128.406 2.73-.14.26-.238.371-.49.371-.84 0-.322-.049-.469-.21-.714-.224-.308-.672-.56-1.932-1.12-1.449-.616-2.065-1.008-2.639-1.61-.329-.364-.63-.93-.77-1.4-.105-.406-.14-1.4-.042-1.799.301-1.4 1.358-2.38 2.87-2.66.49-.098 1.645-.056 2.128.07z"/></svg>