<svg xmlns="http://www.w3.org/2000/svg" fill="none" viewBox="0 0 392 393">
  <path fill="#BD34FE" d="M390.641 58.5249 206.643 387.545c-3.799 6.793-13.559 6.833-17.415.073L1.5821 58.5559c-4.202-7.366 2.098-16.29 10.446-14.796l184.1949 32.923c1.175.21 2.378.208 3.553-.006l180.343-32.87c8.32-1.517 14.649 7.336 10.522 14.718Z"/>
  <path fill="#FFDD35" d="M283.965.574 147.801 27.255a4.9963 4.9963 0 0 0-2.803 1.6164 5 5 0 0 0-1.227 2.9946l-8.376 141.464c-.197 3.332 2.863 5.918 6.115 5.168l37.91-8.749c3.547-.818 6.752 2.306 6.023 5.873l-11.263 55.153c-.758 3.712 2.727 6.886 6.352 5.785l23.415-7.114c3.63-1.102 7.118 2.081 6.35 5.796l-17.899 86.633c-1.12 5.419 6.088 8.374 9.094 3.728l2.008-3.103 110.954-221.428c1.858-3.707-1.346-7.935-5.418-7.15l-39.022 7.532c-3.667.707-6.787-2.708-5.752-6.296l25.469-88.291c1.036-3.594-2.095-7.012-5.766-6.293Z"/>
</svg>