<svg xmlns="http://www.w3.org/2000/svg" fill="none" viewBox="0 0 25 28"><path fill="#fff" d="m12.454 0 12.374 7v14l-12.374 7L.08 21V7z"/><path fill="#8ED6FB" d="m22.618 20.518-9.755 5.519v-4.298l6.078-3.344zm.669-.604V8.374l-3.569 2.062v7.418zm-21.036.604 9.755 5.519v-4.298l-6.082-3.344zm-.669-.605V8.375l3.569 2.062v7.418zm.42-12.287 10.004-5.66V6.12l-6.41 3.527-.052.028zm20.866 0-10.005-5.66V6.12l6.41 3.523.052.03z"/><path fill="#1C78C0" d="m12.006 20.761-5.998-3.3V10.93l5.998 3.463zm.857 0 5.998-3.297V10.93l-5.998 3.463zm-6.45-10.587 6.021-3.309 6.021 3.31-6.02 3.475z"/></svg>