<svg xmlns="http://www.w3.org/2000/svg" fill="none" viewBox="0 0 92 100">
  <path fill="#3386EE" d="M48.079 17.581C48.079 7.886 40.192 0 30.498 0 20.28 0 14.172 7.66 14.172 15.07H24.22c0-2.085 1.948-5.024 6.279-5.024 4.154 0 7.534 3.381 7.534 7.535 0 4.155-3.032 7.535-10.679 7.535H0v10.047h27.353c12.906 0 20.726-7.887 20.726-17.582Zm0 0C48.079 7.886 40.192 0 30.498 0 20.28 0 14.172 7.66 14.172 15.07H24.22c0-2.085 1.948-5.024 6.279-5.024 4.154 0 7.534 3.381 7.534 7.535 0 4.155-3.032 7.535-10.679 7.535H0v10.047h27.353c12.906 0 20.726-7.887 20.726-17.582Zm22.2881 64.8379c0 9.695-7.887 17.581-17.582 17.581-10.217 0-16.325-7.66-16.325-15.07h10.046c0 2.085 1.95 5.024 6.28 5.024 4.154 0 7.534-3.381 7.534-7.535s-3.82-7.535-10.679-7.535h-30.353v-10.046h30.352c12.906 0 20.726 7.886 20.726 17.58l.001.001Zm0 0c0 9.695-7.887 17.581-17.582 17.581-10.217 0-16.325-7.66-16.325-15.07h10.046c0 2.085 1.95 5.024 6.28 5.024 4.154 0 7.534-3.381 7.534-7.535s-3.82-7.535-10.679-7.535h-30.353v-10.046h30.352c12.906 0 20.726 7.886 20.726 17.58l.001.001Z"/>
  <path fill="#3386EE" d="M73 15.5c-11.081 0-18.898 8.427-18.898 19.508H63C63 29.5 67 25.5 73 25.5s9 4 9 9.508c0 5.508-3.896 10.046-14.5 10.046H0v10.047h69c15.703 0 23-10.093 23-20.093C92 23.927 84.5 15.5 73 15.5ZM13.17 64.8379H0v10.13h13.17v-10.13Z"/>
</svg>