<svg xmlns="http://www.w3.org/2000/svg" viewBox="0 0 43 34"><g fill="none" fill-rule="evenodd"><path fill="#F89920" d="M4.996 23.929.65 19.069l13.303-4.843 2.071 5.69z"/><path fill="#FFBE22" d="M4.964 23.841 4.76 30.36l13.304-4.843-2.07-5.688z"/><path fill="#F0670A" d="M41.934 10.495c1.898 5.5-4.218 12.726-13.732 16.189-9.515 3.462-18.845 1.858-20.926-3.575z"/><path fill="#FFD00E" d="M41.934 10.495c-2.068-5.447-11.408-7.058-20.932-3.592C11.477 10.37 5.358 17.608 7.276 23.11z"/><path fill="#F89920" d="M41.933 10.495c1.183 3.68-5.457 9.41-14.942 12.862S8.735 26.688 7.277 23.11z"/><path fill="#FFBE22" d="M41.933 10.495c-1.437-3.596-10.22-3.724-19.72-.266-9.501 3.458-16.148 9.201-14.937 12.88z"/><path fill="#F0670A" fill-rule="nonzero" d="M25.945 5.504C25.04 2.374 24.01.637 22.839.67c-2.264.065-3.026 7.244-2.293 16.443.74 9.296 2.662 16.28 5.057 16.217 1.427-.038 2.232-2.322 2.514-6.29.006-.08-.084-.024-.08-.107 0 0-.01-.144-.064-.148l-.304-.02c-.249 3.852-1.003 6.071-2.079 6.1-1.968.05-3.868-6.858-4.58-15.789-.7-8.785.054-15.89 1.842-15.94.847-.024 1.795 1.575 2.634 4.457 0 0 .46-.088.459-.09"/><path fill="#F0670A" fill-rule="nonzero" d="M14.725 3.27c-1.928 1.188 1.002 7.785 6.236 15.386 5.29 7.68 10.445 12.768 12.487 11.516 1.142-.7.822-2.824-.649-6.03a.233.233 0 1 0-.422.193c1.366 2.982 1.66 4.93.828 5.44-1.679 1.029-6.778-4.004-11.86-11.384-4.999-7.257-7.899-13.786-6.375-14.725.808-.498 2.732.704 5.274 3.301.029.03.191.198.227.209.08.024.04-.143.103-.205a.233.233 0 0 0 .003-.33c-2.716-2.774-4.754-4.048-5.852-3.372z"/></g></svg>