<svg xmlns="http://www.w3.org/2000/svg" viewBox="0 0 43 34">
  <defs/>
  <g fill="none" fill-rule="evenodd">
    <path fill="#F89920" d="M4.9961 23.929l-4.346-4.8607 13.3032-4.8424 2.0707 5.6893z"/>
    <path fill="#FFBE22" d="M4.9643 23.8414l-.2048 6.5175 13.3034-4.8424-2.0707-5.6889z"/>
    <path fill="#F0670A" d="M41.9337 10.495c1.8981 5.4993-4.2181 12.7256-13.732 16.1887-9.515 3.4626-18.845 1.8585-20.9262-3.5746l34.6582-12.6142z"/>
    <path fill="#FFD00E" d="M41.9341 10.4945c-2.0677-5.447-11.4078-7.0577-20.9322-3.5916C11.477 10.3695 5.3577 17.6075 7.2755 23.1095l34.6586-12.615z"/>
    <path fill="#F89920" d="M41.9328 10.4954c1.1832 3.6796-5.4571 9.4103-14.9419 12.862-9.4852 3.4526-18.2555 3.331-19.7141-.2483l34.656-12.6137z"/>
    <path fill="#FFBE22" d="M41.9332 10.495c-1.4368-3.5964-10.2206-3.724-19.721-.2658-9.5005 3.4578-16.147 9.2012-14.9363 12.8799l34.6573-12.6142z"/>
    <path fill="#F0670A" fill-rule="nonzero" d="M25.9449 5.5036C25.0396 2.3733 24.0097.6372 22.8386.6703c-2.2641.0645-3.0252 7.2433-2.2924 16.4423.7406 9.2966 2.6614 16.2803 5.0563 16.2171 1.428-.0375 2.2323-2.322 2.5146-6.2888.0057-.081-.0845-.0248-.0793-.1076 0 0-.0117-.1446-.0653-.1481l-.3037-.0196c-.2488 3.8512-1.0025 6.0705-2.0785 6.0988-1.9684.0514-3.8687-6.8569-4.5797-15.7884-.7001-8.785.0536-15.8894 1.8415-15.9404.8465-.024 1.795 1.575 2.634 4.4577 0 0 .4592-.0884.4588-.0897z"/>
    <path fill="#F0670A" fill-rule="nonzero" d="M14.7253 3.27c-1.9287 1.188 1.0016 7.7852 6.2356 15.3858 5.2894 7.6807 10.445 12.7683 12.4874 11.5162 1.1414-.6996.8212-2.824-.6491-6.0304a.2326.2326 0 10-.4226.1939c1.3662 2.9812 1.6598 4.93.8282 5.4396-1.6787 1.0286-6.778-4.0037-11.8605-11.3838-4.9983-7.2577-7.8981-13.7865-6.3746-14.725.8086-.4983 2.7325.7041 5.2746 3.301.0283.0288.1908.1974.227.2083.0788.024.0392-.1429.1023-.2047a.2326.2326 0 00.0035-.3294c-2.716-2.7743-4.754-4.0481-5.8518-3.372v.0004z"/>
  </g>
</svg>