<svg xmlns="http://www.w3.org/2000/svg" fill="none" viewBox="0 0 12 12">
  <path fill="#fff" fill-rule="evenodd" d="M.853 5.966h1.712a9.35 9.35 0 0 1 .215-1.719H1.304a4.784 4.784 0 0 0-.45 1.72Zm.85-2.406h1.262a6.37 6.37 0 0 1 .44-1.058c.12-.225.256-.44.41-.641a4.829 4.829 0 0 0-2.11 1.699ZM5.654.81a5.5 5.5 0 1 0 0 11 5.5 5.5 0 0 0 0-11Zm-.343.74c-.461.14-.918.564-1.298 1.276a5.474 5.474 0 0 0-.321.734H5.31V1.55Zm0 2.697H3.486a8.594 8.594 0 0 0-.233 1.72H5.31v-1.72Zm.687 1.72v-1.72h1.824c.129.526.21 1.106.232 1.72H5.997Zm-.687.687H3.254c.019.579.097 1.155.232 1.719H5.31v-1.72Zm.687 1.719v-1.72h2.056a8.591 8.591 0 0 1-.232 1.72H5.997Zm-.687.687H3.69c.095.265.203.511.322.734.38.712.838 1.135 1.298 1.276V9.06Zm-1.494 1.7a4.607 4.607 0 0 1-.41-.642 6.372 6.372 0 0 1-.44-1.058H1.703a4.829 4.829 0 0 0 2.112 1.7ZM1.304 8.372H2.78a9.385 9.385 0 0 1-.215-1.72H.853c.043.613.2 1.192.451 1.72Zm6.187 2.386A4.829 4.829 0 0 0 9.603 9.06h-1.26a6.38 6.38 0 0 1-.442 1.058 4.47 4.47 0 0 1-.41.641Zm.125-1.699H5.997v2.01c.46-.14.918-.564 1.297-1.276.125-.236.233-.482.322-.734Zm.911-.688h1.475a4.76 4.76 0 0 0 .451-1.718H8.742a9.384 9.384 0 0 1-.215 1.719Zm.215-2.406h1.711a4.781 4.781 0 0 0-.45-1.719H8.526a9.42 9.42 0 0 1 .215 1.72Zm-.4-2.406a6.378 6.378 0 0 0-.44-1.058 4.601 4.601 0 0 0-.411-.641 4.829 4.829 0 0 1 2.112 1.7H8.341Zm-.726 0H5.997V1.55c.46.14.918.564 1.297 1.276.12.223.227.469.322.734Z" clip-rule="evenodd"/>
</svg>