<svg xmlns="http://www.w3.org/2000/svg" fill="none" viewBox="0 0 416 481"><path fill="#304D53" d="M142.5 44.912h1v8h-1z"/><path fill="#304D53" d="M139 49.412v-1h8v1zm67.5-36.5h1v8h-1z"/><path fill="#304D53" d="M203 17.412v-1h8v1zm3.5 27.5h1v8h-1z"/><path fill="#304D53" d="M203 49.412v-1h8v1zm-28.5-4.5h1v8h-1z"/><path fill="#304D53" d="M171 49.412v-1h8v1zm-92.5 59.5h1v8h-1z"/><path fill="#304D53" d="M75 113.412v-1h8v1zm-28.5-4.5h1v8h-1z"/><path fill="#304D53" d="M43 113.412v-1h8v1zm67.5-36.5h1v8h-1z"/><path fill="#304D53" d="M107 81.412v-1h8v1zm35.5-4.5h1v8h-1z"/><path fill="#304D53" d="M139 81.412v-1h8v1zm3.5 27.5h1v8h-1z"/><path fill="#304D53" d="M139 113.412v-1h8v1zm-28.5-4.5h1v8h-1z"/><path fill="#304D53" d="M107 113.412v-1h8v1zm67.5-36.5h1v8h-1z"/><path fill="#304D53" d="M171 81.412v-1h8v1zm35.5-4.5h1v8h-1z"/><path fill="#304D53" d="M203 81.412v-1h8v1zm3.5 27.5h1v8h-1z"/><path fill="#304D53" d="M203 113.412v-1h8v1zm-28.5-4.5h1v8h-1z"/><path fill="#304D53" d="M171 113.412v-1h8v1zm-156.5 27.5h1v8h-1z"/><path fill="#304D53" d="M11 145.412v-1h8v1zm3.5 27.5h1v8h-1z"/><path fill="#304D53" d="M11 177.412v-1h8v1zm35.5-36.5h1v8h-1z"/><path fill="#304D53" d="M43 145.412v-1h8v1zm35.5-4.5h1v8h-1z"/><path fill="#304D53" d="M75 145.412v-1h8v1zm3.5 27.5h1v8h-1z"/><path fill="#304D53" d="M75 177.412v-1h8v1zm-28.5-4.5h1v8h-1z"/><path fill="#304D53" d="M43 177.412v-1h8v1zm67.5-36.5h1v8h-1z"/><path fill="#304D53" d="M107 145.412v-1h8v1zm35.5-4.5h1v8h-1z"/><path fill="#304D53" d="M139 145.412v-1h8v1zm3.5 27.5h1v8h-1z"/><path fill="#304D53" d="M139 177.412v-1h8v1zm-28.5-4.5h1v8h-1z"/><path fill="#304D53" d="M107 177.412v-1h8v1zm67.5-36.5h1v8h-1z"/><path fill="#304D53" d="M171 145.412v-1h8v1zm35.5-4.5h1v8h-1z"/><path fill="#304D53" d="M203 145.412v-1h8v1zm3.5 27.5h1v8h-1z"/><path fill="#304D53" d="M203 177.412v-1h8v1zm-28.5-4.5h1v8h-1z"/><path fill="#304D53" d="M171 177.412v-1h8v1zm-156.5 27.5h1v8h-1z"/><path fill="#304D53" d="M11 209.412v-1h8v1zm3.5 27.5h1v8h-1z"/><path fill="#304D53" d="M11 241.412v-1h8v1zm35.5-36.5h1v8h-1z"/><path fill="#304D53" d="M43 209.412v-1h8v1zm35.5-4.5h1v8h-1z"/><path fill="#304D53" d="M75 209.412v-1h8v1zm3.5 27.5h1v8h-1z"/><path fill="#304D53" d="M75 241.412v-1h8v1zm-28.5-4.5h1v8h-1z"/><path fill="#304D53" d="M43 241.412v-1h8v1zm67.5-36.5h1v8h-1z"/><path fill="#304D53" d="M107 209.412v-1h8v1zm35.5-4.5h1v8h-1z"/><path fill="#304D53" d="M139 209.412v-1h8v1zm3.5 27.5h1v8h-1z"/><path fill="#304D53" d="M139 241.412v-1h8v1zm-28.5-4.5h1v8h-1z"/><path fill="#304D53" d="M107 241.412v-1h8v1zm67.5-36.5h1v8h-1z"/><path fill="#304D53" d="M171 209.412v-1h8v1zm35.5-4.5h1v8h-1z"/><path fill="#304D53" d="M203 209.412v-1h8v1zm3.5 27.5h1v8h-1z"/><path fill="#304D53" d="M203 241.412v-1h8v1zm-28.5-4.5h1v8h-1z"/><path fill="#304D53" d="M171 241.412v-1h8v1zm99.5-196.5h1v8h-1z"/><path fill="#304D53" d="M267 49.412v-1h8v1zm-28.5-4.5h1v8h-1z"/><path fill="#304D53" d="M235 49.412v-1h8v1zm3.5 27.5h1v8h-1z"/><path fill="#304D53" d="M235 81.412v-1h8v1zm35.5-4.5h1v8h-1z"/><path fill="#304D53" d="M267 81.412v-1h8v1zm3.5 27.5h1v8h-1z"/><path fill="#304D53" d="M267 113.412v-1h8v1zm-28.5-4.5h1v8h-1z"/><path fill="#304D53" d="M235 113.412v-1h8v1zm67.5-36.5h1v8h-1z"/><path fill="#304D53" d="M299 81.412v-1h8v1zm35.5-4.5h1v8h-1z"/><path fill="#304D53" d="M331 81.412v-1h8v1zm3.5 27.5h1v8h-1z"/><path fill="#304D53" d="M331 113.412v-1h8v1zm-28.5-4.5h1v8h-1z"/><path fill="#304D53" d="M299 113.412v-1h8v1zm67.5-4.5h1v8h-1z"/><path fill="#304D53" d="M363 113.412v-1h8v1zm-124.5 27.5h1v8h-1z"/><path fill="#304D53" d="M235 145.412v-1h8v1zm35.5-4.5h1v8h-1z"/><path fill="#304D53" d="M267 145.412v-1h8v1zm3.5 27.5h1v8h-1z"/><path fill="#304D53" d="M267 177.412v-1h8v1zm-28.5-4.5h1v8h-1z"/><path fill="#304D53" d="M235 177.412v-1h8v1zm67.5-36.5h1v8h-1z"/><path fill="#304D53" d="M299 145.412v-1h8v1zm35.5-4.5h1v8h-1z"/><path fill="#304D53" d="M331 145.412v-1h8v1zm3.5 27.5h1v8h-1z"/><path fill="#304D53" d="M331 177.412v-1h8v1zm-28.5-4.5h1v8h-1z"/><path fill="#304D53" d="M299 177.412v-1h8v1zm67.5-36.5h1v8h-1z"/><path fill="#304D53" d="M363 145.412v-1h8v1zm35.5-4.5h1v8h-1z"/><path fill="#304D53" d="M395 145.412v-1h8v1zm3.5 27.5h1v8h-1z"/><path fill="#304D53" d="M395 177.412v-1h8v1zm-28.5-4.5h1v8h-1z"/><path fill="#304D53" d="M363 177.412v-1h8v1zm-124.5 27.5h1v8h-1z"/><path fill="#304D53" d="M235 209.412v-1h8v1zm35.5-4.5h1v8h-1z"/><path fill="#304D53" d="M267 209.412v-1h8v1zm3.5 27.5h1v8h-1z"/><path fill="#304D53" d="M267 241.412v-1h8v1zm-28.5-4.5h1v8h-1z"/><path fill="#304D53" d="M235 241.412v-1h8v1zm67.5-36.5h1v8h-1z"/><path fill="#304D53" d="M299 209.412v-1h8v1zm35.5-4.5h1v8h-1z"/><path fill="#304D53" d="M331 209.412v-1h8v1zm3.5 27.5h1v8h-1z"/><path fill="#304D53" d="M331 241.412v-1h8v1zm-28.5-4.5h1v8h-1z"/><path fill="#304D53" d="M299 241.412v-1h8v1zm67.5-36.5h1v8h-1z"/><path fill="#304D53" d="M363 209.412v-1h8v1zm35.5-4.5h1v8h-1z"/><path fill="#304D53" d="M395 209.412v-1h8v1zm3.5 27.5h1v8h-1z"/><path fill="#304D53" d="M395 241.412v-1h8v1zm-28.5-4.5h1v8h-1z"/><path fill="#304D53" d="M363 241.412v-1h8v1zm-348.5 27.5h1v8h-1z"/><path fill="#304D53" d="M11 273.412v-1h8v1zm3.5 27.5h1v8h-1z"/><path fill="#304D53" d="M11 305.412v-1h8v1zm35.5-36.5h1v8h-1z"/><path fill="#304D53" d="M43 273.412v-1h8v1zm35.5-4.5h1v8h-1z"/><path fill="#304D53" d="M75 273.412v-1h8v1zm3.5 27.5h1v8h-1z"/><path fill="#304D53" d="M75 305.412v-1h8v1zm-28.5-4.5h1v8h-1z"/><path fill="#304D53" d="M43 305.412v-1h8v1zm67.5-36.5h1v8h-1z"/><path fill="#304D53" d="M107 273.412v-1h8v1zm35.5-4.5h1v8h-1z"/><path fill="#304D53" d="M139 273.412v-1h8v1zm3.5 27.5h1v8h-1z"/><path fill="#304D53" d="M139 305.412v-1h8v1zm-28.5-4.5h1v8h-1z"/><path fill="#304D53" d="M107 305.412v-1h8v1zm67.5-36.5h1v8h-1z"/><path fill="#304D53" d="M171 273.412v-1h8v1zm35.5-4.5h1v8h-1z"/><path fill="#304D53" d="M203 273.412v-1h8v1zm3.5 27.5h1v8h-1z"/><path fill="#304D53" d="M203 305.412v-1h8v1zm-28.5-4.5h1v8h-1z"/><path fill="#304D53" d="M171 305.412v-1h8v1zm-156.5 27.5h1v8h-1z"/><path fill="#304D53" d="M11 337.412v-1h8v1zm35.5-4.5h1v8h-1z"/><path fill="#304D53" d="M43 337.412v-1h8v1zm35.5-4.5h1v8h-1z"/><path fill="#304D53" d="M75 337.412v-1h8v1zm3.5 27.5h1v8h-1z"/><path fill="#304D53" d="M75 369.412v-1h8v1zm-28.5-4.5h1v8h-1z"/><path fill="#304D53" d="M43 369.412v-1h8v1zm67.5-36.5h1v8h-1z"/><path fill="#304D53" d="M107 337.412v-1h8v1zm35.5-4.5h1v8h-1z"/><path fill="#304D53" d="M139 337.412v-1h8v1zm3.5 27.5h1v8h-1z"/><path fill="#304D53" d="M139 369.412v-1h8v1zm-28.5-4.5h1v8h-1z"/><path fill="#304D53" d="M107 369.412v-1h8v1zm67.5-36.5h1v8h-1z"/><path fill="#304D53" d="M171 337.412v-1h8v1zm35.5-4.5h1v8h-1z"/><path fill="#304D53" d="M203 337.412v-1h8v1zm3.5 27.5h1v8h-1z"/><path fill="#304D53" d="M203 369.412v-1h8v1zm-28.5-4.5h1v8h-1z"/><path fill="#304D53" d="M171 369.412v-1h8v1zm-92.5 27.5h1v8h-1z"/><path fill="#304D53" d="M75 401.412v-1h8v1zm35.5-4.5h1v8h-1z"/><path fill="#304D53" d="M107 401.412v-1h8v1zm35.5-4.5h1v8h-1z"/><path fill="#304D53" d="M139 401.412v-1h8v1zm3.5 27.5h1v8h-1z"/><path fill="#304D53" d="M139 433.412v-1h8v1zm35.5-36.5h1v8h-1z"/><path fill="#304D53" d="M171 401.412v-1h8v1zm35.5-4.5h1v8h-1z"/><path fill="#304D53" d="M203 401.412v-1h8v1zm3.5 27.5h1v8h-1z"/><path fill="#304D53" d="M203 433.412v-1h8v1zm-28.5-4.5h1v8h-1z"/><path fill="#304D53" d="M171 433.412v-1h8v1zm35.5 27.5h1v8h-1z"/><path fill="#304D53" d="M203 465.412v-1h8v1zm35.5-196.5h1v8h-1z"/><path fill="#304D53" d="M235 273.412v-1h8v1zm35.5-4.5h1v8h-1z"/><path fill="#304D53" d="M267 273.412v-1h8v1zm3.5 27.5h1v8h-1z"/><path fill="#304D53" d="M267 305.412v-1h8v1zm-28.5-4.5h1v8h-1z"/><path fill="#304D53" d="M235 305.412v-1h8v1zm67.5-36.5h1v8h-1z"/><path fill="#304D53" d="M299 273.412v-1h8v1zm35.5-4.5h1v8h-1z"/><path fill="#304D53" d="M331 273.412v-1h8v1zm3.5 27.5h1v8h-1z"/><path fill="#304D53" d="M331 305.412v-1h8v1zm-28.5-4.5h1v8h-1z"/><path fill="#304D53" d="M299 305.412v-1h8v1zm67.5-36.5h1v8h-1z"/><path fill="#304D53" d="M363 273.412v-1h8v1zm35.5-4.5h1v8h-1z"/><path fill="#304D53" d="M395 273.412v-1h8v1zm3.5 27.5h1v8h-1z"/><path fill="#304D53" d="M395 305.412v-1h8v1zm-28.5-4.5h1v8h-1z"/><path fill="#304D53" d="M363 305.412v-1h8v1zm-124.5 27.5h1v8h-1z"/><path fill="#304D53" d="M235 337.412v-1h8v1zm35.5-4.5h1v8h-1z"/><path fill="#304D53" d="M267 337.412v-1h8v1zm3.5 27.5h1v8h-1z"/><path fill="#304D53" d="M267 369.412v-1h8v1zm-28.5-4.5h1v8h-1z"/><path fill="#304D53" d="M235 369.412v-1h8v1zm67.5-36.5h1v8h-1z"/><path fill="#304D53" d="M299 337.412v-1h8v1zm35.5-4.5h1v8h-1z"/><path fill="#304D53" d="M331 337.412v-1h8v1zm3.5 27.5h1v8h-1z"/><path fill="#304D53" d="M331 369.412v-1h8v1zm-28.5-4.5h1v8h-1z"/><path fill="#304D53" d="M299 369.412v-1h8v1zm67.5-36.5h1v8h-1z"/><path fill="#304D53" d="M363 337.412v-1h8v1zm35.5-4.5h1v8h-1z"/><path fill="#304D53" d="M395 337.412v-1h8v1zm-28.5 27.5h1v8h-1z"/><path fill="#304D53" d="M363 369.412v-1h8v1zm-124.5 27.5h1v8h-1z"/><path fill="#304D53" d="M235 401.412v-1h8v1zm35.5-4.5h1v8h-1z"/><path fill="#304D53" d="M267 401.412v-1h8v1zm3.5 27.5h1v8h-1z"/><path fill="#304D53" d="M267 433.412v-1h8v1zm-28.5-4.5h1v8h-1z"/><path fill="#304D53" d="M235 433.412v-1h8v1zm67.5-36.5h1v8h-1z"/><path fill="#304D53" d="M299 401.412v-1h8v1zm35.5-4.5h1v8h-1z"/><path fill="#304D53" d="M331 401.412v-1h8v1z"/><path fill="#78B0B5" fill-rule="evenodd" d="M208 2.067 1.154 121.489v238.846L208 479.757l206.846-119.422V121.489zm207.846 118.845L208 .912l-207.846 120v240l207.846 120 207.846-120z" clip-rule="evenodd"/></svg>