<svg xmlns="http://www.w3.org/2000/svg" width="49" height="48" fill="none"><path fill="#fff" d="M4.49 4h41v41h-41z"/><path fill="#0E6BA9" d="M41.384 40.904h-7.108V29.766c0-2.656-.054-6.074-3.704-6.074-3.706 0-4.272 2.89-4.272 5.878v11.334h-7.108V18h6.828v3.122h.092c.954-1.8 3.274-3.7 6.74-3.7 7.202 0 8.534 4.74 8.534 10.91v12.572zm-30.22-26.038a4.124 4.124 0 0 1-4.126-4.13 4.123 4.123 0 0 1 4.126-4.126 4.129 4.129 0 0 1 0 8.256m3.564 26.038H7.6V18h7.128zM44.94 0H4.032C2.074 0 .49 1.548.49 3.458v41.084C.49 46.454 2.074 48 4.032 48h40.902c1.956 0 3.556-1.546 3.556-3.458V3.458c0-1.91-1.6-3.458-3.556-3.458z"/></svg>