<svg xmlns="http://www.w3.org/2000/svg" fill="none" viewBox="0 0 1129 870"><path fill="#fff" d="M21.409 169.258H.289V.468h21.12z"/><path fill="#fff" d="M169.246.469v21.098H.289V.47zm938.344 700.474h21.12v168.789h-21.12z"/><path fill="#fff" d="M959.754 869.732v-21.099h168.956v21.099zM472.65 700.943l-253.182-423.07-2.281 24.306v398.764h-47.899V307.496c2.281-37.978 8.363-66.081 19.008-85.07s28.131-31.901 51.701-40.256c22.809-8.355 55.502-12.912 98.839-12.912 42.578 0 76.031 3.798 99.601 12.153s41.056 22.027 51.701 39.496q14.826 27.344 18.247 84.31v395.726zM246.839 229.262l213.647 369.901V299.9c-2.281-28.103-6.843-47.092-12.165-56.206q-14.826-27.344-109.485-27.344c-41.816 0-72.229 4.557-91.997 12.912m382.898-60.004h46.379v252.93h236.455v-252.93h47.139v531.685h-46.379l-.76-227.865H676.116v227.865h-46.379z"/></svg>