<svg xmlns="http://www.w3.org/2000/svg" fill="none" viewBox="0 0 1129 870">
  <defs/>
  <path fill="#fff" d="M21.4087 169.258H.289062V.46875H21.4087V169.258z"/>
  <path fill="#fff" d="M169.246.46875V21.5674H.289062V.46875H169.246zM1107.59 700.943h21.12v168.789h-21.12V700.943z"/>
  <path fill="#fff" d="M959.754 869.732v-21.099H1128.71v21.099H959.754zM472.65 700.943l-253.182-423.07-2.281 24.306v398.764h-47.899V307.496c2.281-37.978 8.363-66.081 19.008-85.07 10.644-18.988 28.131-31.901 51.701-40.256 22.809-8.355 55.502-12.912 98.839-12.912 42.578 0 76.031 3.798 99.601 12.153 23.569 8.355 41.056 22.027 51.701 39.496 9.884 18.229 15.966 46.333 18.247 84.31v395.726H472.65zM246.839 229.262l213.647 369.901V299.9c-2.281-28.103-6.843-47.092-12.165-56.206-9.884-18.229-46.379-27.344-109.485-27.344-41.816 0-72.229 4.557-91.997 12.912zM629.737 169.258h46.379v252.93h236.455v-252.93h47.139v531.685h-46.379l-.76-227.865H676.116v227.865h-46.379V169.258z"/>
</svg>
