<svg xmlns="http://www.w3.org/2000/svg" fill="none" viewBox="0 0 247 48"><path fill="#fff" d="M25.988 37.333 13.201 15.945l-.115 1.228v20.16h-2.42v-19.89c.116-1.92.423-3.342.96-4.302.538-.96 1.422-1.612 2.612-2.035 1.152-.422 2.803-.653 4.992-.653 2.15 0 3.84.192 5.03.615 1.19.422 2.074 1.113 2.611 1.997q.75 1.382.922 4.262v20.006zM14.584 13.487l10.79 18.7V17.059c-.115-1.42-.346-2.38-.614-2.842q-.75-1.382-5.53-1.382c-2.112 0-3.648.23-4.646.653m21.489-3.034v20.199c.115 1.497.345 2.419.614 2.841.192.307.806.615 1.882.96s2.61.5 4.607.5h7.68v2.38h-7.68c-1.19 0-2.304-.038-3.417-.153-1.114-.115-1.997-.27-2.573-.461a4.13 4.13 0 0 1-1.805-1.075c-.576-.5-.96-1.19-1.229-1.997-.268-.806-.46-1.882-.537-3.264v-19.93zm35.965 26.88L59.251 15.945l-.115 1.228v20.16h-2.42v-19.89c.116-1.92.423-3.342.96-4.302.538-.96 1.422-1.612 2.612-2.035 1.152-.422 2.803-.653 4.992-.653 2.15 0 3.84.192 5.03.615 1.19.422 2.074 1.113 2.612 1.997q.748 1.382.921 4.262v20.006zM60.634 13.487l10.79 18.7V17.059c-.115-1.42-.346-2.38-.615-2.842q-.748-1.382-5.53-1.382c-2.111 0-3.647.23-4.645.653M80.01 37.333v-26.88h1.882l12.365 21.39v-21.39h2.38v26.88h-1.88L82.39 15.906v21.427zm46.012-26.88h2.342v12.788h11.943V10.452h2.381v26.88h-2.343l-.038-11.52h-11.943v11.52h-2.342zm38.116 26.88-12.787-21.388-.115 1.228v20.16h-2.419v-19.89c.115-1.92.422-3.342.96-4.302.537-.96 1.42-1.612 2.611-2.035 1.152-.422 2.803-.653 4.992-.653 2.15 0 3.84.192 5.03.615 1.191.422 2.074 1.113 2.611 1.997q.75 1.382.922 4.262v20.006zm-11.405-23.846 10.791 18.7V17.059c-.115-1.42-.346-2.38-.615-2.842q-.749-1.382-5.529-1.382c-2.112 0-3.648.23-4.647.653m26.712-3.034c2.803.039 4.877.192 6.182.461q1.959.461 2.88 2.074.922 1.67.922 5.299V29.46c0 2.343-.307 4.07-.883 5.108-.576 1.075-1.46 1.804-2.612 2.15l-.806.269-.73.192-1.766.153h-11.251v-26.88zm7.565 19.008V18.287c0-2.803-.423-4.378-1.268-4.762-.499-.307-1.382-.499-2.726-.614l-9.178-.038v21.964h8.794c1.459-.077 2.496-.269 3.072-.614.346-.192.653-.615.922-1.229.268-.614.384-1.805.384-3.533m8.125-19.008h2.343v7.45c.077 1.267.269 2.227.614 2.803.499.922 2.304 1.382 5.338 1.382 3.072 0 4.838-.46 5.337-1.344.346-.576.538-1.497.615-2.764v-7.527h2.342v7.258c-.115 1.882-.384 3.226-.883 4.109q-.749 1.325-2.534 1.958-1.382.461-3.572.576v12.98h-2.304V24.391c-1.651-.076-2.918-.268-3.878-.614-1.152-.422-1.997-1.075-2.496-1.997q-.748-1.324-.922-4.147zm32.433 12.096 8.602 14.784h-2.803l-7.181-12.364-7.296 12.364h-2.189v-26.88h2.381V32.38l12.71-21.927h2.727zM1.067 8.533H0V0h1.067z"/><path fill="#fff" d="M8.533 0v1.067H0V0zm236.8 39.467h1.067V48h-1.067z"/><path fill="#fff" d="M237.867 48v-1.067h8.533V48z"/></svg>