<svg xmlns="http://www.w3.org/2000/svg" preserveAspectRatio="xMidYMid" viewBox="0 0 256 296">
  <defs/>
  <defs>
    <linearGradient id="a" x1="50.015868%" x2="50.015868%" y1="-98.2986767%" y2="38.2167612%">
      <stop offset="0%" stop-color="#0052CC"/>
      <stop offset="100%" stop-color="#2684FF"/>
    </linearGradient>
    <linearGradient id="b" x1="50.0157183%" x2="50.0157183%" y1=".76335878%" y2="138.581425%">
      <stop offset="0%" stop-color="#0052CC"/>
      <stop offset="100%" stop-color="#2684FF"/>
    </linearGradient>
  </defs>
  <path fill="#2684FF" d="M247.205647 167.895843h-61.399843c-4.004791-.045274-7.430872 2.866894-8.031373 6.826667-3.487579 24.952276-24.840634 43.511953-50.035451 43.489882l16.624942 75.936628c60.232229-7.869229 106.591898-57.066559 110.873098-117.659608.156186-2.225669-.620508-4.416005-2.143942-6.046079-1.523434-1.630074-3.656296-2.552963-5.887431-2.54749zM140.950588 165.968314l88.345098-75.9366277c1.728757-1.5246199 2.719119-3.7185208 2.719119-6.0235294 0-2.3050086-.990362-4.4989096-2.719119-6.0235294L140.950588 1.92752941c-2.383764-2.0120367-5.716948-2.46178586-8.548728-1.1534865-2.831779 1.30829937-4.649855 4.13796223-4.66288 7.25732964V159.864471c.013025 3.119367 1.831101 5.94903 4.66288 7.257329 2.83178 1.3083 6.164964.85855 8.548728-1.153486z"/>
  <path fill="#2684FF" d="M1.20470588 184.480627C9.65441843 247.916976 63.7423708 295.31045 127.73898 295.353725v-77.141333c-27.8086174.000079-50.3705974-22.50801-50.4370192-50.316549L1.20470588 184.480627z"/>
  <path fill="#2684FF" d="M0 166.691137v1.204706h77.3019608c.0664218-27.808538 22.6284018-50.316628 50.4370192-50.316549l-16.584784-75.9366273C48.1449965 49.8531147.7665388 103.15388 0 166.691137"/>
</svg>
