<svg xmlns="http://www.w3.org/2000/svg" fill="none" viewBox="0 0 35 28">
  <defs/>
  <path fill="#fff" d="M13.9 1.23c.02.2-.07.35-.39.51a4.3 4.3 0 00-2.02-.29c-.8.07-1.46.32-1.36.86.12.54.88.85 2.24.73C15.7 2.75 15.67.5 20.54.06c3.8-.35 5.92.82 6.2 2.25.23 1.1-.7 2.18-3.45 2.4-2.43.23-3.86-.44-3.98-1.1-.07-.35.12-.86 1.3-.98.12.53.78 1.1 2.37.95 1.14-.1 2.09-.51 1.96-1.14-.13-.67-1.33-1.05-3.23-.89-3.86.35-4.81 2.47-8.1 2.75-2.34.23-4.24-.63-4.5-1.9-.1-.47-.1-1.58 2.38-1.8 1.26-.1 2.28.13 2.4.63zM1.54 14.46a6.56 6.56 0 00-1.46 4.5c.1 1.55.86 2.82 2.06 3.8 1.26.98 2.63 1.26 4.18.98.6-.1 1.26-.41 1.86-.6a5.27 5.27 0 01-3.41-1.27 5.13 5.13 0 01-2.16-3.51c-.28-1.36 0-2.63.76-3.74a4.94 4.94 0 013.42-1.86c1.46-.1 2.72.28 3.99 1.17-.28-.42-.7-.7-1.08-1.08C8.45 12 7.1 11.58 5.41 12a6.46 6.46 0 00-3.86 2.46zm16.96-7.3c-4.08 0-7.72-.42-10.35-.99-2.81-.7-4.3-1.45-4.3-2.44 0-.4.19-.76.76-1.17-1.77.7-2.72 1.27-2.72 2.16.09.98 1.67 1.96 4.9 2.72 3.04.76 6.93 1.17 11.62 1.17 4.78 0 8.58-.41 11.62-1.17 3.22-.76 4.78-1.78 4.78-2.72 0-.7-.7-1.37-1.97-1.87.29.19.5.5.5.85 0 .98-1.45 1.77-4.4 2.44-2.71.6-6.2 1.01-10.44 1.01zm11.65 2.71a52.6 52.6 0 01-11.61 1.18c-4.78 0-8.68-.51-11.72-1.18-2.72-.7-4.17-1.45-4.68-2.24.5 3.42 1.68 6.64 3.23 9.5 1.17 1.77 2.34 3.32 3.51 5 .5.98.86 1.96 1.08 2.94a5.67 5.67 0 003.23 2.15c1.67.6 3.41.86 5.19.76h.19c1.77.1 3.64-.19 5.35-.76a6.05 6.05 0 003.13-2.15h.1c.18-.98.5-1.96.98-2.95 1.17-1.67 2.34-3.22 3.51-5a30.6 30.6 0 003.23-9.5c-.63.9-2.1 1.65-4.72 2.25z"/>
</svg>