<svg xmlns="http://www.w3.org/2000/svg" preserveAspectRatio="xMidYMid" viewBox="0 0 256 255">
  <path fill="#E0234E" d="M150.73574 0c-1.85114 0-3.57005.39669-5.15676.92557 3.37171 2.24782 5.22286 5.2229 6.14846 8.59462.0663.46278.19834.79336.26453 1.25612.0663.39669.13215.79336.13215 1.19004.26457 5.81788-1.52062 6.54511-2.77673 9.98296-1.91727 4.42955-1.38839 9.18963.92556 13.02416.19835.46277.46279.99167.79337 1.45446-2.5123-16.72644 11.43745-19.23871 14.0158-24.46158.19834-4.56176-3.57005-7.60293-6.5451-9.71853C155.69419.5289 153.11577 0 150.73574 0Zm21.02374 3.7684c-.26455 1.52059-.0662 1.12392-.13211 1.91727-.0662.52889-.0662 1.19003-.13213 1.71892-.13212.5289-.26457 1.05779-.4628 1.58671-.13212.52889-.33056 1.05779-.52889 1.58668-.26457.52892-.46279.99169-.72724 1.52059-.19833.26456-.33055.52889-.52889.79335-.13212.19834-.26455.39668-.39667.59501-.33055.4628-.66114.92557-.99168 1.32225-.3967.39668-.72725.85945-1.19006 1.19004v.0662c-.39667.33056-.79334.72723-1.25611 1.05778-1.38837 1.05779-2.97505 1.85114-4.42954 2.84283-.46276.33056-.92558.59503-1.32224.9917-.46278.33055-.85946.6611-1.25612 1.05778-.46281.39668-.79336.79336-1.19005 1.25615-.33056.39669-.72722.85946-.99166 1.32226-.33059.46277-.66113.92556-.9256 1.38834-.26455.52888-.46278.99169-.72723 1.52058-.19833.52888-.3967.9917-.5289 1.52058-.19834.59502-.33056 1.12392-.46279 1.65283-.0662.26456-.0662.595-.13212.85945-.0663.26456-.0663.52889-.13211.79336 0 .52889-.0662 1.1239-.0662 1.6528 0 .39668 0 .79335.0662 1.19003 0 .5289.0662 1.05778.19833 1.6528.06619.52889.19831 1.05779.33058 1.58671.19834.52889.33056 1.05779.52888 1.58668.13215.33059.33056.66114.46281.92557l-15.20586-5.884c-2.5784-.72724-5.09065-1.38834-7.66905-1.98336-1.38835-.33055-2.7767-.66113-4.16507-.9917-3.96675-.79334-7.99958-1.38833-12.03245-1.785-.13211 0-.19833-.0662-.33055-.0662-3.96677-.39668-7.86737-.59501-11.83411-.59501-2.90897 0-5.81793.13211-8.66076.33055-4.03286.26456-8.06573.79335-12.09856 1.45446-.9917.13212-1.98339.33059-2.97508.52892-2.04948.39665-4.03283.85945-5.9501 1.32225-.99169.26455-1.98338.5289-2.97508.79333-.99166.39667-1.91723.85947-2.84283 1.25614l-2.1817.9917c-.13211.0662-.26455.0662-.33055.13212-.66113.33056-1.25615.59499-1.85114.92558-.19834.0662-.33058.13211-.4628.19833-.72723.33056-1.45446.72723-2.04947 1.05779-.4628.19834-.92557.4628-1.32225.66114-.19834.13211-.4628.26455-.59502.33055-.59501.33055-1.19003.6611-1.71892.9917-.59502.33055-1.12391.6611-1.58671.99165-.46277.33059-.92557.59502-1.32225.92557-.06623.0662-.13212.0662-.19834.13213-.39667.26456-.85944.595-1.25612.9256 0 0-.06622.06619-.13212.13212-.33055.26456-.66114.52889-.9917.79332-.13212.0662-.26455.19834-.39667.26456-.33055.26456-.6611.59502-.99166.85947-.06623.13213-.19834.19834-.26456.26456-.39668.39667-.79335.72722-1.19003 1.12391-.06623 0-.06623.0662-.13212.13211-.39668.33057-.79335.72724-1.19003 1.12392-.06623.06621-.06623.13212-.13213.13212-.33055.33055-.6611.66114-.99169 1.05778-.13212.13213-.33055.26456-.46277.39668-.33055.39668-.72723.79335-1.1239 1.19004-.06623.13211-.19834.19833-.26456.33055-.5289.52893-.9917 1.05781-1.52059 1.58671a927.1883 927.1883 0 0 0-.19833.19834c-1.05782 1.1239-2.18173 2.24781-3.37173 3.2395-1.19003 1.05778-2.44616 2.04947-3.70231 2.90893-1.32225.9256-2.57837 1.71892-3.96674 2.51228-1.32225.7272-2.71062 1.38836-4.16508 1.98338-1.38837.595-2.84283 1.12392-4.2973 1.58668-2.77674.595-5.61957 1.71892-8.06572 1.91726-.5289 0-1.12391.13213-1.6528.19833-.59502.13212-1.12391.26456-1.6528.3967-.5289.19831-1.05782.39666-1.58672.595-.52889.19833-1.05778.4628-1.58668.72724-.4628.33055-.99169.595-1.45449.92556-.46277.33056-.92557.72722-1.32225 1.1239-.46277.3306-.92557.79337-1.32224 1.19003-.39668.46282-.79336.85949-1.12391 1.32225-.33056.52889-.72723.9917-.9917 1.5206-.33055.4628-.6611.99168-.92557 1.52055-.26455.59505-.52889 1.12393-.72723 1.71896-.19834.5289-.39667 1.1239-.59501 1.71892-.13212.52888-.26456 1.05779-.33056 1.58666 0 .0663-.06621.13214-.06621.19835-.13212.59504-.13212 1.3884-.19834 1.7851C.06591 84.29301 0 84.68967 0 85.15248c0 .26455 0 .59498.06621.85944.06622.4628.13212.85947.26456 1.25618.13212.39662.26455.7933.46277 1.18999v.0662c.19834.3967.4628.79336.72723 1.19004.26456.39667.52892.79335.85948 1.19004.33055.33055.72723.7272 1.1239 1.05777.39668.39668.79336.72723 1.25613 1.05779 1.5867 1.38838 1.98339 1.85118 4.03287 2.90895.33055.19835.66114.33057 1.05781.52891.06623 0 .13212.0662.19834.0662 0 .13211 0 .19835.06623.3306.06621.5289.19833 1.05777.33055 1.58668.13212.59501.33058 1.12393.52892 1.5867.19834.39668.33056.79334.5289 1.19004.06621.13213.13212.26455.19834.33055.26455.52888.52889.99171.79332 1.45446.33058.46278.66114.92556.99169 1.38838.33056.39666.72723.85945 1.1239 1.25612.39669.39668.79336.72725 1.25617 1.1239 0 0 .06622.06629.13212.06629.39668.33058.79335.66115 1.19003.92556.46277.33057.92557.595 1.45446.85948.4628.26455.9917.52889 1.52059.72724.39667.19834.85944.33057 1.32224.46279.06623.0663.13213.0663.26456.13214.26455.0663.59498.1321.85945.19832-.19834 3.57006-.26456 6.94178.26455 8.13183.59499 1.32224 3.50394-2.71061 6.4129-7.33847-.39668 4.56176-.66114 9.91682 0 11.50356.72723 1.65277 4.69397-3.50399 8.13182-9.18965 46.87366-10.84239 89.64843 21.55266 94.14405 67.3024-.85947-7.14013-9.65241-11.10686-13.68524-10.11516-1.9834 4.8923-5.35512 11.17296-10.77632 15.0736.46278-4.36343.26453-8.85905-.66112-13.22248-1.4545 6.08235-4.29733 11.76804-8.19798 16.66034-6.28067.46276-12.56136-2.57842-15.867-7.14014-.26455-.19836-.33055-.59502-.52889-.85947-.19834-.46283-.39667-.92556-.5289-1.38837-.19833-.46277-.33054-.92557-.39667-1.38834-.06622-.46281-.06622-.9256-.06622-1.45447v-.99168c.06622-.46283.19834-.9256.33055-1.3884.13212-.46276.26456-.92556.4628-1.38835.26456-.46276.46277-.92556.79336-1.38833 1.1239-3.17344 1.1239-5.7518-.92557-7.27237-.39668-.26456-.79336-.46281-1.25616-.66115-.26455-.0662-.59501-.19834-.85944-.26454-.19834-.0662-.33056-.13215-.5289-.19835-.4628-.13213-.9256-.26457-1.38837-.33056-.4628-.13211-.92557-.19833-1.38837-.19833-.46277-.0663-.9917-.13213-1.45446-.13213-.33055 0-.66114.0662-.9917.0662-.52889 0-.99169.0663-1.45446.19834-.4628.0663-.92556.1321-1.38836.26453-.46278.13213-.92558.26456-1.38838.46283-.46277.19833-.85944.39667-1.32224.595-.39665.19835-.79333.46277-1.25613.66111-15.4042 10.04908-6.21455 33.58509 4.2973 40.39467-3.96674.72723-7.99958 1.58673-9.12349 2.44615-.06622.0662-.13212.13213-.13212.13213 2.84284 1.7189 5.81789 3.17339 8.92515 4.42951 4.2312 1.38837 8.72683 2.6445 10.71022 3.17342v.0662c5.48733 1.12391 11.04078 1.52059 16.66033 1.19003 29.2878-2.04948 53.2866-24.32938 57.65003-53.68327.13212.59503.26455 1.1239.39667 1.71894.19835 1.18998.46277 2.44613.59499 3.70226v.0663c.13212.59501.19834 1.19002.26455 1.71891v.26457c.0663.595.13214 1.19003.13214 1.7189.06619.72725.13212 1.45447.13212 2.18174v1.05779c0 .33058.0662.72722.0662 1.0578 0 .39669-.0662.79334-.0662 1.19001v.92557c0 .46281-.0663.85947-.0663 1.32226 0 .26453 0 .5289-.0662.85946 0 .46281-.06619.92556-.06619 1.45446-.0663.19834-.0663.39668-.0663.59503-.06619.5289-.13212.9917-.19834 1.5206 0 .19835 0 .39666-.0662.59502-.0663.6611-.19833 1.25614-.26452 1.91723v.1325c-.13213.595-.26458 1.25612-.3967 1.85112v.19835c-.13211.595-.26456 1.19003-.39667 1.78502 0 .0663-.06619.19835-.06619.26453-.13214.59503-.26457 1.19004-.46277 1.78509v.19831c-.19834.6611-.39669 1.25613-.52892 1.85114-.0662.0662-.0662.13213-.0662.13213-.19835.66114-.39666 1.32224-.59498 1.98336-.26456.66114-.4628 1.25614-.72723 1.91727-.26455.66113-.46281 1.32226-.72725 1.91725-.26457.66115-.52892 1.25617-.79335 1.91727h-.0663c-.26457.595-.52893 1.25615-.8595 1.85117-.0662.19831-.1321.33056-.19832.46275-.0662.0663-.0662.13213-.13212.19836-4.2973 8.6607-10.64412 16.26362-18.57757 22.21375-.5289.33056-1.0578.72725-1.58669 1.1239-.13213.13214-.33058.19836-.4628.33056-.4628.33056-.92558.6611-1.45445.9917l.19833.39668h.0662c.92555-.13212 1.85113-.26456 2.77671-.39668h.0662c1.71893-.26456 3.43785-.59502 5.15679-.92557.46275-.0663.99169-.19833 1.45445-.33059.33055-.0663.59501-.1321.92557-.19833.4628-.0663.92558-.19834 1.38838-.26455.39666-.13212.79335-.19836 1.19001-.33056 6.61124-1.58672 13.02416-3.76844 19.17257-6.3468-10.51184 14.34637-24.5938 25.91605-41.05577 33.51897 7.60294-.5289 15.20585-1.78502 22.54432-3.90061 26.6433-7.86742 49.05539-25.78385 62.4762-49.91487-2.7106 15.27198-8.79295 29.8167-17.78422 42.51028 6.4129-4.23123 12.2969-9.12354 17.652-14.67697 14.80917-15.47029 24.52771-35.10564 27.8333-56.19554 2.24784 10.44577 2.90897 21.22213 1.91728 31.8662 47.73314-66.57518 3.96673-135.59651-14.34638-153.77742-.0663-.13211-.13213-.19833-.13213-.33055-.0663.0662-.0663.0662-.0663.13213 0-.0662 0-.0662-.06619-.13213 0 .79336-.0662 1.58668-.13212 2.38003-.19835 1.52059-.39667 2.97506-.66114 4.42955-.33055 1.45446-.72723 2.9089-1.12392 4.3634-.46277 1.38834-.99164 2.84282-1.58668 4.2312-.59501 1.32222-1.25614 2.71059-1.98337 4.03286-.72724 1.25614-1.52058 2.57838-2.38003 3.76839-.85947 1.25616-1.78505 2.44616-2.71064 3.57005-.9917 1.19005-2.04946 2.24785-3.10728 3.30565-.6611.59501-1.25611 1.1239-1.91727 1.65278-.52888.4628-.99166.8595-1.52058 1.32224-1.19001.92558-2.38004 1.78505-3.70227 2.57841-1.25615.79334-2.57836 1.5867-3.90062 2.24783-1.38837.66112-2.77674 1.25612-4.16508 1.85115-1.38837.52887-2.84284.99167-4.29735 1.38836-1.45445.39665-2.97502.72723-4.4295.99167-1.52057.26455-3.04116.39667-4.49564.52891-1.0578.0662-2.11559.13214-3.1734.13214-1.5206 0-3.04115-.13214-4.49563-.26456-1.52058-.13212-3.04118-.3306-4.49564-.66116-1.52059-.26455-2.97508-.66114-4.42955-1.12388h-.0662c1.45448-.13213 2.90896-.26458 4.36345-.52892 1.52055-.26455 2.97503-.595 4.42952-.9917 1.45446-.39667 2.90893-.85947 4.29729-1.38835 1.45446-.5289 2.84284-1.19 4.1651-1.85116 1.38835-.66114 2.64449-1.38835 3.96673-2.1817 1.25612-.85946 2.51226-1.7189 3.70228-2.6445 1.19003-.92556 2.31392-1.91723 3.37176-2.97504 1.1239-.99171 2.11558-2.1156 3.10727-3.23953.99166-1.18999 1.91725-2.38002 2.77672-3.57005.13213-.19835.26456-.46277.3967-.66112.6611-1.0578 1.3222-2.1156 1.9172-3.17341.72725-1.32225 1.3884-2.6445 1.98339-4.03283.59502-1.38837 1.12393-2.77675 1.58672-4.2312.46277-1.38838.79333-2.84283 1.1239-4.2973.26457-1.52058.52889-2.97508.66112-4.42954.13213-1.52058.26454-3.04117.26454-4.49563 0-1.05781-.0663-2.1156-.1321-3.17339-.13213-1.52058-.33057-2.97507-.5289-4.42953-.26456-1.5206-.595-2.97505-.9917-4.42955-.46276-1.38834-.92557-2.84282-1.45445-4.23116-.52894-1.38838-1.19002-2.77674-1.85118-4.099-.72723-1.32224-1.45445-2.64449-2.2478-3.90061-.85945-1.25612-1.71894-2.44615-2.64451-3.6362-.99166-1.1239-1.98335-2.2478-3.04118-3.37172-.52888-.52889-1.1239-1.1239-1.71891-1.6528-2.97505-2.31394-6.08234-4.49566-9.1896-6.47902-.46278-.26455-.85946-.4628-1.32226-.66114-2.18172-1.38834-4.2312-2.1156-6.28067-2.7767l-.0001-.00037Z"/>
</svg>