<svg xmlns="http://www.w3.org/2000/svg" fill="none" viewBox="0 0 98 49">
  <defs/>
  <path fill="#1D61BC" d="M.92.5v47.98h49L97.9.5H.92V.5z"/>
  <path fill="#1870C5" d="M63 43.57v3.58h.54V45.6h.6l.98 1.55h.6l-1.04-1.55c.53-.07.95-.37.95-1.02 0-.7-.43-1-1.28-1H63zm.54.48h.74c.36 0 .77.05.77.5 0 .56-.41.6-.87.6h-.64v-1.1zm.67-1.8a3.12 3.12 0 100 6.25 3.1 3.1 0 003.1-3.14c0-1.78-1.41-3.1-3.1-3.1zm0 .51c1.4 0 2.5 1.13 2.5 2.6 0 1.5-1.1 2.6-2.5 2.6a2.54 2.54 0 01-2.56-2.6c0-1.47 1.14-2.6 2.56-2.6z"/>
  <path fill="#fff" fill-rule="evenodd" d="M59.03 23.46h-2.1v-7.7h2.1c2.8 0 5.04.93 5.04 3.8 0 2.97-2.23 3.9-5.04 3.9zm-22.63 5.5a8.73 8.73 0 01-3.05-.55l3.02-9.55h.07l2.96 9.58c-.96.34-1.97.51-3 .51zM58.47 9.51h-9.54v22.7l-8.34-22.7h-8.27L25.2 28.5c-.76-4.78-5.71-6.44-9.6-7.67-2.57-.83-5.3-2.04-5.28-3.39.02-1.1 1.47-2.12 4.32-1.97 1.92.1 3.62.26 6.98 1.88l3.32-5.77a25.8 25.8 0 00-10.81-2.56h-.02c-4.06 0-7.45 1.32-9.55 3.49a8.08 8.08 0 00-2.28 5.57 7.48 7.48 0 003.27 6.66c1.91 1.4 4.34 2.3 6.5 2.97 2.65.82 4.81 1.53 4.79 3.05a2.21 2.21 0 01-.63 1.49c-.66.68-1.68.94-3.08.97-2.7.05-4.71-.37-7.9-2.26l-2.95 5.86a22.03 22.03 0 0010.8 2.88h.5c3.35-.07 6.05-1.02 8.21-2.76l.35-.3-.95 2.56h8.67l1.45-4.43c1.53.52 3.26.8 5.1.8 1.79 0 3.48-.26 4.98-.76l1.4 4.39h14.14v-9.17h3.09c7.45 0 11.86-3.8 11.86-10.16 0-7.09-4.28-10.34-13.4-10.34" clip-rule="evenodd"/>
</svg>