<svg xmlns="http://www.w3.org/2000/svg" fill="none" viewBox="0 0 171 48">
  <defs/>
  <path fill="#fff" d="M70.0284 35.2613c-6.3212 0-11.1695-3.9891-11.1695-11.1388 0-7.1498 5.0938-11.2617 11.4457-11.2617 6.3826 0 11.1389 4.0812 11.1082 11.1389-.0307 7.0577-5.1245 11.2923-11.3844 11.2616zm.0921-17.0919c-2.8844 0-4.3574 2.3015-4.3574 5.9224s1.473 5.8302 4.3881 5.8302 4.3573-2.2707 4.3573-5.8916c.0307-3.5902-1.4729-5.861-4.388-5.861zM110.38 22.2506c0-2.547-1.074-3.4061-2.854-3.4061-1.258.0306-2.455.5216-3.406 1.3501v1.1968l-.031 13.1948h-6.9345v-12.397c0-2.5469-1.1353-3.4061-2.8844-3.4061-1.2581 0-2.4549.4603-3.4061 1.2581l-.0307 14.5143h-6.9656l.0307-21.2958h6.9656v2.731c1.8718-1.9332 3.9277-3.1299 6.6894-3.0993 2.6696 0 4.8786 1.2582 5.9226 3.7744 1.964-2.3014 4.388-3.7437 7.303-3.7437 4.112 0 6.567 2.7617 6.536 7.3032l-.031 14.4222h-6.935l.031-12.3969zM124.403 10.6517c-2.547 0-4.111-1.31951-4.111-3.71299 0-2.48553 1.595-3.74364 4.111-3.74364 2.547 0 4.112 1.25811 4.112 3.77433 0 2.36279-1.534 3.6823-4.112 3.6823zm-3.498 2.731h6.966l-.031 21.2958h-6.965l.03-21.2958zM139.102 35.384c-2.885 0-6.69-.6444-8.899-1.8719l1.35-5.0324c2.394 1.2581 5.002 1.9332 7.702 1.9946 1.903 0 2.854-.5831 2.854-1.6877 0-1.2275-1.166-1.6264-3.56-2.1787-4.879-1.0126-8.009-2.7617-8.009-6.8736 0-3.9277 3.437-6.7508 9.298-6.7201 2.793 0 6.475.8285 8.561 1.8104l-1.411 4.9711c-2.394-1.2274-5.247-1.9025-7.242-1.9025-1.718 0-2.577.5523-2.577 1.5649 0 1.1354 1.319 1.5957 3.62 2.0867 4.941 1.1046 7.917 2.731 7.917 6.9349-.061 3.7743-3.406 6.9043-9.604 6.9043zM162.3 30.2597c2.301 0 4.756-.7979 6.874-2.056l.675 5.37c-2.118 1.074-5.094 1.6877-8.193 1.6877-7.089 0-11.753-3.9584-11.753-11.0161 0-6.8736 4.726-11.3537 11.415-11.3537 5.984 0 9.236 3.5902 9.206 8.8375 0 1.1353-.154 2.7923-.46 3.7129l-13.349.2148v.1228c.246 2.9151 2.148 4.4801 5.585 4.4801zm1.78-8.4386c0-2.5469-1.013-4.0198-3.191-4.0198-2.394 0-3.836 2.0866-4.082 4.4801l7.273-.0307v-.4296z"/>
  <path fill="#3788E4" d="M7.42981 27.1606L27.6209 7.03088c3.805-3.80501 9.9729-3.80501 13.7779.03069-9.3591-9.3898-24.5485-9.42048-33.93831-.06137-9.38979 9.3591-9.42048 24.5485-.06137 33.9383-3.77433-3.805-3.77433-9.9728.03069-13.7779zM41.368 40.9692c.0613-.0614.092-.0921.1534-.1535.1841-.2148.3989-.3989.583-.6137 3.1913-3.7129 2.8231-9.4512-.7058-13.0107l-3.7743-3.7743c.1534.1534.2455.3682.2762.583 0 .2148-.0921.4296-.2455.583L21.2075 40.9692c-3.805 3.805-9.9728 3.805-13.77781 0 9.35911 9.3591 24.54851 9.3897 33.93831 0 0 .0306 0 0 0 0zM37.5015 23.2942l.1227.1227-.1227-.1227z"/>
  <path fill="#2A68C6" d="M48.3951 24.0306c.0307-6.3826-2.5162-12.4891-7.027-16.99984-3.805-3.80501-9.9728-3.80501-13.7779 0l-3.7743 3.77434c.0307-.0307.0921-.0614.1228-.1227.1534-.1228.3068-.1842.4909-.1842.2455 0 .4603.1228.6137.2762l12.5811 12.6118 3.7437 3.7743c3.805 3.805 3.805 9.9728 0 13.7779 4.5108-4.4495 7.027-10.5559 7.027-16.9078zM7.4298 40.9384c3.805 3.805 9.9728 3.805 13.7778 0l3.7437-3.7436c-.1535.1534-.3376.2148-.5524.2454-.2148 0-.4296-.092-.6137-.2761L11.2041 24.5523c-.1534-.1534-.2455-.3682-.2761-.583 0-.2148.092-.4296.2454-.5831l-3.77429 3.7744c-3.80501 3.805-3.80501 9.9728-.03068 13.7778" opacity=".65"/>
</svg>