<svg xmlns="http://www.w3.org/2000/svg" fill="none" viewBox="0 0 592 593">
  <defs/>
  <path stroke="#6CDEEB" stroke-width="2" d="M274.478 1.50094C202.167 7.06378 137.738 36.7323 86.6335 87.7159 39.3524 135.118 11.653 191.205 2.03728 259.342c-2.663639 18.888-2.663639 56.432 0 75.325C11.653 402.925 39.2376 458.548 86.7483 506.173c47.0457 47.166 105.1077 75.79 172.0857 84.711 30.478 4.053 70.227 2.205 101.979-4.868 100.814-22.481 183.671-97.462 216.118-195.612 16.803-50.524 19.587-106.146 7.996-158.296-22.366-100.584-98.035-184.1353-195.726-216.1171-36.04-11.82031-79.033-17.26836-114.723-14.48996zm15.408 12.75046c.229.6946 1.51 1.1596 2.784 1.1596 1.969 0 1.969.2296.58 1.6248-.81.9302-2.899 1.8543-4.403 2.0838-1.504.2296-2.664.9302-2.549 1.7395.115.6946-2.205 1.9691-5.213 2.7845l-5.333 1.5039 3.358 1.3892c4.053 1.7396 9.501 2.0838 10.081.5799.229-.5799 4.174-.6946 9.616-.1148 13.33 1.3892 29.783 9.2714 19.467 9.2714-2.549 0-2.9.2295-1.504 1.1597.93.5798 4.753 1.1597 8.576 1.1597 5.914 0 6.608.2295 5.334 1.7395-.81.9241-3.244 1.7395-5.448 1.7395h-4.053l2.663 2.2046 2.664 2.0838-6.022 1.8543c-7.997 2.3193-23.526 11.935-22.716 14.1396.465 1.045-.115 1.504-1.504 1.504-1.16-.1147-4.053.8094-6.487 1.969-3.358 1.504-4.754 1.7396-5.793.6946-.694-.6946-1.854-1.2744-2.548-1.2744-.58 0-.465.4651.465 1.0449 1.159.8094 1.274 1.504.229 3.479-1.854 3.3583-3.358 3.014-3.938-.8093-.35-2.6636-.465-2.5489-.694 1.0449-.23 6.028-4.754 9.8513-4.754 3.9381 0-3.3582-.695-3.5938-3.014-1.2745-1.045 1.045-1.16 1.9691-.465 2.4342.58.3503 1.16 1.3892 1.16 2.3193 0 2.0838-8.342 2.8992-15.879 1.3892-4.869-.9301-7.532-.6945-13.095.8094-4.868 1.3892-8.921 1.7395-13.095 1.2744-5.563-.6946-6.952-.3503-19.702 5.6776-12.171 5.6776-19.582 8.4561-14.835 5.4481 1.16-.6946 1.39-2.3193.931-5.2125-.81-5.0977 1.624-8.3413 12.979-17.3831 6.258-4.983 8.922-6.3722 15.179-7.5319 9.271-1.8543 19.352-6.6077 10.775-4.983-4.403.6946-2.083-1.7395 2.9-3.1287 3.014-.9302 3.938-.6946 4.753.8093.93 1.6248 1.389 1.7396 2.549.4651.809-.6946 1.16-1.3892.695-1.3892-.466 0 .114-.9241 1.274-2.0838 1.045-1.0449 5.098-2.8992 8.921-4.1736 8.341-2.5489 17.963-7.3024 17.963-8.6916 0-.5798-.695-1.2744-1.389-1.6247-4.053-1.3892 1.625-2.2047 15.299-2.2047 15.179.1148 19.352-.6946 8.577-1.5039-16.338-1.2745-21.207-2.0838-20.977-3.2435.115-.8093-1.389-1.3892-3.709-1.3892-4.868 0-6.027-2.4341-1.969-4.1736 1.625-.8094 2.664-1.7396 2.435-2.2046-.58-.9242 8.111-2.7784 10.89-2.4342.93.1148 1.159-.2295.694-1.0449-.465-.8154-.115-1.8542.695-2.4341 1.16-.6946.924-1.0449-.93-1.0449-2.9 0-3.594-1.7396-1.16-2.7784 1.975-.8215 8.233.3382 8.692 1.6127zm-11.935 0c.35.6946-.58 1.1596-2.205 1.1596s-3.244.4651-3.594 1.1597c-.35.5799-3.479 1.1597-6.722 1.2745-5.448.1147-5.678.2295-2.205 1.0449 4.403 1.0449 6.143 2.3193 3.244 2.3193-1.045 0-1.74.4651-1.39 1.045.351.465-4.753 1.2744-11.24 1.5039-7.188.4651-14.484 1.6248-18.772 3.014-3.824 1.2744-7.997 2.6636-9.272 3.0139-1.274.3504.115.3504 3.244 0 3.479-.3503 5.448-.1147 5.448.5799s-.695 1.2744-1.389 1.3892c-.81 0-.466.5798.809 1.1597 1.739.8093 1.389.9301-1.389.3503-2.084-.3504-3.824-.2295-3.824.3503 0 1.2745-14.598 1.0449-18.428-.2295-1.969-.6946-2.549-.5798-1.969.3503.695 1.045-6.837 6.0279-9.156 6.0279-1.625 0 .35-3.1287 2.899-4.2884 5.677-2.7784-10.546-1.8543-16.803.9302-8.922 3.938-18.429 9.8512-24.45 15.2933-5.213 4.6326-7.418 6.1427-16.339 11.0109-3.938 2.2046-2.548 3.1287 1.625 1.0449 1.74-.9241 5.327-2.3193 7.882-3.1287 2.549-.6946 9.852-3.9381 16.224-7.0668 6.372-3.014 13.789-5.9132 16.574-6.3722 4.983-.8094 4.983-.8093 4.173 2.4341l-.809 3.1287 4.288-2.7844c2.779-1.7396 4.059-3.3582 3.709-4.6327-.58-2.6636 2.778-3.5938 6.952-2.0838 2.549 1.045 4.753.8094 9.966-.6946 4.059-1.2744 6.143-2.4341 5.327-2.8992-1.045-.6946-.809-1.1597.695-1.7395 1.274-.4651 2.434-.2295 3.128.8093.81 1.2745 1.045 1.2745 1.045.1148 0-.8093.465-1.2744 1.16-.8094.58.3504 1.969.1148 3.129-.465 1.159-.5799 3.014-1.3892 4.173-1.7395 1.045-.3504 2.549-1.9691 3.129-3.5938 1.504-4.0529 9.386-7.5319 17.269-7.5319 4.753 0 6.027.3503 5.562 1.6247-.35.8094-.114 2.0838.58 2.7784 2.084 2.0899-2.204 3.1288-5.448 1.3892-1.504-.8093-3.358-1.0449-4.174-.4651-1.044.5799-.924 1.045.81 1.7396 1.854.6946 1.274 1.1596-3.129 3.1287-3.014 1.2744-5.792 2.8992-6.143 3.5938-.465.6946-4.403 2.3194-8.921 3.7086-7.302 2.1985-11.47 5.2125-12.865 9.2714-.465 1.5039-11.355 2.8992-11.355 1.6247 0-.465.924-1.6248 2.084-2.4341 4.518-3.4791-.924-1.2744-6.258 2.4341-5.448 3.8234-5.677 3.9381-6.257 1.6248-.58-2.3194-.695-2.3194-3.358.5798-3.359 3.5938-4.754 3.8234-4.754.6946 0-1.2744-.35-2.3194-.809-2.3194-1.855 0-7.303 4.2885-6.487 5.0978.465.4651 0 .4651-.93.1148-1.855-.6946-7.997 3.3582-7.997 5.2125 0 .5799 1.624.8094 3.479.3503 1.969-.3503 3.479-.3503 3.479.1148 0 .3503-3.938 3.5938-8.807 7.1876-6.607 4.8682-9.386 7.7614-11.125 11.5907-1.16 2.7784-2.899 5.0978-3.824 5.0978-.924 0-1.274.8093-.924 2.3193.465 1.8543-.35 2.6637-3.708 4.1737-5.563 2.3194-10.431 1.2745-15.759-3.5938-3.358-3.0139-4.868-3.7086-7.531-3.1287l-3.359.6946 2.9.6946c4.173 1.0449 4.403 4.2884.35 6.0279-4.754 1.9691-7.182 4.4027-6.487 6.2577.924 2.549-5.563 8.577-9.157 8.577-4.518 0-4.173-3.244.465-4.869l3.824-1.389-3.244-.809c-1.969-.58-5.563-.23-9.271.809-3.359.924-7.3026 2.084-8.9214 2.434-1.6247.351-4.0528 1.504-5.448 2.434-1.504.931-2.6637 1.275-2.6637.931 0-1.97-9.1566 7.996-9.8512 10.66l-.9241 3.129-1.045-3.824c-1.0449-3.708-.6946-4.173 10.1956-15.879 17.9628-19.3518 35.9258-34.4156 57.8268-48.2049 25.03-15.7584 60.841-30.3631 86.91-35.5756 20.046-3.9381 32.217-6.028 38.239-6.3722 3.243-.2296 6.143-.4651 6.608-.5799.447-.151 1.141.1994 1.486.894zm26.074 4.6327c0 2.7844-.93 3.3582-7.767 4.1736-4.633.6946-5.327.4651-4.053-.8094.809-.9241 3.129-1.3892 5.448-1.1597 3.823.2296 5.448-1.2744 2.899-2.7844-.58-.3503-1.159-.1148-1.159.4651 0 .6946-1.045 1.2744-2.32 1.2744-1.274 0-2.319-.5798-2.319-1.1596 0-.6946.809-1.1597 1.739-1.1597 1.045 0 1.39-.6946 1.045-1.7396-.58-1.3892-.114-1.5039 2.899-.465 2.314.8154 3.588 2.0898 3.588 3.3643zm-13.904 4.6387c0 .5798-.229 1.1596-.465 1.1596-.35 0-.93-.5798-1.274-1.1596-.351-.6946-.115-1.1597.465-1.1597.694 0 1.274.4651 1.274 1.1597zm90.389 7.4171c0 1.7395-.58 1.969-2.899 1.3892-3.014-.8094-3.014-.6946-1.045 2.1985 1.045 1.6248 2.319 2.8992 2.899 2.8992.58 0 1.045.5799 1.045 1.2745s-.924 1.0449-1.969.8094c-1.16-.2296-1.969-1.1597-1.74-1.8543.344-2.2046-.93-1.6248-3.243 1.1597l-2.084 2.6636-1.16-3.014c-2.663-6.8372-2.204-10.3163 1.504-10.3163 1.625 0 2.899-.4651 2.899-1.0449 0-.5799 1.275-.4651 2.9.2295 1.618.8215 2.893 2.3314 2.893 3.6059zm39.054 16.4529c.695 4.518 1.74 6.1427 7.647 11.8203 5.448 5.3334 3.473 6.6078-3.243 2.2046-4.983-3.1287-10.432-14.4839-9.272-19.0018.58-2.6637.924-2.7784 2.434-1.2745.924.9181 1.969 3.7026 2.434 6.2514zm25.604 9.2714c3.243 2.8992 6.028 4.7535 6.028 3.9381 0-.9301.694-.9301 2.319 0 1.275.6946 2.32 1.7395 2.32 2.4341 0 .6946-.466.8094-1.16.4651-2.899-1.7395-.809.6947 2.664 3.014 2.434 1.8543 3.128 1.9691 2.083.6946-6.952-8.6915 20.397 12.98 36.041 28.5088 22.251 22.2511 40.559 47.7461 54.233 75.5541 9.851 20.162 14.949 33.951 19.817 53.768l3.824 15.3-4.403 12.4c-5.334 14.719-7.647 33.606-4.633 37.78 2.084 3.129 2.084 9.271-.115 11.126-2.434 1.969-3.358-.931-2.549-7.303l.695-4.868-1.854 3.823c-2.32 4.518-3.939 4.289-5.334-1.045-.58-2.204-1.389-4.517-1.969-5.097-1.739-2.199-7.997-27.929-8.112-33.607l-.114-3.479-1.625 3.823c-1.504 3.359-1.969 3.709-4.174 2.549-1.624-.924-2.204-2.083-1.854-3.708.465-1.74-.58-3.129-4.518-5.907-2.784-1.969-5.098-3.938-5.098-4.404 0-.35-2.204.351-4.868 1.619-2.664 1.389-7.997 2.67-11.705 2.899-6.258.465-7.188.23-9.036-2.198-1.969-2.664-1.969-2.664-5.913-.58-3.709 1.969-4.174 2.084-7.762.23-2.084-1.16-4.868-3.824-6.142-6.028-2.435-4.174-5.213-6.258-8.342-6.258-3.128 0-2.083 5.213 2.205 10.546 2.205 2.778 4.059 5.792 4.059 6.722 0 1.16.344 1.275 1.625.23 1.274-1.045 1.739-.809 2.319 1.389 1.045 4.518 6.837 3.938 11.011-1.159 3.243-3.939 3.358-3.939 4.173-1.504.466 1.504 2.785 3.358 5.678 4.632 6.257 2.664 7.067 4.754 4.174 11.241-1.275 2.899-2.32 5.907-2.32 6.607 0 1.625-11.59 12.286-13.324 12.286-.695 0-3.014 1.854-5.098 4.053-6.39 6.837-27.596 16.573-31.426 14.49-2.084-1.16-3.479-5.908-3.479-11.706 0-3.358-5.563-12.63-9.156-15.178-3.129-2.199-4.754-6.028-4.754-11.126 0-3.244-.809-5.213-2.899-7.188-1.625-1.504-2.899-3.358-2.899-4.053 0-.809-1.16-2.319-2.434-3.593-1.39-1.16-2.9-3.479-3.479-4.983-.931-2.205-1.625-2.549-4.053-1.969-2.205.579-3.479.229-4.754-1.275-2.319-3.014 2.549 6.837 6.028 11.935 1.625 2.32 2.899 5.213 2.899 6.372 0 1.275 1.045 3.244 2.32 4.518 3.128 3.129 4.632 7.188 3.823 10.317-.465 1.739.35 3.358 2.784 5.563 1.969 1.854 3.824 4.982 4.174 7.302.695 3.129 2.434 5.333 7.647 9.616 5.448 4.403 6.952 6.372 7.302 9.271.35 3.358.809 3.709 4.518 4.053 2.205.229 8.112-.93 13.095-2.664 4.983-1.619 9.271-2.899 9.501-2.899 1.739 0-.23 6.493-4.404 14.834-5.677 11.355-12.285 19.123-20.976 24.915-3.244 2.32-8.112 6.258-10.661 8.921-2.549 2.664-6.837 6.372-9.501 8.227-2.778 1.969-4.983 3.938-4.983 4.632 0 .58-1.16 2.664-2.549 4.518-1.854 2.664-2.198 3.709-1.16 4.983 1.045 1.16 1.045 2.549.115 5.213-.93 2.784-.809 4.174.465 6.257 1.504 2.32 1.504 3.479.115 8.807-2.784 10.66-6.028 13.789-17.383 16.573-3.129.81-7.647 2.664-10.081 4.174-3.479 2.205-4.288 3.243-3.708 5.098.465 1.389.465 4.173.114 6.257-.809 3.938-2.198 4.868-11.355 6.838-2.198.465-3.243 1.503-3.243 3.013 0 2.9-5.448 6.953-16.804 12.401l-9.271 4.403-15.644-.23c-8.576-.115-17.268-.58-19.352-.93-4.173-.695-6.028-3.938-3.243-5.907 1.618-1.275 1.504-1.854-.81-5.792-1.389-2.549-3.708-5.678-5.212-7.067-2.319-2.199-2.664-3.709-2.664-10.776 0-4.403-.35-8.111-.809-8.111-1.045 0-3.823-5.678-3.823-7.762 0-.809-.58-1.504-1.16-1.504-1.854 0-3.358-4.868-2.664-8.456.351-1.624 3.359-5.907 6.838-9.386 5.913-5.913 6.142-6.493 4.983-9.851-.81-2.205-.81-4.174-.115-5.448 1.625-2.899-2.664-13.904-7.647-20.047-2.434-2.664-5.212-6.493-6.257-8.226-1.855-3.244-1.855-3.479 1.389-9.501 3.708-6.723 4.403-11.47 1.854-13.56-1.389-1.275-6.608-2.205-12.629-2.319-1.39-.115-2.785-1.74-3.939-4.754-1.504-3.823-2.663-4.868-6.142-5.792-2.434-.695-6.143-1.16-8.227-1.045-10.546.465-25.495-1.045-28.158-2.899-1.74-1.045-5.333-1.855-8.806-1.855-7.762 0-9.157-.924-16.804-10.431-4.632-5.792-6.952-10.081-8.226-14.484-.81-3.593-2.779-8.921-4.289-11.935-4.518-8.921-4.753-13.324-.694-18.307 3.594-4.518 5.333-9.501 6.372-17.848.695-4.754 1.389-5.678 7.647-10.431 9.5-7.067 15.063-10.431 17.383-10.431 1.159 0 4.173-.81 6.722-1.855 3.594-1.504 4.868-2.663 5.678-5.792 1.389-5.098 5.448-8.462 10.195-8.577 2.549 0 5.098-1.274 7.997-3.708 3.709-3.244 4.403-3.479 5.563-1.855 2.205 3.014 9.501 4.404 19.238 3.594 6.722-.465 12.629 0 23.29 1.969 7.876 1.389 15.873 3.129 17.612 3.824 2.785.93 3.014 1.389 1.625 3.013-.93 1.045-1.389 2.549-1.159 3.359.35.809-.351 2.549-1.51 3.938-2.199 2.319-2.084 2.319 1.274 5.098 1.854 1.504 4.868 3.014 6.487 3.358 1.739.35 5.098 2.434 7.532 4.403 9.156 7.767 19.237 9.966 19.932 4.518.58-4.289 5.333-5.448 11.125-2.664 11.241 5.563 18.543 7.303 31.517 7.882 14.484.695 13.904.925 17.383-8.691 1.16-3.014 1.045-12.98-.114-12.98-.115 0-2.549.809-5.213 1.739-4.518 1.625-5.327 1.625-7.647 0-2.204-1.389-3.243-1.503-5.677-.35-2.32 1.045-3.244.924-4.983-.58-1.16-1.159-2.664-1.969-3.358-1.969-1.855 0-5.213-5.792-4.518-7.646.344-.931-.115-1.625-.931-1.625-2.434 0-.924-4.174 1.969-5.678l2.549-1.274-2.549.58c-1.389.35-2.778.114-3.243-.58-.93-1.504-8.341-1.504-9.271 0-.465.694-1.16.924-1.74.58-2.204-1.39.58 4.868 3.244 6.952l2.784 2.434-4.633 2.084c-2.663 1.159-5.562 1.854-6.493 1.504-1.969-.81-2.549-4.289-.809-4.289.58 0-.465-1.625-2.319-3.594-1.855-1.969-3.938-5.913-4.633-8.691-1.16-4.403-2.319-5.913-7.997-9.851-3.594-2.549-7.302-5.914-8.112-7.418-.809-1.504-1.969-2.548-2.549-2.198-.579.35-1.389-.35-1.739-1.74-.35-1.389-1.045-2.434-1.504-2.434-1.74 0-3.594 3.479-3.014 5.448.695 2.205 6.608 8.342 13.789 14.369 4.754 3.939 5.563 6.258 1.969 5.334-1.739-.465-2.319 0-2.319 1.739 0 3.359-2.084 6.723-3.823 6.028-.931-.35-1.39-1.854-1.045-3.938.465-3.594-.58-4.983-10.081-12.515-3.014-2.434-5.098-5.212-5.563-7.302-1.045-5.333-3.014-6.257-9.966-4.868-3.594.694-6.837.809-7.997.229-3.129-1.625-4.868-1.274-10.316 2.434-2.779 1.855-5.907 3.479-6.952 3.479-.924 0-3.594 1.855-5.793 4.174-6.142 6.372-9.501 7.761-17.153 6.837-4.868-.58-7.882-1.854-11.935-4.983-3.129-2.319-5.563-4.983-5.563-6.028s1.504-3.938 3.479-6.487c1.854-2.434 3.709-6.257 4.174-8.341 1.274-6.372 7.187-6.837 18.077-1.274 6.258 3.243 9.966 2.899 11.47-.93 1.504-3.938.465-7.997-3.128-12.745-4.059-5.448-3.709-6.372 2.434-5.448 3.708.465 5.218.35 5.218-.695 0-.924 1.039-1.159 2.899-.694 1.969.465 4.754-.23 8.692-2.205 3.129-1.618 6.723-2.899 7.882-2.899 1.275 0 2.899-.809 3.709-1.739.809-.925 2.198-1.74 3.014-1.74.924 0 1.625-.695 1.625-1.504 0-.924.229-1.045.93-.115 1.389 2.199 6.028 3.129 7.882 1.504.924-.809 1.625-2.784 1.625-4.403-.465-6.143 0-8.226 1.739-8.226.924 0 1.74-.695 1.74-1.625 0-1.389 3.243-3.594 4.173-2.785.695.81-2.084 11.356-3.128 11.356-1.619 0-1.275 1.969.809 3.938 1.045 1.045 3.243 1.854 4.868 1.969 1.74 0 7.417.229 12.63.465 10.546.35 11.705-.23 12.98-6.723.694-3.243 1.274-3.708 4.518-3.708 3.364 0 3.708-.23 3.708-3.709 0-4.403.58-4.868 8.112-5.792 5.333-.58 5.792-.809 4.174-2.434-1.619-1.625-2.549-1.625-7.762-.351-4.288 1.16-6.257 1.16-7.181.23-.695-.695-.93-1.275-.351-1.275.465 0 0-1.159-.93-2.548-2.663-3.8237-2.319-6.9524 1.625-12.0502 3.938-5.0977 4.288-6.8372 1.625-7.8822-2.549-.9301-3.709.0001-5.678 4.6327-.924 2.3194-2.899 4.4032-4.633 5.0978-5.097 1.969-6.142 8.2269-2.083 12.8649 1.389 1.619 1.389 2.199-.23 3.824-1.045 1.045-2.664 1.854-3.473 1.854-.924 0-1.739 1.504-1.969 3.708-.344 3.244-1.16 4.174-5.563 6.373-2.899 1.274-5.563 2.204-5.907 1.969-.465-.23-1.045-3.594-1.51-7.532l-.809-7.188-6.028.695c-6.608.809-9.622-.351-8.577-3.129.35-.93.115-2.09-.58-2.549-.694-.465-.229-1.389 1.504-2.319 2.205-1.16 2.319-1.504.809-1.6249-2.204 0-2.663-1.9691-1.159-4.1737.465-.6946 3.014-2.4341 5.792-3.9381 2.664-1.5039 4.868-3.1287 4.868-3.5938 0-.465.931-.6946 2.199-.465 1.274.2295 4.983-1.9691 9.271-5.4481 7.303-6.0219 11.241-11.5908 9.852-13.9041-.465-.6946-.115-1.0449.809-.6946.93.3503 2.549-.1147 3.594-1.1597 1.159-.9241 3.243-1.8542 4.632-2.0838 4.518-.6946 6.143-1.0449 7.532-1.969 1.625-1.045 6.143 1.3892 6.143 3.2435 0 .6946 3.129 2.4341 6.952 3.938 9.271 3.7086 15.064 7.7614 15.064 10.6606 0 3.2435-3.129 4.0529-8.806 1.9691l-4.983-1.7395 5.448 6.1426c5.448 6.3722 8.341 8.2265 6.028 3.8233-1.625-3.0139-.695-4.1736 1.739-2.2045 1.504 1.2744 1.74.9241 1.74-2.1986 0-2.5489.579-3.5938 1.854-3.5938 1.854 0 1.739-2.1986-.23-7.4171-.465-1.1597-.114-1.8543.93-1.8543 2.435 0 4.404 2.4341 4.404 5.4481 0 1.5039.579 2.6636 1.159 2.6636.695 0 1.16-.9241 1.16-2.0838 0-4.1736 3.243-6.8373 9.271-7.6466 5.328-.6946 5.678-.9302 4.404-3.014-2.549-4.0528-.23-4.1736 8.456-.6946 1.044.4651-1.504-2.5488-5.563-6.7225-3.938-4.1736-7.303-8.1117-7.303-8.6916-.036-2.5126 3.093-1.1174 9 4.0951zm-62.919 6.2575c.345.6946-.114.8093-1.045.4651-2.083-.8094-2.434-1.6248-.809-1.6248.695 0 1.504.4651 1.854 1.1597zm-6.378 2.3194c0 .5798-.58 1.1596-1.274 1.1596-.58 0-.81-.5798-.465-1.1596.35-.6946.924-1.1597 1.274-1.1597.236 0 .465.4651.465 1.1597zm62.001 0c.344.5798-.115 1.1596-1.045 1.1596-.924 0-2.084-.5798-2.434-1.1596-.351-.6946.114-1.1597 1.045-1.1597.924 0 2.083.4651 2.434 1.1597zm-67.328 5.9071c-.351.5798-1.51 1.0449-2.549.9241-1.275 0-1.389-.2295-.465-.6946.694-.2295 1.159-1.0449.809-1.6187-.465-.5799.115-.6946 1.045-.3503 1.045.3503 1.504 1.1596 1.16 1.7395zm55.157 0c0 .6946-.465.8093-1.16.4651-.579-.3504-1.159-1.2745-1.159-1.8543 0-.6946.58-.8093 1.159-.4651.695.3504 1.16 1.2744 1.16 1.8543zM260.688 88.7608c.351 1.045 1.855 1.3892 3.938 1.0449 3.938-.5798 9.272 2.3194 9.272 4.983 0 2.4342-6.028 5.2123-11.241 5.2123-5.677 0-9.736-2.7781-9.386-6.2572.695-4.8622 6.022-8.456 7.417-4.983zm-124.69 4.7535c0 .8094-.809 2.1986-1.739 3.014-1.854 1.5039-2.319.3503-1.045-2.7784.93-2.3194 2.784-2.4402 2.784-.2356zm11.585 5.2125c0 .5799-1.045 1.5042-2.434 1.8542-1.969.695-2.319 1.389-1.739 4.288.465 2.32-.115 4.754-1.97 7.997-3.013 5.334-5.097 5.793-5.097 1.045 0-1.854-.81-4.403-1.855-5.562-1.044-1.16-1.969-2.664-1.969-3.244 0-.924 12.286-7.4171 14.255-7.4171.465 0 .809.4591.809 1.0389zm160.036.5798c-.695.9244-2.549 1.8544-3.938 2.3194-2.434.58-2.434.465.35-1.625 3.358-2.6634 5.557-3.0077 3.588-.6944zm6.837.4651c0 .4653-.58 1.5103-1.389 2.3193-1.045 1.045-.924 1.389.58 1.389 2.549 0 2.549 2.084.115 4.869-1.855 1.854-1.74 2.434.58 7.996 1.274 3.244 2.089 6.487 1.624 7.182-.344.58.23 1.854 1.275 2.67 1.969 1.389 1.854 1.618-.58 5.097-1.854 2.32-3.244 3.244-4.518 2.785-.93-.465-5.333-1.274-9.737-1.74-4.288-.465-8.226-1.159-8.576-1.504-.351-.35 1.159-1.389 3.243-2.319 2.549-1.045 3.244-1.739 2.199-2.204-1.275-.58-1.16-1.045.465-2.32 1.159-1.045 2.084-2.204 1.969-2.784 0-.465 1.274-1.045 2.899-1.275 3.594-.465 3.709-3.128.35-6.257-1.854-1.504-2.204-2.434-1.159-2.779.694-.35 1.389-1.159 1.389-1.739 0-.695-.465-.809-1.16-.465-.58.35-1.159-.115-1.159-1.16s.579-1.504 1.159-1.16c.695.351 1.16.115 1.16-.579 0-1.855 5.448-6.9524 7.532-6.9524.93 0 1.739.4651 1.739.9301zm-188.889 6.9523c0 .58-.694 1.854-1.389 2.899-1.16 1.389-1.969 1.625-3.243.809-1.504-1.045-1.39-1.389.465-2.899 2.543-1.969 4.167-2.198 4.167-.809zm174.75 5.098c1.624 1.624-4.518 9.851-8.807 11.476-5.677 2.198-9.966-1.97-4.868-4.754 1.16-.695 1.969-1.854 1.625-2.778-1.389-3.479 8.921-7.073 12.05-3.944zm84.36 4.173c-.344.23-1.389.23-2.434-.229-1.504-.58-1.504-1.045-.35-3.014 1.504-2.32 1.504-2.32 2.434.229.471 1.275.586 2.664.35 3.014zm-11.119 2.549c-.695 1.274-1.504 2.319-1.74 2.319-.35 0-.58-1.045-.58-2.319s.81-2.319 1.74-2.319c1.504 0 1.619.465.58 2.319zm-20.047 5.448c-.23 1.854-1.045 3.244-1.74 3.129-3.128-.23-3.708-.58-3.708-1.74 0-.579.58-.809 1.389-.35.809.465.924.35.465-.465-1.045-1.74.115-3.709 2.32-3.709 1.153.006 1.618.931 1.274 3.135zM42.9462 169.763c-.3503.924-.6946.58-.6946-.694-.1148-1.275.2295-1.969.5798-1.51.3443.35.4591 1.395.1148 2.204zm291.2128 4.059c0 1.16-.465 2.899-1.16 3.823-.58 1.045-.58 2.205.115 3.014 1.625 1.969-1.16 7.647-3.479 7.182-2.434-.465-3.014-5.907-.81-7.761.931-.81 1.39-2.205 1.045-3.129-.924-2.32.465-5.098 2.549-5.098.924 0 1.74.924 1.74 1.969zm-292.143 6.372c0 2.084-.465 4.869-.9241 6.143-.9301 2.205-.9301 2.205-2.2046-.23-1.7395-3.243-1.7395-6.486 0-8.226 2.3194-2.319 3.2435-1.625 3.1287 2.313zm268.037.345c0 .579-.58 1.274-1.274 1.504-.695.229-1.275-.466-1.275-1.504 0-1.045.58-1.74 1.275-1.504.694.229 1.274.93 1.274 1.504zm-267.9222 12.17c0 .58-.4651 1.16-1.1597 1.16-.5798 0-1.1597-.58-1.1597-1.16 0-.694.5799-1.159 1.1597-1.159.6946 0 1.1597.465 1.1597 1.159zm309.4052 4.754c0 3.479-3.244 3.938-6.372 1.045-3.594-3.359-3.014-4.289 2.198-3.709 3.135.344 4.174 1.039 4.174 2.664zm-324.934 10.89c-.4651 1.625-.3504 2.899.2295 2.899.4651 0 .6946 2.084.4651 4.754-.3504 2.663.3503 6.837 1.5039 9.965 1.2745 3.244 1.7395 6.838 1.3892 9.737-.3503 2.434-.2295 4.288.3503 3.938.4651-.229.6946 2.205.5799 5.563-.2295 4.868.4651 7.532 3.8233 14.14 3.2435 6.607 4.1736 9.851 4.6327 17.032.6946 12.4-.2295 16.689-4.0529 17.728-2.2046.465-2.6636 1.045-1.7395 1.969.9302.924 1.8543.809 3.2435-.351 1.6248-1.274 2.0838-1.274 3.479.695.9242 1.16 1.3892 3.129 1.045 4.174-.4651 1.274.1147 2.319 1.6247 2.778 1.9691.58 5.9071 7.997 5.9071 11.011 0 .695 3.014 4.174 6.7226 7.882 6.6077 6.723 16.8032 22.366 18.1924 28.388 1.2745 4.868-1.2744 9.042-7.8822 13.56l-6.0279 4.059-.6946 9.271c-.4651 5.098-1.6247 11.821-2.7784 14.835-1.969 5.677-2.0838 5.677-6.2574 4.753-2.3194-.465-5.2125-.809-6.487-.93-2.4341-.115-2.4341-.23-1.0449 11.126.5798 3.938.3503 5.562-.5798 5.562-.8094 0-1.1597.351-.9302.81.3503.58.1148 1.969-.3503 3.243-2.2046 5.678-18.1925-36.62-23.5258-62.574-5.5508-26.54-7.4051-52.729-5.436-77.065 1.5039-19.122 5.6776-43.222 9.5009-55.042 1.3892-4.518 2.6636-8.921 2.7784-9.851.2295-2.779 1.7395-6.952 2.4341-6.952.3503-.006.2356 1.274-.1147 2.893zm366.652 4.173c1.275.695.695.925-1.739 1.045-4.404 0-8.692-1.159-8.692-2.434.006-1.045 7.882 0 10.431 1.389zm28.159 2.32c-2.199 2.319-4.983 2.198-4.983-.115 0-.809 2.083-1.504 6.372-2.198.586-.007.006 1.032-1.389 2.313zM32.5151 232.338c-.3503.93-.6946.579-.6946-.695-.1147-1.274.2295-1.969.5799-1.51.3442.356.459 1.395.1147 2.205zm268.6169 90.159c.35.58-.115 1.159-1.16 1.159s-1.51-.579-1.159-1.159c.35-.695.93-1.16 1.159-1.16.23 0 .81.465 1.16 1.16zm162.349 73.47c.695 3.129-4.173 11.47-14.139 23.985-7.883 9.966-12.63 13.789-16.689 13.789-3.709 0-4.059-.35-5.098-5.333-.694-3.243-.229-4.288 3.244-7.761 2.663-2.434 4.288-5.328 4.632-7.647.466-4.403 3.244-6.722 8.922-7.761 2.434-.351 5.913-2.205 7.997-4.053 1.969-1.854 4.058-3.358 4.632-3.358.574 0 1.389-1.045 1.74-2.32 1.051-3.134 3.829-2.905 4.759.459zM293.014 549.86c10.081 3.939 12.98 4.174 29.204 2.199 8.921-1.16 11.355-1.045 13.904.35 1.854.81 6.722 2.664 11.011 3.938 5.327 1.625 9.501 3.824 13.56 7.303 3.243 2.784 5.907 5.677 5.907 6.257 0 1.275-12.98 4.289-30.708 7.067-15.299 2.434-49.479 3.358-66.633 1.74-15.644-1.504-38.704-5.793-51.334-9.501-6.952-2.09-7.647-2.549-6.608-4.518.58-1.16.81-2.899.465-3.824-.694-1.969 1.969-7.761 4.754-10.08 1.389-1.16 8.226-1.625 28.158-1.74 15.529-.115 27.464-.809 29.204-1.504 4.868-2.09 9.501-1.51 19.116 2.313zm-96.066 10.891c2.084 1.739 2.084 1.739-1.274 1.044-4.289-.924-6.608-2.899-3.359-2.899 1.275 0 3.359.81 4.633 1.855zm9.271 3.358c1.16.93 1.625 1.739.81 1.739-2.205 0-4.983-1.274-4.983-2.434.006-1.504 1.625-1.274 4.173.695z"/>
</svg>