<svg viewBox="0 0 72 72" fill="none" xmlns="http://www.w3.org/2000/svg">
  <path d="M5.32309 18.2887L36 .57735 66.6769 18.2887v35.4226L36 71.4226 5.32309 53.7113V18.2887z" stroke="#78B0B5"/>
  <path d="M39.6678 22.1265l7.4025 4.275c1.224-1.2885 3.2595-1.3395 4.548-.1155.222.21.411.4515.5655.7155.8835 1.542.348 3.5085-1.194 4.392-.261.15-.5415.2625-.837.3345v8.5485c1.719.4095 2.781 2.1345 2.37 3.8535-.072.306-.1905.6-.348.8715-.888 1.5345-2.8515 2.061-4.3905 1.173-.294-.1695-.5625-.3885-.789-.6435l-7.3575 4.248c.558 1.686-.357 3.5025-2.0415 4.059-.3255.1065-.663.162-1.005.162-1.7715.0015-3.2085-1.4325-3.21-3.204 0-.3075.0435-.615.132-.9135l-7.404-4.2705c-1.224 1.281-3.2565 1.3305-4.539.105-1.281-1.224-1.329-3.2565-.105-4.539.4245-.4455.969-.759 1.566-.9045l.0015-8.5485c-1.725-.414-2.787-2.1495-2.3715-3.876.0705-.297.1845-.5835.336-.849.888-1.536 2.853-2.061 4.3905-1.173.2655.1515.5085.342.72.5655l7.407-4.275c-.504-1.6995.4665-3.483 2.1615-3.9855.2955-.0885.606-.132.915-.132 1.7715-.0015 3.2085 1.431 3.21 3.201.0015.3135-.045.627-.1335.9255zm-.7725 1.3155c-.0285.0315-.0555.0585-.087.087l9.6915 16.785c.039-.0135.084-.024.123-.0345V31.719c-1.7175-.4245-2.763-2.163-2.337-3.882.009-.036.018-.0735.0285-.108l-7.419-4.287zm-4.5225.0885l-.09-.09-7.419 4.278c.4905 1.7025-.4905 3.477-2.1915 3.9675-.039.012-.0765.021-.114.0315v8.562l.126.0345 9.6915-16.785-.003.0015zm3.114.7605c-.585.168-1.2045.168-1.788 0l-9.69 16.7835c.441.4245.753.9675.9 1.5615h19.3665c.1455-.597.4605-1.1415.9045-1.566l-9.693-16.779zm1.479 24.3405l7.3695-4.257c-.0225-.0705-.0405-.141-.057-.213h-19.374l-.0315.1245 7.4085 4.278c.582-.606 1.401-.9795 2.31-.9795.9405 0 1.785.4035 2.3745 1.047z" fill="#78B0B5"/>
</svg>
