<svg xmlns="http://www.w3.org/2000/svg" fill="none" viewBox="0 0 21 30">
  <path fill="#fff" d="m8.065 0 6.664 6.664a3.9 3.9 0 0 1 .15.145l5.814 5.816-9.455 9.405 4.331 4.332-2.898 2.88-6.621-6.621a8.317 8.317 0 0 1-.237-.231L0 16.58l9.422-9.368L5.13 2.918 8.065 0Zm4.218 10.442a.426.426 0 0 0-.259 0c-.086.022-.161.065-.312.215L6.33 16.016c-.156.156-.194.225-.22.311a.422.422 0 0 0 0 .258c.026.086.07.162.22.312l1.708 1.71c.156.155.226.193.312.22a.426.426 0 0 0 .259 0c.086-.027.161-.065.307-.215l5.382-5.359c.156-.156.194-.225.22-.311a.423.423 0 0 0 0-.258c-.02-.086-.064-.162-.215-.312l-1.708-1.71c-.156-.155-.226-.193-.312-.22Z"/>
</svg>