<svg xmlns="http://www.w3.org/2000/svg" fill="none" viewBox="0 0 12 12">
  <path fill="#fff" d="M5.948.82a5.5 5.5 0 0 0-5.505 5.5 5.507 5.507 0 0 0 3.687 5.198c.29.072.245-.133.245-.274v-.953c-1.669.196-1.737-.909-1.848-1.093-.227-.386-.762-.485-.602-.67.38-.195.768.05 1.217.713.324.48.958.4 1.279.32.07-.29.22-.548.427-.748-1.73-.31-2.45-1.366-2.45-2.62 0-.61.2-1.169.593-1.62-.25-.744.024-1.381.06-1.476.715-.064 1.458.511 1.516.557.406-.11.87-.167 1.389-.167.521 0 .986.06 1.396.17.139-.105.828-.6 1.492-.54.036.095.304.718.068 1.452.398.453.601 1.017.601 1.627 0 1.258-.726 2.314-2.46 2.62a1.568 1.568 0 0 1 .469 1.119v1.383c.01.111 0 .22.184.22A5.502 5.502 0 0 0 5.948.82Z"/>
</svg>