<svg xmlns="http://www.w3.org/2000/svg" fill="none" viewBox="0 0 12 12">
  <path fill="#fff" d="M2.6.81A2.164 2.164 0 0 0 .443 2.968v6.695c0 1.186.97 2.157 2.157 2.157h6.696c1.186 0 2.157-.97 2.157-2.157V2.968c0-1.187-.97-2.158-2.157-2.158H2.6Zm.543 1.817c.569 0 .92.373.93.864 0 .48-.361.864-.94.864H3.12c-.558 0-.918-.384-.918-.864 0-.49.371-.864.94-.864ZM8.046 4.92c1.094 0 1.914.715 1.914 2.252v2.869H8.297V7.366c0-.673-.24-1.132-.842-1.132-.46 0-.733.31-.854.608a1.14 1.14 0 0 0-.054.406v2.794H4.884s.022-4.534 0-5.003h1.663v.708c.22-.34.616-.826 1.499-.826ZM2.3 5.04h1.662v5.003H2.301V5.039Z"/>
</svg>