<svg xmlns="http://www.w3.org/2000/svg" fill="none" viewBox="0 0 27 29">
  <path fill="#FF5A5F" d="M25.7193 20.2092c-.1401-.3363-.2803-.7007-.4204-1.009-.2242-.5045-.4485-.981-.6447-1.4294l-.028-.028c-1.9339-4.2042-4.008-8.4645-6.1942-12.6687l-.0841-.1682c-.2242-.4204-.4484-.8689-.6726-1.3173-.2803-.5045-.5606-1.037-1.009-1.5415C15.7694.9259 14.4801.3093 13.1067.3093c-1.4014 0-2.6627.6166-3.5876 1.6817-.4205.5045-.7287 1.037-1.009 1.5415-.2243.4485-.4485.897-.6727 1.3174l-.084.1681C5.5951 9.2222 3.493 13.4825 1.559 17.6867l-.028.0561c-.1962.4484-.4204.9249-.6447 1.4294a18.4391 18.4391 0 0 0-.4204 1.009c-.3643 1.037-.4765 2.018-.3363 3.027.3083 2.1021 1.7097 3.8679 3.6436 4.6527.7288.3083 1.4855.4484 2.2703.4484.2242 0 .5045-.028.7287-.056.925-.1121 1.878-.4205 2.8028-.953 1.1492-.6446 2.2423-1.5696 3.4755-2.9149 1.2333 1.3453 2.3544 2.2703 3.4755 2.9149.9249.5325 1.8779.8409 2.8028.953.2242.028.5045.056.7288.056.7847 0 1.5695-.1401 2.2702-.4484 1.962-.7848 3.3354-2.5786 3.6437-4.6527.2242-.981.1121-1.9619-.2523-2.999Zm-12.6406 1.4575c-1.5135-1.9059-2.4945-3.6997-2.8309-5.2132-.1401-.6447-.1681-1.2052-.084-1.7097.056-.4485.2242-.8409.4484-1.1772.5325-.7568 1.4294-1.2333 2.4665-1.2333 1.037 0 1.9619.4485 2.4664 1.2333.2243.3363.3924.7287.4485 1.1772.0841.5045.056 1.0931-.0841 1.7097-.3363 1.4855-1.3173 3.2792-2.8308 5.2132Zm11.1832 1.3173c-.1962 1.4575-1.1772 2.7187-2.5506 3.2793-.6727.2803-1.4014.3643-2.1301.2803-.7007-.0841-1.4014-.3083-2.1302-.7288-1.009-.5605-2.018-1.4294-3.1951-2.7187 1.8498-2.2703 2.9709-4.3443 3.3913-6.1942.1962-.8689.2243-1.6536.1402-2.3824-.1121-.7007-.3644-1.3453-.7568-1.9059-.8688-1.2612-2.3263-1.99-3.9519-1.99-1.6257 0-3.0831.7568-3.952 1.99-.3924.5606-.6447 1.2052-.7568 1.9059-.112.7288-.084 1.5416.1402 2.3824.4204 1.8499 1.5696 3.952 3.3914 6.2222-1.1492 1.2893-2.1862 2.1582-3.1952 2.7188-.7288.4204-1.4295.6446-2.1302.7287a4.4825 4.4825 0 0 1-2.1301-.2803c-1.3734-.5606-2.3543-1.8218-2.5505-3.2793-.0841-.7007-.028-1.4014.2522-2.1862.084-.2802.2242-.5605.3644-.8969.1962-.4484.4204-.9249.6446-1.4014l.028-.056c1.934-4.1762 4.008-8.4364 6.1662-12.5846l.084-.1682c.2243-.4204.4485-.8688.6728-1.2893.2242-.4484.4765-.8688.7848-1.2332.5886-.6727 1.3734-1.037 2.2422-1.037.8689 0 1.6537.3643 2.2423 1.037.3083.3644.5605.7848.7848 1.2332.2242.4205.4484.869.6726 1.2893l.0841.1682c2.1301 4.1762 4.2042 8.4364 6.1381 12.6126v.028c.2243.4485.4205.953.6447 1.4014.1401.3364.2803.6167.3644.8969.2242.7288.3083 1.4295.1962 2.1582Z"/>
</svg>