<svg xmlns="http://www.w3.org/2000/svg" fill="none" viewBox="0 0 651 339">
  <path fill="#F6F6F6" d="M596.57 206.97c35.9 12.56 53.86 34.09 53.86 64.54 0 20.05-7.45 35.96-22.3 47.73-14.84 11.77-36 19.08-63.56 19.08-27.55 0-53.03-7.98-76.5-21.09.25-6.95 2.08-14.57 5.46-22.85 3.37-8.28 7.36-14.85 11.93-19.66 21.57 11.21 40.35 16.83 56.28 16.83 7.53 0 13.36-1.26 17.42-3.81 4.06-2.54 6.08-5.94 6.08-10.22 0-8.04-6.23-14.05-18.64-18.05l-22.3-8.43c-33.72-12.29-50.59-32.32-50.59-60.14 0-20.32 7.08-36.42 21.25-48.33 14.17-11.9 33.27-22.14 57.29-22.14 11.88 0 24.96 1.67 39.27 5.01 14.3 3.35 26.04 11.6 35.22 16.13.54 7.49-.96 15.7-4.45 24.66-3.52 8.96-7.83 15.3-12.97 19.05-22.69-10.16-41.57-15.24-56.69-15.24-5.41 0-9.5 1.2-12.36 3.62a11.541 11.541 0 0 0-4.22 9.22c0 6.42 5.12 11.5 15.39 15.24l25.13 8.85Zm-179.36 0c35.91 12.56 53.85 34.09 53.85 64.54 0 20.05-7.44 35.96-22.27 47.73-14.85 11.77-36.03 19.08-63.57 19.08-27.53 0-53.05-7.98-76.51-21.09.25-6.95 2.09-14.57 5.47-22.85 3.37-8.28 7.35-14.85 11.93-19.66 21.6 11.21 40.37 16.83 56.3 16.83 7.53 0 13.36-1.26 17.4-3.81 4.05-2.54 6.08-5.94 6.08-10.22 0-8.04-6.22-14.05-18.64-18.05l-22.28-8.43c-33.73-12.29-50.6-32.32-50.6-60.14 0-20.32 7.08-36.42 21.26-48.33 14.16-11.9 33.26-22.14 57.27-22.14 11.87 0 24.98 1.67 39.26 5.01 14.32 3.35 26.05 11.6 35.23 16.13.54 7.49-.96 15.7-4.45 24.66-3.5 8.96-7.83 15.3-12.96 19.05-22.7-10.16-41.57-15.24-56.7-15.24-5.41 0-9.5 1.2-12.35 3.62a11.579 11.579 0 0 0-4.23 9.22c0 6.42 5.12 11.5 15.39 15.24l25.12 8.85Zm-130.79 2.83c0-12.3-1.96-23.66-5.87-34.1a76.451 76.451 0 0 0-16.8-26.86c-7.28-7.49-16.12-13.37-26.5-17.64-10.4-4.27-22.08-10.72-35.03-10.72-15.39 0-28.82 6.97-40.28 12.32-11.47 5.35-20.92 12.7-28.33 22.05-7.44 9.37-12.97 20.39-16.62 33.09-3.64 12.7-5.46 26.53-5.46 41.5 0 15.49 1.48 29.81 4.45 42.91 2.97 13.08 8.03 24.44 15.18 34.07 7.16 9.62 16.47 17.1 27.95 22.44a100.2 100.2 0 0 0 42.71 9.45c31.3 0 57.75-9.07 79.35-24.3-2.14-15.48-7.66-27.8-16.52-36.89-11.03 4.14-20.79 7.1-29.25 8.93-8.47 1.8-15.93 2.7-22.38 2.7-12.9 0-22.2-3.28-27.83-9.91-5.63-6.6-8.72-14.42-9.27-26.3H281.2c3.47-11.24 5.23-26.43 5.23-42.74h-.01Zm-110.9 2.77c.8-13.64 3.3-28.24 7.43-34.25 4.16-6.02 10.5-9.03 19.09-9.03 8.83 0 15.46 3.2 19.88 9.62 4.42 6.41 6.63 19.34 6.63 29.23v4.43h-53.03Zm-84.64 72.19H79.95c-11.89 0-16.36-6.25-16.36-18.8V35.2c0-13.87-4.01-23.61-9.14-29.22C49.32.38 40.42.43 27.73.43H3.04L.14.38.11 277.11c0 19.26 4.32 33.35 12.02 42.32 7.7 8.96 20.72 13.42 39.07 13.42 12.7 0 27.14-1.33 43.32-4.01.82-2.7 1.22-8.5 1.22-17.38 0-8.9-1.62-17.78-4.86-26.7Z"/>
</svg>