<svg xmlns="http://www.w3.org/2000/svg" fill="none" viewBox="0 0 12 12">
  <path fill="#fff" d="M2.6008.81C1.4144.81.4434 1.781.4434 2.9677V9.663c0 1.1865.971 2.1572 2.1575 2.1572h6.6953c1.1865 0 2.1572-.9707 2.1572-2.1572V2.9676c0-1.1864-.9707-2.1575-2.1572-2.1575H2.6008Zm.5427 1.817c.5689 0 .9193.3734.93.8644 0 .48-.3612.864-.941.864h-.0107c-.558 0-.9188-.384-.9188-.864 0-.491.3717-.8644.9405-.8644ZM8.046 4.9215c1.094 0 1.9142.715 1.9142 2.2518v2.8688H8.2975V7.3656c0-.6725-.2407-1.1314-.8424-1.1314-.4593 0-.7331.3093-.8534.608-.044.107-.0547.2562-.0547.4057v2.7942H4.8844s.0218-4.534 0-5.0033h1.663v.7085c.221-.341.6162-.8258 1.4986-.8258Zm-5.745.1177h1.6628v5.0029H2.301v-5.003Z"/>
</svg>