<svg xmlns="http://www.w3.org/2000/svg" fill="none" viewBox="0 0 12 15">
  <path fill="#fff" fill-rule="evenodd" d="M5.7897 4c-.8654 0-2.2901 1.12-2.2901 2 0 .88 1.4247 2.284 2.29 2.284.4174 0 .9149.016 1.21-.284.295-.3 1-1.0758 1-1.5 0-.4244-.3414-1.4025-.6365-1.7025C7.068 4.4975 6.207 4 5.7897 4Zm0-2.7234c2.5726 0 4.9687 1.3613 4.9687 5.1133 0 2.384-1.4074 4.494-4.7588 7.11-.2833.224-.2168.224-.5 0C2.148 10.8759.917 8.7739.917 6.3899c0-3.752 2.3-5.1133 4.8727-5.1133Z" clip-rule="evenodd"/>
  <path fill="#22272A" fill-rule="evenodd" d="M5.7905 13.0071c3.1901-2.5227 4.5069-4.74 4.5069-6.6172 0-3.1138-2.3967-4.72-4.507-4.72-2.1104 0-4.5071 1.6062-4.5071 4.72 0 1.8765 1.3157 4.0858 4.5072 6.6172ZM3.2169 6.2699c0-1.4164 1.14-2.6 2.5734-2.6.688 0 1.3444.278 1.8256.7675A2.6138 2.6138 0 0 1 8.3638 6.27a2.6138 2.6138 0 0 1-.7479 1.8325 2.5602 2.5602 0 0 1-1.8256.7675c-1.4333 0-2.5734-1.1836-2.5734-2.6Zm3.0533 7.632c3.3515-2.616 5.0272-5.128 5.0272-7.512 0-3.752-2.9345-5.72-5.507-5.72C3.2177.67.2832 2.638.2832 6.39c0 2.384 1.6757 4.888 5.0271 7.512a.7692.7692 0 0 0 .9599 0Zm-2.0533-7.632c0-.88.708-1.6 1.5734-1.6.4173 0 .8176.1686 1.1126.4686.2951.3.4609.707.4609 1.1314a1.614 1.614 0 0 1-.4609 1.1314c-.295.3-.6953.4686-1.1126.4686-.8653 0-1.5734-.72-1.5734-1.6Z" clip-rule="evenodd"/>
</svg>