<svg xmlns="http://www.w3.org/2000/svg" fill="none" viewBox="0 0 190 170">
  <path fill="#002C4B" d="M150.276 51.3442c3.093-14.981 3.756-26.471 1.757-34.815-1.189-4.962-3.362-9.01-6.668-11.93-3.49-3.084-7.901-4.597-12.858-4.597-8.178 0-16.775 3.725-25.963 10.802-3.747 2.887-7.6363 6.366-11.6763 10.44a8.7493 8.7493 0 0 0-1.09-1.163c-11.418-10.166-21.032-16.482-29.255-18.917-4.89-1.448-9.48-1.586-13.66-.181-4.414 1.483-7.93 4.55-10.41 8.845-4.094 7.089-5.174 16.403-3.648 27.904.623 4.688 1.686 9.794 3.189 15.327a8.7296 8.7296 0 0 0-1.698.38c-14.489 4.797-24.749 9.955-30.96 15.85-3.696 3.506-6.109 7.41-6.981 11.733-.921 4.562-.023 9.137 2.454 13.43 4.087 7.0778 11.6 12.6598 22.304 17.0818 4.298 1.776 9.161 3.384 14.595 4.83a8.7534 8.7534 0 0 0-.57 1.776c-3.092 14.98-3.756 26.47-1.756 34.814 1.188 4.962 3.362 9.01 6.667 11.93 3.49 3.084 7.902 4.597 12.86 4.597 8.177 0 16.774-3.725 25.962-10.802 3.787-2.917 7.72-6.44 11.805-10.57.42.656.936 1.267 1.546 1.81 11.4203 10.166 21.0343 16.482 29.2573 18.917 4.89 1.448 9.48 1.586 13.66.181 4.414-1.483 7.93-4.55 10.41-8.845 4.094-7.089 5.174-16.403 3.648-27.904-.645-4.857-1.764-10.164-3.354-15.929a8.6778 8.6778 0 0 0 1.863-.398c14.489-4.797 24.749-9.955 30.96-15.85 3.696-3.5058 6.109-7.4098 6.981-11.7328.921-4.562.023-9.137-2.454-13.43-4.087-7.078-11.6-12.66-22.304-17.082-4.427-1.828-9.452-3.48-15.082-4.959.2-.49.359-1.006.469-1.543Z"/>
  <path fill="#FFD94C" fill-rule="evenodd" d="M80.397 54h29.211c.88 0 1.744.2323 2.506.6733a5.0052 5.0052 0 0 1 1.831 1.8387l14.632 25.5a5.004 5.004 0 0 1 .663 2.488 5.004 5.004 0 0 1-.663 2.488l-14.632 25.5a5.0075 5.0075 0 0 1-1.831 1.839c-.762.441-1.626.673-2.506.673H80.397c-.88 0-1.7445-.232-2.506-.673a5.003 5.003 0 0 1-1.831-1.839l-14.632-25.5a4.9999 4.9999 0 0 1 0-4.976l14.632-25.5a5.0007 5.0007 0 0 1 1.831-1.8387A5.0007 5.0007 0 0 1 80.397 54Zm25.59 6.277a5.0007 5.0007 0 0 1 4.339 2.513l11.017 19.224c.434.7568.662 1.6138.662 2.486 0 .8722-.228 1.7292-.662 2.486l-11.017 19.224a5 5 0 0 1-1.831 1.839c-.762.442-1.627.674-2.507.674h-21.97a5.005 5.005 0 0 1-2.5073-.673 5.0045 5.0045 0 0 1-1.8317-1.84L68.662 86.986a4.9997 4.9997 0 0 1 0-4.972L79.679 62.79a5.0006 5.0006 0 0 1 4.338-2.513h21.97Zm-3.906 6.864H87.924a5.0003 5.0003 0 0 0-4.335 2.51l-7.1 12.358a5.0001 5.0001 0 0 0 0 4.982l7.1 12.358a5 5 0 0 0 4.335 2.51h14.157c.879 0 1.743-.232 2.504-.673a4.9946 4.9946 0 0 0 1.831-1.837l7.1-12.358c.436-.758.665-1.6168.665-2.491 0-.8742-.229-1.733-.665-2.491l-7.1-12.358a4.9946 4.9946 0 0 0-1.831-1.837 4.9996 4.9996 0 0 0-2.504-.673Zm-3.762 6.571a4.9988 4.9988 0 0 1 2.503.6715 4.9969 4.9969 0 0 1 1.831 1.8345l3.33 5.788c.437.7587.666 1.6187.666 2.494 0 .8753-.229 1.7353-.666 2.494l-3.33 5.788a4.9969 4.9969 0 0 1-1.831 1.8345 4.9988 4.9988 0 0 1-2.503.6715h-6.633a4.9993 4.9993 0 0 1-4.334-2.506l-3.33-5.788a5.0003 5.0003 0 0 1 0-4.988l3.33-5.788a5.0001 5.0001 0 0 1 4.334-2.506h6.633Zm-3.315 6.473a4.3142 4.3142 0 0 0-3.0516 1.2628 4.3158 4.3158 0 0 0-.937 4.7021 4.3143 4.3143 0 0 0 2.3344 2.3361 4.3148 4.3148 0 0 0 5.9677-3.9845 4.3148 4.3148 0 0 0-4.3135-4.3165ZM60 84.5h7.768Z" clip-rule="evenodd"/>
  <path fill="#FF4154" fill-rule="evenodd" d="M54.86 98.3583a2.712 2.712 0 0 1 2.0765-.2565 2.7132 2.7132 0 0 1 1.6415 1.2975l.475.8447a269.2503 269.2503 0 0 0 11.888 19.191c4.867 7.15 10.34 14.39 16.421 21.716a2.778 2.778 0 0 1 .6296 1.984 2.7744 2.7744 0 0 1-.9256 1.863l-.612.537c-20.107 17.568-33.176 21.078-39.206 10.527-5.898-10.32-3.764-29.08 6.403-56.2797a2.7457 2.7457 0 0 1 1.209-1.424Zm85.674 20.6837a2.713 2.713 0 0 1 2.003.437c.585.403.988 1.018 1.123 1.715l.153.792c4.97 26.01 1.47 39.014-10.497 39.014-11.706 0-26.607-11.091-44.703-33.273a2.7233 2.7233 0 0 1-.613-1.745 2.7124 2.7124 0 0 1 2.73-2.694l.955.007c7.62.041 15.03-.223 22.226-.794 8.498-.673 17.373-1.826 26.623-3.46v.001Zm6.875-55.2297c.523-1.41 2.1-2.149 3.546-1.663l.788.266c25.84 8.803 35.66 18.477 29.455 29.022-6.068 10.3137-23.714 17.8227-52.936 22.5267a2.8482 2.8482 0 0 1-1.88-.345c-.316-.179-.593-.42-.815-.708a2.7417 2.7417 0 0 1-.476-.969 2.7346 2.7346 0 0 1-.063-1.077c.052-.36.174-.706.361-1.018l.5-.837c3.988-6.694 7.592-13.3557 10.813-19.9857 3.803-7.83 7.372-16.233 10.707-25.212Zm-85.67-7.776a2.8518 2.8518 0 0 1 1.878.345 2.7253 2.7253 0 0 1 .994 3.772l-.5.837c-3.988 6.694-7.592 13.356-10.813 19.986-3.803 7.83-7.372 16.233-10.707 25.2117-.523 1.41-2.1 2.149-3.546 1.663l-.788-.266c-25.84-8.8027-35.66-18.4767-29.455-29.0217 6.068-10.313 23.715-17.823 52.937-22.527Zm41.807-31.57c20.107-17.57 33.176-21.079 39.206-10.528 5.898 10.32 3.764 29.08-6.403 56.28a2.7514 2.7514 0 0 1-1.21 1.424 2.7138 2.7138 0 0 1-2.076.2559 2.7009 2.7009 0 0 1-.95-.484 2.7083 2.7083 0 0 1-.691-.8129l-.475-.845a269.5026 269.5026 0 0 0-11.888-19.191c-4.867-7.15-10.34-14.39-16.421-21.716a2.7778 2.7778 0 0 1-.63-1.9834 2.7775 2.7775 0 0 1 .926-1.8636l.612-.536ZM57.684 8.0003c11.706 0 26.607 11.091 44.703 33.273.402.492.618 1.11.613 1.745a2.7135 2.7135 0 0 1-.213 1.0364 2.7292 2.7292 0 0 1-.594.876 2.7131 2.7131 0 0 1-1.923.7816l-.955-.007c-7.62-.041-15.03.223-22.226.794-8.498.673-17.373 1.826-26.623 3.46a2.7078 2.7078 0 0 1-3.126-2.153l-.153-.792c-4.97-26.01-1.47-39.014 10.497-39.014Z" clip-rule="evenodd"/>
</svg>