<svg xmlns="http://www.w3.org/2000/svg" fill="none" viewBox="0 0 24 12">
  <path fill="#fff" d="m16.214.762-.075.391c-.116.741-.074.953.244 1.228l.307.254-.318 1.418c-.19.846-.423 1.555-.571 1.788-.127.201-.275.497-.307.656-.053.19-.233.381-.508.55-.243.138-.72.508-1.058.805-.27.243-.456.392-.557.456l-.33.261c-.106.17-.166.307-.189.411-.023.107-.01.178.024.23.033.05.09.085.168.107a.9537.9537 0 0 0 .282.023 2.9996 2.9996 0 0 0 .632-.112c.07-.019.125-.037.173-.053.074-.091.245-.263.548-.562.804-.793 1.111-1.227.794-1.11-.117.042-.064-.064.137-.276.424-.413.667-1.037 1.175-2.994.402-1.545.402-1.567.698-1.567.139 0 .532.024.532.024V.762h-1.801Zm3.839 3.165c-.064 0-.17.096-.233.202-.116.19.021.306 1.767 1.396 1.037.657 1.873 1.217 1.852 1.26-.021.031-.868.582-1.883 1.217-1.842 1.142-1.852 1.153-1.683 1.386.212.275 0 .37 2.391-1.122L24 7.155v-.836l-1.937-1.196c-1.047-.656-1.957-1.185-2.01-1.196Zm-16.085.117c-.053 0-.963.54-2.01 1.185L0 6.425v.836l1.947 1.217c1.08.666 1.99 1.217 2.032 1.217.042 0 .127-.096.212-.212.127-.201.02-.286-1.768-1.418C.72 6.996.54 6.848.71 6.732c.106-.074.91-.572 1.778-1.111 1.979-1.217 1.873-1.133 1.714-1.387-.063-.105-.17-.2-.233-.19h-.001Zm8.684.023c-.292-.002-.92.443-2.8 1.978-.081.193-.088.326-.051.412.024.059.068.1.129.13.06.03.138.048.224.055.171.015.373-.012.536-.044l.11-.025a.3865.3865 0 0 1 .144-.118c.116-.064.603-.508 1.09-.984.857-.868 1.058-1.26.709-1.387a.2452.2452 0 0 0-.091-.017Zm2.196.603c-.257.007-.72.305-1.513.938-.398.323-.65.497-.785.533l-.524.414c-.197.36-.226.583-.174.706a.2496.2496 0 0 0 .138.134.644.644 0 0 0 .24.045 2.1795 2.1795 0 0 0 .58-.085 3.4645 3.4645 0 0 0 .291-.092l.029-.012.053-.028c.1-.129.33-.372.618-.652.91-.878 1.375-1.502 1.28-1.735-.043-.113-.117-.17-.233-.166Zm-2.424 1.08c-.074.008-.24.136-.539.398-.432.382-.903.602-1.066.504a3.9785 3.9785 0 0 1-.114.024c-.166.033-.373.06-.558.045a.7079.7079 0 0 1-.252-.063.337.337 0 0 1-.168-.17c-.037-.09-.037-.202.005-.345l-.65.534-1.471 1.217v1.973l4.82-3.797a.4124.4124 0 0 1 .016-.123c.037-.134.035-.202-.023-.196V5.75Zm2.074.639c-.073 0-.195.103-.39.31-.265.283-.682.557-.903.613l-.034.018c-.0363.015-.073.029-.11.042-.06.02-.138.044-.228.068-.18.049-.404.094-.604.089a.7317.7317 0 0 1-.275-.054.344.344 0 0 1-.184-.18c-.058-.139-.035-.334.092-.611L7.61 10.033v1.205h1.868l3.962-3.112c.103-.114.258-.27.467-.465.56-.519.687-.698.687-.963 0-.206-.023-.31-.096-.31v.001Zm.943 1.95-.339.338c-.19.18-.529.402-.761.497l-.046.02-.003.005-.01.01c-.009.007-.013.008-.02.011a3.4249 3.4249 0 0 1-.282.093 3.0571 3.0571 0 0 1-.65.115 1.0349 1.0349 0 0 1-.31-.027.3638.3638 0 0 1-.218-.144c-.048-.074-.062-.173-.035-.295a1.1126 1.1126 0 0 1 .095-.25l-3.197 2.526h4.252l.508-.582c.698-.814 1.016-1.396 1.016-1.894v-.423Z"/>
</svg>