<svg xmlns="http://www.w3.org/2000/svg" fill="none" viewBox="0 0 50 50">
  <path fill="#fff" fill-rule="evenodd" d="M24.8081 2.638c1.11 0 2.0631.669 2.4801 1.625a.2477.2477 0 0 0 .229.148.2343.2343 0 0 0 .181-.084 2.7138 2.7138 0 0 1 2.778-.88 2.7079 2.7079 0 0 1 1.9769 2.218.2446.2446 0 0 0 .145.1852.244.244 0 0 0 .234-.0233 2.7223 2.7223 0 0 1 1.5601-.493 2.707 2.707 0 0 1 2.6849 3.016.2449.2449 0 0 0 .325.254c.3-.109.616-.164.93-.164a2.707 2.707 0 0 1 2.516 3.701.246.246 0 0 0 .0337.2329.245.245 0 0 0 .2143.0971 2.7061 2.7061 0 0 1 1.5048.3006 2.7047 2.7047 0 0 1 .9103 4.0074.2444.2444 0 0 0-.0272.233.2442.2442 0 0 0 .1811.149 2.7076 2.7076 0 0 1 2.1567 1.9994 2.7067 2.7067 0 0 1-.9397 2.7866.245.245 0 0 0 .05.409 2.7075 2.7075 0 0 1 1.5657 2.4871 2.7066 2.7066 0 0 1-1.6247 2.4489c-.163.072-.1999.294-.0629.409a2.7066 2.7066 0 0 1 .0528 4.1089 2.7062 2.7062 0 0 1-1.3919.6451.2447.2447 0 0 0-.1844.146.2441.2441 0 0 0 .0235.234c.302.4289.4729.9363.4919 1.4605a2.7058 2.7058 0 0 1-3.043 2.7825.246.246 0 0 0-.1968.105.244.244 0 0 0-.0301.221 2.7064 2.7064 0 0 1-.6522 2.869 2.706 2.706 0 0 1-2.8849.578.2345.2345 0 0 0-.086-.017.248.248 0 0 0-.0975.0212.2465.2465 0 0 0-.1455.2428 2.7072 2.7072 0 0 1-1.3727 2.6023 2.7076 2.7076 0 0 1-2.9362-.1873.2338.2338 0 0 0-.1401-.046.2465.2465 0 0 0-.2419.2 2.7063 2.7063 0 0 1-3.5327 2.0992 2.706 2.706 0 0 1-1.2544-.8832.2364.2364 0 0 0-.187-.088c-.09 0-.1799.048-.2219.138a2.7084 2.7084 0 0 1-2.4868 1.5647 2.708 2.708 0 0 1-2.4493-1.6227.248.248 0 0 0-.228-.148.2339.2339 0 0 0-.182.084 2.7137 2.7137 0 0 1-2.778.88 2.7077 2.7077 0 0 1-1.9769-2.218.2448.2448 0 0 0-.2645-.2022.245.245 0 0 0-.1136.0412 2.7208 2.7208 0 0 1-1.56.492 2.7081 2.7081 0 0 1-2.685-3.017.2436.2436 0 0 0-.0189-.1198.246.246 0 0 0-.1852-.1447.2455.2455 0 0 0-.1208.0105 2.7163 2.7163 0 0 1-2.844-.627 2.7079 2.7079 0 0 1-.604-2.91.2448.2448 0 0 0-.1285-.3064.2465.2465 0 0 0-.1186-.0216 2.7049 2.7049 0 0 1-2.415-4.308.2446.2446 0 0 0-.044-.3315.2458.2458 0 0 0-.11-.0515 2.7063 2.7063 0 0 1-2.1566-1.9993 2.7071 2.7071 0 0 1 .9397-2.7867.245.245 0 0 0-.05-.409 2.7069 2.7069 0 0 1 .06-4.936c.163-.072.2-.294.063-.409a2.7072 2.7072 0 0 1-.0534-4.109 2.7078 2.7078 0 0 1 1.3914-.646.2444.2444 0 0 0 .1844-.1452.2453.2453 0 0 0-.0225-.2338 2.7057 2.7057 0 0 1 1.0299-3.992 2.7062 2.7062 0 0 1 1.5201-.251.2446.2446 0 0 0 .2395-.2116.2451.2451 0 0 0-.0114-.1144 2.707 2.707 0 0 1 3.5369-3.447.2325.2325 0 0 0 .085.016.2462.2462 0 0 0 .2306-.164.2445.2445 0 0 0 .0134-.099 2.7077 2.7077 0 0 1 2.8686-2.9424 2.7065 2.7065 0 0 1 1.4404.5274.2464.2464 0 0 0 .3302-.0449.2465.2465 0 0 0 .0519-.109 2.7067 2.7067 0 0 1 3.5324-2.0982c.4945.167.9302.4733 1.2545.8821.047.06.117.088.186.088.09 0 .18-.048.223-.138a2.7076 2.7076 0 0 1 2.455-1.567Z" clip-rule="evenodd"/>
  <path fill="#2F2F2F" fill-rule="evenodd" d="M34.8273 35.39c-2.483 0-2.288-3.507 0-3.507 2.29 0 2.484 3.507 0 3.507Zm-20.523-.001c-2.483 0-2.289-3.506 0-3.506s2.484 3.506 0 3.506Zm28.027-12.954h-.841a3.7107 3.7107 0 0 1-3.385-2.194 3.709 3.709 0 0 1-6.77 0 3.7107 3.7107 0 0 1-3.385 2.1915 3.7104 3.7104 0 0 1-3.385-2.1915 3.7096 3.7096 0 0 1-1.3679 1.5969 3.7097 3.7097 0 0 1-2.0161.5971 3.7107 3.7107 0 0 1-3.385-2.194 3.709 3.709 0 0 1-6.77 0 3.7097 3.7097 0 0 1-3.384 2.194h-.832c-1.262 1.358-.461 2.505 2.655 2.505v6.973c0 6.552 7.546 9.829 15.093 9.829 7.546 0 15.092-3.277 15.092-9.83V24.94c3.12 0 3.933-1.147 2.681-2.505Z" clip-rule="evenodd"/>
  <path fill="#2F2F2F" fill-rule="evenodd" d="M24.8086.005a5.3401 5.3401 0 0 0-3.041.955 5.3418 5.3418 0 0 0-6.02 1.532 5.3401 5.3401 0 0 0-3.256.682 5.3414 5.3414 0 0 0-2.157 2.351 5.299 5.299 0 0 0-2.968 1.503 5.339 5.339 0 0 0-1.477 2.833 5.3464 5.3464 0 0 0-2.478 2.2159 5.3382 5.3382 0 0 0-.693 3.116 5.333 5.333 0 0 0-1.682 5.973 5.334 5.334 0 0 0-.08 6.205 5.334 5.334 0 0 0-.183 3.322 5.3432 5.3432 0 0 0 1.713 2.693 5.3332 5.3332 0 0 0 3.035 5.415 5.3359 5.3359 0 0 0 1.503 2.967 5.3025 5.3025 0 0 0 2.832 1.48 5.3335 5.3335 0 0 0 5.335 3.17 5.3318 5.3318 0 0 0 4.166 1.998 5.3387 5.3387 0 0 0 1.811-.315 5.3375 5.3375 0 0 0 3.156 1.032 5.3397 5.3397 0 0 0 3.04-.955 5.3369 5.3369 0 0 0 3.327.18 5.3396 5.3396 0 0 0 2.693-1.713 5.3397 5.3397 0 0 0 3.256-.682 5.3399 5.3399 0 0 0 2.157-2.35 5.298 5.298 0 0 0 2.969-1.504 5.343 5.343 0 0 0 1.476-2.832 5.3439 5.3439 0 0 0 2.478-2.216 5.3377 5.3377 0 0 0 .693-3.115 5.3324 5.3324 0 0 0 1.683-5.974c.66-.899 1.036-2 1.036-3.161a5.3398 5.3398 0 0 0-.957-3.044 5.3316 5.3316 0 0 0-1.53-6.015 5.3334 5.3334 0 0 0-3.035-5.415 5.3345 5.3345 0 0 0-1.502-2.967 5.2981 5.2981 0 0 0-2.832-1.48 5.3322 5.3322 0 0 0-5.336-3.171A5.3343 5.3343 0 0 0 29.7756.72c-.626 0-1.238.11-1.812.316a5.3347 5.3347 0 0 0-3.155-1.032m0 2.633c1.11 0 2.063.669 2.48 1.625a.2485.2485 0 0 0 .3289.1263.234.234 0 0 0 .0811-.0623 2.7145 2.7145 0 0 1 2.778-.88 2.7081 2.7081 0 0 1 1.977 2.218.2446.2446 0 0 0 .145.1852.244.244 0 0 0 .234-.0232 2.7222 2.7222 0 0 1 1.56-.493 2.707 2.707 0 0 1 2.685 3.016.2449.2449 0 0 0 .325.254c.3-.109.616-.164.93-.164a2.7073 2.7073 0 0 1 2.6886 2.4084 2.7067 2.7067 0 0 1-.1726 1.2926.2448.2448 0 0 0 .0337.2329.2453.2453 0 0 0 .2143.0971 2.7047 2.7047 0 0 1 2.6039 1.3712 2.7055 2.7055 0 0 1-.1889 2.9368.245.245 0 0 0 .154.382 2.7073 2.7073 0 0 1 2.0983 3.5314 2.7069 2.7069 0 0 1-.8813 1.2546.245.245 0 0 0 .05.409 2.7066 2.7066 0 0 1 1.5657 2.4871 2.7075 2.7075 0 0 1-1.6247 2.4489c-.163.072-.2.294-.063.409a2.706 2.706 0 0 1-1.339 4.754.2455.2455 0 0 0-.1845.146.2452.2452 0 0 0 .0235.234 2.7058 2.7058 0 0 1-2.551 4.243.2444.2444 0 0 0-.1968.105.2444.2444 0 0 0-.0302.221 2.7064 2.7064 0 0 1-.6521 2.869 2.7063 2.7063 0 0 1-2.8849.578.2325.2325 0 0 0-.086-.017.2446.2446 0 0 0-.1786.0794.2469.2469 0 0 0-.0644.1846 2.7065 2.7065 0 0 1-2.8685 2.9424 2.7078 2.7078 0 0 1-1.4405-.5274.2328.2328 0 0 0-.14-.046.246.246 0 0 0-.242.2 2.7058 2.7058 0 0 1-4.787 1.216.236.236 0 0 0-.187-.088c-.09 0-.18.048-.222.138a2.708 2.708 0 0 1-4.936-.058.2474.2474 0 0 0-.228-.148.235.235 0 0 0-.182.084 2.7135 2.7135 0 0 1-2.778.88 2.7084 2.7084 0 0 1-1.977-2.218.243.243 0 0 0-.145-.1838.243.243 0 0 0-.233.0228 2.7216 2.7216 0 0 1-1.56.492 2.7076 2.7076 0 0 1-2.5765-1.8911 2.7081 2.7081 0 0 1-.1085-1.1259.2459.2459 0 0 0-.0189-.1198.246.246 0 0 0-.1852-.1447.2447.2447 0 0 0-.1209.0105 2.716 2.716 0 0 1-2.844-.627 2.7079 2.7079 0 0 1-.604-2.91.245.245 0 0 0-.247-.328 2.7049 2.7049 0 0 1-2.415-4.308.2448.2448 0 0 0-.154-.383A2.7065 2.7065 0 0 1 3.31 29.9766a2.707 2.707 0 0 1 .9396-2.7867.2448.2448 0 0 0-.05-.409 2.707 2.707 0 0 1 .06-4.936c.163-.072.2-.294.063-.409a2.707 2.707 0 0 1 1.338-4.755.2445.2445 0 0 0 .1845-.1453.245.245 0 0 0-.0225-.2337 2.706 2.706 0 0 1 2.55-4.243.245.245 0 0 0 .228-.326 2.7068 2.7068 0 0 1 3.537-3.447.2322.2322 0 0 0 .085.016.2459.2459 0 0 0 .244-.263 2.7076 2.7076 0 0 1 2.8686-2.9424 2.7068 2.7068 0 0 1 1.4404.5274.2464.2464 0 0 0 .3302-.045.2452.2452 0 0 0 .0518-.109 2.7069 2.7069 0 0 1 4.787-1.216c.047.06.117.088.186.088.09 0 .18-.048.223-.138a2.7073 2.7073 0 0 1 2.455-1.567Z" clip-rule="evenodd"/>
</svg>