<svg xmlns="http://www.w3.org/2000/svg" fill="none" viewBox="0 0 27 29">
  <defs/>
  <path fill="#FF5A5F" d="M25.7195 20.2092c-.1401-.3363-.2803-.7007-.4204-1.009-.2242-.5045-.4485-.981-.6447-1.4294l-.028-.028c-1.9339-4.2042-4.008-8.46451-6.1942-12.66871l-.0841-.16817c-.2242-.42042-.4484-.86887-.6726-1.31731-.2803-.50451-.5606-1.03704-1.009-1.54155C15.7696.925943 14.4803.309326 13.1069.309326c-1.4014 0-2.6627.616617-3.58759 1.681684-.42042.5045-.72872 1.03703-1.00901 1.54154-.22422.44845-.44844.8969-.67267 1.31732l-.08408.16816C5.59539 9.22224 3.49329 13.4825 1.55935 17.6867l-.02802.0561c-.1962.4484-.42042.9249-.644648 1.4294-.14014.3083-.280281.6446-.420421 1.009-.364364 1.037-.4764762 2.018-.336336 3.027.308308 2.1021 1.709705 3.8679 3.643645 4.6527.72873.3083 1.48548.4484 2.27027.4484.22422 0 .5045-.028.72873-.056.92492-.1121 1.87788-.4205 2.8028-.953 1.14913-.6446 2.24223-1.5696 3.47543-2.9149 1.2333 1.3453 2.3544 2.2703 3.4755 2.9149.9249.5325 1.8779.8409 2.8028.953.2242.028.5045.056.7288.056.7847 0 1.5695-.1401 2.2702-.4484 1.962-.7848 3.3354-2.5786 3.6437-4.6527.2242-.981.1121-1.9619-.2523-2.999zm-12.6406 1.4575c-1.5135-1.9059-2.4945-3.6997-2.8309-5.2132-.1401-.6447-.1681-1.2052-.084-1.7097.056-.4485.2242-.8409.4484-1.1772.5325-.7568 1.4294-1.2333 2.4665-1.2333 1.037 0 1.9619.4485 2.4664 1.2333.2243.3363.3924.7287.4485 1.1772.0841.5045.056 1.0931-.0841 1.7097-.3363 1.4855-1.3173 3.2792-2.8308 5.2132zm11.1832 1.3173c-.1962 1.4575-1.1772 2.7187-2.5506 3.2793-.6727.2803-1.4014.3643-2.1301.2803-.7007-.0841-1.4014-.3083-2.1302-.7288-1.009-.5605-2.018-1.4294-3.1951-2.7187 1.8498-2.2703 2.9709-4.3443 3.3913-6.1942.1962-.8689.2243-1.6536.1402-2.3824-.1121-.7007-.3644-1.3453-.7568-1.9059-.8688-1.2612-2.3263-1.99-3.9519-1.99-1.6257 0-3.08311.7568-3.95198 1.99-.39239.5606-.64464 1.2052-.75676 1.9059-.11211.7288-.08408 1.5416.14014 2.3824.42043 1.8499 1.5696 3.952 3.3914 6.2222-1.1492 1.2893-2.18619 2.1582-3.1952 2.7188-.72873.4204-1.42943.6446-2.13013.7287-.75676.0841-1.48548-.028-2.13013-.2803-1.37337-.5606-2.35435-1.8218-2.55055-3.2793-.08408-.7007-.02803-1.4014.25225-2.1862.08409-.2802.22423-.5605.36437-.8969.19619-.4484.42042-.9249.64464-1.4014l.02803-.056c1.93393-4.1762 4.00801-8.4364 6.16617-12.5846l.08408-.16816c.22422-.42043.44845-.86887.67267-1.28929.2242-.44845.4765-.86887.7848-1.23324.5886-.67267 1.3734-1.03703 2.2422-1.03703.8689 0 1.6537.36436 2.2423 1.03703.3083.36437.5605.78479.7848 1.23324.2242.42042.4484.86886.6726 1.28929l.0841.16816c2.1301 4.1762 4.2042 8.4364 6.1381 12.6126v.028c.2243.4485.4205.953.6447 1.4014.1401.3364.2803.6167.3644.8969.2242.7288.3083 1.4295.1962 2.1582z"/>
</svg>