<svg xmlns="http://www.w3.org/2000/svg" fill="none" viewBox="0 0 29 29">
  <defs/>
  <path fill="#fff" d="M17.796 19.832h3.0241L16.0014 7.31924H12.67L7.85129 19.832h3.02411l.7932-2.1218h4.551l-.823-2.3499h-3.0042l1.9532-5.38384L17.796 19.832zm9.9646-9.2706c-.109-.3767-.5056-.60477-.8923-.5056-.3768.1091-.6048.5057-.5057.8923.2975 1.0907.4561 2.221.4561 3.3513 0 6.9108-5.6218 12.5425-12.5425 12.5425-6.92066 0-12.54248-5.6218-12.54248-12.5326 0-6.91074 5.63173-12.54247 12.54248-12.54247 2.9249 0 5.7706 1.05099 8.0014 2.89519-.0892.20821-.1388.43626-.1388.67422 0 .96175.7734 1.75495 1.755 1.75495.9617 0 1.7549-.77337 1.7549-1.75495 0-.98159-.7733-1.75496-1.7549-1.75496-.1884 0-.3669.02975-.5354.08924C20.84 1.51896 17.6176.309326 14.2861.309326 6.57225.309326.286133 6.58553.286133 14.3093c0 7.7238 6.276207 14 13.990067 14 7.7139 0 14-6.2861 14-14 0-1.2691-.1785-2.5283-.5156-3.7479z"/>
</svg>