<svg xmlns="http://www.w3.org/2000/svg" fill-rule="evenodd" clip-rule="evenodd" image-rendering="optimizeQuality" shape-rendering="geometricPrecision" text-rendering="geometricPrecision" viewBox="0 0 29700 21000">
  <defs/>
  <defs>
    <linearGradient id="a" x1="10576.21" x2="19254.53" y1="4655.16" y2="17355.16" gradientUnits="userSpaceOnUse">
      <stop offset="0" stop-color="#284323"/>
      <stop offset="1" stop-color="#091707"/>
    </linearGradient>
    <linearGradient id="c" x1="10807.71" x2="19750.64" y1="4137.04" y2="17524.97" gradientUnits="userSpaceOnUse">
      <stop offset="0" stop-color="#8feb16"/>
      <stop offset="1" stop-color="#6bb60a"/>
    </linearGradient>
    <linearGradient id="d" x1="10854.61" x2="17627.94" y1="7645.21" y2="17814.1" gradientUnits="userSpaceOnUse">
      <stop offset="0" stop-color="#76cd12"/>
      <stop offset=".439216" stop-color="#8bcf3b"/>
      <stop offset="1" stop-color="#a1d164"/>
    </linearGradient>
    <clipPath id="b">
      <path d="M9189.46 5317.05h8758.85v8861.53H9189.46V5317.05z"/>
    </clipPath>
  </defs>
  <circle cx="14849.47" cy="10507.13" r="6026.32" fill="url(#a)"/>
  <path fill="#fff" d="M10442.35 9188.52c35.24 42.07 67.01 64.91 100.51 107.48l1229.35 1507.89c343.85 424.76 680.27 991.63 1173.74 1198.21 57.05-53.54 886.46-1157.09 1232.56-1487.03 51.19-43.62 421.85-419.04 449.86-467.1l-3287.45-3278.71c-21.62-36.39-6.22-18.85-31.85-48.47l-514.28-521.51c-39.18 16.3-75.19 40.12-109.18 68.72l-156.19 167.71c-47.81 58.19-95.32 117.31-146.99 166.92-226.65 217.68-925.64 1260.56-933.63 1495.14 48.03 46.47 83.4 90.82 131.57 143.16 330.14 328.05 562.95 590.68 861.98 947.59zm880.15-3430.73l566.54 554.45 3258.66 3267.79c74.34-42.12 164.34-121.82 233.63-181.91 69.96-60.66 147.04-116.09 233.93-183.38 145.26-112.47 342.16-255.02 504.33-351.26-16.33-52.7-41.61-104.37-71.12-153.84-274.17-459.74-749.1-738.44-1159.88-1065.8-430.42-343.01-867.33-694.31-943.75-752.54-634.3-521.46-1199.89-1047.41-1826.57-1651.62l-219.68 122.12c-216.56 120.65-512.14 303.04-576.09 395.99zm5375.51 7468.14c46.8 72.96 303.2 327.63 388.31 382.72 395.06 255.7 892.45-184.33 631.89-631.45-31.49-54.04-332.99-339.07-388.08-387.85-198.54 117.91-523.07 438.24-632.12 636.58zm-3052.61-997.46c50.71 37.08 2138.66 709.09 2292.93 735.51l267.21-282.56c178.22-151.32 508.61-555.55 870.75-838.44l-700.46-2231.52c-29.53-75.41-48.54-70.52-48.54-70.52l-378.99 284.64c-57.29 41.36-138.09 99.55-184.7 140.44-282.18 247.6-632.28 535.27-890.06 803.23-279.75 290.79-705.23 754.59-942.71 1075.95-81.91 110.84-233.29 272.3-285.43 383.27z"/>
  <path fill="#1a1a1a" fill-opacity=".4" d="M14849.47 3685.66c3767.4 0 6821.47 3054.07 6821.47 6821.47s-3054.07 6821.47-6821.47 6821.47S8028 14274.53 8028 10507.13s3054.07-6821.47 6821.47-6821.47zm230.35 1556.36c3018.49 0 5465.46 2446.97 5465.46 5465.46 0 3018.49-2446.97 5465.46-5465.46 5465.46-3018.49 0-5465.46-2446.97-5465.46-5465.46 0-3018.49 2446.97-5465.46 5465.46-5465.46z"/>
  <path fill="url(#c)" d="M14849.47 3668.73c3776.74 0 6838.4 3061.66 6838.4 6838.4s-3061.66 6838.4-6838.4 6838.4-6838.4-3061.66-6838.4-6838.4 3061.66-6838.4 6838.4-6838.4zm0 906.21c3276.26 0 5932.19 2655.93 5932.19 5932.19 0 3276.26-2655.93 5932.19-5932.19 5932.19-3276.26 0-5932.19-2655.93-5932.19-5932.19 0-3276.26 2655.93-5932.19 5932.19-5932.19z"/>
  <path fill="url(#d)" d="M14849.47 4286.54c3435.54 0 6220.59 2785.05 6220.59 6220.59s-2785.05 6220.59-6220.59 6220.59-6220.59-2785.05-6220.59-6220.59 2785.05-6220.59 6220.59-6220.59zm0 287.3c3276.87 0 5933.29 2656.42 5933.29 5933.29s-2656.42 5933.29-5933.29 5933.29S8916.18 13784 8916.18 10507.13s2656.42-5933.29 5933.29-5933.29z"/>
</svg>
