<svg xmlns="http://www.w3.org/2000/svg" xmlns:xlink="http://www.w3.org/1999/xlink" viewBox="0 0 32 32">
  <defs/>
  <defs>
    <clipPath id="a">
      <path d="M76 2v46H54v23H35.58l-.2 2c-1.16 12.53 1.03 24.09 6.06 33.97l1.68 3.03c1 1.82 2.2 3.52 3.44 5.19s1.69 2.58 2.47 3.69C62.32 133.8 82.13 141 105 141c50.65 0 93.63-22.44 112.66-72.84 13.5 1.38 26.44-2.08 32.34-13.6-9.4-5.42-21.48-3.68-28.44-.18L240 2l-72 46h-23V2z"/>
    </clipPath>
  </defs>
  <path fill="#394d54" d="M18.5 11.37h2.87v2.93h1.45a6.3 6.3 0 002-.33c.3-.11.66-.26.97-.44-.41-.53-.62-1.2-.68-1.86-.09-.9.1-2.06.7-2.76l.3-.35.36.3c.9.72 1.67 1.74 1.8 2.9a4.38 4.38 0 013.33.3l.4.23-.21.4c-.8 1.59-2.5 2.08-4.17 2-2.48 6.18-7.89 9.1-14.44 9.1-3.4 0-6.5-1.26-8.27-4.26l-.29-.58a8.31 8.31 0 01-.66-4.2L4 14.3h2.45v-2.94h2.87V8.5h5.73V5.63h3.45v5.74"/>
  <g clip-path="url(#a)" transform="translate(0 5.63) scale(.12546)">
    <g id="d">
      <g id="c" transform="translate(0 -22.87)">
        <path fill="#00acd3" d="M123.86 3.8h19.82v19.82h-19.82z"/>
        <path fill="#20c2ef" d="M123.86 26.68h19.82v19.81h-19.82z"/>
        <path id="b" stroke="#394d54" stroke-width="1.56" d="M126.3 21.98V5.46m2.96 16.52V5.46m3 16.52V5.46m3 16.52V5.46m3.01 16.52V5.46m2.97 16.52V5.46"/>
        <use y="22.87" xlink:href="#b"/>
      </g>
      <use transform="matrix(1 0 0 -1 22.87 4.57)" xlink:href="#c"/>
    </g>
    <use x="-91.46" y="45.73" xlink:href="#d"/>
    <use x="-45.73" y="45.73" xlink:href="#d"/>
    <use y="45.73" xlink:href="#d"/>
    <path fill="#17b5eb" d="M221.57 54.38c1.53-11.91-7.38-21.27-12.91-25.72-6.38 7.37-7.37 26.68 2.63 34.8-5.58 4.97-17.34 9.46-29.37 9.46H34C32.83 85.48 34 146 34 146h217l-.99-91.42c-9.4-5.43-21.48-3.7-28.44-.2"/>
    <path fill-opacity=".17" d="M34 89v57h217V89"/>
    <path fill="#d4edf1" d="M111.24 140.9c-13.54-6.42-20.98-15.16-25.11-24.7L45 118l21 28 45.24-5.1"/>
    <path fill-opacity=".09" d="M222.5 53.94v.03c-20.86 26.9-50.78 50.38-82.9 62.72-28.66 11-53.64 11.06-70.88 2.22-1.86-1.05-3.68-2.21-5.5-3.31-12.64-8.84-19.76-23.44-19.16-42.7H34V146h217V50h-25z"/>
  </g>
  <path fill="none" stroke="#394d54" stroke-linecap="round" stroke-width=".42803460000000004" d="M5.72 20.31c1.78.1 3.68.12 5.33-.4"/>
  <path fill="#d4edf1" d="M12.82 19.05a.69.69 0 01-.69.68.69.69 0 01-.68-.68.69.69 0 01.68-.69.69.69 0 01.69.69z"/>
  <path fill="#394d54" d="M12.32 18.6a.2.2 0 00.1.37c.07 0 .13-.05.17-.1a.5.5 0 01.04.18.5.5 0 11-.49-.5.49.49 0 01.18.04zM0 16.93h31.9c-.69-.18-2.19-.4-1.94-1.32-1.27 1.46-4.31 1.02-5.08.3-.86 1.24-5.84.77-6.19-.2-1.07 1.26-4.4 1.26-5.47 0-.35.96-5.33 1.44-6.18.2-.78.72-3.83 1.16-5.09-.3.25.9-1.26 1.15-1.95 1.32"/>
</svg>