<svg xmlns="http://www.w3.org/2000/svg" fill="none" viewBox="0 0 25 28">
  <defs/>
  <path fill="#E10098" d="M14.9325 3.2095l5.7575 3.325c.952-1.00217 2.5351-1.04183 3.5373-.08983.1727.16333.3197.35116.4398.5565.6872 1.19933.2707 2.72883-.9286 3.41603-.203.1166-.4212.2041-.651.2601v6.6489c1.337.3185 2.163 1.6601 1.8433 2.9971-.056.238-.1482.4667-.2707.6779-.6906 1.1935-2.2178 1.603-3.4148.9123-.2287-.1318-.4375-.3022-.6137-.5005l-5.7225 3.304c.434 1.3113-.2776 2.7242-1.5878 3.157-.2532.0828-.5157.126-.7817.126-1.3778.0012-2.4955-1.1142-2.4966-2.492 0-.2392.0338-.4783.1026-.7105L4.38696 21.476c-.952.9963-2.53284 1.0348-3.530338.0817-.996333-.952-1.033666-2.5329-.081666-3.5304.330164-.3465.753664-.5903 1.218004-.7035l.00116-6.6488C.652456 10.353-.173544 9.00317.149622 7.66033c.054834-.231.1435-.45383.261334-.66033.690664-1.19467 2.219004-1.603 3.414834-.91233.2065.11783.3955.266.56.43983l5.76101-3.325C9.75479 1.88067 10.5096.493501 11.828.102668c.2298-.0688338.4713-.10266708.7116-.10266708C13.9175-.00116575 15.0351 1.113 15.0363 2.48967c.0012.24383-.035.48766-.1038.71983zm-.6009 1.02317c-.0221.0245-.0431.0455-.0676.06766l7.5378 13.05497c.0303-.0105.0653-.0186.0957-.0268v-6.6582c-1.3359-.3301-2.149-1.6823-1.8177-3.0193.007-.028.014-.05717.0222-.084l-5.7704-3.33433zm-3.5175.06883l-.07-.07-5.77031 3.32733c.3815 1.32417-.3815 2.70437-1.7045 3.08587-.03033.0093-.0595.0163-.08867.0245v6.6593l.098.0268L10.8165 4.30033l-.0024.00117zm2.422.5915c-.455.13067-.9368.13067-1.3906 0L4.30879 17.9468c.343.3302.58567.7525.7 1.2145H20.0716c.1132-.4643.3582-.8878.7035-1.218L13.2361 4.893zm1.1504 18.9315l5.7318-3.311c-.0175-.0548-.0315-.1097-.0443-.1657H5.00529l-.0245.0969L10.743 23.772c.4526-.4713 1.0896-.7618 1.7966-.7618.7315 0 1.3884.3138 1.8469.8143z"/>
</svg>