<svg xmlns="http://www.w3.org/2000/svg" xmlns:xlink="http://www.w3.org/1999/xlink" viewBox="0 0 961.06 429">
  <defs/>
  <defs>
    <linearGradient id="a" x1="464.31" x2="464.31" y1="532.27" y2="108.46" gradientTransform="matrix(1 0 0 -1 .14 777.64)" gradientUnits="userSpaceOnUse">
      <stop offset=".15" stop-color="#2a4f84"/>
      <stop offset=".39" stop-color="#294e82"/>
      <stop offset="1" stop-color="#172e4e"/>
    </linearGradient>
    <linearGradient id="b" x1="464.31" x2="464.31" y1="532.27" y2="108.46" gradientTransform="matrix(1 0 0 -1 -110.82 852.73)" gradientUnits="userSpaceOnUse" xlink:href="#a"/>
  </defs>
  <path fill="url(#b)" d="M778.76 662.53c0 44.96-36.78 81.75-81.74 81.75H9.97c-44.96 0-81.74-36.79-81.74-81.75V402.21c0-44.96 36.78-81.74 81.74-81.74h687.05c44.96 0 81.74 36.78 81.74 81.74v260.32z" transform="translate(130.53 -317.84)"/>
  <path fill="#f6f6f6" d="M765.57 208.97c35.9 12.56 53.86 34.09 53.86 64.54 0 20.05-7.45 35.96-22.3 47.73-14.84 11.77-36 19.08-63.56 19.08-27.55 0-53.03-7.98-76.5-21.09.25-6.95 2.08-14.57 5.46-22.85 3.37-8.28 7.36-14.85 11.93-19.66 21.57 11.21 40.35 16.83 56.28 16.83 7.53 0 13.36-1.26 17.42-3.81 4.06-2.54 6.08-5.94 6.08-10.22 0-8.04-6.23-14.05-18.64-18.05l-22.3-8.43c-33.72-12.29-50.59-32.32-50.59-60.14 0-20.32 7.08-36.42 21.25-48.33 14.17-11.9 33.27-22.14 57.29-22.14 11.88 0 24.96 1.67 39.27 5.01 14.3 3.35 26.04 11.6 35.22 16.13.54 7.49-.96 15.7-4.45 24.66-3.52 8.96-7.83 15.3-12.97 19.05-22.69-10.16-41.57-15.24-56.69-15.24-5.41 0-9.5 1.2-12.36 3.62a11.55 11.55 0 00-4.22 9.22c0 6.42 5.12 11.5 15.39 15.24l25.13 8.85zM586.21 208.97c35.91 12.56 53.85 34.09 53.85 64.54 0 20.05-7.44 35.96-22.27 47.73-14.85 11.77-36.03 19.08-63.57 19.08-27.53 0-53.05-7.98-76.51-21.09.25-6.95 2.09-14.57 5.47-22.85 3.37-8.28 7.35-14.85 11.93-19.66 21.6 11.21 40.37 16.83 56.3 16.83 7.53 0 13.36-1.26 17.4-3.81 4.05-2.54 6.08-5.94 6.08-10.22 0-8.04-6.22-14.05-18.64-18.05l-22.28-8.43c-33.73-12.29-50.6-32.32-50.6-60.14 0-20.32 7.08-36.42 21.26-48.33 14.16-11.9 33.26-22.14 57.27-22.14 11.87 0 24.98 1.67 39.26 5.01 14.32 3.35 26.05 11.6 35.23 16.13.54 7.49-.96 15.7-4.45 24.66-3.5 8.96-7.83 15.3-12.96 19.05-22.7-10.16-41.57-15.24-56.7-15.24-5.41 0-9.5 1.2-12.35 3.62a11.58 11.58 0 00-4.23 9.22c0 6.42 5.12 11.5 15.39 15.24l25.12 8.85zM455.42 211.8c0-12.3-1.96-23.66-5.87-34.1a76.43 76.43 0 00-16.8-26.86c-7.28-7.49-16.12-13.37-26.5-17.64-10.4-4.27-22.08-10.72-35.03-10.72-15.39 0-28.82 6.97-40.28 12.32-11.47 5.35-20.92 12.7-28.33 22.05-7.44 9.37-12.97 20.39-16.62 33.09-3.64 12.7-5.46 26.53-5.46 41.5 0 15.49 1.48 29.81 4.45 42.91 2.97 13.08 8.03 24.44 15.18 34.07 7.16 9.62 16.47 17.1 27.95 22.44a100.2 100.2 0 0042.71 9.45c31.3 0 57.75-9.07 79.35-24.3-2.14-15.48-7.66-27.8-16.52-36.89-11.03 4.14-20.79 7.1-29.25 8.93-8.47 1.8-15.93 2.7-22.38 2.7-12.9 0-22.2-3.28-27.83-9.91-5.63-6.6-8.72-14.42-9.27-26.3H450.2c3.47-11.24 5.23-26.43 5.23-42.74zm-110.9 2.77c.8-13.64 3.3-28.24 7.43-34.25 4.16-6.02 10.5-9.03 19.09-9.03 8.83 0 15.46 3.2 19.88 9.62 4.42 6.41 6.63 19.34 6.63 29.23v4.43h-53.03z"/>
  <path fill="#f6f6f6" stroke="#404040" stroke-miterlimit="10" stroke-width="5.15" d="M930.49 241.25c-11.45 10-18.09 24.38-18.09 43.19v70.03c0 23.28-7.15 41-23.32 53.17-16.15 12.15-34.98 18.17-56.47 18.75l-12.74-.1v-34.9c11.23-3.27 15.84-7.08 20.31-11.4 8.1-7.32 14.3-19.22 14.3-35.75V287.7c.3-19.22 1.78-34.28 8.77-45.16 7.03-10.88 20.7-20.39 41.01-28.6-22.44-10.28-37.5-23.7-45.19-40.24-4.51-9.83-4.6-23.09-4.6-39.77V82.08c0-17.13-5.6-29.13-12.5-35.98-4.49-4.47-9.7-8.04-22.12-10.73V2.6c15.18.16 22.85-.02 31.7 0 13.6-.11 25 7.33 34.93 15.08 10.8 8.5 18.49 20 22.99 34.46 2.56 8.35 2.92 16.34 2.92 23.94v59.97c0 21.18 6.26 36.93 16.96 47.2 6.03 5.97 14.53 11.42 29.14 16.35v27.09c-12.94 3.58-21.07 8.43-28 14.55zM125.29 2.63v.04c-4.35-.02-8.29-.04-11.44-.03-13.62-.12-25.02 7.32-34.94 15.08-10.82 8.5-20.08 19.6-22.98 34.46-1.66 8.71-1.3 16.33-1.3 23.94v59.97c0 21.18-7.89 36.91-18.57 47.21-6.02 5.96-18.87 11.4-33.49 16.33v27.1c12.95 3.56 25.42 8.4 32.34 14.54 11.45 10 19.7 24.4 19.7 43.2v70.03c0 23.27 5.55 41 21.7 53.15 16.15 12.15 34.97 18.2 56.47 18.78l14.38-.1v-34.92c-11.22-3.28-17.45-7.1-21.94-11.4-8.1-7.32-12.67-19.22-12.67-35.74v-56.55c-.31-19.24-3.41-34.28-10.42-45.17-7-10.86-20.67-20.39-41.01-28.6 22.45-10.27 37.5-23.68 45.19-40.22 4.52-9.84 6.24-23.1 6.24-39.78V82.1c0-17.13 3.97-29.13 10.86-35.98 3.74-3.72 10.39-6.79 19.62-9.27l14.6.1V2.63h-32.34 0z"/>
  <path fill="#f6f6f6" d="M259.88 286.76h-10.93c-11.89 0-16.36-6.25-16.36-18.8V37.2c0-13.87-4.01-23.61-9.14-29.22-5.13-5.6-14.03-5.55-26.72-5.55h-24.69l-2.9-.05v.24l-.03 34.34v242.15c0 19.26 4.32 33.35 12.02 42.32 7.7 8.96 20.72 13.42 39.07 13.42 12.7 0 27.14-1.33 43.32-4.01.82-2.7 1.22-8.5 1.22-17.38 0-8.9-1.62-17.78-4.86-26.7z"/>
</svg>