<svg xmlns="http://www.w3.org/2000/svg" fill="none" viewBox="0 0 25 28">
  <defs/>
  <g clip-path="url(#clip0)">
    <path fill="#fff" d="M12.4537 0l12.3741 6.9992v14.0016L12.4537 28 .0795898 21.0008V6.9992L12.4537 0z"/>
    <path fill="#8ED6FB" d="M22.6182 20.5179l-9.7553 5.5188v-4.2974l6.0783-3.3445 3.677 2.1231zm.6683-.6044V8.37398l-3.5683 2.06232v7.4181l3.5683 2.0591zm-21.03596.6044l9.75536 5.5188v-4.2974l-6.0815-3.3445-3.67386 2.1231zm-.66826-.6044V8.37398l3.56834 2.06232v7.4181l-3.56834 2.0591zm.41886-12.28772L12.0059 1.96631v4.15348L5.59507 9.64656l-.05116.02878-3.54277-2.04956zm20.86646 0L12.8629 1.96631v4.15348l6.4108 3.52358.0512.02877 3.5427-2.04636z"/>
    <path fill="#1C78C0" d="M12.006 20.7611l-5.99843-3.2998v-6.5324l5.99843 3.4629v6.3693zm.8569 0l5.9984-3.2966v-6.5356l-5.9984 3.4629v6.3693zM6.41364 10.1743l6.02076-3.30931 6.0208 3.30931-6.0208 3.4757-6.02076-3.4757z"/>
  </g>
  <defs>
    <clipPath id="clip0">
      <path fill="#fff" d="M.0795898 0h24.7482v28h-24.7482z"/>
    </clipPath>
  </defs>
</svg>
