<svg width="25" height="24" fill="none" xmlns="http://www.w3.org/2000/svg">
  <path d="M23.987 16.5c-.414 0-.75.336-.75.75v5.25H2.23708v-5.25c0-.414-.33602-.75-.74998-.75-.41395 0-.750039.336-.750039.75v5.9999c0 .4141.336029.75.749979.75H23.987c.414 0 .75-.336.75-.75V17.25c.0001-.414-.336-.75-.75-.75z" fill="#fff"/>
  <path d="M12.1895 17.7802c.2918.2888.78.2918 1.0717 0l5.2493-5.175c.2962-.2932.2955-.768 0-1.0605-.2955-.2932-.7755-.2932-1.071 0l-3.9563 3.9V.749981C13.4832.335964 13.1442 0 12.7257 0c-.4185 0-.7575.336026-.7575.749981V15.4447l-3.95628-3.9c-.29625-.2932-.77548-.2932-1.07098 0-.29625.2933-.29625.768 0 1.0605l5.24856 5.175z" fill="#fff"/>
</svg>
