<svg width="25" height="12" fill="none" xmlns="http://www.w3.org/2000/svg">
  <path d="M23.9957 11.9901c.0089-.0017.0175-.0041.0263-.0064.0075-.0019.015-.0035.0223-.0057.0086-.0026.0169-.0059.0253-.0089.0074-.0026.0148-.005.0222-.0081.0078-.0033.0154-.0071.0231-.0108.0075-.0035.015-.0068.0224-.0108.0073-.0039.0142-.0083.0213-.0126.0074-.0044.0147-.0085.0219-.0133.0076-.005.0146-.0106.0219-.0161.0062-.0046.0125-.0089.0185-.0138.0111-.0091.0216-.0189.0319-.0288.0019-.0018.0038-.0033.0057-.0052.0019-.0019.0036-.004.0054-.006.0099-.0101.0194-.0205.0285-.0315.0052-.0064.0098-.0131.0148-.0198.005-.0068.0104-.0135.0151-.0206.0051-.0076.0095-.0154.0142-.0232.0039-.0066.008-.0131.0117-.0198.0042-.0079.0078-.016.0115-.0241.0034-.0071.0069-.0141.01-.0215.0033-.0078.0059-.0158.0088-.0238.0028-.0078.0058-.0156.0082-.0235.0025-.0081.0042-.0163.0063-.0245.002-.0081.0043-.016.0059-.0242.0019-.0096.0031-.0194.0044-.0291.001-.0068.0023-.0136.003-.0205.0017-.0171.0026-.0341.0026-.0512V.513368C24.4089.229783 24.1791 0 23.8955 0H7.72444c-.00452 0-.0089.00054722-.01342.00068411-.00979.0002738-.01951.00068471-.02923.0015061-.00773.00061604-.0154.00150605-.02306.00253279-.00877.00109518-.01746.00239562-.02615.00396995-.00815.00143745-.01622.00314855-.02423.00499665-.00815.0019166-.01629.0039702-.02437.0062975-.00801.0022588-.01588.0047226-.02368.0073237-.00801.0027379-.01602.0056132-.02389.0087619-.00746.0029433-.01479.0059546-.02204.0092402-.00808.0036278-.01609.0075298-.02403.0115683-.00678.0034909-.01341.0070501-.01999.0108148-.00794.0045176-.01574.009309-.02347.0142374-.00637.0041069-.0126.0083506-.01876.0126629-.00725.0051336-.01444.0104727-.02149.0160857-.00644.005133-.01273.010404-.01896.015812-.00616.005407-.01225.010814-.01821.016564-.00678.006503-.01328.013279-.01971.020124-.00322.003423-.00664.006435-.00972.009925-.00185.002054-.00329.004313-.00507.006366-.00643.007461-.01246.015264-.01848.023136-.00438.00575-.0089.011499-.013.017386-.00534.007666-.01027.015538-.0152.023478-.00404.006503-.00821.012937-.01191.019576-.00431.007666-.00808.015538-.01198.02341-.00356.007187-.00725.014374-.01047.021698-.00336.007735-.0063.015744-.00924.023615-.00295.007735-.00596.015401-.00849.023204-.00253.007872-.00459.01588-.00678.023889-.00219.008214-.00451.016359-.00636.024642-.00171.007734-.00288.015606-.00425.023409-.0015.008899-.00301.017797-.0041.026695-.00089.007393-.0013.014922-.00185.022451-.00069.009583-.0013.019167-.00144.028818C7.21134.507686 7.211.510424 7.211.513231V3.67913c0 .28359.22978.51337.51337.51337.28358 0 .51337-.22978.51337-.51337V1.65339L12.802 5.69441c-.0238.01677-.0468.03532-.0681.05661L8.23767 10.2472V6.87351c0-.28358-.22979-.51337-.51337-.51337s-.51337.22979-.51337.51337v.62727h-2.6524c-.28358 0-.51336.22978-.51336.51337 0 .28358.22978.51336.51336.51336h2.6524v2.95909c0 .2836.22979.5134.51337.5134h16.1711c.0169 0 .0338-.0009.0506-.0025.0079-.0008.0155-.0023.0232-.0034.0089-.0012.0177-.0022.0265-.004zm-.6136-1.7428l-4.4963-4.49621c-.0029-.00288-.006-.00528-.0089-.00801l3.3802-2.86781c.2162-.18344.2427-.50735.0593-.72358-.1833-.21609-.5072-.24278-.7236-.05927L15.817 6.99268 9.07863 1.0268H23.3821v9.2205zM13.46 6.47719c.0366-.03662.0663-.07741.0895-.12081l1.9201 1.69993c.097.0859.2186.12903.3403.12903.1181 0 .2362-.04059.3322-.12191l1.9567-1.66016c.0178.02601.0379.05086.061.07392l4.4962 4.49621H8.96377L13.46 6.47719z" fill="#fff"/>
  <path d="M1.25043 5.84705h8.67023c.28354 0 .51334-.22979.51334-.51337s-.2298-.51337-.51334-.51337H1.25043c-.283586 0-.513369.22979-.513369.51337s.229783.51337.513369.51337zM2.14887 3.01795H6.0419c.28359 0 .51337-.22979.51337-.51337 0-.28359-.22978-.51337-.51337-.51337H2.14887c-.28359 0-.51337.22978-.51337.51337 0 .28358.22978.51337.51337.51337zM5.01512 9.66846H1.25043c-.283586 0-.513369.22978-.513369.51334 0 .2836.229783.5134.513369.5134h3.76469c.28359 0 .51337-.2298.51337-.5134 0-.28356-.22978-.51334-.51337-.51334z" fill="#fff"/>
</svg>
