<svg xmlns="http://www.w3.org/2000/svg" fill="none" viewBox="0 0 98 48">
  <defs/>
  <path fill="url(#paint0_linear)" d="M.97144 0v47.9763H49.9804L97.9512.0054H.97144V0z"/>
  <path fill="#1870C5" d="M63.0485 43.0721v3.5786h.5401v-1.5533h.607l.9787 1.5533h.6081l-1.0467-1.5533c.5228-.0648.9452-.3694.9452-1.0132 0-.7042-.4321-1.0121-1.2822-1.0121h-1.3502zm.5401.4731h.742c.3651 0 .7767.0584.7767.5056 0 .5584-.417.6081-.8782.6081h-.6405v-1.1137zm.6751-1.7898c-1.7132 0-3.1736 1.3199-3.1736 3.1055 0 1.7985 1.4604 3.139 3.1736 3.139.4109.001.818-.0797 1.1974-.2375a3.09728 3.09728 0 001.0127-.6817c.289-.2921.517-.6388.6708-1.0199.1537-.3811.23-.789.2246-1.1999 0-1.7856-1.4161-3.1055-3.1055-3.1055zm0 .5066c1.3977 0 2.4973 1.1288 2.4973 2.5989 0 1.495-1.0996 2.5989-2.4973 2.5989-1.4216 0-2.5655-1.1039-2.5655-2.5989 0-1.4691 1.1439-2.5989 2.5655-2.5989z"/>
  <path fill="#fff" fill-rule="evenodd" d="M59.082 22.9561h-2.1021v-7.6877h2.1021c2.8063 0 5.0401.9247 5.0401 3.7947 0 2.964-2.2338 3.893-5.0401 3.893zm-22.6245 5.496a8.7338 8.7338 0 01-3.058-.5423l3.0278-9.5488h.0648l2.9651 9.5747a8.91435 8.91435 0 01-2.9964.5164h-.0033zM58.5246 9.02282H48.979V31.7207L40.64 9.02282h-8.2655L25.2496 27.9995c-.7529-4.7831-5.7077-6.439-9.6028-7.6737-2.5676-.8263-5.3005-2.0404-5.2757-3.3852.0216-1.0997 1.468-2.1194 4.3208-1.9671 1.9227.0973 3.6186.2528 6.9855 1.8806l3.3162-5.7768c-3.0721-1.56948-7.3291-2.5546-10.8116-2.56216h-.0216c-4.0625 0-7.44783 1.3243-9.54771 3.49226-1.45933 1.5165-2.24894 3.4349-2.28458 5.5705-.05401 2.9251 1.02293 5.0012 3.27727 6.6614 1.9076 1.3978 4.34125 2.2976 6.49082 2.9716 2.6518.8177 4.8165 1.5317 4.7917 3.0537-.0216.5541-.2279 1.0737-.6287 1.4842-.66.6859-1.6743.9397-3.0774.9711-2.7048.054-4.7107-.3673-7.90588-2.2555l-2.94781 5.8579a22.02504 22.02504 0 0010.80509 2.8743h.4979c3.3486-.0648 6.0534-1.0207 8.2148-2.7577l.35-.3057-.9549 2.5665h8.6685l1.4561-4.4276c1.523.5152 3.2578.8047 5.0941.8047 1.792 0 3.4825-.27 4.9786-.7626l1.3999 4.3855h14.1439V29.529h3.0861c7.4532 0 11.8668-3.7936 11.8668-10.1602 0-7.086-4.2861-10.33626-13.4115-10.33626" clip-rule="evenodd"/>
  <defs>
    <linearGradient id="paint0_linear" x1="49.4273" x2="49.4273" y1=".02592" y2="47.9673" gradientUnits="userSpaceOnUse">
      <stop stop-color="#00B8F1"/>
      <stop offset=".22" stop-color="#06A5E5"/>
      <stop offset=".794" stop-color="#1870C5"/>
      <stop offset="1" stop-color="#1D61BC"/>
    </linearGradient>
  </defs>
</svg>