<svg width="490" height="126" viewBox="0 0 490 126" fill="none" xmlns="http://www.w3.org/2000/svg">
<path d="M0.582579 102.015L14.6372 78.5H80.8627L94.9104 102.015L80.8594 125.5H14.6335L0.582579 102.015Z" stroke="#78B0B5"/>
<path d="M30.271 107H29.1226L28.1616 104.086H24.1304L23.1851 107H22.0366L25.4272 96.8047H26.8804L30.271 107ZM27.8569 103.141L26.146 97.8828L24.4351 103.141H27.8569ZM38.5757 104.328C38.3101 105.203 37.8752 105.898 37.271 106.414C36.6668 106.924 35.9064 107.18 34.9897 107.18C34.2762 107.18 33.672 107.034 33.1772 106.742C32.6825 106.445 32.2762 106.055 31.9585 105.57C31.646 105.086 31.4194 104.526 31.2788 103.891C31.1434 103.255 31.0757 102.596 31.0757 101.914C31.0757 101.232 31.1434 100.573 31.2788 99.9375C31.4194 99.3021 31.646 98.7396 31.9585 98.25C32.2762 97.7604 32.6825 97.3698 33.1772 97.0781C33.672 96.7812 34.2762 96.6328 34.9897 96.6328C35.62 96.6328 36.159 96.7448 36.6069 96.9688C37.0549 97.1927 37.3856 97.5339 37.5991 97.9922V96.8047H38.5132V100.148H37.5991C37.5991 99.7891 37.5288 99.4505 37.3882 99.1328C37.2528 98.8099 37.0679 98.5312 36.8335 98.2969C36.5991 98.0625 36.3205 97.8802 35.9976 97.75C35.6799 97.6146 35.3439 97.5469 34.9897 97.5469C34.4377 97.5469 33.9793 97.6771 33.6147 97.9375C33.2554 98.1979 32.9663 98.5391 32.7476 98.9609C32.5288 99.3828 32.3726 99.8516 32.2788 100.367C32.1903 100.883 32.146 101.398 32.146 101.914C32.146 102.424 32.1903 102.94 32.2788 103.461C32.3726 103.977 32.5288 104.443 32.7476 104.859C32.9663 105.271 33.2554 105.609 33.6147 105.875C33.9793 106.135 34.4377 106.266 34.9897 106.266C36.2606 106.266 37.146 105.497 37.646 103.961L38.5757 104.328ZM47.2476 100.25H46.3335V97.7188H44.146V106.086H45.7866V107H41.4194V106.086H43.0679V97.7188H40.8804V100.25H39.9663V96.8047H47.2476V100.25ZM54.521 107H50.1538V106.086H51.8022V97.7188H50.1538V96.8047H54.521V97.7188H52.8804V106.086H54.521V107ZM64.9897 101.914C64.9897 102.596 64.9194 103.255 64.7788 103.891C64.6382 104.526 64.4142 105.086 64.1069 105.57C63.7996 106.055 63.396 106.445 62.896 106.742C62.4012 107.034 61.797 107.18 61.0835 107.18C60.37 107.18 59.7632 107.034 59.2632 106.742C58.7684 106.445 58.3647 106.055 58.0522 105.57C57.745 105.086 57.5236 104.526 57.3882 103.891C57.2476 103.255 57.1772 102.596 57.1772 101.914C57.1772 101.232 57.2476 100.573 57.3882 99.9375C57.5236 99.3021 57.7476 98.7396 58.0601 98.25C58.3778 97.7604 58.784 97.3698 59.2788 97.0781C59.7788 96.7812 60.3804 96.6328 61.0835 96.6328C61.7866 96.6328 62.3856 96.7812 62.8804 97.0781C63.3804 97.3698 63.784 97.7604 64.0913 98.25C64.3986 98.7396 64.6252 99.3021 64.771 99.9375C64.9168 100.573 64.9897 101.232 64.9897 101.914ZM63.9116 101.914C63.9116 101.242 63.8465 100.638 63.7163 100.102C63.5913 99.5599 63.409 99.099 63.1694 98.7188C62.9299 98.3385 62.633 98.0495 62.2788 97.8516C61.9299 97.6484 61.5314 97.5469 61.0835 97.5469C60.5262 97.5469 60.0653 97.6771 59.7007 97.9375C59.3413 98.1979 59.0522 98.5391 58.8335 98.9609C58.6147 99.3828 58.4611 99.8516 58.3726 100.367C58.2892 100.883 58.2476 101.398 58.2476 101.914C58.2476 102.424 58.2892 102.94 58.3726 103.461C58.4611 103.977 58.6147 104.443 58.8335 104.859C59.0522 105.271 59.3413 105.609 59.7007 105.875C60.0653 106.135 60.5262 106.266 61.0835 106.266C61.6356 106.266 62.0939 106.135 62.4585 105.875C62.8231 105.609 63.1147 105.271 63.3335 104.859C63.5522 104.443 63.7033 103.977 63.7866 103.461C63.87 102.94 63.9116 102.424 63.9116 101.914ZM73.0679 107H71.7397L67.6226 98.375V107H66.5522V96.8047H68.0601L71.9897 105.031V96.8047H73.0679V107Z" fill="#BCD8DB"/>
<path d="M117.701 99.4019L122.201 102L117.701 104.598V99.4019Z" stroke="#78B0B5"/>
<line x1="94.2007" y1="102" x2="118.201" y2="102" stroke="#78B0B5"/>
<path d="M123.969 102.015L141.538 78.5H224.528L242.087 102.015L224.523 125.5H141.533L123.969 102.015Z" stroke="#78B0B5"/>
<path d="M147.146 101.914C147.146 102.596 147.073 103.247 146.927 103.867C146.787 104.482 146.557 105.023 146.24 105.492C145.927 105.956 145.521 106.323 145.021 106.594C144.526 106.865 143.927 107 143.224 107H139.912V96.8047H143.224C143.917 96.8047 144.511 96.9453 145.005 97.2266C145.505 97.5026 145.912 97.875 146.224 98.3438C146.542 98.8125 146.774 99.3542 146.919 99.9688C147.07 100.583 147.146 101.232 147.146 101.914ZM146.076 101.914C146.076 100.581 145.823 99.5495 145.318 98.8203C144.818 98.0859 144.12 97.7188 143.224 97.7188H140.982V106.086H143.224C144.12 106.086 144.818 105.724 145.318 105C145.823 104.276 146.076 103.247 146.076 101.914ZM154.083 107H149.716V106.086H151.365V97.7188H149.716V96.8047H154.083V97.7188H152.443V106.086H154.083V107ZM164.021 104.344C164.021 104.771 163.932 105.159 163.755 105.508C163.578 105.852 163.341 106.148 163.044 106.398C162.748 106.648 162.406 106.841 162.021 106.977C161.636 107.112 161.235 107.18 160.818 107.18C160.245 107.18 159.719 107.073 159.24 106.859C158.761 106.646 158.38 106.331 158.099 105.914V107H157.193V103.898H158.099C158.099 104.247 158.18 104.568 158.341 104.859C158.503 105.146 158.708 105.393 158.958 105.602C159.208 105.81 159.495 105.974 159.818 106.094C160.146 106.208 160.479 106.266 160.818 106.266C161.12 106.266 161.399 106.224 161.654 106.141C161.909 106.052 162.133 105.93 162.326 105.773C162.518 105.612 162.669 105.417 162.779 105.188C162.893 104.958 162.951 104.698 162.951 104.406C162.951 104.078 162.878 103.797 162.732 103.562C162.591 103.328 162.399 103.128 162.154 102.961C161.914 102.794 161.643 102.654 161.341 102.539C161.039 102.419 160.732 102.302 160.419 102.188C160.05 102.057 159.68 101.922 159.31 101.781C158.94 101.635 158.61 101.453 158.318 101.234C158.026 101.016 157.789 100.75 157.607 100.438C157.425 100.12 157.333 99.7266 157.333 99.2578C157.333 98.8411 157.422 98.4714 157.599 98.1484C157.776 97.8203 158.008 97.5443 158.294 97.3203C158.581 97.0964 158.914 96.9271 159.294 96.8125C159.675 96.6927 160.065 96.6328 160.466 96.6328C160.961 96.6328 161.417 96.7344 161.833 96.9375C162.255 97.1406 162.583 97.4505 162.818 97.8672V96.8047H163.763V99.7188H162.818C162.818 99.4115 162.753 99.125 162.623 98.8594C162.498 98.5885 162.326 98.3594 162.107 98.1719C161.888 97.9792 161.638 97.8281 161.357 97.7188C161.076 97.6042 160.779 97.5469 160.466 97.5469C160.19 97.5469 159.927 97.5781 159.677 97.6406C159.427 97.7031 159.208 97.8047 159.021 97.9453C158.833 98.0807 158.682 98.2578 158.568 98.4766C158.458 98.6953 158.404 98.9557 158.404 99.2578C158.404 99.5234 158.469 99.75 158.599 99.9375C158.735 100.125 158.914 100.292 159.138 100.438C159.362 100.578 159.62 100.708 159.912 100.828C160.208 100.943 160.511 101.06 160.818 101.18C161.203 101.315 161.586 101.466 161.966 101.633C162.347 101.799 162.688 102 162.99 102.234C163.292 102.469 163.539 102.758 163.732 103.102C163.925 103.44 164.021 103.854 164.021 104.344ZM172.998 99.7188C172.998 100.703 172.69 101.435 172.076 101.914C171.461 102.393 170.599 102.633 169.49 102.633H167.185V107H166.115V96.8047H169.474C170.594 96.8047 171.461 97.0495 172.076 97.5391C172.69 98.0234 172.998 98.75 172.998 99.7188ZM171.927 99.7188C171.927 99.0156 171.706 98.5078 171.263 98.1953C170.82 97.8776 170.229 97.7188 169.49 97.7188H167.185V101.719H169.49C170.229 101.719 170.82 101.562 171.263 101.25C171.706 100.932 171.927 100.422 171.927 99.7188ZM182.24 107H181.091L180.13 104.086H176.099L175.154 107H174.005L177.396 96.8047H178.849L182.24 107ZM179.826 103.141L178.115 97.8828L176.404 103.141H179.826ZM190.482 100.25H189.568V97.7188H187.38V106.086H189.021V107H184.654V106.086H186.302V97.7188H184.115V100.25H183.201V96.8047H190.482V100.25ZM199.279 104.328C199.013 105.203 198.578 105.898 197.974 106.414C197.37 106.924 196.61 107.18 195.693 107.18C194.979 107.18 194.375 107.034 193.88 106.742C193.386 106.445 192.979 106.055 192.662 105.57C192.349 105.086 192.123 104.526 191.982 103.891C191.847 103.255 191.779 102.596 191.779 101.914C191.779 101.232 191.847 100.573 191.982 99.9375C192.123 99.3021 192.349 98.7396 192.662 98.25C192.979 97.7604 193.386 97.3698 193.88 97.0781C194.375 96.7812 194.979 96.6328 195.693 96.6328C196.323 96.6328 196.862 96.7448 197.31 96.9688C197.758 97.1927 198.089 97.5339 198.302 97.9922V96.8047H199.216V100.148H198.302C198.302 99.7891 198.232 99.4505 198.091 99.1328C197.956 98.8099 197.771 98.5312 197.537 98.2969C197.302 98.0625 197.024 97.8802 196.701 97.75C196.383 97.6146 196.047 97.5469 195.693 97.5469C195.141 97.5469 194.682 97.6771 194.318 97.9375C193.958 98.1979 193.669 98.5391 193.451 98.9609C193.232 99.3828 193.076 99.8516 192.982 100.367C192.893 100.883 192.849 101.398 192.849 101.914C192.849 102.424 192.893 102.94 192.982 103.461C193.076 103.977 193.232 104.443 193.451 104.859C193.669 105.271 193.958 105.609 194.318 105.875C194.682 106.135 195.141 106.266 195.693 106.266C196.964 106.266 197.849 105.497 198.349 103.961L199.279 104.328ZM207.568 107H206.49V102.281H202.123V107H201.052V96.8047H202.123V101.367H206.49V96.8047H207.568V107ZM216.302 107H209.787V96.8047H216.302V97.7188H210.857V101.367H214.873V102.281H210.857V106.086H216.302V107ZM225.513 107H224.154L221.177 102.633H219.591V107H218.521V96.8047H221.88C223 96.8047 223.867 97.0495 224.482 97.5391C225.097 98.0234 225.404 98.75 225.404 99.7188C225.404 100.146 225.328 100.531 225.177 100.875C225.026 101.214 224.82 101.503 224.56 101.742C224.3 101.982 223.987 102.174 223.623 102.32C223.263 102.466 222.87 102.555 222.443 102.586L225.513 107ZM224.294 99.7188C224.294 99.026 224.078 98.5208 223.646 98.2031C223.219 97.8802 222.63 97.7188 221.88 97.7188H219.591V101.719H221.88C222.63 101.719 223.219 101.562 223.646 101.25C224.078 100.932 224.294 100.422 224.294 99.7188Z" fill="#BCD8DB"/>
<path d="M264.701 99.4019L269.201 102L264.701 104.598V99.4019Z" stroke="#78B0B5"/>
<line x1="242.201" y1="102" x2="265.201" y2="102" stroke="#78B0B5"/>
<path d="M271.146 102.015L285.201 78.5H351.426L365.474 102.015L351.423 125.5H285.197L271.146 102.015Z" stroke="#78B0B5"/>
<path d="M303.388 104.344C303.388 104.771 303.3 105.159 303.123 105.508C302.945 105.852 302.708 106.148 302.412 106.398C302.115 106.648 301.774 106.841 301.388 106.977C301.003 107.112 300.602 107.18 300.185 107.18C299.612 107.18 299.086 107.073 298.607 106.859C298.128 106.646 297.748 106.331 297.466 105.914V107H296.56V103.898H297.466C297.466 104.247 297.547 104.568 297.708 104.859C297.87 105.146 298.076 105.393 298.326 105.602C298.576 105.81 298.862 105.974 299.185 106.094C299.513 106.208 299.847 106.266 300.185 106.266C300.487 106.266 300.766 106.224 301.021 106.141C301.276 106.052 301.5 105.93 301.693 105.773C301.886 105.612 302.037 105.417 302.146 105.188C302.261 104.958 302.318 104.698 302.318 104.406C302.318 104.078 302.245 103.797 302.099 103.562C301.958 103.328 301.766 103.128 301.521 102.961C301.281 102.794 301.011 102.654 300.708 102.539C300.406 102.419 300.099 102.302 299.787 102.188C299.417 102.057 299.047 101.922 298.677 101.781C298.307 101.635 297.977 101.453 297.685 101.234C297.393 101.016 297.156 100.75 296.974 100.438C296.792 100.12 296.701 99.7266 296.701 99.2578C296.701 98.8411 296.789 98.4714 296.966 98.1484C297.143 97.8203 297.375 97.5443 297.662 97.3203C297.948 97.0964 298.281 96.9271 298.662 96.8125C299.042 96.6927 299.432 96.6328 299.833 96.6328C300.328 96.6328 300.784 96.7344 301.201 96.9375C301.623 97.1406 301.951 97.4505 302.185 97.8672V96.8047H303.13V99.7188H302.185C302.185 99.4115 302.12 99.125 301.99 98.8594C301.865 98.5885 301.693 98.3594 301.474 98.1719C301.255 97.9792 301.005 97.8281 300.724 97.7188C300.443 97.6042 300.146 97.5469 299.833 97.5469C299.557 97.5469 299.294 97.5781 299.044 97.6406C298.794 97.7031 298.576 97.8047 298.388 97.9453C298.201 98.0807 298.05 98.2578 297.935 98.4766C297.826 98.6953 297.771 98.9557 297.771 99.2578C297.771 99.5234 297.836 99.75 297.966 99.9375C298.102 100.125 298.281 100.292 298.505 100.438C298.729 100.578 298.987 100.708 299.279 100.828C299.576 100.943 299.878 101.06 300.185 101.18C300.57 101.315 300.953 101.466 301.333 101.633C301.714 101.799 302.055 102 302.357 102.234C302.659 102.469 302.906 102.758 303.099 103.102C303.292 103.44 303.388 103.854 303.388 104.344ZM312.38 100.25H311.466V97.7188H309.279V106.086H310.919V107H306.552V106.086H308.201V97.7188H306.013V100.25H305.099V96.8047H312.38V100.25ZM321.388 101.914C321.388 102.596 321.318 103.255 321.177 103.891C321.037 104.526 320.813 105.086 320.505 105.57C320.198 106.055 319.794 106.445 319.294 106.742C318.8 107.034 318.195 107.18 317.482 107.18C316.768 107.18 316.162 107.034 315.662 106.742C315.167 106.445 314.763 106.055 314.451 105.57C314.143 105.086 313.922 104.526 313.787 103.891C313.646 103.255 313.576 102.596 313.576 101.914C313.576 101.232 313.646 100.573 313.787 99.9375C313.922 99.3021 314.146 98.7396 314.458 98.25C314.776 97.7604 315.182 97.3698 315.677 97.0781C316.177 96.7812 316.779 96.6328 317.482 96.6328C318.185 96.6328 318.784 96.7812 319.279 97.0781C319.779 97.3698 320.182 97.7604 320.49 98.25C320.797 98.7396 321.024 99.3021 321.169 99.9375C321.315 100.573 321.388 101.232 321.388 101.914ZM320.31 101.914C320.31 101.242 320.245 100.638 320.115 100.102C319.99 99.5599 319.807 99.099 319.568 98.7188C319.328 98.3385 319.031 98.0495 318.677 97.8516C318.328 97.6484 317.93 97.5469 317.482 97.5469C316.925 97.5469 316.464 97.6771 316.099 97.9375C315.74 98.1979 315.451 98.5391 315.232 98.9609C315.013 99.3828 314.86 99.8516 314.771 100.367C314.688 100.883 314.646 101.398 314.646 101.914C314.646 102.424 314.688 102.94 314.771 103.461C314.86 103.977 315.013 104.443 315.232 104.859C315.451 105.271 315.74 105.609 316.099 105.875C316.464 106.135 316.925 106.266 317.482 106.266C318.034 106.266 318.492 106.135 318.857 105.875C319.222 105.609 319.513 105.271 319.732 104.859C319.951 104.443 320.102 103.977 320.185 103.461C320.268 102.94 320.31 102.424 320.31 101.914ZM329.943 107H328.583L325.607 102.633H324.021V107H322.951V96.8047H326.31C327.43 96.8047 328.297 97.0495 328.912 97.5391C329.526 98.0234 329.833 98.75 329.833 99.7188C329.833 100.146 329.758 100.531 329.607 100.875C329.456 101.214 329.25 101.503 328.99 101.742C328.729 101.982 328.417 102.174 328.052 102.32C327.693 102.466 327.3 102.555 326.873 102.586L329.943 107ZM328.724 99.7188C328.724 99.026 328.508 98.5208 328.076 98.2031C327.649 97.8802 327.06 97.7188 326.31 97.7188H324.021V101.719H326.31C327.06 101.719 327.649 101.562 328.076 101.25C328.508 100.932 328.724 100.422 328.724 99.7188ZM338.201 107H331.685V96.8047H338.201V97.7188H332.755V101.367H336.771V102.281H332.755V106.086H338.201V107Z" fill="#BCD8DB"/>
<path d="M388.701 99.4019L393.201 102L388.701 104.598V99.4019Z" stroke="#78B0B5"/>
<line x1="365.201" y1="102" x2="389.201" y2="102" stroke="#78B0B5"/>
<path d="M394.783 102.015L408.838 78.5H475.063L489.111 102.015L475.06 125.5H408.834L394.783 102.015Z" stroke="#78B0B5"/>
<path d="M432.005 96.8047L428.599 107H427.146L423.771 96.8047H424.904L427.88 105.914L430.841 96.8047H432.005ZM438.787 107H434.419V106.086H436.068V97.7188H434.419V96.8047H438.787V97.7188H437.146V106.086H438.787V107ZM448.599 107H442.083V96.8047H448.599V97.7188H443.154V101.367H447.169V102.281H443.154V106.086H448.599V107ZM458.208 96.8047L456.373 107H455.107L454.068 102.023L453.013 107H451.763L449.943 96.8047H451.076L452.513 105.195L453.537 99.7188H454.591L455.623 105.195L457.06 96.8047H458.208Z" fill="#BCD8DB"/>
<path d="M441.158 78V24M371.717 24H441.655" stroke="#78B0B5"/>
<path d="M371.701 26.5981L367.201 24L371.701 21.4019V26.5981Z" stroke="#78B0B5"/>
<path d="M271.146 24.0154L285.201 0.5H351.426L365.474 24.0153L351.423 47.5H285.197L271.146 24.0154Z" stroke="#78B0B5"/>
<path d="M300.271 29H299.123L298.162 26.0859H294.13L293.185 29H292.037L295.427 18.8047H296.88L300.271 29ZM297.857 25.1406L296.146 19.8828L294.435 25.1406H297.857ZM308.576 26.3281C308.31 27.2031 307.875 27.8984 307.271 28.4141C306.667 28.9245 305.906 29.1797 304.99 29.1797C304.276 29.1797 303.672 29.0339 303.177 28.7422C302.682 28.4453 302.276 28.0547 301.958 27.5703C301.646 27.0859 301.419 26.526 301.279 25.8906C301.143 25.2552 301.076 24.5964 301.076 23.9141C301.076 23.2318 301.143 22.5729 301.279 21.9375C301.419 21.3021 301.646 20.7396 301.958 20.25C302.276 19.7604 302.682 19.3698 303.177 19.0781C303.672 18.7812 304.276 18.6328 304.99 18.6328C305.62 18.6328 306.159 18.7448 306.607 18.9688C307.055 19.1927 307.386 19.5339 307.599 19.9922V18.8047H308.513V22.1484H307.599C307.599 21.7891 307.529 21.4505 307.388 21.1328C307.253 20.8099 307.068 20.5312 306.833 20.2969C306.599 20.0625 306.32 19.8802 305.998 19.75C305.68 19.6146 305.344 19.5469 304.99 19.5469C304.438 19.5469 303.979 19.6771 303.615 19.9375C303.255 20.1979 302.966 20.5391 302.748 20.9609C302.529 21.3828 302.373 21.8516 302.279 22.3672C302.19 22.8828 302.146 23.3984 302.146 23.9141C302.146 24.4245 302.19 24.9401 302.279 25.4609C302.373 25.9766 302.529 26.4427 302.748 26.8594C302.966 27.2708 303.255 27.6094 303.615 27.875C303.979 28.1354 304.438 28.2656 304.99 28.2656C306.261 28.2656 307.146 27.4974 307.646 25.9609L308.576 26.3281ZM317.248 22.25H316.333V19.7188H314.146V28.0859H315.787V29H311.419V28.0859H313.068V19.7188H310.88V22.25H309.966V18.8047H317.248V22.25ZM324.521 29H320.154V28.0859H321.802V19.7188H320.154V18.8047H324.521V19.7188H322.88V28.0859H324.521V29ZM334.99 23.9141C334.99 24.5964 334.919 25.2552 334.779 25.8906C334.638 26.526 334.414 27.0859 334.107 27.5703C333.8 28.0547 333.396 28.4453 332.896 28.7422C332.401 29.0339 331.797 29.1797 331.083 29.1797C330.37 29.1797 329.763 29.0339 329.263 28.7422C328.768 28.4453 328.365 28.0547 328.052 27.5703C327.745 27.0859 327.524 26.526 327.388 25.8906C327.248 25.2552 327.177 24.5964 327.177 23.9141C327.177 23.2318 327.248 22.5729 327.388 21.9375C327.524 21.3021 327.748 20.7396 328.06 20.25C328.378 19.7604 328.784 19.3698 329.279 19.0781C329.779 18.7812 330.38 18.6328 331.083 18.6328C331.787 18.6328 332.386 18.7812 332.88 19.0781C333.38 19.3698 333.784 19.7604 334.091 20.25C334.399 20.7396 334.625 21.3021 334.771 21.9375C334.917 22.5729 334.99 23.2318 334.99 23.9141ZM333.912 23.9141C333.912 23.2422 333.847 22.638 333.716 22.1016C333.591 21.5599 333.409 21.099 333.169 20.7188C332.93 20.3385 332.633 20.0495 332.279 19.8516C331.93 19.6484 331.531 19.5469 331.083 19.5469C330.526 19.5469 330.065 19.6771 329.701 19.9375C329.341 20.1979 329.052 20.5391 328.833 20.9609C328.615 21.3828 328.461 21.8516 328.373 22.3672C328.289 22.8828 328.248 23.3984 328.248 23.9141C328.248 24.4245 328.289 24.9401 328.373 25.4609C328.461 25.9766 328.615 26.4427 328.833 26.8594C329.052 27.2708 329.341 27.6094 329.701 27.875C330.065 28.1354 330.526 28.2656 331.083 28.2656C331.636 28.2656 332.094 28.1354 332.458 27.875C332.823 27.6094 333.115 27.2708 333.333 26.8594C333.552 26.4427 333.703 25.9766 333.787 25.4609C333.87 24.9401 333.912 24.4245 333.912 23.9141ZM343.068 29H341.74L337.623 20.375V29H336.552V18.8047H338.06L341.99 27.0312V18.8047H343.068V29Z" fill="#BCD8DB"/>
<path d="M183.028 72.5276V24M271.061 24H182.531" stroke="#78B0B5"/>
<path d="M185.598 72.5L183 77L180.402 72.5H185.598Z" stroke="#78B0B5"/>
</svg>