<svg xmlns="http://www.w3.org/2000/svg" fill="none" viewBox="0 0 416 481">
  <defs/>
  <path fill="#304D53" d="M142.5 44.9121h1v8h-1v-8z"/>
  <path fill="#304D53" d="M139 49.4121v-1h8v1h-8zM206.5 12.9121h1v8h-1v-8z"/>
  <path fill="#304D53" d="M203 17.4121v-1h8v1h-8zM206.5 44.9121h1v8h-1v-8z"/>
  <path fill="#304D53" d="M203 49.4121v-1h8v1h-8zM174.5 44.9121h1v8h-1v-8z"/>
  <path fill="#304D53" d="M171 49.4121v-1h8v1h-8zM78.5 108.912h1v8h-1v-8z"/>
  <path fill="#304D53" d="M75 113.412v-1h8v1h-8zM46.5 108.912h1v8h-1v-8z"/>
  <path fill="#304D53" d="M43 113.412v-1h8v1h-8zM110.5 76.9121h1v8h-1v-8z"/>
  <path fill="#304D53" d="M107 81.4121v-1h8v1h-8zM142.5 76.9121h1v8h-1v-8z"/>
  <path fill="#304D53" d="M139 81.4121v-1h8v1h-8zM142.5 108.912h1v8h-1v-8z"/>
  <path fill="#304D53" d="M139 113.412v-1h8v1h-8zM110.5 108.912h1v8h-1v-8z"/>
  <path fill="#304D53" d="M107 113.412v-1h8v1h-8zM174.5 76.9121h1v8h-1v-8z"/>
  <path fill="#304D53" d="M171 81.4121v-1h8v1h-8zM206.5 76.9121h1v8h-1v-8z"/>
  <path fill="#304D53" d="M203 81.4121v-1h8v1h-8zM206.5 108.912h1v8h-1v-8z"/>
  <path fill="#304D53" d="M203 113.412v-1h8v1h-8zM174.5 108.912h1v8h-1v-8z"/>
  <path fill="#304D53" d="M171 113.412v-1h8v1h-8zM14.5 140.912h1v8h-1v-8z"/>
  <path fill="#304D53" d="M11 145.412v-1h8v1h-8zM14.5 172.912h1v8h-1v-8z"/>
  <path fill="#304D53" d="M11 177.412v-1h8v1h-8zM46.5 140.912h1v8h-1v-8z"/>
  <path fill="#304D53" d="M43 145.412v-1h8v1h-8zM78.5 140.912h1v8h-1v-8z"/>
  <path fill="#304D53" d="M75 145.412v-1h8v1h-8zM78.5 172.912h1v8h-1v-8z"/>
  <path fill="#304D53" d="M75 177.412v-1h8v1h-8zM46.5 172.912h1v8h-1v-8z"/>
  <path fill="#304D53" d="M43 177.412v-1h8v1h-8zM110.5 140.912h1v8h-1v-8z"/>
  <path fill="#304D53" d="M107 145.412v-1h8v1h-8zM142.5 140.912h1v8h-1v-8z"/>
  <path fill="#304D53" d="M139 145.412v-1h8v1h-8zM142.5 172.912h1v8h-1v-8z"/>
  <path fill="#304D53" d="M139 177.412v-1h8v1h-8zM110.5 172.912h1v8h-1v-8z"/>
  <path fill="#304D53" d="M107 177.412v-1h8v1h-8zM174.5 140.912h1v8h-1v-8z"/>
  <path fill="#304D53" d="M171 145.412v-1h8v1h-8zM206.5 140.912h1v8h-1v-8z"/>
  <path fill="#304D53" d="M203 145.412v-1h8v1h-8zM206.5 172.912h1v8h-1v-8z"/>
  <path fill="#304D53" d="M203 177.412v-1h8v1h-8zM174.5 172.912h1v8h-1v-8z"/>
  <path fill="#304D53" d="M171 177.412v-1h8v1h-8zM14.5 204.912h1v8h-1v-8z"/>
  <path fill="#304D53" d="M11 209.412v-1h8v1h-8zM14.5 236.912h1v8h-1v-8z"/>
  <path fill="#304D53" d="M11 241.412v-1h8v1h-8zM46.5 204.912h1v8h-1v-8z"/>
  <path fill="#304D53" d="M43 209.412v-1h8v1h-8zM78.5 204.912h1v8h-1v-8z"/>
  <path fill="#304D53" d="M75 209.412v-1h8v1h-8zM78.5 236.912h1v8h-1v-8z"/>
  <path fill="#304D53" d="M75 241.412v-1h8v1h-8zM46.5 236.912h1v8h-1v-8z"/>
  <path fill="#304D53" d="M43 241.412v-1h8v1h-8zM110.5 204.912h1v8h-1v-8z"/>
  <path fill="#304D53" d="M107 209.412v-1h8v1h-8zM142.5 204.912h1v8h-1v-8z"/>
  <path fill="#304D53" d="M139 209.412v-1h8v1h-8zM142.5 236.912h1v8h-1v-8z"/>
  <path fill="#304D53" d="M139 241.412v-1h8v1h-8zM110.5 236.912h1v8h-1v-8z"/>
  <path fill="#304D53" d="M107 241.412v-1h8v1h-8zM174.5 204.912h1v8h-1v-8z"/>
  <path fill="#304D53" d="M171 209.412v-1h8v1h-8zM206.5 204.912h1v8h-1v-8z"/>
  <path fill="#304D53" d="M203 209.412v-1h8v1h-8zM206.5 236.912h1v8h-1v-8z"/>
  <path fill="#304D53" d="M203 241.412v-1h8v1h-8zM174.5 236.912h1v8h-1v-8z"/>
  <path fill="#304D53" d="M171 241.412v-1h8v1h-8zM270.5 44.9121h1v8h-1v-8z"/>
  <path fill="#304D53" d="M267 49.4121v-1h8v1h-8zM238.5 44.9121h1v8h-1v-8z"/>
  <path fill="#304D53" d="M235 49.4121v-1h8v1h-8zM238.5 76.9121h1v8h-1v-8z"/>
  <path fill="#304D53" d="M235 81.4121v-1h8v1h-8zM270.5 76.9121h1v8h-1v-8z"/>
  <path fill="#304D53" d="M267 81.4121v-1h8v1h-8zM270.5 108.912h1v8h-1v-8z"/>
  <path fill="#304D53" d="M267 113.412v-1h8v1h-8zM238.5 108.912h1v8h-1v-8z"/>
  <path fill="#304D53" d="M235 113.412v-1h8v1h-8zM302.5 76.9121h1v8h-1v-8z"/>
  <path fill="#304D53" d="M299 81.4121v-1h8v1h-8zM334.5 76.9121h1v8h-1v-8z"/>
  <path fill="#304D53" d="M331 81.4121v-1h8v1h-8zM334.5 108.912h1v8h-1v-8z"/>
  <path fill="#304D53" d="M331 113.412v-1h8v1h-8zM302.5 108.912h1v8h-1v-8z"/>
  <path fill="#304D53" d="M299 113.412v-1h8v1h-8zM366.5 108.912h1v8h-1v-8z"/>
  <path fill="#304D53" d="M363 113.412v-1h8v1h-8zM238.5 140.912h1v8h-1v-8z"/>
  <path fill="#304D53" d="M235 145.412v-1h8v1h-8zM270.5 140.912h1v8h-1v-8z"/>
  <path fill="#304D53" d="M267 145.412v-1h8v1h-8zM270.5 172.912h1v8h-1v-8z"/>
  <path fill="#304D53" d="M267 177.412v-1h8v1h-8zM238.5 172.912h1v8h-1v-8z"/>
  <path fill="#304D53" d="M235 177.412v-1h8v1h-8zM302.5 140.912h1v8h-1v-8z"/>
  <path fill="#304D53" d="M299 145.412v-1h8v1h-8zM334.5 140.912h1v8h-1v-8z"/>
  <path fill="#304D53" d="M331 145.412v-1h8v1h-8zM334.5 172.912h1v8h-1v-8z"/>
  <path fill="#304D53" d="M331 177.412v-1h8v1h-8zM302.5 172.912h1v8h-1v-8z"/>
  <path fill="#304D53" d="M299 177.412v-1h8v1h-8zM366.5 140.912h1v8h-1v-8z"/>
  <path fill="#304D53" d="M363 145.412v-1h8v1h-8zM398.5 140.912h1v8h-1v-8z"/>
  <path fill="#304D53" d="M395 145.412v-1h8v1h-8zM398.5 172.912h1v8h-1v-8z"/>
  <path fill="#304D53" d="M395 177.412v-1h8v1h-8zM366.5 172.912h1v8h-1v-8z"/>
  <path fill="#304D53" d="M363 177.412v-1h8v1h-8zM238.5 204.912h1v8h-1v-8z"/>
  <path fill="#304D53" d="M235 209.412v-1h8v1h-8zM270.5 204.912h1v8h-1v-8z"/>
  <path fill="#304D53" d="M267 209.412v-1h8v1h-8zM270.5 236.912h1v8h-1v-8z"/>
  <path fill="#304D53" d="M267 241.412v-1h8v1h-8zM238.5 236.912h1v8h-1v-8z"/>
  <path fill="#304D53" d="M235 241.412v-1h8v1h-8zM302.5 204.912h1v8h-1v-8z"/>
  <path fill="#304D53" d="M299 209.412v-1h8v1h-8zM334.5 204.912h1v8h-1v-8z"/>
  <path fill="#304D53" d="M331 209.412v-1h8v1h-8zM334.5 236.912h1v8h-1v-8z"/>
  <path fill="#304D53" d="M331 241.412v-1h8v1h-8zM302.5 236.912h1v8h-1v-8z"/>
  <path fill="#304D53" d="M299 241.412v-1h8v1h-8zM366.5 204.912h1v8h-1v-8z"/>
  <path fill="#304D53" d="M363 209.412v-1h8v1h-8zM398.5 204.912h1v8h-1v-8z"/>
  <path fill="#304D53" d="M395 209.412v-1h8v1h-8zM398.5 236.912h1v8h-1v-8z"/>
  <path fill="#304D53" d="M395 241.412v-1h8v1h-8zM366.5 236.912h1v8h-1v-8z"/>
  <path fill="#304D53" d="M363 241.412v-1h8v1h-8zM14.5 268.912h1v8h-1v-8z"/>
  <path fill="#304D53" d="M11 273.412v-1h8v1h-8zM14.5 300.912h1v8h-1v-8z"/>
  <path fill="#304D53" d="M11 305.412v-1h8v1h-8zM46.5 268.912h1v8h-1v-8z"/>
  <path fill="#304D53" d="M43 273.412v-1h8v1h-8zM78.5 268.912h1v8h-1v-8z"/>
  <path fill="#304D53" d="M75 273.412v-1h8v1h-8zM78.5 300.912h1v8h-1v-8z"/>
  <path fill="#304D53" d="M75 305.412v-1h8v1h-8zM46.5 300.912h1v8h-1v-8z"/>
  <path fill="#304D53" d="M43 305.412v-1h8v1h-8zM110.5 268.912h1v8h-1v-8z"/>
  <path fill="#304D53" d="M107 273.412v-1h8v1h-8zM142.5 268.912h1v8h-1v-8z"/>
  <path fill="#304D53" d="M139 273.412v-1h8v1h-8zM142.5 300.912h1v8h-1v-8z"/>
  <path fill="#304D53" d="M139 305.412v-1h8v1h-8zM110.5 300.912h1v8h-1v-8z"/>
  <path fill="#304D53" d="M107 305.412v-1h8v1h-8zM174.5 268.912h1v8h-1v-8z"/>
  <path fill="#304D53" d="M171 273.412v-1h8v1h-8zM206.5 268.912h1v8h-1v-8z"/>
  <path fill="#304D53" d="M203 273.412v-1h8v1h-8zM206.5 300.912h1v8h-1v-8z"/>
  <path fill="#304D53" d="M203 305.412v-1h8v1h-8zM174.5 300.912h1v8h-1v-8z"/>
  <path fill="#304D53" d="M171 305.412v-1h8v1h-8zM14.5 332.912h1v8h-1v-8z"/>
  <path fill="#304D53" d="M11 337.412v-1h8v1h-8zM46.5 332.912h1v8h-1v-8z"/>
  <path fill="#304D53" d="M43 337.412v-1h8v1h-8zM78.5 332.912h1v8h-1v-8z"/>
  <path fill="#304D53" d="M75 337.412v-1h8v1h-8zM78.5 364.912h1v8h-1v-8z"/>
  <path fill="#304D53" d="M75 369.412v-1h8v1h-8zM46.5 364.912h1v8h-1v-8z"/>
  <path fill="#304D53" d="M43 369.412v-1h8v1h-8zM110.5 332.912h1v8h-1v-8z"/>
  <path fill="#304D53" d="M107 337.412v-1h8v1h-8zM142.5 332.912h1v8h-1v-8z"/>
  <path fill="#304D53" d="M139 337.412v-1h8v1h-8zM142.5 364.912h1v8h-1v-8z"/>
  <path fill="#304D53" d="M139 369.412v-1h8v1h-8zM110.5 364.912h1v8h-1v-8z"/>
  <path fill="#304D53" d="M107 369.412v-1h8v1h-8zM174.5 332.912h1v8h-1v-8z"/>
  <path fill="#304D53" d="M171 337.412v-1h8v1h-8zM206.5 332.912h1v8h-1v-8z"/>
  <path fill="#304D53" d="M203 337.412v-1h8v1h-8zM206.5 364.912h1v8h-1v-8z"/>
  <path fill="#304D53" d="M203 369.412v-1h8v1h-8zM174.5 364.912h1v8h-1v-8z"/>
  <path fill="#304D53" d="M171 369.412v-1h8v1h-8zM78.5 396.912h1v8h-1v-8z"/>
  <path fill="#304D53" d="M75 401.412v-1h8v1h-8zM110.5 396.912h1v8h-1v-8z"/>
  <path fill="#304D53" d="M107 401.412v-1h8v1h-8zM142.5 396.912h1v8h-1v-8z"/>
  <path fill="#304D53" d="M139 401.412v-1h8v1h-8zM142.5 428.912h1v8h-1v-8z"/>
  <path fill="#304D53" d="M139 433.412v-1h8v1h-8zM174.5 396.912h1v8h-1v-8z"/>
  <path fill="#304D53" d="M171 401.412v-1h8v1h-8zM206.5 396.912h1v8h-1v-8z"/>
  <path fill="#304D53" d="M203 401.412v-1h8v1h-8zM206.5 428.912h1v8h-1v-8z"/>
  <path fill="#304D53" d="M203 433.412v-1h8v1h-8zM174.5 428.912h1v8h-1v-8z"/>
  <path fill="#304D53" d="M171 433.412v-1h8v1h-8zM206.5 460.912h1v8h-1v-8z"/>
  <path fill="#304D53" d="M203 465.412v-1h8v1h-8zM238.5 268.912h1v8h-1v-8z"/>
  <path fill="#304D53" d="M235 273.412v-1h8v1h-8zM270.5 268.912h1v8h-1v-8z"/>
  <path fill="#304D53" d="M267 273.412v-1h8v1h-8zM270.5 300.912h1v8h-1v-8z"/>
  <path fill="#304D53" d="M267 305.412v-1h8v1h-8zM238.5 300.912h1v8h-1v-8z"/>
  <path fill="#304D53" d="M235 305.412v-1h8v1h-8zM302.5 268.912h1v8h-1v-8z"/>
  <path fill="#304D53" d="M299 273.412v-1h8v1h-8zM334.5 268.912h1v8h-1v-8z"/>
  <path fill="#304D53" d="M331 273.412v-1h8v1h-8zM334.5 300.912h1v8h-1v-8z"/>
  <path fill="#304D53" d="M331 305.412v-1h8v1h-8zM302.5 300.912h1v8h-1v-8z"/>
  <path fill="#304D53" d="M299 305.412v-1h8v1h-8zM366.5 268.912h1v8h-1v-8z"/>
  <path fill="#304D53" d="M363 273.412v-1h8v1h-8zM398.5 268.912h1v8h-1v-8z"/>
  <path fill="#304D53" d="M395 273.412v-1h8v1h-8zM398.5 300.912h1v8h-1v-8z"/>
  <path fill="#304D53" d="M395 305.412v-1h8v1h-8zM366.5 300.912h1v8h-1v-8z"/>
  <path fill="#304D53" d="M363 305.412v-1h8v1h-8zM238.5 332.912h1v8h-1v-8z"/>
  <path fill="#304D53" d="M235 337.412v-1h8v1h-8zM270.5 332.912h1v8h-1v-8z"/>
  <path fill="#304D53" d="M267 337.412v-1h8v1h-8zM270.5 364.912h1v8h-1v-8z"/>
  <path fill="#304D53" d="M267 369.412v-1h8v1h-8zM238.5 364.912h1v8h-1v-8z"/>
  <path fill="#304D53" d="M235 369.412v-1h8v1h-8zM302.5 332.912h1v8h-1v-8z"/>
  <path fill="#304D53" d="M299 337.412v-1h8v1h-8zM334.5 332.912h1v8h-1v-8z"/>
  <path fill="#304D53" d="M331 337.412v-1h8v1h-8zM334.5 364.912h1v8h-1v-8z"/>
  <path fill="#304D53" d="M331 369.412v-1h8v1h-8zM302.5 364.912h1v8h-1v-8z"/>
  <path fill="#304D53" d="M299 369.412v-1h8v1h-8zM366.5 332.912h1v8h-1v-8z"/>
  <path fill="#304D53" d="M363 337.412v-1h8v1h-8zM398.5 332.912h1v8h-1v-8z"/>
  <path fill="#304D53" d="M395 337.412v-1h8v1h-8zM366.5 364.912h1v8h-1v-8z"/>
  <path fill="#304D53" d="M363 369.412v-1h8v1h-8zM238.5 396.912h1v8h-1v-8z"/>
  <path fill="#304D53" d="M235 401.412v-1h8v1h-8zM270.5 396.912h1v8h-1v-8z"/>
  <path fill="#304D53" d="M267 401.412v-1h8v1h-8zM270.5 428.912h1v8h-1v-8z"/>
  <path fill="#304D53" d="M267 433.412v-1h8v1h-8zM238.5 428.912h1v8h-1v-8z"/>
  <path fill="#304D53" d="M235 433.412v-1h8v1h-8zM302.5 396.912h1v8h-1v-8z"/>
  <path fill="#304D53" d="M299 401.412v-1h8v1h-8zM334.5 396.912h1v8h-1v-8z"/>
  <path fill="#304D53" d="M331 401.412v-1h8v1h-8z"/>
  <path fill="#78B0B5" fill-rule="evenodd" d="M208 2.06681L1.15381 121.489v238.846L208 479.757l206.846-119.422V121.489L208 2.06681zM415.846 120.912L208 .912109.153809 120.912v240L208 480.912l207.846-120v-240z" clip-rule="evenodd"/>
</svg>