<svg xmlns="http://www.w3.org/2000/svg" fill="none" viewBox="0 0 48 48">
  <defs/>
  <path fill="#526065" d="M16.1063 37.5188c-2.6625-3.1313-4.3688-7.7625-4.4813-12.9563v-1.125c.1125-5.1938 1.8375-9.825 4.4813-12.9562 3.45-4.46255 8.5125-6.4688 14.2312-6.4688 3.525 0 6.8438.24375 9.6563 2.11875C35.775 2.325 30.2062.01875 24.0938 0H24C10.7438 0 0 10.7438 0 24c0 12.8625 10.125 23.3812 22.8563 23.9812C23.2313 48 23.625 48 24 48c6.15 0 11.7563-2.3063 15.9938-6.1125-2.8125 1.875-5.9438 1.95-9.4688 1.95-5.7.0188-10.9875-1.8375-14.4187-6.3187z"/>
  <path fill="#526065" fill-rule="evenodd" d="M21.3198 5.74768c-1.9876 1.21836-3.7534 2.82656-5.2135 4.73362 1.5818-1.87929 3.5048-3.21262 5.6213-3.81025.8189-.2312 1.6667-.3523 2.5349-.3523 6.9937 0 12.6562 7.91245 12.6562 17.69995 0 9.7875-5.6625 17.7001-12.6562 17.7001-.8564 0-1.6915-.1193-2.4983-.346-2.1254-.5974-4.0542-1.941-5.6579-3.8165 1.4741 1.9067 3.2528 3.519 5.2514 4.7404 2.6789 1.6372 5.7528 2.5721 9.0173 2.5721 3.5062 0 6.8063-1.0688 9.6188-2.9438C44.9062 37.5 48 31.1063 48 24c0-7.1062-3.0938-13.5-8.0062-17.8875-2.8125-1.875-6.0938-2.94375-9.6188-2.94375-3.2851 0-6.3722.93428-9.0552 2.57893zm18.0606 1.15794c-2.6439-1.74718-5.7126-2.73687-9.0054-2.73687-2.0961 0-4.1107.40446-5.9821 1.15082 3.8487.04863 7.2373 2.24647 9.6337 5.59713 2.4247 3.39 3.8921 8.024 3.8921 13.102 0 5.0781-1.4674 9.7121-3.8921 13.1021-2.3911 3.3432-5.77 5.5387-9.608 5.5968 1.8668.7458 3.8728 1.1512 5.9564 1.1512 3.274 0 6.3604-.9896 9.0037-2.7358C44.0595 36.8903 47 30.7832 47 24c0-6.7845-2.9415-12.8903-7.6196-17.09438z" clip-rule="evenodd"/>
</svg>
