<svg width="72" height="80" fill="none" xmlns="http://www.w3.org/2000/svg">
  <g filter="url(#filter0_d)">
    <path d="M5.32309 22.2887L36 4.57735 66.6769 22.2887v35.4226L36 75.4226 5.32309 57.7113V22.2887z" stroke="#78B0B5"/>
  </g>
  <path d="M36.5448 58c-.4821 0-.9609-.1265-1.3835-.3698l-4.404-2.6073c-.6577-.3679-.3368-.498-.1198-.5729.877-.3071 1.055-.3765 1.9911-.9081.0984-.0561.2272-.0363.3279.0231l3.3833 2.0077c.1221.066.2955.066.4088 0l13.1916-7.6145c.1222-.0694.2014-.2114.2014-.3567V32.3791c0-.1519-.0792-.2872-.204-.3632L36.7512 24.408c-.1222-.0726-.284-.0726-.4061 0l-13.1838 7.6079c-.1278.0727-.209.2146-.209.3599v15.2224c0 .1453.0793.284.2047.3534l3.6125 2.0869c1.9614.9807 3.16-.1751 3.16-1.3374V33.6768c0-.2146.1684-.3797.3831-.3797h1.6708c.208 0 .3797.1651.3797.3797v15.0309c0 2.6152-1.4265 4.1177-3.9063 4.1177-.7628 0-1.3637 0-3.0412-.8255l-3.4605-1.9945c-.8552-.4953-1.3836-1.4198-1.3836-2.4072V32.3758c0-.9906.5284-1.9151 1.3836-2.4038l13.2048-7.6179c.8355-.4721 1.945-.4721 2.7738 0l13.1883 7.6212c.8519.492 1.3836 1.4132 1.3836 2.4038v15.2224c0 .9874-.5317 1.9086-1.3836 2.4039l-13.1883 7.6178c-.4227.2444-.9015.3699-1.3902.3699" fill="#78B0B5"/>
  <path d="M33.6372 42.6388c0-.2114.1704-.3798.3821-.3798h1.7038c.1882 0 .3467.1371.3764.323.2576 1.7362 1.0237 2.6119 4.5139 2.6119 2.7803 0 3.9625-.6281 3.9625-2.1024 0-.8487-.3368-1.4793-4.6559-1.902-3.6124-.3566-5.8446-1.1524-5.8446-4.0417 0-2.6615 2.2454-4.2464 6.0064-4.2464 4.2233 0 6.3168 1.4661 6.581 4.6162.0099.109-.0298.2147-.1024.2939-.0726.0759-.175.1222-.2807.1222H44.566c-.1783 0-.3335-.1255-.3699-.2972-.4127-1.826-1.4099-2.4105-4.1209-2.4105-3.0346 0-3.3879 1.0567-3.3879 1.8491 0 .9609.4161 1.2416 4.5106 1.7831 4.0549.5383 5.98 1.2978 5.98 4.1474 0 2.8728-2.3973 4.5205-6.5777 4.5205-5.7528-.0155-6.963-2.6651-6.963-4.8873z" fill="#78B0B5"/>
  <defs>
    <filter id="filter0_d" x=".822998" y="0" width="70.3538" height="80" filterUnits="userSpaceOnUse" color-interpolation-filters="sRGB">
      <feFlood flood-opacity="0" result="BackgroundImageFix"/>
      <feColorMatrix in="SourceAlpha" values="0 0 0 0 0 0 0 0 0 0 0 0 0 0 0 0 0 0 127 0"/>
      <feOffset/>
      <feGaussianBlur stdDeviation="2"/>
      <feColorMatrix values="0 0 0 0 0.737255 0 0 0 0 0.847059 0 0 0 0 0.858824 0 0 0 1 0"/>
      <feBlend in2="BackgroundImageFix" result="effect1_dropShadow"/>
      <feBlend in="SourceGraphic" in2="effect1_dropShadow" result="shape"/>
    </filter>
  </defs>
</svg>
