<svg xmlns="http://www.w3.org/2000/svg" fill="none" viewBox="0 0 33 33">
  <defs/>
  <path fill="#78B0B5" d="M29.0515 3.13796H25.617c-.3774 0-.6988.32144-.6988.69879V5.8388c0 .31795-.007.63241 0 .95036 0 .02097-.0035.04193 0 .0594.007.06639-1.464 2.40036.0594-.22012l.1572-.15723c.0734-.02096.1467-.03843.2236-.0594-.0035-.00349-.014 0-.0175 0-.0803-.01747-.1817 0-.2655 0h-2.8476c-.0314 0-.0629-.00349-.0943 0 .1083-.00698.4751.18518.4367.43675.0315-.22711 0-.48217 0-.70928V3.83675c0-.37735-.3214-.69879-.6988-.69879H11.2462c-.3773 0-.6988.32144-.6988.69879V5.8388c0 .31795-.007.63241 0 .95036 0 .02097-.0035.04193 0 .0594.0105.06639-1.58623 2.45277.0629-.22012.0175-.02446.0385-.04892.0559-.07337.1118-.04892.2236-.09434.3355-.14326h-.0175c-.0839-.01397-.1817 0-.2656 0H7.87105c-.03145 0-.06289-.00349-.09434 0 .12928-.01048.45422.18868.41928.43675.03144-.22711 0-.48217 0-.70928V3.83675c0-.37735-.32145-.69879-.6988-.69879H5.36587c-.82458 0-1.72603-.08386-2.51217.20964C1.41418 3.88567.442855 5.23434.432373 6.77868V28.0395c0 .3948.006988.7757.090844 1.167.153735.7233.566023 1.4186 1.121563 1.9077.60446.5276 1.32771.8351 2.12783.912.22711.0209.45772.0139.68832.0139H28.8699c.6638 0 1.3032-.1188 1.8972-.4297 1.1809-.622 1.9112-1.8973 1.9182-3.2215v-.6533-3.6967-5.5624-5.8035-4.42685c0-.85952.0978-1.84132-.1992-2.66241-.5311-1.4465-1.8832-2.4353-3.4346-2.44578-.3668-.0035-.7162.32494-.6988.69879.0175.38085.3075.6953.6988.6988.0804 0 .1608.00349.2446.01048.0175 0 .0315.00349.0489.00349.0769.01049.0629.00699-.0419-.00698.014-.01049.0978.01747.1188.02096.1607.03145.318.07337.4717.13277.014.00699.0279.01048.0419.01747.0699.02795.0559.02446-.0384-.01747.0105-.00699.0908.04193.1048.04892.0699.03494.1363.06988.2027.1118.0663.03844.1292.08386.1921.12579.1013.06638.0315-.01747-.014-.01398.0245 0 .1014.08386.1223.10133.1153.10132.2167.21313.3145.32843.0873.09783.0175-.01398-.0105-.01398.014 0 .0699.09784.0804.11181.0454.06988.0908.14326.1327.21663.0385.06638.0629.13976.1049.20614.0489.08386-.0594-.16421-.007-.01747.014.04543.0314.08735.0489.13277.0524.15723.0873.31796.1153.47868.0175.10132-.014-.18169-.0035-.02096.0035.04891.007.09783.0105.14325.0035.04891.0035.09783.0035.14675V26.3065c0 .6953.0035 1.3941 0 2.0894v.0105c0 .0664-.0035.1293-.007.1957 0 .0174 0 .1327-.014.1432.014-.0978.0175-.1223.0105-.0664-.0035.0245-.007.0455-.0105.0699-.0279.1537-.0699.3075-.1188.4542-.007.0245-.0279.1188-.0489.1293.0279-.0175.0594-.1258.014-.0384-.042.0838-.0804.1642-.1293.2445-.0384.0664-.0804.1293-.1223.1922-.0105.014-.0175.0245-.0279.0384-.0455.0594-.035.049.0279-.0314 0 .014-.0454.0559-.0559.0699-.1083.1293-.2271.2481-.3529.3564-.0105.0104-.0244.0209-.0349.0279-.0594.0454-.0454.0385.0349-.0244 0 .007-.0629.0454-.0734.0524-.0629.0454-.1257.0838-.1921.1223-.0734.0419-.1468.0803-.2236.1188-.0909.0454-.035.0628.0209-.0035-.0209.0244-.0978.0384-.1293.0489-.1537.0559-.3144.0978-.4751.1258-.1293.0209-.007.0349.0209 0-.0105.0139-.1013.0104-.1188.0104-.0733.007-.1467.007-.2201.007H5.68731c-.56951 0-1.13903.0175-1.70855 0-.04892 0-.09783-.0035-.14675-.007-.01747 0-.1712-.0069-.04891-.0035.11879.0035-.02795-.0069-.04892-.0104-.03843-.007-.07687-.014-.1153-.0245-.07687-.0175-.15024-.0384-.22711-.0594-.03843-.0105-.07337-.0244-.11181-.0384-.02795-.0105-.05939-.021-.08734-.0315-.05591-.0244-.05591-.0244-.0035 0 .07337.0664-.01048-.007-.04193-.0209-.03494-.0175-.06988-.035-.10132-.0524-.06639-.035-.13277-.0734-.19916-.1153-.03144-.021-.06289-.042-.09434-.0629-.01397-.0105-.02445-.0175-.03843-.028-.0594-.0454-.04892-.0349.03145.028-.03844.0035-.16073-.1363-.18868-.1643-.0559-.0524-.10831-.1048-.16072-.1642-.02446-.0279-.04892-.0559-.07338-.0873-.01048-.0105-.02096-.0245-.02795-.035-.04542-.0594-.03843-.0489.02446.035-.0594 0-.22711-.3564-.25157-.4088-.01747-.035-.03494-.0699-.04891-.1048-.07337-.1433.05241.1502-.0035-.0035-.02445-.0734-.05241-.1468-.07686-.2201-.02097-.0734-.04193-.1503-.0594-.2272-.00699-.0314-.01398-.0628-.01747-.0943-.00699-.0314-.01048-.0629-.01398-.0943.01398.1083.01747.1223.00699.0419-.01397-.2411-.01397-.4822-.01397-.7233v-3.3157-5.3458-5.7686-4.70986c0-.68482-.0035-1.36614 0-2.05096v-.05591c0-.08036.01048-.16072.01397-.24108.01048-.16771-.03144.16072 0-.0035.00699-.04542.01747-.09433.02795-.13976.03145-.15373.08037-.30048.13277-.44722.05591-.15374-.06987.13975.0035-.0035.01397-.02795.02795-.0559.03843-.08385.04193-.08037.08735-.16073.13627-.24109.01397-.02446.10132-.18867.12927-.18867-.01747.02445-.03494.04542-.05241.06988.01747-.02446.03844-.04892.05591-.06988.02096-.02446.03843-.04542.0594-.06988.0559-.06289.1153-.12229.17469-.17819.02796-.02796.15025-.16772.18868-.16422-.02446.01747-.04542.03494-.06988.05241.02446-.01747.04892-.03494.07337-.05241.02446-.01747.04892-.03494.07687-.05241.06988-.04542.14325-.08735.21663-.12928.03494-.01747.06638-.03494.10132-.05241.03145-.01397.1153-.08735.04193-.02096-.06988.06289.00699-.0035.04542-.01747.04193-.01747.08735-.03145.13277-.04542.08037-.02796.16422-.04892.24808-.06639.03843-.00699.07686-.01747.1153-.02446.02096-.00349.16771-.01397.04891-.01048-.12229.00349.03494-.00349.04892-.00349.04193-.0035.08036-.00699.12229-.00699.04193-.0035.08385-.0035.12928-.0035h3.42759c-.2341-.23409-.4647-.46469-.6988-.69879v2.1488c0 .2865-.01048.57301 0 .85602.01747.53807.42627.95036.96434.96783.07687.0035.15373 0 .2306 0h2.55408c.4647 0 .9679.03145 1.2474-.44024.1956-.32843.1502-.71976.1502-1.08313V3.83326c-.2341.2341-.4647.4647-.6988.69879h10.6252c-.2341-.23409-.4647-.46469-.6988-.69879v2.1488c0 .2865-.007.57301 0 .85602.0175.53108.4053.94687.9434.96783.0768.0035.1537 0 .2306 0h2.5541c.4752 0 .9573.02446 1.2578-.44024.2062-.32145.1572-.71976.1572-1.08313V3.83326c-.2341.2341-.4647.4647-.6988.69879h3.4346c.3669 0 .7163-.32144.6988-.69879-.0279-.37735-.3179-.6953-.7093-.6953z"/>
  <path fill="#78B0B5" d="M29.0725 27.7355H5.05141c-.32494 0-.64988-.0105-.97482 0h-.04193l.6988.6988v-1.6457-3.9726-4.7868-4.1543c0-.6674.02795-1.3417 0-2.0091v-.0279l-.6988.6988H28.0558c.3249 0 .6498.0105.9748 0h.0419l-.6988-.6988v14.5594c0 .6673-.0175 1.3382 0 2.009v.028c0 .3668.3215.7162.6988.6988.3774-.0175.6988-.3075.6988-.6988v-1.6457-3.9726-4.7868-4.1543c0-.6674.0175-1.3382 0-2.0091v-.0279c0-.3774-.3214-.6988-.6988-.6988H5.05141c-.32494 0-.64988-.007-.97482 0h-.04193c-.37735 0-.69879.3214-.69879.6988v14.5594c0 .6673-.01747 1.3382 0 2.009v.028c0 .3773.32144.6988.69879.6988H28.0558c.3249 0 .6498.007.9748 0h.0419c.3669 0 .7163-.3215.6988-.6988-.0175-.3774-.3075-.6988-.6988-.6988zM10.5404 6.82061c.021-.22012.1258-.35638.332-.41229.0384-.01048.0733-.02096.1118-.03144h-.0035c-.0035-.0035-.014 0-.0175 0-.0314-.0035-.0699 0-.1048 0H8.05623c-.09434 0-.19217-.00699-.28651 0h-.02096c.1188-.01398.32145.09783.37735.22012-.00349-.01048.04542.30397.0594.20265.02795-.16771 0-.35988 0-.52759V5.23085v-2.6065-1.06217c0-.1782.01397-.36338 0-.53807v-.02097c.03144.20615-.24109.47518-.44374.44374h.02097c.08735.00698.18168 0 .26903 0H10.8444c.0315 0 .0699.00349.1013 0 .007 0 .021.00349.0245 0h.0035c.0384 0 .0035-.01049-.1118-.03145-.1188-.01398-.2096-.07687-.2725-.18867-.1014-.17121-.0594-.310968-.0594-.13278v5.63579c.0104.02795.0104.0594.0104.09084 0 .36687.3215.71627.6988.6988.3774-.01747.6988-.30747.6988-.6988V2.5929c0-.52759.0175-1.05867 0-1.58976-.0174-.534577-.4227-.9398785-.9538-.9573484-.0699-.0034939-.1433 0-.2131 0H8.27985c-.33892 0-.70579-.04192767-1.01326.1292774C6.8543.405671 6.7949.828442 6.7949 1.24423v.9259c0 1.53386-.02445 3.06771 0 4.59807.01049.59398.43326.99928 1.02025 1.00627.32494.00349.64988 0 .97482 0 .72674 0 1.45703.02096 2.18723 0 .559-.01747.9189-.41578.9643-.95386.0315-.36337-.3459-.71626-.6988-.69879-.4088.01747-.6673.30747-.7023.69879zM24.9147 1.01362V6.76471c0 .1712-.0385.02795.0594-.13627l.1572-.15723c.0734-.02096.1467-.03843.2236-.05939h-.0035c-.007-.0035-.014 0-.0175 0-.0349-.00699-.0803 0-.1153 0H22.9056c-.248 0-.5241-.03494-.7686 0h-.0175c-.0629 0-.007.02445.1677.06988.1537.06638.3249.14325.2865.36686v-.02795c.0035-.06289 0-.12578 0-.18867v-.83856-4.5841c0-.05939.0035-.12228 0-.17819-.0035-.04542.028-.048914-.0105.07337-.0559.18169-.2411.35639-.4437.33193h.0279c.2656.01747.5381 0 .8037 0h2.2885c.0315 0 .0629.0035.0943 0h.021c-.255.03844-.4193-.20614-.4402-.42277.0349.36338.297.71627.6988.6988.3494-.01398.7372-.30747.6988-.6988-.0524-.541565-.4123-.9503604-.9784-.9678303-.0908-.003494-.1851 0-.276 0h-2.5296c-.4647 0-.9783-.0104819-1.2334.4821693-.1363.269036-.1258.524101-.1258.810601V5.07362c0 .5835-.0139 1.16699 0 1.75048.0105.3529.1747.70928.5032.8735.1782.08735.3633.11181.5555.11181h1.0587c.6883 0 1.3801.02445 2.0684 0 .5346-.01747.9434-.42976.9609-.96784.0035-.0524 0-.10831 0-.16072V5.8388 1.11844v-.10482c0-.366866-.3215-.716264-.6988-.698794-.3809.01747-.7023.30747-.7023.698794z"/>
  <path fill="#78B0B5" d="M10.9947 18.2494H8.28683c-.07686 0-.24457-.0349-.31445 0 .03843.0105.07686.021.1153.0315.08385.0035.15024.0384.19566.1118.02795.0279.0559.0559.08036.0803.02097.0769.04193.1538.06289.2306v-.0035c.0035-.0139 0-.0349 0-.0454.0035-.0629 0-.1258 0-.1887v-1.6002-.7861c0-.1119.03145-.2831 0-.3914v-.007s-.06289.2271-.06289.2306c-.06988.1188-.25506.2446-.39132.2237h.02096c.05241.0034.10831 0 .16072 0h2.36544c.1432 0 .3075.0244.4507 0 .007 0 .0175.0034.021 0 0 0-.2271-.0629-.2306-.0629-.1048-.0629-.1642-.1677-.1922-.2761-.1572-.5835-.0245-.1292-.0314-.1083-.0105.0315 0 .0874 0 .1188v1.4885c0 .4507-.028.9084 0 1.3556 0 .014-.0035.0315 0 .0454v.007s.0628-.2271.0628-.2306c.0839-.1362.2446-.2096.3949-.2236-.3634.0315-.7163.297-.6988.6988.0139.3494.3074.7337.6988.6988.5101-.0454.8944-.3739.9398-.8979.0035-.0455.0035-.0909.0035-.1363v-.6359-1.8344c0-.1502.007-.3039 0-.4542-.0209-.559-.4437-.9433-.9957-.9503-.5032-.007-1.0098 0-1.51293 0-.47868 0-.95735-.014-1.43254 0-.55204.0174-.95036.4157-.96783.9643-.00699.1677 0 .3354 0 .5031v1.8449c0 .1991-.00349.3983 0 .5974.00699.5451.38783.9818.94687.9993.97133.0314 1.94964 0 2.92093 0h.0979c.3668 0 .7162-.3214.6988-.6988-.014-.3773-.304-.6988-.6988-.6988zM18.1818 18.2494h-2.7079c-.0768 0-.2445-.0349-.3144 0 .0384.0105.0769.021.1153.0315.0838.0035.1502.0384.1957.1118l.0803.0803c.021.0769.0419.1538.0629.2306v-.0035c.0035-.0139 0-.0349 0-.0454.0035-.0629 0-.1258 0-.1887v-1.6002-.7861c0-.1119.0314-.2831 0-.3914v-.007s-.0629.2271-.0629.2306c-.0699.1188-.255.2446-.3913.2237h.021c.0524.0034.1083 0 .1607 0h2.3654c.1432 0 .3075.0244.4507 0 .007 0 .0175.0034.021 0 0 0-.2271-.0629-.2306-.0629-.1048-.0629-.1642-.1677-.1922-.2761-.1572-.5835-.0244-.1292-.0314-.1083-.0105.0315 0 .0874 0 .1188v1.4885c0 .4507-.028.9084 0 1.3556 0 .014-.0035.0315 0 .0454v.007s.0629-.2271.0629-.2306c.0838-.1362.2445-.2096.3948-.2236-.3634.0315-.7163.297-.6988.6988.014.3494.3075.7337.6988.6988.5101-.0454.8944-.3739.9399-.8979.0035-.0455.0034-.0909.0034-.1363v-.6359-1.8344c0-.1502.007-.3039 0-.4542-.0209-.559-.4437-.9433-.9957-.9503-.5032-.007-1.0098 0-1.5129 0-.4787 0-.9574-.014-1.4326 0-.552.0174-.9503.4157-.9678.9643-.007.1677 0 .3354 0 .5031v1.8449c0 .1991-.0035.3983 0 .5974.007.5451.3878.9818.9469.9993.9713.0314 1.9496 0 2.9209 0h.0979c.3668 0 .7162-.3214.6988-.6988-.014-.3773-.3075-.6988-.6988-.6988zM25.3689 18.2494h-2.7078c-.0769 0-.2446-.0349-.3145 0 .0384.0105.0769.021.1153.0315.0839.0035.1502.0384.1957.1118l.0803.0803c.021.0769.042.1538.0629.2306v-.0035c.0035-.0139 0-.0349 0-.0454.0035-.0629 0-.1258 0-.1887v-1.6002-.7861c0-.1119.0315-.2831 0-.3914v-.007s-.0629.2271-.0629.2306c-.0699.1188-.255.2446-.3913.2237h.021c.0524.0034.1083 0 .1607 0h2.3654c.1433 0 .3075.0244.4507 0 .007 0 .0175.0034.021 0 0 0-.2271-.0629-.2306-.0629-.1048-.0629-.1642-.1677-.1922-.2761-.1572-.5835-.0244-.1292-.0314-.1083-.0105.0315 0 .0874 0 .1188v1.4885c0 .4507-.028.9084 0 1.3556 0 .014-.0035.0315 0 .0454v.007s.0629-.2271.0629-.2306c.0838-.1362.2445-.2096.3948-.2236-.3634.0315-.7163.297-.6988.6988.014.3494.3075.7337.6988.6988.5101-.0454.8944-.3739.9399-.8979.0035-.0455.0035-.0909.0035-.1363v-.6359-1.8344c0-.1502.007-.3039 0-.4542-.021-.559-.4438-.9433-.9958-.9503-.5032-.007-1.0098 0-1.5129 0-.4787 0-.9574-.014-1.4325 0-.5521.0174-.9504.4157-.9679.9643-.007.1677 0 .3354 0 .5031v1.8449c0 .1991-.0035.3983 0 .5974.007.5451.3879.9818.9469.9993.9713.0314 1.9496 0 2.921 0h.0978c.3669 0 .7163-.3214.6988-.6988-.0175-.3773-.3075-.6988-.6988-.6988z"/>
</svg>