<svg xmlns="http://www.w3.org/2000/svg" fill="none" viewBox="0 0 195 174">
  <defs/>
  <path stroke="#78B0B5" d="M49.4529 121.25l1.0121-3.742c2.863-9.892 6.535-19.5309 10.9788-28.8203l.8135-1.7157c5.1033-10.6374 11.0278-20.8733 17.7046-30.6005l1.0794-1.5706c5.8434-8.4827 12.3679-16.4754 19.5087-23.8989l2.739-2.8111c15.747-15.3365 30.705-22.312 38.663-17.7127 8.007 4.6155 9.497 20.6286 3.971 42.2801l-1.071 3.7696c-2.869 9.8906-6.544 19.5296-10.987 28.8204l-.813 1.7157c-5.116 10.6293-11.029 20.856-17.689 30.592l-1.095 1.563c-5.84 8.486-12.362 16.481-19.5012 23.907l-2.7387 2.811c-15.7633 15.328-30.7132 22.248-38.6633 17.713-8.0066-4.616-9.4323-20.669-3.9066-42.321m3.8905-34.265c-3.7063 7.9615-6.8868 16.157-9.5209 24.535l-1.1277 3.81c-7.9663 28.071-5.5498 48.192 6.6292 55.208 2.9606 1.674 6.3133 2.53 9.7141 2.481 11.4621 0 26.2025-8.643 41.4906-24.35l2.739-2.811c5.954-6.461 11.489-13.381 16.536-20.572l1.088-1.547c7.739-11.083 14.521-22.805 20.274-35.0384l.813-1.7156c3.71-7.9601 6.875-16.1563 9.505-24.5352l1.136-3.8099c7.958-28.0713 5.542-48.1923-6.637-55.21618-11.962-6.88692-31.132 1.25656-51.2212 21.87698l-2.7387 2.8837c-5.9533 6.4604-11.4747 13.3057-16.5286 20.4916l-1.0874 1.5546c-3.8743 5.5739-7.5393 11.3251-10.874 17.0924-3.3777 5.8496-6.511 11.8368-9.392 17.9463l-.8055 1.7157"/>
  <path stroke="#78B0B5" d="M151.489 111.499c21.547-6.057 34.757-15.3123 34.757-24.5351 0-9.2309-13.218-18.4779-34.757-24.5352l-3.745-.9988c-10.017-2.467-20.219-4.1103-30.504-4.9134l-1.885-.1611c-11.781-.8941-23.6123-.878-35.3931.0161l-1.9009.145c-10.2788.8103-20.4748 2.4535-30.4877 4.9134l-3.8019.9586C22.2326 68.4377 9.07098 77.733 9.07098 86.9639c0 9.2228 13.21802 18.4781 34.75682 24.5351l3.7374.999c9.3034 2.344 19.5653 3.995 30.4877 4.905l1.8929.161c11.9212.894 23.4882.886 35.4172-.008m-.008.008l1.885-.161c10.284-.806 20.485-2.446 30.504-4.905l3.76-1.003m-31.695-62.8401c9.199.8377 18.003 2.1668 26.114 4.0033l3.81.9585c28.329 7.1608 44.584 19.3156 44.584 33.3472 0 14.0311-16.255 26.1781-44.584 33.3391l-3.874.926c-8.586 1.913-17.28 3.269-26.042 4.044l-1.884.161c-6.823.564-13.645.854-20.2745.854-6.6292 0-13.4436-.29-20.2661-.854l-1.8929-.161m0-.008c-8.7593-.775-17.4585-2.123-26.0414-4.036l-3.8663-.926C17.2547 113.142 1 100.987 1 86.9639c0-14.0235 16.2547-26.1784 44.5918-33.3391l3.8019-.9586c8.5835-1.9095 17.3469-3.2334 26.1058-4.0113l1.8929-.1611c13.4892-1.1438 27.0506-1.1438 40.5406 0l1.884.1611"/>
  <path stroke="#78B0B5" d="M62.2573 86.9719l-.8135-1.7156c-4.4364-9.2926-8.1082-18.9313-10.9788-28.8204l-1.0713-3.7697c-5.5176-21.6515-4.0355-37.6726 3.9711-42.288 1.6109-.92634 3.5199-1.39352 5.6786-1.39352 8.5221 0 20.4191 6.94332 32.9847 19.17862l2.7387 2.7387c7.1422 7.4204 13.6642 15.4134 19.5012 23.8988l1.087 1.5546M53.3487 86.9639c-3.7106-7.9598-6.9475-16.1963-9.5773-24.5754l-1.0713-3.7617c-7.9663-28.0792-5.5498-48.2003 6.6292-55.22415 11.9453-6.89497 31.124 1.2485 51.2207 21.87705l2.739 2.8111c5.95 6.4607 11.469 13.3785 16.52 20.5641m26.114 72.6151l-1.071-3.778c-2.868-9.889-6.542-19.5251-10.987-28.8124l-.813-1.7157c-5.107-10.6358-11.023-20.8634-17.697-30.5924m26.613 30.5924c3.867 8.369 7.121 16.6331 9.578 24.5751l1.079 3.77c7.95 28.063 5.542 48.192-6.637 55.208-2.959 1.673-6.308 2.529-9.706 2.481m0 0c-.008 0-.008 0 0 0zm0 0c-11.479 0-26.219-8.643-41.5152-24.35l-2.7387-2.884c-5.9509-6.465-11.4722-13.313-16.5286-20.499m70.3595-4.036c5.525 21.652 4.1 37.705-3.907 42.321-1.603.926-3.52 1.393-5.67 1.393h-.008c-8.522 0-20.42-6.943-32.985-19.179l-2.755-2.738c-7.1401-7.427-13.6645-15.423-19.5088-23.907l-1.0633-1.563c-6.6599-9.738-12.5756-19.964-17.6965-30.5921m13.2341 38.3091l-1.0874-1.555c-3.859-5.545-7.4868-11.247-10.874-17.092-3.3772-5.85-6.5106-11.8372-9.392-17.9464l-.8055-1.7157m66.4764-38.309l1.08 1.5546c7.726 11.0921 14.508 22.8127 20.274 35.0387l.813 1.7157"/>
  <path stroke="#78B0B5" d="M91.2565 71.54c2.0297-.8407 4.2051-1.2734 6.4021-1.2734 2.1969 0 4.3724.4327 6.4024 1.2734 2.029.8408 3.874 2.0731 5.427 3.6265 1.553 1.5535 2.786 3.3977 3.626 5.4274.841 2.0297 1.274 4.2051 1.274 6.4021 0 2.1969-.433 4.3723-1.274 6.402-.84 2.0297-2.073 3.874-3.626 5.4274-1.553 1.5536-3.398 2.7856-5.427 3.6266-2.03.841-4.2055 1.273-6.4024 1.273-2.197 0-4.3724-.432-6.4021-1.273s-3.8739-2.073-5.4274-3.6266c-1.5535-1.5534-2.7857-3.3977-3.6265-5.4274-.8407-2.0297-1.2734-4.2051-1.2734-6.402 0-2.197.4327-4.3724 1.2734-6.4021.8408-2.0297 2.073-3.8739 3.6265-5.4274 1.5535-1.5534 3.3977-2.7857 5.4274-3.6265z"/>
</svg>
