<svg width="72" height="72" fill="none" xmlns="http://www.w3.org/2000/svg">
  <path d="M5.32309 18.2887L36 .57735 66.6769 18.2887v35.4226L36 71.4226 5.32309 53.7113V18.2887z" stroke="#78B0B5"/>
  <path d="M40.5127 43.1006h3.8882l-6.1955-16.0879h-4.2833l-6.1955 16.0879h3.8881l1.0199-2.7281h5.8512l-1.058-3.0212h-3.8626l2.5113-6.9221 4.4362 12.6714zm12.8117-11.9193c-.1403-.4844-.6502-.7776-1.1473-.6501-.4845.1402-.7777.6501-.6502 1.1473.3824 1.4022.5864 2.8555.5864 4.3087 0 8.8853-7.228 16.1261-16.126 16.1261-8.8981 0-16.1261-7.228-16.1261-16.1133 0-8.8853 7.2408-16.1261 16.1261-16.1261 3.7606 0 7.4192 1.3513 10.2875 3.7224-.1147.2677-.1785.5609-.1785.8669 0 1.2365.9944 2.2563 2.2564 2.2563 1.2365 0 2.2564-.9943 2.2564-2.2563 0-1.2621-.9944-2.2564-2.2564-2.2564-.2422 0-.4717.0382-.6884.1147C44.4263 19.5552 40.2833 18 36 18c-9.9178 0-18 8.0694-18 18s8.0694 18 17.9873 18c9.9178 0 18-8.0822 18-18 0-1.6317-.2295-3.2507-.6629-4.8187z" fill="#78B0B5"/>
</svg>
