<svg width="50" height="48" viewBox="0 0 50 48" fill="none" xmlns="http://www.w3.org/2000/svg">
  <path d="M24.6094 0C11.0127 0 0 11.0188 0 24.6094 0 35.4846 7.05058 44.707 16.8266 47.9575c1.2305.2317 1.6817-.5291 1.6817-1.1833 0-.5845-.0205-2.1328-.0308-4.1836-6.8455 1.4848-8.2892-3.3018-8.2892-3.3018-1.11975-2.8403-2.73782-3.5991-2.73782-3.5991-2.2292-1.5258.17227-1.495.17227-1.495 2.47115.1723 3.76935 2.5348 3.76935 2.5348 2.1943 3.7631 5.7606 2.6762 7.1675 2.0466.2214-1.5914.8551-2.6762 1.5585-3.2915-5.4653-.6152-11.20951-2.7316-11.20951-12.1611 0-2.6865.95361-4.8808 2.53271-6.6035-.2769-.6214-1.1074-3.1233.2153-6.5133 0 0 2.0611-.66032 6.7676 2.5225 1.9688-.5476 4.0605-.8183 6.1523-.8306 2.0918.0123 4.1836.283 6.1524.8306 4.6758-3.18282 6.7368-2.5225 6.7368-2.5225 1.3227 3.39.4922 5.8919.2461 6.5133 1.5688 1.7227 2.5224 3.917 2.5224 6.6035 0 9.4541-5.7524 11.5356-11.228 12.1406.8614.7383 1.6612 2.2477 1.6612 4.5528 0 3.2935-.0308 5.939-.0308 6.7388 0 .646.4307 1.4151 1.6919 1.169 9.8458-3.228 16.8902-12.4565 16.8902-23.3153C49.2187 11.0188 38.1999 0 24.6094 0" fill="#fff"/>
</svg>
