<svg width="72" height="72" fill="none" xmlns="http://www.w3.org/2000/svg">
  <path d="M5.32309 18.2887L36 .57735 66.6769 18.2887v35.4226L36 71.4226 5.32309 53.7113V18.2887z" stroke="#78B0B5"/>
  <path d="M35.6593 32.393c-.4736 0-.9425.0933-1.38.2745-.4375.1813-.8351.4469-1.1699.7818-.3349.3348-.6005.7324-.7817 1.1699-.1813.4375-.2745.9064-.2745 1.38 0 .4736.0932.9425.2745 1.38.1812.4375.4468.8351.7817 1.1699.3348.3349.7324.6005 1.1699.7817.4375.1813.9064.2745 1.38.2745.4736 0 .9425-.0932 1.38-.2745.4375-.1812.8351-.4468 1.1699-.7817.3349-.3348.6005-.7324.7818-1.1699.1812-.4375.2745-.9064.2745-1.38 0-.4736-.0933-.9425-.2745-1.38-.1813-.4375-.4469-.8351-.7818-1.1699-.3348-.3349-.7324-.6005-1.1699-.7818-.4375-.1812-.9064-.2745-1.38-.2745zM25.5574 43.1727l-.7958-.2023c-5.931-1.4988-9.3331-4.0428-9.3331-6.978 0-2.9351 3.4021-5.4791 9.3331-6.9779l.7958-.2006.2242.789c.6008 2.0698 1.3693 4.0872 2.2979 6.0321l.1703.3591-.1703.3591c-.9301 1.9443-1.6987 3.9619-2.2979 6.0322l-.2242.7873zm-1.165-12.3155c-4.5081 1.2661-7.2747 3.2032-7.2747 5.1352 0 1.9304 2.7666 3.8675 7.2747 5.1353.5513-1.7534 1.217-3.4689 1.9928-5.1353-.7767-1.666-1.4424-3.3814-1.9928-5.1352zm21.3688 12.3155l-.2242-.7907c-.6002-2.0697-1.3693-4.0866-2.2996-6.0305l-.1702-.3591.1702-.3591c.9299-1.9445 1.699-3.962 2.2996-6.0321l.2242-.789.7975.2006c5.9293 1.4988 9.3314 4.0428 9.3314 6.9796 0 2.9369-3.4021 5.4792-9.3314 6.978l-.7975.2023zm-.8277-7.1803c.8092 1.7517 1.4785 3.473 1.9927 5.1353 4.5098-1.2678 7.2747-3.2049 7.2747-5.1353 0-1.932-2.7666-3.8674-7.2747-5.1352-.5506 1.7537-1.2163 3.4692-1.9927 5.1352zm-20.5529-5.1436l-.2242-.7874c-1.6674-5.877-1.1616-10.0884 1.3875-11.5585 2.5002-1.4432 6.5143.2613 10.7206 4.5789l.5733.5884-.5733.5884c-1.4946 1.5537-2.8602 3.2266-4.0832 5.002l-.2276.3254-.3962.0337c-2.1514.1696-4.2854.5136-6.3811 1.0284l-.7958.2007zm3.1965-11.1776c-.4518 0-.8514.0978-1.1886.2917-1.6758.966-1.9725 4.3243-.8176 8.856 1.7965-.3997 3.6172-.6818 5.4505-.8446 1.0578-1.504 2.2134-2.9368 3.4595-4.289-2.63-2.5608-5.1201-4.0141-6.9038-4.0141zm16.1661 34.3284c-.0017 0-.0017 0 0 0-2.4024 0-5.4876-1.809-8.6891-5.0965l-.5732-.5884.5732-.5884c1.4942-1.5542 2.8593-3.2277 4.0815-5.0037l.2276-.3254.3945-.0337c2.1525-.1687 4.2877-.5121 6.3846-1.0267l.7957-.2007.2259.789c1.664 5.8737 1.1599 10.0868-1.3892 11.5552-.6191.3501-1.3203.5293-2.0315.5193zm-6.9054-5.7001c2.63 2.5609 5.12 4.0142 6.9037 4.0142h.0017c.4502 0 .8514-.0978 1.1869-.2917 1.6758-.966 1.9742-4.326.8177-8.8577-1.7971.4002-3.6184.6824-5.4523.8446-1.0565 1.5051-2.2116 2.9384-3.4577 4.2906zM46.938 30.8488l-.7957-.2007c-2.0966-.5163-4.2319-.8603-6.3846-1.0284l-.3945-.0337-.2276-.3254c-1.2216-1.776-2.5867-3.4489-4.0815-5.002l-.5732-.5884.5732-.5884c4.2046-4.3159 8.2171-6.0204 10.7206-4.5789 2.5491 1.4701 3.0549 5.6815 1.3892 11.5568l-.2259.7891zm-6.6425-2.8745c1.9253.1753 3.7545.4602 5.4523.8446 1.1565-4.5317.8581-7.89-.8177-8.856-1.6657-.9627-4.7964.5125-8.0923 3.7224 1.2454 1.3523 2.4005 2.785 3.4577 4.289zM27.5771 53.9996c-.7118.0103-1.4135-.1689-2.0332-.5193-2.5491-1.4684-3.0549-5.6798-1.3875-11.5552l.2225-.789.7958.2007c1.9472.4906 4.095.8362 6.3811 1.0267l.3962.0337.2259.3254c1.2232 1.7758 2.5888 3.4492 4.0833 5.0037l.5732.5884-.5732.5884c-3.1999 3.2875-6.2851 5.0965-8.6841 5.0965zm-2.0062-10.8353c-1.1566 4.5317-.8582 7.8917.8176 8.8577 1.664.9492 4.793-.5142 8.0924-3.7225-1.2456-1.3532-2.4012-2.7864-3.4595-4.2906-1.8334-.1621-3.6541-.4443-5.4505-.8446zm10.0884 1.0587c-1.3875 0-2.8138-.0607-4.2417-.1787l-.3962-.0337-.2276-.3254c-.8077-1.1606-1.567-2.3541-2.276-3.5775-.7068-1.2243-1.3627-2.4775-1.9657-3.7562l-.1686-.3591.1686-.3591c.603-1.2787 1.2588-2.5318 1.9657-3.7561.698-1.2072 1.4651-2.4109 2.276-3.5775l.2276-.3254.3962-.0337c2.8233-.2394 5.6618-.2394 8.4851 0l.3945.0337.2259.3254c1.6171 2.3216 3.0366 4.7747 4.2435 7.3336l.1702.3591-.1702.3591c-1.2041 2.5605-2.6236 5.0139-4.2435 7.3337l-.2259.3254-.3945.0337c-1.4279.118-2.8559.1787-4.2434.1787zm-3.7039-1.8275c2.4951.1871 4.9127.1871 7.4095 0 1.394-2.0378 2.6316-4.1783 3.7023-6.4031-1.0688-2.2261-2.3071-4.3667-3.704-6.403-2.4657-.1872-4.9421-.1872-7.4078 0-1.3975 2.0359-2.6358 4.1766-3.704 6.403 1.0719 2.2245 2.31 4.365 3.704 6.4031z" fill="#78B0B5"/>
</svg>
