<svg width="72" height="72" fill="none" xmlns="http://www.w3.org/2000/svg">
  <path d="M5.32309 18.2887L36 .57735 66.6769 18.2887v35.4226L36 71.4226 5.32309 53.7113V18.2887z" stroke="#78B0B5"/>
  <path fill="#fff" d="M18 18h36v36H18z"/>
  <path d="M18 36V18h36v36H18" fill="#78B0B5"/>
  <path d="M25.8931 36.0629V37.53h4.68v13.32h3.321V37.53h4.68v-1.4401c0-.81 0-1.467-.036-1.485 0-.027-2.853-.036-6.318-.036l-6.3.027v1.476l-.027-.009zm21.033-1.503c.918.216 1.6201.63 2.2501 1.287.333.36.828.9901.864 1.1521 0 .054-1.557 1.107-2.5021 1.692-.036.027-.18-.126-.324-.36-.468-.666-.945-.954-1.692-1.008-1.08-.072-1.8.495-1.8 1.44 0 .288.054.45.162.684.243.495.693.792 2.088 1.404 2.5741 1.107 3.6901 1.836 4.3651 2.88.765 1.17.936 3.006.423 4.383-.576 1.503-1.98 2.52-3.9871 2.853-.63.108-2.07.09-2.745-.027-1.44-.27-2.817-.99-3.663-1.917-.333-.36-.972-1.323-.936-1.386l.342-.216 1.35-.783 1.017-.594.234.315c.297.468.963 1.098 1.35 1.314 1.17.603 2.736.522 3.51-.18.333-.306.4771-.63.4771-1.08 0-.414-.0631-.603-.2701-.918-.288-.396-.864-.72-2.484-1.44-1.863-.792-2.655-1.296-3.393-2.07-.423-.468-.81-1.197-.99-1.8-.135-.522-.18-1.8-.054-2.313.387-1.8001 1.746-3.0601 3.69-3.4201.63-.126 2.115-.072 2.736.09l-.018.018z" fill="#1E2224"/>
</svg>
