<svg xmlns="http://www.w3.org/2000/svg" fill="none" viewBox="40 20 48 48">
  <defs/>
  <g filter="url(#filter0_d)">
    <path stroke="#526065" d="M87.5 44.04c0 12.9787-10.5213 23.5-23.5 23.5s-23.5-10.5213-23.5-23.5 10.5213-23.5 23.5-23.5 23.5 10.5213 23.5 23.5z"/>
  </g>
  <path stroke="#526065" d="M85.7 44.0401c0 11.9846-9.7154 21.7-21.7 21.7-11.9845 0-21.7-9.7154-21.7-21.7 0-11.9846 9.7155-21.7 21.7-21.7 11.9846 0 21.7 9.7154 21.7 21.7z"/>
  <path fill="#526065" d="M64.0376 27.24c-.15 0-.2812-.1124-.2812-.2624v-3.9188c0-.15.1312-.2625.2812-.2625s.2813.1125.2813.2625v3.9188c-.0188.15-.1313.2624-.2813.2624z"/>
  <path fill="#526065" d="M64.0376 27.2588c-.1688 0-.3-.1312-.3-.2812v-3.9188c0-.15.1312-.2812.3-.2812.1688 0 .3.1312.3.2812v3.9188c0 .15-.15.2812-.3.2812zm0-4.4439c-.1312 0-.2624.1127-.2624.2439v3.9188c0 .1312.1124.2439.2624.2439.1312 0 .2624-.1127.2624-.2439v-3.9188c-.0185-.1312-.1312-.2439-.2624-.2439zM65.9127 25.14c-.15-.0188-.2625-.1312-.2625-.2812l.1312-1.7439c.0186-.1498.15-.2624.3-.2436.15.0187.2625.1314.2625.2814l-.1312 1.7436c-.0188.15-.15.2623-.3.2437z"/>
  <path fill="#526065" d="M65.9127 25.1588c-.1687-.0187-.2812-.15-.2812-.3l.1312-1.7439c.0188-.1498.15-.281.3188-.2624.1686.0188.2812.1502.2812.3l-.1312 1.7439c-.0188.1687-.15.2812-.3188.2624zm.1688-2.2688c-.1312 0-.2626.0939-.2626.2251l-.1313 1.7439c0 .1311.0939.2437.2439.2623.1312 0 .2625-.0937.2625-.2249l.1312-1.7439c0-.1312-.1123-.2437-.2437-.2625zM67.319 27.5776c-.1502-.0375-.2439-.1688-.2251-.3188l.7688-3.8438c.0375-.1498.1687-.2437.3187-.2062.15.0376.2437.1688.2249.3188l-.7687 3.8439c-.0188.131-.1686.2249-.3186.2061z"/>
  <path fill="#526065" d="M67.3191 27.5963c-.169-.0375-.2627-.1875-.2439-.3375l.7687-3.8439c.0376-.1498.1876-.2624.3562-.2249.1687.0376.2626.1876.2438.3376l-.7687 3.8438c-.0376.1498-.1876.2437-.3561.2249zm.881-4.3687c-.1313-.0188-.2625.0561-.3.1875l-.7686 3.8439c-.0188.131.0561.2622.2061.3.1313.0186.2624-.0563.3-.1875l.7687-3.8439c.0188-.15-.0748-.2625-.2062-.3zM69.5689 25.89c-.0358-.0086-.0694-.0241-.0991-.0458-.0297-.0216-.0548-.0488-.074-.0802-.0191-.0313-.0319-.0662-.0376-.1025-.0057-.0362-.0041-.0733.0045-.109l.4688-1.6874c.0374-.15.1874-.2251.3374-.1875.15.0375.2438.1875.2063.3375l-.4688 1.6876c-.0375.1498-.1875.2249-.3375.1873z"/>
  <path fill="#526065" d="M69.5689 25.9088c-.15-.0375-.2625-.2065-.2062-.3563l.4688-1.6874c.0374-.1498.2062-.2438.3562-.2063.15.0376.2624.2063.2063.3562l-.4688 1.6877c-.0376.1498-.1877.2437-.3563.2061zm.6188-2.1937c-.1313-.0375-.2813.0376-.3188.1688l-.4686 1.6874c-.0376.1312.0373.2626.1873.3.1313.0375.2813-.0374.3188-.1686l.4688-1.6876c.0188-.131-.0561-.2622-.1875-.3zM70.4876 28.5339c-.15-.0563-.2061-.2251-.15-.3563l1.5-3.6188c.0561-.1312.2251-.2063.3561-.1312.1502.0561.2065.2251.1502.3561l-1.5 3.6188c-.0561.1314-.2253.2063-.3563.1314z"/>
  <path fill="#526065" d="M70.4876 28.5527c-.0721-.0274-.1303-.0823-.1619-.1527-.0317-.0703-.0341-.1503-.0069-.2224l1.4999-3.6188c.0564-.15.2251-.2063.3939-.15.072.0275.1303.0824.1619.1527.0316.0703.0341.1503.0069.2224l-1.5 3.6188c-.0751.15-.2438.2249-.3938.15zm1.7062-4.1063c-.1312-.0561-.2812 0-.3375.1312l-1.5 3.6188c-.0561.1312.0188.2624.15.3188.1313.0561.2812 0 .3376-.1313l1.4999-3.6187c.0376-.1127-.0188-.2627-.15-.3188zM73.019 27.3339c-.1314-.0751-.1877-.2251-.1314-.3563l.7875-1.5561c.0749-.1314.2249-.1878.3751-.1127.1312.0751.1873.2251.1312.3562l-.7877 1.5563c-.0749.1312-.2247.1877-.3747.1126z"/>
  <path fill="#526065" d="M73.0191 27.3527c-.1502-.0751-.2064-.2439-.1315-.3939l.7876-1.5561c.0749-.1502.2439-.2063.3937-.1314.15.0751.2063.2438.1312.3938l-.7874 1.5562c-.0751.15-.2436.2065-.3936.1314zm1.0311-2.0439c-.1314-.0561-.2813-.0188-.3375.1125l-.7875 1.5563c-.0561.1124 0 .2624.1124.3375.1313.0562.2813.0188.3376-.1124l.7876-1.5563c.0561-.1125-.0002-.2625-.1126-.3376zM73.3939 30.1089c-.1312-.0937-.1687-.2625-.0751-.375l2.1751-3.2438c.0749-.1313.2439-.15.3749-.0749.1315.0936.1688.2624.0751.3749l-2.1751 3.2438c-.0749.1313-.2436.1688-.3749.075z"/>
  <path fill="#526065" d="M73.3939 30.1276c-.1312-.0937-.1688-.2812-.0937-.4125l2.1749-3.2438c.0937-.1313.2625-.1688.4125-.0749.1312.0936.1688.2812.0938.4124l-2.1751 3.2439c-.0936.1312-.2812.1686-.4124.0749zm2.4749-3.6937c-.1123-.0751-.2812-.0563-.3561.0561l-2.1751 3.2439c-.0749.1123-.0376.2625.0751.3374.1124.0751.2812.0563.3561-.0562l2.1751-3.225c.0749-.1125.0375-.2813-.0751-.3562zM76.1313 29.4151c-.1123-.0938-.1498-.2626-.0562-.375l1.0876-1.3688c.0936-.1123.2624-.1312.3748-.0374.1127.0937.15.2625.0562.3749l-1.0873 1.3688c-.0937.1125-.2627.1312-.3751.0375z"/>
  <path fill="#526065" d="M76.1127 29.4339c-.1312-.0939-.15-.2814-.0561-.4126l1.0873-1.3686c.0937-.1314.2812-.1502.4124-.0376.1313.0937.15.2813.0562.4125l-1.0874 1.3688c-.0937.1312-.2812.15-.4124.0375zm1.4061-1.7814c-.1123-.0937-.2625-.0749-.3561.0375l-1.0876 1.3688c-.0749.1125-.0561.2627.0562.3563.1126.0939.2626.0749.3563-.0375l1.0875-1.3688c.0751-.1124.0559-.2814-.0563-.3563zM75.944 32.2276c-.1125-.1125-.1125-.2813 0-.3751l2.7748-2.7562c.1126-.1124.2812-.0938.3751 0 .0937.0937.1124.2813 0 .3749l-2.7561 2.7564c-.1126.1124-.2814.1124-.3938 0z"/>
  <path fill="#526065" d="M75.9252 32.2464c-.0541-.0551-.0844-.1291-.0844-.2063 0-.0771.0303-.1512.0844-.2062l2.7749-2.7563c.055-.0542.1292-.0845.2063-.0845.0772 0 .1513.0303.2064.0845.054.055.0844.1291.0844.2062 0 .0772-.0304.1512-.0844.2062l-2.7752 2.7562c-.055.054-.129.0843-.2062.0843-.0771 0-.1512-.0301-.2062-.0841zm3.1687-3.1501c-.0937-.0938-.2624-.0938-.356.0001l-2.7752 2.7561c-.0938.0939-.0938.2626 0 .3563.0937.0939.2625.0939.3562 0l2.7751-2.7561c.0937-.0939.0936-.2439-.0001-.3564zM78.7563 32.0776c-.0936-.1125-.0936-.2812.0188-.3751l1.3312-1.1249c.1125-.0937.2812-.0751.3751.0376.0937.1124.0937.2812-.0188.3749l-1.3312 1.125c-.1126.0937-.2814.0749-.3751-.0375z"/>
  <path fill="#526065" d="M78.7376 32.0963c-.1124-.1312-.0936-.3187.0188-.4124l1.3312-1.1251c.1124-.1124.3-.0936.4124.0376.1127.1312.0939.3188-.0186.4124l-1.3313 1.1251c-.1123.1123-.3002.0937-.4125-.0376zm1.7251-1.4811c-.0939-.1125-.2441-.1125-.3564-.0376l-1.3312 1.1249c-.0937.0937-.1124.2439-.0187.3563s.2439.1124.3561.0375l1.3314-1.125c.1124-.0937.1124-.2437.0188-.3561zM78.0063 34.7776c-.0936-.1312-.0561-.3.0751-.3751l3.2624-2.1749c.1312-.0751.3-.0376.3749.0751.0939.1312.0563.3-.0749.3749l-3.2624 2.1749c-.1126.0751-.2814.0375-.3751-.0749z"/>
  <path fill="#526065" d="M77.9876 34.7776c-.0936-.1313-.0561-.3188.0751-.4125l3.2625-2.1751c.1312-.0937.3188-.0561.4124.0939.0939.1312.0562.3188-.0749.4122l-3.2624 2.1753c-.1314.0939-.3188.0562-.4127-.0938zm3.7125-2.4562c-.0749-.1126-.2249-.1502-.3374-.0751l-3.2626 2.1749c-.1123.0751-.15.2251-.0561.3564.0749.1124.2248.1498.3374.0749l3.2624-2.1749c.1125-.0937.1314-.2439.0563-.3562zM80.8003 35.1715c-.0751-.1315-.0375-.3.0937-.3751l1.5188-.8625c.1312-.0751.3-.0187.3749.1123.0751.1314.0375.3-.0937.3751l-1.5188.8626c-.1312.0749-.2998.019-.3749-.1124z"/>
  <path fill="#526065" d="M80.7816 35.1901c-.0751-.15-.0376-.3188.0937-.3937l1.5188-.8625c.1312-.0751.3187-.0187.3936.1123.0751.1502.0376.319-.0936.3939l-1.5188.8626c-.1313.0749-.3188.0186-.3937-.1126zm1.9874-1.1249c-.0749-.1313-.2249-.1688-.3374-.0939l-1.5188.8627c-.1124.0749-.15.2249-.0939.3373.0751.1312.2251.1688.3376.0939l1.5188-.8627c.1124-.0561.15-.2061.0937-.3373zM79.5439 37.6651c-.0561-.15 0-.3.15-.3561l3.6188-1.5c.1312-.0563.3.0186.3561.1498.0563.15 0 .3-.15.3562l-3.6186 1.4999c-.1314.0564-.3 0-.3563-.1498z"/>
  <path fill="#526065" d="M79.5251 37.6837c-.0561-.1498 0-.3186.15-.3937l3.6188-1.5c.0721-.0271.152-.0246.2223.007.0702.0316.1251.0898.1526.1618.0563.15 0 .3188-.15.3937l-3.6186 1.4999c-.0721.0273-.1521.0249-.2224-.0067-.0703-.0316-.1252-.09-.1527-.162zm4.1063-1.7061c-.0563-.1312-.2063-.1876-.3188-.15l-3.6187 1.5c-.1312.0561-.1876.2063-.1312.3375.0561.1312.2061.1875.3187.15l3.6186-1.5c.1314-.0561.1877-.2063.1314-.3375zM82.1875 38.6027c-.0562-.1502.0187-.3.1687-.3564l1.65-.5438c.1312-.0562.2999.0375.3375.1687.0561.15-.0188.3-.1688.3564l-1.6499.5438c-.1312.0562-.2812-.0185-.3375-.1687z"/>
  <path fill="#526065" d="M82.1688 38.6213c-.0561-.15.0185-.3188.1874-.375l1.65-.5438c.15-.0562.3188.0376.3752.1878.0561.1498-.0188.3185-.1878.3749l-1.6497.5438c-.15.0374-.3188-.0377-.3751-.1877zm2.175-.7123c-.0375-.1314-.1875-.2065-.3187-.1689l-1.65.5438c-.1312.0374-.1875.1874-.15.3188.0376.1312.1876.2061.3188.1686l1.6499-.5437c.1313-.0561.1876-.1873.15-.3186zM80.5003 40.8339c-.0375-.15.0561-.3.2061-.3188l3.8438-.7499c.1498-.0376.2812.0749.3186.2248.0375.15-.0562.3-.2062.3188l-3.8437.75c-.15.0188-.2998-.0749-.3186-.2249z"/>
  <path fill="#526065" d="M80.4628 40.8339c-.0375-.1687.0749-.3187.2249-.3563l3.8439-.75c.15-.0376.3.0751.3373.2439.0376.1686-.0749.3186-.2249.3561l-3.8438.75c-.1498.0376-.3-.0747-.3374-.2437zm4.3688-.8439c-.0188-.1312-.15-.2249-.2812-.2061l-3.8439.75c-.1312.0188-.2249.1686-.1876.3.0188.1313.15.225.2815.2062l3.8436-.75c.1313-.0376.2249-.1688.1876-.3001zM82.9002 42.2776c-.0187-.15.0749-.2813.2249-.3001l1.7249-.2063c.15-.0186.2815.0939.3.2439.0188.15-.0749.2812-.2249.3l-1.7251.2062c-.1312.0187-.281-.0937-.2998-.2437z"/>
  <path fill="#526065" d="M82.8815 42.2776c-.0188-.1688.0937-.3188.2436-.3376l1.7249-.2061c.15-.0188.3.0937.3188.2624.0188.1688-.0937.3188-.2437.3376l-1.725.2061c-.1499.0188-.3-.0937-.3186-.2624zm2.2685-.2625c-.0185-.1312-.1498-.2438-.2812-.2251l-1.7249.2063c-.1312.0188-.2251.15-.2063.2813.0188.1312.15.2438.2812.2251l1.7251-.2064c.1312-.0187.2247-.15.2061-.2812zM80.8003 44.0964c0-.15.1123-.2812.2624-.2812h3.9188c.15 0 .2625.1312.2625.2812s-.1125.2812-.2625.2812h-3.9188c-.15 0-.2624-.1312-.2624-.2812z"/>
  <path fill="#526065" d="M80.7816 44.0963c0-.1687.1312-.3.2812-.3h3.9188c.15 0 .2812.1313.2812.3 0 .1688-.1312.3-.2812.3h-3.9188c-.15 0-.2812-.1312-.2812-.3zm4.4437.0188c0-.1312-.1125-.2624-.2439-.2624H81.063c-.1312 0-.2439.1122-.2439.2624 0 .1312.1124.2625.2436.2625h3.9188c.1312-.0188.2438-.1313.2438-.2625zM82.8815 45.99c.0186-.15.1312-.2624.2812-.2624l1.7439.1312c.1498.0188.2622.15.2434.3-.0185.15-.1312.2625-.2812.2625l-1.7436-.1313c-.1312-.0187-.2437-.15-.2437-.3z"/>
  <path fill="#526065" d="M82.8627 45.99c.0188-.1687.15-.2812.3-.2812l1.744.1312c.1498.0188.281.15.2622.3188-.0186.1688-.15.2812-.3.2812l-1.7437-.1312c-.15-.0188-.2625-.1688-.2625-.3188zm2.2873.1688c.0186-.1312-.0935-.2624-.2248-.2624l-1.7439-.1313c-.131 0-.2437.0937-.2625.2439-.0186.131.0939.2623.2251.2623l1.744.1312c.131 0 .2434-.1123.2621-.2437zM80.4626 47.3588c.0375-.15.1687-.2439.3187-.2249l3.8437.7688c.15.0373.2439.1685.2064.3185-.0376.15-.1688.2439-.3188.2251l-3.8439-.7687c-.1312-.0188-.2249-.1688-.2061-.3188z"/>
  <path fill="#526065" d="M80.4438 47.3588c.0376-.1688.1876-.2624.3376-.2439l3.8436.769c.15.0373.2625.1873.2249.3561-.0373.1688-.1873.2626-.3373.2439l-3.8439-.7688c-.15-.0375-.2436-.1877-.2249-.3563zm4.3688.8812c.0187-.1312-.0562-.2625-.1876-.3l-3.8438-.7687c-.131-.0186-.2625.0563-.3.2063-.0186.1312.0561.2624.1875.3l3.8439.7687c.15.0188.2624-.0751.3-.2063zM82.1503 49.6088c.0086-.0356.0241-.0693.0457-.099.0217-.0296.0489-.0548.0802-.0739.0314-.0192.0662-.0319.1024-.0376.0363-.0057.0733-.0042.109.0044l1.6876.4686c.15.0376.2249.1878.1875.3376-.0086.0357-.0241.0694-.0457.0991-.0217.0297-.0489.0549-.0803.074-.0313.0192-.0662.032-.1025.0377-.0363.0057-.0733.0041-.109-.0045l-1.6876-.4688c-.15-.0375-.2247-.1876-.1873-.3376z"/>
  <path fill="#526065" d="M82.1312 49.6088c.0375-.15.2064-.2624.3564-.2061l1.6876.4686c.15.0376.2437.2062.2061.3562-.0375.15-.2063.2624-.3563.2063l-1.6875-.4687c-.15-.0376-.2441-.1878-.2063-.3563zm2.1938.6187c.0376-.1312-.0375-.2812-.1688-.3187l-1.6875-.4688c-.1312-.0375-.2624.0376-.3.1876-.0373.1312.0377.2813.1689.3188l1.6876.4688c.1312.0188.2623-.0563.2998-.1877zM79.5064 50.5088c.0561-.15.2251-.2063.3561-.15l3.6189 1.5c.1313.0561.2062.2251.15.3561-.0563.1502-.2251.2063-.3563.1502l-3.6187-1.5c-.15-.0561-.2063-.2252-.15-.3563z"/>
  <path fill="#526065" d="M79.4876 50.49c.0274-.072.0824-.1302.1527-.1619.0703-.0316.1503-.0341.2224-.0068l3.6187 1.5c.15.0563.2062.2248.15.3936-.0274.0721-.0824.1305-.1527.1622-.0703.0316-.1503.0341-.2224.0068l-3.6187-1.5c-.15-.0751-.2061-.2439-.15-.3939zm4.1063 1.7064c.0561-.1312 0-.2812-.1313-.3376l-3.6187-1.5c-.1312-.0561-.2624.0188-.3188.15-.0561.1312 0 .2812.1313.3376l3.6187 1.5c.1312.0375.2812-.0188.3188-.15zM80.7252 53.0401c.075-.1313.2248-.1876.3561-.1313l1.5562.7876c.1312.0561.1875.2249.1126.3749-.0751.1312-.2251.1878-.3563.1312l-1.556-.7873c-.1314-.0751-.1877-.2439-.1126-.3751z"/>
  <path fill="#526065" d="M80.7063 53.0213c.0751-.15.2439-.2061.3939-.1312l1.5561.7875c.15.0751.2064.2439.1313.3937-.0749.15-.244.2063-.3938.1312l-1.556-.7873c-.1502-.0562-.2064-.2439-.1315-.3939zm2.0251 1.0312c.0562-.1312.0186-.2812-.1126-.3373l-1.5562-.7876c-.1126-.0561-.2624 0-.3374.1125-.0562.1312-.0189.2812.1123.3375l1.5562.7876c.1314.0561.2814.0187.3377-.1127zM77.9688 53.3964c.0939-.1313.2439-.1688.3751-.0751l3.2625 2.1751c.1312.0749.15.2438.0751.3749-.0939.1314-.2439.1687-.3751.0751l-3.2625-2.1751c-.1312-.0937-.1688-.2625-.0751-.3749z"/>
  <path fill="#526065" d="M77.9501 53.3776c.0938-.1312.2814-.1688.4126-.0937l3.2625 2.1749c.1312.0937.1688.2624.0749.4124-.0937.1315-.2812.1688-.4122.0939L78.0252 53.79c-.15-.0936-.1688-.2812-.0751-.4124zm3.6939 2.4749c.0749-.1123.0561-.2813-.0561-.3562l-3.2627-2.175c-.1125-.0749-.2625-.0374-.3376.0751-.0749.1124-.0561.2812.0561.3561l3.2627 2.1751c.1125.0751.2625.0373.3376-.0751zM78.6627 56.1151c.0937-.1126.2625-.15.3749-.0561l1.3688 1.0686c.1125.0937.1312.2624.0376.3751-.0937.1122-.2625.15-.3751.0561L78.7001 56.49c-.1123-.0936-.1313-.2624-.0374-.3749z"/>
  <path fill="#526065" d="M78.644 56.0963c.0936-.1312.2812-.15.4124-.0561l1.3687 1.0686c.1313.0937.15.2812.0562.4125-.0937.1314-.2812.15-.4123.0563l-1.3689-1.0688c-.1312-.0937-.1498-.2812-.0561-.4125zm1.8 1.4064c.0936-.1127.0748-.2627-.0376-.3563l-1.3688-1.0688c-.1124-.0749-.2624-.0562-.3561.0561-.0939.1126-.0751.2627.0374.3563l1.3687 1.0688c.1125.0751.2627.0561.3564-.0561zM75.8688 55.9276c.1127-.1124.2814-.1124.3751 0l2.7749 2.7561c.1127.1127.0939.2814 0 .3751-.1122.1125-.2812.1125-.3749 0l-2.7751-2.7561c-.0937-.0939-.0937-.2814 0-.3751z"/>
  <path fill="#526065" d="M75.8688 55.9088c.055-.0541.1292-.0845.2063-.0845.0772 0 .1513.0304.2064.0845l2.7749 2.7561c.0542.055.0845.1291.0845.2063 0 .0772-.0303.1513-.0845.2063-.055.0541-.1291.0844-.2062.0844-.0772 0-.1512-.0303-.2062-.0844l-2.7752-2.7561c-.1312-.1126-.1312-.3 0-.4126zm3.1501 3.1312c.0938-.0937.0938-.2626-.0001-.3563l-2.7749-2.7561c-.0937-.0937-.2624-.0937-.3561 0-.0939.0936-.0939.2624 0 .3561l2.7749 2.7563c.0937.1126.2439.1126.3562 0zM76.0376 58.7213c.1127-.0937.2813-.0937.3751.0188l1.1439 1.3124c.0935.1127.0749.2815-.0377.3751-.1123.0937-.2812.0937-.3749-.0187l-1.1439-1.3125c-.0937-.0937-.0749-.2625.0375-.3751z"/>
  <path fill="#526065" d="M76.019 58.7213c.1312-.1123.3-.0937.4122.0187l1.1439 1.3125c.1125.1126.0937.3-.0375.4126-.1313.1125-.3.0937-.4125-.0188l-1.1439-1.3124c-.0936-.1312-.0934-.3188.0378-.4126zm1.4999 1.7063c.1122-.0936.1123-.2439.0374-.3562l-1.1438-1.3126c-.0937-.0937-.2437-.1124-.3562-.0188-.1124.0939-.1124.2439-.0375.3562l1.1439 1.3126c.0936.1124.2439.1125.3562.0188zM73.3376 58.0088c.1313-.0937.3-.0561.3751.0751l2.1748 3.2437c.0751.1312.0376.2999-.0749.375-.1312.0937-.3.0562-.3751-.0751l-2.175-3.2438c-.0751-.131-.0373-.3.0751-.3749z"/>
  <path fill="#526065" d="M73.3376 57.9901c.1312-.0937.3187-.0562.4124.075l2.175 3.2438c.0937.1311.0562.3186-.0937.4123-.1314.0938-.3187.0563-.4126-.0749l-2.1748-3.2438c-.0937-.1498-.0561-.3188.0937-.4124zm2.475 3.6937c.1124-.0751.15-.2251.0749-.3375l-2.1749-3.2438c-.075-.1123-.225-.1312-.3561-.0561-.1126.0749-.1502.2249-.0751.3375l2.1749 3.2436c.0751.0937.244.1314.3563.0563zM72.9439 60.7837c.1313-.0749.3-.0373.3749.0939l.8626 1.5188c.075.1312.0186.3-.1126.3749-.1312.0751-.3.0375-.3749-.0937l-.8624-1.5188c-.0563-.1312-.0186-.3002.1124-.3751z"/>
  <path fill="#526065" d="M72.9439 60.7652c.15-.0751.3188-.0376.3937.0936l.8625 1.5189c.0751.1312.0375.3188-.1123.3937-.1502.0751-.319.0374-.3939-.0938l-.8624-1.5188c-.0751-.1312-.0374-.3.1124-.3936zm1.1249 1.9876c.1127-.0751.1688-.2251.0939-.3376l-.8624-1.5188c-.0751-.1125-.2251-.15-.3376-.0939-.1126.0751-.1688.2251-.0939.3376l.8627 1.5188c.0561.1125.2249.169.3373.0939zM70.4501 59.5464c.15-.0562.3 0 .3563.1312l1.5188 3.6187c.0561.1313-.0188.3-.15.3562-.1313.0563-.3 0-.3562-.1313l-1.5188-3.6185c-.0563-.1314.0186-.3.1499-.3563z"/>
  <path fill="#526065" d="M70.4501 59.5276c.15-.0562.3187 0 .3938.15l1.5188 3.6187c.0271.0722.0246.1521-.007.2224-.0316.0702-.0898.1251-.1618.1525-.15.0564-.3188.0001-.3937-.1499l-1.5187-3.6186c-.0563-.1314.0188-.3.1686-.3751zm1.7062 4.1063c.1313-.0563.1876-.2063.1313-.3188l-1.5188-3.6188c-.0561-.1312-.2061-.1875-.3373-.1312-.1312.0562-.1878.2062-.1312.3188l1.5185 3.6188c.0751.1312.2063.1873.3375.1312zM69.5313 62.2088c.1502-.0561.3.0188.3563.1688l.5439 1.65c.0561.1312-.0376.3-.1688.3376-.15.0561-.3-.0188-.3561-.1688l-.5439-1.65c-.0561-.1313.0186-.2813.1686-.3376z"/>
  <path fill="#526065" d="M69.5127 62.1901c.0721-.0272.152-.0247.2223.007.0703.0316.1251.0898.1526.1618l.5439 1.65c.0561.1499-.0376.3187-.1878.375-.0721.0272-.152.0247-.2223-.0069-.0702-.0317-.1251-.0898-.1526-.1618l-.5437-1.65c-.0375-.15.0376-.3188.1876-.3751zm.7312 2.1561c.1313-.0374.2062-.1874.1688-.3186l-.5439-1.6499c-.0373-.1313-.1873-.1876-.3186-.15-.1314.0375-.2063.1875-.1688.3187l.5437 1.65c.0096.0318.0258.0613.0475.0865.0217.0251.0484.0455.0785.0596.0301.0141.0628.0218.096.0225.0332.0007.0662-.0059.0968-.0188zM67.319 60.5027c.1498-.0376.3.0561.3186.2061l.7876 3.8439c.0375.1498-.0751.2813-.2251.3186-.1498.0376-.3001-.0561-.3186-.2061l-.7878-3.8439c-.0186-.1313.0753-.2811.2253-.3186z"/>
  <path fill="#526065" d="M67.319 60.4837c.1686-.0374.3186.075.3561.2251l.7875 3.844c.0375.1498-.0751.3186-.2251.3373-.1687.0376-.3187-.0749-.356-.2249l-.7878-3.8439c-.0374-.15.0567-.3003.2253-.3376zm.881 4.3689c.1314-.0186.2251-.15.2063-.3l-.7875-3.8438c-.0186-.1313-.1686-.225-.3-.1876-.1312.0188-.2249.15-.2061.3l.7875 3.844c.0373.1313.1684.206.2998.1874zM65.894 62.94c.15-.0187.2812.0751.3187.2251l.2249 1.7249c.0188.15-.0937.2812-.2438.3-.1498.0188-.2811-.0749-.3186-.2249l-.2249-1.7251c-.0188-.15.0937-.2812.2437-.3z"/>
  <path fill="#526065" d="M65.8939 62.9213c.1688-.0186.3188.0939.3376.2439l.2249 1.7249c.0187.15-.0937.3-.2625.3188-.1688.0188-.3188-.0937-.3375-.2439l-.2249-1.7249c-.0188-.15.0936-.3.2624-.3188zm.2812 2.25c.1313-.0186.2439-.15.2251-.2812l-.2251-1.7249c-.0187-.1313-.15-.2251-.2812-.2064-.1312.0188-.2439.15-.2251.2813l.2251 1.7251c.0188.1312.15.2249.2812.2061zM63.9627 60.8399c.15 0 .2812.1127.2812.2627v3.9186c0 .15-.1312.2627-.2812.2627s-.2812-.1127-.2812-.2627v-3.9186c.0187-.15.1312-.2627.2812-.2627z"/>
  <path fill="#526065" d="M63.9627 60.8212c.1687 0 .2999.1312.2999.2812v3.9188c0 .15-.1312.2812-.2999.2812-.1688 0-.3-.1312-.3-.2812v-3.9186c0-.15.15-.2814.3-.2814zm0 4.4439c.1312 0 .2624-.1125.2624-.2439v-3.9186c0-.1314-.1125-.2439-.2624-.2439-.1313 0-.2625.1125-.2625.2439v3.9186c.0186.1314.1312.2439.2625.2439zM62.0876 62.94c.15.0188.2625.1313.2625.2813l-.1313 1.7438c-.0185.15-.15.2625-.3.2439-.15-.019-.2624-.1314-.2624-.2814l.1312-1.7439c.0188-.1498.15-.2624.3-.2437z"/>
  <path fill="#526065" d="M62.0877 62.9213c.1688.0187.2812.15.2812.3l-.1312 1.7439c-.0188.15-.15.2812-.3188.2624-.1686-.0187-.2812-.15-.2812-.3l.1312-1.7439c.0188-.1686.15-.281.3188-.2624zm-.1688 2.2688c.1312 0 .2627-.0937.2627-.2249l.1312-1.7439c0-.1313-.0939-.2437-.2439-.2625-.1312 0-.2624.0937-.2624.2251l-.1313 1.7437c0 .1313.1123.2439.2437.2625zM60.6814 60.5026c.15.0374.2437.1686.2249.3186l-.7687 3.844c-.0376.15-.1688.2439-.3188.2061-.15-.0373-.2437-.1685-.2249-.3187l.7688-3.8439c.0187-.1312.1687-.2249.3187-.2061z"/>
  <path fill="#526065" d="M60.6815 60.4836c.1686.0376.2624.1878.2437.3376l-.7688 3.8439c-.0376.15-.1876.2625-.3561.2249-.1688-.0375-.2627-.1875-.2439-.3375l.7688-3.8438c.0375-.15.1877-.244.3563-.2251zm-.8812 4.3689c.1312.0187.2624-.0562.3-.1874l.7685-3.8439c.0188-.1313-.0561-.2625-.2061-.3-.1312-.0186-.2625.0561-.3.1875l-.7688 3.8439c-.0188.15.0749.2625.2064.2999zM58.4313 62.1902c.1502.0375.2439.1875.2063.3375l-.4688 1.6875c-.0373.15-.1873.2249-.3373.1875-.0358-.0086-.0694-.0241-.0991-.0458-.0298-.0216-.0549-.0488-.0741-.0802-.0191-.0313-.0319-.0662-.0376-.1025-.0057-.0363-.0042-.0733.0045-.109l.4687-1.6875c.0376-.15.1874-.2249.3374-.1875z"/>
  <path fill="#526065" d="M58.4313 62.1716c.1502.0373.2626.2061.2063.3561l-.4688 1.6875c-.0373.15-.2061.2439-.3561.2061-.15-.0373-.2625-.2061-.2063-.3561l.4687-1.6875c.0376-.15.1876-.2437.3562-.2061zm-.6186 2.1936c.1312.0376.2812-.0375.3188-.1688l.4685-1.6875c.0376-.1312-.0373-.2624-.1873-.3-.1312-.0375-.2812.0376-.3188.1688l-.4687 1.6875c-.0188.1312.0561.2625.1875.3zM57.5127 59.5464c.15.0561.2061.2249.15.3561l-1.5 3.6188c-.0561.1314-.2251.2063-.3561.1314-.1314-.0751-.2065-.2251-.1502-.3563l1.5-3.6188c.0561-.1312.2253-.2063.3563-.1312z"/>
  <path fill="#526065" d="M57.5126 59.5276c.0721.0274.1303.0823.1619.1526.0317.0704.0341.1503.0069.2225l-1.5 3.6185c-.0563.15-.2251.2064-.3938.15-.072-.0274-.1302-.0823-.1619-.1526-.0316-.0702-.0341-.1502-.0069-.2223l1.5-3.6187c.0751-.15.2438-.2249.3938-.15zm-1.7063 4.1063c.1313.0561.2813 0 .3376-.1312l1.5-3.6188c.0561-.1312-.0188-.2626-.15-.3188-.1313-.0561-.2813 0-.3376.1313l-1.5 3.6187c-.0375.1125.0188.2625.15.3188zM54.9815 60.7465c.1312.0749.1873.2249.1312.3561l-.7875 1.5562c-.0751.1312-.2251.1875-.3751.1124-.1313-.0749-.1874-.2249-.1313-.3561l.7878-1.556c.0749-.1314.2249-.1877.3749-.1126z"/>
  <path fill="#526065" d="M54.9815 60.7276c.15.0749.2061.2438.1312.3936l-.7876 1.5563c-.0751.15-.2438.2063-.3936.1312-.15-.0749-.2064-.2438-.1313-.3936l.7874-1.5561c.0751-.1502.2439-.2063.3939-.1314zm-1.0314 2.0436c.1312.0561.2814.0188.3375-.1125l.7875-1.556c.0562-.1127 0-.2627-.1124-.3376-.1312-.0561-.2812-.0187-.3376.1125l-.7875 1.5561c-.0561.1126-.0002.2626.1125.3375zM54.6064 57.9714c.1312.0937.1688.2625.0751.375l-2.1751 3.2439c-.0749.1311-.2439.1499-.3749.0749-.1312-.0938-.1688-.2624-.0751-.3751l2.1751-3.2439c.0749-.1311.2437-.1684.3749-.0748z"/>
  <path fill="#526065" d="M54.6064 57.9525c.1312.0939.1688.2814.0937.4126l-2.175 3.2439c-.0936.1311-.2624.1686-.4124.0749-.1312-.0938-.1688-.2812-.0939-.4126l2.1751-3.2437c.0937-.1312.2813-.1688.4125-.0751zm-2.4749 3.6939c.1122.0749.2812.0561.3561-.0561l2.1751-3.2439c.0749-.1125.0376-.2625-.0751-.3376-.1124-.0749-.2812-.0561-.3561.0561l-2.1751 3.2252c-.0749.1127-.0376.2814.0751.3563zM51.8688 58.6651c.1127.0937.15.2625.0564.3749l-1.0876 1.3688c-.0937.1124-.2624.1312-.3749.0375-.1124-.0937-.15-.2624-.0561-.3751l1.0873-1.3687c.0937-.1123.2625-.1312.3749-.0374z"/>
  <path fill="#526065" d="M51.8876 58.6464c.1312.0936.15.2812.0561.4124l-1.0873 1.3688c-.0937.1312-.2813.15-.4125.0376-.1312-.0939-.15-.2813-.0561-.4127l1.0873-1.3686c.0937-.1314.2813-.15.4125-.0375zm-1.4062 1.7812c.1123.0937.2625.0751.3562-.0375l1.0875-1.3688c.0751-.1123.056-.2625-.0563-.3562-.1126-.0938-.2624-.0751-.3561.0376l-1.0876 1.3686c-.0749.1126-.0559.2812.0563.3563zM52.0563 55.8527c.1125.1122.1125.2812 0 .3749l-2.7749 2.7561c-.1126.1126-.2812.0939-.375 0-.0937-.0937-.1125-.2812 0-.3749l2.756-2.7561c.1127-.1127.2815-.1127.3939 0z"/>
  <path fill="#526065" d="M52.0751 55.8339c.054.055.0843.129.0843.2061s-.0303.1512-.0843.2062L49.3 59.0027c-.055.054-.129.0843-.2061.0843s-.1511-.0303-.2061-.0843c-.0542-.055-.0845-.1291-.0845-.2063 0-.0772.0303-.1513.0845-.2063l2.7749-2.7562c.055-.0541.129-.0844.2062-.0844.0771 0 .1512.0303.2062.0844zm-3.1687 3.1498c.0936.0937.2624.0937.3561 0l2.7751-2.7563c.0938-.0937.0938-.2625 0-.3561-.0937-.0939-.2625-.0939-.3562 0l-2.7751 2.7561c-.0936.0937-.0936.244.0001.3563zM49.2439 56.0027c.0937.1122.0937.2812-.0188.3749l-1.3312 1.1251c-.1125.0937-.2812.075-.3751-.0375-.0937-.1127-.0937-.2812.0188-.3751l1.3312-1.125c.1126-.0938.2812-.0751.3751.0376z"/>
  <path fill="#526065" d="M49.2627 55.9837c.1124.1315.0937.3188-.0188.4127l-1.3312 1.1248c-.1125.1127-.3.0939-.4125-.0373-.1126-.1314-.0938-.3188.0186-.4126l1.3314-1.1249c.1123-.1125.3002-.0939.4125.0373zm-1.7251 1.4814c.0939.1125.244.1125.3563.0376l1.3312-1.1251c.0937-.0937.1125-.2439.0188-.3561-.0939-.1127-.2439-.1127-.3561-.0376l-1.3314 1.1249c-.1125.0937-.1125.2441-.0188.3563zM49.9939 53.3025c.0937.1314.0561.3-.0751.3751l-3.2624 2.175c-.1312.0749-.3.0374-.3749-.0751-.0939-.1312-.0563-.3.0749-.3751l3.2626-2.1748c.1127-.0749.281-.0376.3749.0749z"/>
  <path fill="#526065" d="M50.0127 53.3025c.0937.1314.0561.3188-.0751.4127L46.6752 55.89c-.1313.0939-.3188.0562-.4125-.0936-.0939-.1313-.0561-.3188.0749-.4125l3.2626-2.1751c.1313-.0936.3188-.0561.4125.0937zm-3.7124 2.4563c.0749.1125.2249.15.3373.0751L49.9 53.6588c.1127-.0749.15-.2249.0564-.3561-.0749-.1126-.2247-.15-.3374-.0751l-3.2626 2.1748c-.1125.0937-.1312.244-.0561.3564zM47.2001 52.9088c.0751.1312.0375.3-.0937.3751l-1.5188.8624c-.1312.0749-.3.0188-.3749-.1125-.0751-.1312-.0375-.2999.0937-.375l1.5188-.8625c.1312-.0751.2998-.0187.3749.1125z"/>
  <path fill="#526065" d="M47.219 52.89c.0749.15.0374.3188-.0938.3939l-1.5188.8624c-.1312.0749-.3188.0188-.3937-.1125-.0751-.15-.0375-.3187.0937-.3938l1.5188-.8624c.1312-.0751.3189-.0188.3938.1124zm-1.9877 1.1251c.0751.1312.2251.1687.3376.0937l1.5187-.8625c.1125-.0751.15-.225.0939-.3375-.0751-.1312-.2251-.1688-.3376-.0937l-1.5187.8624c-.1125.0562-.1502.2064-.0939.3376zM48.4563 50.4151c.0562.15 0 .3-.15.3562l-3.6187 1.5c-.1313.0563-.3-.0186-.3562-.15-.0563-.15 0-.3.15-.3562l3.6188-1.5c.1312-.0561.3 0 .3561.15z"/>
  <path fill="#526065" d="M48.4751 50.3964c.0561.15 0 .3187-.15.3936l-3.6188 1.5c-.0721.0272-.152.0247-.2223-.0069-.0702-.0317-.1251-.0898-.1526-.1618-.0563-.15 0-.3188.15-.3937l3.6188-1.5c.0721-.0272.152-.0247.2223.0069.0703.0317.1251.0899.1526.1619zm-4.1063 1.7061c.0563.1314.2063.1877.3188.15l3.6187-1.5c.1313-.0561.1876-.2061.1313-.3374-.0562-.1312-.2062-.1875-.3188-.15l-3.6188 1.5c-.1312.0562-.1874.206-.1312.3374zM45.8127 49.4776c.0562.15-.0187.3-.1687.3561l-1.6501.5439c-.1312.0561-.3-.0376-.3375-.1688-.0561-.15.0188-.3.1688-.3561l1.65-.5439c.1312-.0561.2812.0188.3375.1688z"/>
  <path fill="#526065" d="M45.8313 49.4588c.0563.15-.0186.3186-.1873.3749l-1.6501.5439c-.15.0561-.3187-.0375-.375-.1875-.0562-.15.0187-.3188.1877-.3749l1.6498-.5439c.15-.0374.3186.0373.3749.1875zm-2.1747.7127c.0375.1312.1875.2063.3188.1688l1.65-.5439c.1312-.0374.1875-.1874.15-.3186-.0376-.1312-.1876-.2063-.3188-.1688l-1.65.5439c-.1312.0561-.1875.1874-.15.3186zM47.5003 47.2463c.0373.15-.0564.3-.2064.3188l-3.8438.75c-.15.0376-.2813-.0751-.3186-.2251-.0376-.15.0561-.3.2061-.3188l3.8439-.75c.15-.0185.3002.0751.3188.2251z"/>
  <path fill="#526065" d="M47.5375 47.2463c.0376.1688-.0749.3188-.2249.3562l-3.8438.75c-.15.0375-.3-.0749-.3374-.2437-.0375-.1688.0749-.3188.2249-.3561l3.8439-.75c.1498-.0376.3.0749.3373.2436zm-4.3687.8439c.0187.131.15.2249.2812.2061l3.8439-.75c.1312-.0187.2249-.1687.1875-.3-.0188-.1312-.15-.225-.2814-.2063l-3.8437.75c-.1312.0376-.2249.169-.1875.3002zM45.1003 45.8027c.0185.1498-.0751.2813-.2251.3l-1.7249.2062c-.1502.0188-.2814-.0937-.3-.2439-.0188-.1498.0749-.2811.2249-.3l1.7251-.2062c.1312-.0188.2812.0937.3.2439z"/>
  <path fill="#526065" d="M45.1191 45.8027c.0185.1685-.0939.3185-.2439.3373l-1.7249.2063c-.1502.0188-.3-.0937-.3188-.2624-.0188-.1688.0937-.3188.2437-.3375l1.7251-.2064c.1498-.0187.3002.0941.3188.2627zm-2.2688.2623c.0188.1312.15.244.2812.225l1.7249-.2061c.1312-.0188.2251-.15.2063-.2812-.0187-.1314-.15-.2439-.2812-.2251l-1.7251.2063c-.1312.0188-.2247.1499-.2061.2811zM47.2001 43.9837c0 .1502-.1123.2814-.2625.2814h-3.9185c-.15 0-.2625-.1312-.2625-.2812s.1125-.2814.2625-.2814h3.9187c.15 0 .2623.1312.2623.2812z"/>
  <path fill="#526065" d="M47.219 43.9837c0 .169-.1314.3-.2814.3H43.019c-.15 0-.2812-.1312-.2812-.3 0-.1686.1312-.3.2812-.3h3.9188c.15 0 .2812.1314.2812.3zm-4.4439-.0186c0 .1312.1125.2625.2439.2625h3.9186c.1312 0 .2439-.1125.2439-.2625 0-.1312-.1125-.2626-.2437-.2626h-3.9187c-.1313.0188-.244.1314-.244.2626zM45.1191 42.09c-.019.15-.1315.2625-.2815.2625l-1.7438-.1312c-.1498-.0188-.2623-.15-.2437-.3.0188-.15.1314-.2625.2814-.2625l1.7437.1312c.1312.0188.2439.15.2439.3z"/>
  <path fill="#526065" d="M45.1376 42.0901c-.0188.1687-.15.2812-.3.2812l-1.7439-.1312c-.1498-.0188-.281-.1501-.2623-.3188.0186-.1686.15-.2812.3-.2812l1.7437.1312c.15.0188.2625.1688.2625.3188zm-2.2875-.1688c-.0186.1312.0938.2626.225.2626l1.7439.1312c.131 0 .2437-.0938.2625-.2438.0187-.1312-.0939-.2625-.2251-.2625l-1.7439-.1312c-.1311 0-.2436.1122-.2624.2437zM47.5376 40.7212c-.0376.15-.1688.2439-.3188.2251l-3.8437-.7875c-.15-.0376-.2438-.1688-.2063-.3188.0375-.15.1688-.2438.3188-.2249l3.8438.7688c.1313.0373.2249.1873.2062.3373z"/>
  <path fill="#526065" d="M47.5563 40.7213c-.0375.1687-.1875.2626-.3375.2438l-3.8437-.7687c-.15-.0376-.2624-.1876-.2249-.3562.0374-.1689.1874-.2626.3374-.2438l3.8438.7687c.15.0376.2437.1876.2249.3562zm-4.3687-.8813c-.0188.1313.0561.2625.1875.3l3.8439.7688c.1312.0188.2624-.0561.3-.2063.0186-.1312-.0563-.2625-.1878-.3l-3.8434-.7686c-.15-.0188-.2627.0749-.3002.2061zM45.8502 38.4715c-.0086.0357-.0242.0693-.0458.099-.0217.0297-.0489.0548-.0803.074-.0313.0191-.0661.0319-.1024.0376-.0363.0057-.0734.0041-.1091-.0045l-1.6875-.4688c-.15-.0375-.2249-.1875-.1876-.3375.0086-.0357.0242-.0694.0458-.0991.0217-.0297.0489-.0548.0803-.074.0313-.0191.0662-.0319.1024-.0376.0363-.0056.0734-.0041.1091.0045l1.6875.4688c.15.0374.2249.1876.1876.3376z"/>
  <path fill="#526065" d="M45.8688 38.4714c-.0373.1498-.2062.2625-.3562.2062l-1.6875-.4688c-.15-.0375-.2438-.2063-.2063-.3561.0376-.1502.2064-.2627.3564-.2064l1.6875.4688c.15.0376.2439.1877.2061.3563zm-2.1936-.6191c-.0376.1314.0375.2814.1687.3187l1.6876.4688c.1312.0376.2624-.0375.3-.1875.0373-.1313-.0376-.281-.1689-.3184l-1.6875-.4688c-.1312-.0187-.2624.0558-.2999.1872zM48.4939 37.5715c-.0561.1498-.2251.2061-.3561.1498l-3.619-1.5c-.1312-.0561-.2061-.2249-.15-.3561.0563-.15.2251-.2064.3563-.15l3.6188 1.4999c.15.0562.2064.2251.15.3564z"/>
  <path fill="#526065" d="M48.5127 37.59c-.0274.0721-.0823.1303-.1526.1619-.0703.0317-.1503.0341-.2225.0069l-3.6187-1.5c-.15-.0561-.2062-.2249-.1501-.3936.0275-.0721.0824-.1303.1527-.162.0703-.0316.1503-.0341.2225-.0068l3.6187 1.4999c.15.0749.2062.2439.15.3937zm-4.1063-1.7061c-.0561.1312 0 .2812.1312.3374l3.6188 1.4999c.1312.0564.2625-.0187.3188-.15.0561-.1312 0-.2812-.1312-.3373l-3.6188-1.5c-.1312-.0375-.2812.0188-.3188.15zM47.2751 35.0401c-.0749.1312-.2249.1875-.3561.1312l-1.5563-.7874c-.1312-.0563-.1876-.2251-.1125-.3751.0749-.1312.2249-.1875.3562-.1312l1.5561.7875c.1314.0749.1877.2439.1126.375z"/>
  <path fill="#526065" d="M47.2939 35.0588c-.0751.15-.2439.2064-.3939.1313l-1.5561-.7876c-.15-.0749-.2063-.2437-.1312-.3937.0749-.15.2439-.2063.3937-.1312l1.5561.7875c.1502.0562.2063.2439.1314.3937zm-2.0251-1.0312c-.0561.1312-.0186.2812.1126.3376l1.5562.7875c.1126.0561.2626 0 .3375-.1126.0562-.1313.0188-.2813-.1124-.3376l-1.5753-.7872c-.1125-.0561-.2623-.0189-.3186.1123zM50.0312 34.6837c-.0936.1314-.2436.169-.3749.0751l-3.2438-2.1561c-.1311-.0751-.1498-.2439-.0749-.3751.0751-.1313.2438-.1688.3751-.0751l3.2624 2.1751c.1125.0751.15.2438.0561.3561z"/>
  <path fill="#526065" d="M50.0501 34.7025c-.0937.1314-.2813.1687-.4123.0938l-3.2439-2.1751c-.1312-.0936-.1687-.2624-.0751-.4122.0939-.1314.2815-.169.4127-.0939l3.2437 2.1749c.15.0939.1687.2812.0749.4125zm-3.6937-2.4749c-.0749.1124-.0561.2812.0561.3561l3.2627 2.1753c.1124.0751.2624.0375.3375-.0749.0749-.1127.0561-.2814-.0561-.3563l-3.2629-2.1751c-.1124-.0751-.2622-.0376-.3373.0749zM49.3377 31.9651c-.0937.1124-.2625.15-.375.0561l-1.3687-1.0685c-.1125-.0939-.1313-.2627-.0376-.3751.0937-.1125.2625-.15.3751-.0561l1.3686 1.0685c.1127.0939.1314.2624.0376.3751z"/>
  <path fill="#526065" d="M49.3564 31.9837c-.0937.1314-.2812.1502-.4125.0563l-1.3687-1.0686c-.1313-.0936-.15-.2812-.0562-.4122.0937-.1314.2813-.1502.4123-.0563l1.3688 1.0685c.1314.0939.1501.2809.0563.4123zm-1.8-1.4061c-.0937.1124-.0749.2624.0375.3561l1.3688 1.069c.1125.0749.2625.0561.3561-.0564.0939-.1124.0751-.2624-.0373-.3561l-1.3688-1.0689c-.1124-.0749-.2628-.0562-.3563.0563zM52.1313 32.1525c-.1122.1126-.2812.1126-.3749 0l-2.7935-2.7561c-.1124-.1125-.0938-.2813 0-.3751.1125-.1123.2813-.1123.3749 0l2.7752 2.7563c.1124.0937.112.281.0183.3749z"/>
  <path fill="#526065" d="M52.1312 32.1715c-.055.054-.129.0842-.2061.0842s-.1511-.0302-.2061-.0842l-2.7753-2.7565c-.0541-.0551-.0845-.1292-.0845-.2064 0-.0772.0304-.1513.0845-.2063.055-.0541.1291-.0844.2062-.0844.0772 0 .1512.0303.2063.0844l2.775 2.7563c.1313.1125.1313.3004 0 .4129zm-3.1496-3.1316c-.0938.0938-.0938.2626 0 .3561l2.7748 2.7565c.0939.0939.2626.0937.3563-.0002.0938-.0937.0938-.2624 0-.3561l-2.7749-2.7749c-.0936-.0937-.2439-.0939-.3562.0186zM51.9627 29.3588c-.1124.0939-.2812.0939-.3751-.0188l-1.1438-1.3124c-.0935-.1125-.0749-.2812.0377-.3749.1123-.0939.2812-.0939.3749.0186l1.1439 1.3126c.0936.0937.0749.2625-.0376.3749z"/>
  <path fill="#526065" d="M51.9815 29.3588c-.1312.1125-.3.0939-.4127-.0187l-1.1437-1.3125c-.1124-.1125-.0937-.3.0376-.4125.1312-.1126.3-.0938.4124.0188l1.1439 1.3123c.0937.1314.0937.319-.0375.4126zm-1.5-1.7061c-.1126.0937-.1127.2437-.0376.3561l1.1439 1.3125c.0937.0939.2437.1126.3561.0188.1125-.0937.1125-.2439.0376-.3562l-1.1439-1.3126c-.0937-.1123-.2438-.1123-.3561-.0186zM54.6627 30.0714c-.1312.0937-.3.0562-.3751-.075l-2.1937-3.2439c-.0751-.1312-.0375-.3.0749-.3749.1313-.0937.3-.0561.3751.0751l2.1749 3.2437c.0939.1312.0564.3001-.0561.375z"/>
  <path fill="#526065" d="M54.6626 30.0901c-.1312.0938-.3187.0561-.4126-.0749l-2.1749-3.2439c-.0937-.1312-.0561-.3186.0937-.4123.1312-.0938.3188-.0563.4126.0749l2.1749 3.2437c.0937.15.0561.3188-.0937.4125zm-2.4752-3.6937c-.1125.0749-.15.2249-.0749.3375l2.1749 3.2437c.075.1125.225.1312.3561.0561.1126-.0749.1504-.2249.0753-.3373l-2.1749-3.2251c-.0751-.1123-.2443-.15-.3565-.0749zM55.0564 27.2963c-.1313.075-.3.0376-.3749-.0936l-.8627-1.5188c-.0749-.1312-.0188-.3.1127-.3751.1312-.0749.3-.0375.3749.0939l.8624 1.5186c.0564.1312.0186.3-.1124.375z"/>
  <path fill="#526065" d="M55.0564 27.3151c-.15.0749-.3188.0376-.3937-.0938L53.8 25.7027c-.0749-.1314-.0374-.3188.1127-.3939.15-.0749.3188-.0375.3937.0939l.8624 1.5186c.0751.1312.0374.3-.1124.3938zm-1.125-1.9875c-.1126.0749-.1688.2249-.0938.3375l.8626 1.5188c.0749.1123.2249.15.3374.0937.1126-.0749.1688-.2251.0939-.3376l-.8627-1.5187c-.0561-.1123-.2249-.1688-.3374-.0937zM57.55 28.5339c-.1498.0561-.3 0-.3561-.1312l-1.5188-3.619c-.0561-.1312.0188-.3.15-.3563.15-.0561.3 0 .3562.1312L57.7 28.1774c.0564.1312-.0185.3004-.15.3565z"/>
  <path fill="#526065" d="M57.55 28.5527c-.1498.0561-.3186 0-.3937-.1502l-1.5187-3.6186c-.0273-.0721-.0248-.1521.0068-.2224.0317-.0703.0899-.1252.1619-.1527.15-.0561.3188 0 .3939.15l1.5186 3.6188c.0563.1312-.0188.3-.1688.3751zm-1.7061-4.1064c-.1312.0562-.1876.2064-.1312.3188l1.5185 3.6186c.0561.1312.2061.1874.3374.1312.1312-.0561.1877-.2063.1312-.3187l-1.5186-3.6188c-.0751-.1312-.2061-.1874-.3373-.1311zM58.4688 25.8715c-.15.0561-.3-.019-.3561-.1688l-.5439-1.6502c-.0561-.1312.0375-.3.1688-.3373.1312-.0376.3.0187.3561.1687l.5439 1.65c.0561.1313-.0188.2815-.1688.3376z"/>
  <path fill="#526065" d="M58.4876 25.8901c-.0721.0271-.152.0246-.2223-.007s-.1251-.0898-.1526-.1618l-.5439-1.65c-.0561-.15.0376-.3186.1878-.3749.0721-.0272.152-.0247.2223.0069.0702.0317.1251.0899.1526.1619l.5437 1.65c.0375.15-.0376.3187-.1876.3749zm-.7312-2.1562c-.1313.0374-.2064.1874-.1688.3186l.5439 1.6502c.0373.1312.1873.1874.3188.1498.1312-.0373.2061-.1873.1685-.3186l-.5436-1.6502c-.0096-.0318-.0258-.0613-.0475-.0864-.0217-.0252-.0484-.0455-.0785-.0597-.03-.0141-.0628-.0218-.096-.0225-.0332-.0006-.0662.0059-.0968.0188zM60.6815 27.5775c-.15.0376-.3-.0561-.3188-.2063l-.7875-3.8436c-.0376-.15.0751-.2813.2249-.3188.1502-.0376.3.0561.3187.2063l.7878 3.8439c.0186.131-.0751.281-.2251.3185z"/>
  <path fill="#526065" d="M60.6814 27.5964c-.1687.0375-.3187-.0751-.3563-.2251l-.7875-3.8437c-.0376-.15.0751-.3188.2251-.3375.1687-.0376.3188.075.3561.225l.7878 3.8439c.0373.1498-.0564.3-.2252.3374zm-.8812-4.3688c-.1314.0188-.2251.15-.2063.3l.7875 3.8439c.0188.131.1686.2249.3.1873.1313-.0188.2249-.15.2062-.3L60.1 23.415c-.0373-.1311-.1684-.2062-.2998-.1874zM62.1064 25.14c-.15.0188-.2812-.0749-.3188-.2249l-.2249-1.7251c-.0188-.15.0937-.2812.2439-.3.1498-.0188.281.0751.3185.2251L62.35 24.84c.0188.15-.0936.2813-.2436.3z"/>
  <path fill="#526065" d="M62.1064 25.1588c-.1687.0188-.3187-.0937-.3375-.2439L61.544 23.19c-.0188-.15.0937-.3.2624-.3187.1688-.0186.3188.0938.3376.2438l.2249 1.7249c.0187.15-.0937.3-.2625.3188zm-.2812-2.25c-.1312.0188-.2439.15-.2251.2812l.2251 1.7251c.0188.1313.15.2249.2812.2062.1312-.0186.2439-.15.2251-.2813l-.2251-1.7249c-.0188-.1312-.15-.2251-.2812-.2063z"/>
  <g filter="url(#filter1_d)">
    <path stroke="#526065" d="M61.943 41.7891l15.4617-9.9086-10.9715 14.4448-.0065.0085-14.1372 11.3776 9.6535-15.9223z"/>
  </g>
  <path stroke="#526065" d="M77.1009 30.9547L66.6728 45.8586l-4.3975-4.3659 14.8256-10.538zM61.5337 42.2215l4.3973 4.3659-14.8255 10.5381 10.4282-14.904z"/>
  <path stroke="#526065" d="M52.7763 54.7377l8.7818-12.551 1.8649 1.8383-10.6467 10.7127zm11.3513-11.4223l-1.8642-1.8376 12.4671-8.8447-10.6029 10.6823z"/>
  <defs>
    <filter id="filter0_d" width="126.125" height="126.125" x=".9375" y=".508789" color-interpolation-filters="sRGB" filterUnits="userSpaceOnUse">
      <feFlood flood-opacity="0" result="BackgroundImageFix"/>
      <feColorMatrix in="SourceAlpha" values="0 0 0 0 0 0 0 0 0 0 0 0 0 0 0 0 0 0 127 0"/>
      <feOffset dy="19.5312"/>
      <feGaussianBlur stdDeviation="19.5312"/>
      <feColorMatrix values="0 0 0 0 0 0 0 0 0 0 0 0 0 0 0 0 0 0 0.266007 0"/>
      <feBlend in2="BackgroundImageFix" result="effect1_dropShadow"/>
      <feBlend in="SourceGraphic" in2="effect1_dropShadow" result="shape"/>
    </filter>
    <filter id="filter1_d" width="107.244" height="108.069" x="11.3252" y=".643066" color-interpolation-filters="sRGB" filterUnits="userSpaceOnUse">
      <feFlood flood-opacity="0" result="BackgroundImageFix"/>
      <feColorMatrix in="SourceAlpha" values="0 0 0 0 0 0 0 0 0 0 0 0 0 0 0 0 0 0 127 0"/>
      <feOffset dy="9.76562"/>
      <feGaussianBlur stdDeviation="19.5312"/>
      <feColorMatrix values="0 0 0 0 0 0 0 0 0 0 0 0 0 0 0 0 0 0 1 0"/>
      <feBlend in2="BackgroundImageFix" result="effect1_dropShadow"/>
      <feBlend in="SourceGraphic" in2="effect1_dropShadow" result="shape"/>
    </filter>
  </defs>
</svg>
