<svg width="72" height="80" fill="none" xmlns="http://www.w3.org/2000/svg">
  <g filter="url(#filter0_d)">
    <path d="M5.32309 22.2887L36 4.57735 66.6769 22.2887v35.4226L36 75.4226 5.32309 57.7113V22.2887z" stroke="#78B0B5"/>
  </g>
  <path d="M36.4811 22l15.9095 8.999v18.002L36.4811 58l-15.9096-8.999V30.999L36.4811 22z" fill="#78B0B5"/>
  <path d="M49.5499 48.3801l-12.5426 7.0956v-5.5252l7.815-4.3001 4.7276 2.7297zm.8592-.777V32.7665l-4.5879 2.6516v9.5375l4.5879 2.6475zm-27.0462.777l12.5426 7.0956v-5.5252l-7.8191-4.3001-4.7235 2.7297zm-.8592-.777V32.7665l4.5878 2.6516v9.5375l-4.5878 2.6475zm.5385-15.7986l12.8633-7.2764v5.3402l-8.2425 4.5344-.0658.037-4.555-2.6352zm26.8284 0l-12.8633-7.2764v5.3402l8.2425 4.5303.0658.037 4.555-2.6311z" fill="#1E2224"/>
  <path d="M35.9056 48.6928l-7.7122-4.2425v-8.3988l7.7122 4.4522v8.1891zm1.1017 0l7.7123-4.2384v-8.4029l-7.7123 4.4522v8.1891zm-8.2918-13.6115l7.741-4.2549 7.741 4.2549-7.741 4.4687-7.741-4.4687z" fill="#BCD8DB"/>
  <defs>
    <filter id="filter0_d" x=".822998" y="0" width="70.3538" height="80" filterUnits="userSpaceOnUse" color-interpolation-filters="sRGB">
      <feFlood flood-opacity="0" result="BackgroundImageFix"/>
      <feColorMatrix in="SourceAlpha" values="0 0 0 0 0 0 0 0 0 0 0 0 0 0 0 0 0 0 127 0"/>
      <feOffset/>
      <feGaussianBlur stdDeviation="2"/>
      <feColorMatrix values="0 0 0 0 0.737255 0 0 0 0 0.847059 0 0 0 0 0.858824 0 0 0 1 0"/>
      <feBlend in2="BackgroundImageFix" result="effect1_dropShadow"/>
      <feBlend in="SourceGraphic" in2="effect1_dropShadow" result="shape"/>
    </filter>
  </defs>
</svg>
