<svg width="72" height="80" fill="none" xmlns="http://www.w3.org/2000/svg">
  <g filter="url(#filter0_d)">
    <path d="M5.32309 22.2887L36 4.57735 66.6769 22.2887v35.4226L36 75.4226 5.32309 57.7113V22.2887z" stroke="#78B0B5"/>
  </g>
  <path d="M40.5127 47.1006h3.8881l-6.1954-16.0879h-4.2833l-6.1955 16.0879h3.8881l1.0199-2.7281h5.8512l-1.058-3.0212h-3.8626l2.5113-6.9221 4.4362 12.6714zm12.8117-11.9193c-.1403-.4844-.6502-.7776-1.1473-.6501-.4845.1402-.7777.6501-.6502 1.1473.3824 1.4022.5864 2.8555.5864 4.3088 0 8.8852-7.228 16.126-16.126 16.126-8.8981 0-16.1261-7.228-16.1261-16.1133 0-8.8853 7.2408-16.1261 16.1261-16.1261 3.7606 0 7.4192 1.3513 10.2875 3.7224-.1147.2677-.1785.5609-.1785.8669 0 1.2365.9944 2.2563 2.2564 2.2563 1.2365 0 2.2564-.9943 2.2564-2.2563 0-1.2621-.9944-2.2564-2.2564-2.2564-.2422 0-.4717.0382-.6884.1147C44.4263 23.5552 40.2833 22 36 22c-9.9178 0-18 8.0694-18 18s8.0694 18 17.9873 18c9.9178 0 18-8.0822 18-18 0-1.6317-.2295-3.2507-.6629-4.8187z" fill="#78B0B5"/>
  <defs>
    <filter id="filter0_d" x=".822998" y="0" width="70.3538" height="80" filterUnits="userSpaceOnUse" color-interpolation-filters="sRGB">
      <feFlood flood-opacity="0" result="BackgroundImageFix"/>
      <feColorMatrix in="SourceAlpha" values="0 0 0 0 0 0 0 0 0 0 0 0 0 0 0 0 0 0 127 0"/>
      <feOffset/>
      <feGaussianBlur stdDeviation="2"/>
      <feColorMatrix values="0 0 0 0 0.737255 0 0 0 0 0.847059 0 0 0 0 0.858824 0 0 0 1 0"/>
      <feBlend in2="BackgroundImageFix" result="effect1_dropShadow"/>
      <feBlend in="SourceGraphic" in2="effect1_dropShadow" result="shape"/>
    </filter>
  </defs>
</svg>
