<svg width="608" height="609" viewBox="0 0 608 609" fill="none" xmlns="http://www.w3.org/2000/svg">
<g filter="url(#filter0_d)">
<mask id="path-1-inside-1" fill="white">
<path d="M282.478 9.50094C210.167 15.0638 145.738 44.7323 94.6335 95.7159C47.3524 143.118 19.653 199.205 10.0373 267.342C7.37364 286.23 7.37364 323.774 10.0373 342.667C19.653 410.925 47.2376 466.548 94.7483 514.173C141.794 561.339 199.856 589.963 266.834 598.884C297.312 602.937 337.061 601.089 368.813 594.016C469.627 571.535 552.484 496.554 584.931 398.404C601.734 347.88 604.518 292.258 592.927 240.108C570.561 139.524 494.892 55.9727 397.201 23.9909C361.161 12.1706 318.168 6.72254 282.478 9.50094ZM297.886 22.2514C298.115 22.946 299.396 23.411 300.67 23.411C302.639 23.411 302.639 23.6406 301.25 25.0358C300.44 25.966 298.351 26.8901 296.847 27.1196C295.343 27.3492 294.183 28.0498 294.298 28.8591C294.413 29.5537 292.093 30.8282 289.085 31.6436L283.752 33.1475L287.11 34.5367C291.163 36.2763 296.611 36.6205 297.191 35.1166C297.42 34.5367 301.365 34.422 306.807 35.0018C320.137 36.391 336.59 44.2732 326.274 44.2732C323.725 44.2732 323.374 44.5027 324.77 45.4329C325.7 46.0127 329.523 46.5926 333.346 46.5926C339.26 46.5926 339.954 46.8221 338.68 48.3321C337.87 49.2562 335.436 50.0716 333.232 50.0716H329.179L331.842 52.2762L334.506 54.36L328.484 56.2143C320.487 58.5336 304.958 68.1493 305.768 70.3539C306.233 71.3989 305.653 71.8579 304.264 71.8579C303.104 71.7432 300.211 72.6673 297.777 73.8269C294.419 75.3309 293.023 75.5665 291.984 74.5215C291.29 73.8269 290.13 73.2471 289.436 73.2471C288.856 73.2471 288.971 73.7122 289.901 74.292C291.06 75.1014 291.175 75.796 290.13 77.771C288.276 81.1293 286.772 80.785 286.192 76.9617C285.842 74.2981 285.727 74.4128 285.498 78.0066C285.268 84.0346 280.744 87.8579 280.744 81.9447C280.744 78.5865 280.049 78.3509 277.73 80.6702C276.685 81.7152 276.57 82.6393 277.265 83.1044C277.845 83.4547 278.425 84.4936 278.425 85.4237C278.425 87.5075 270.083 88.3229 262.546 86.8129C257.677 85.8828 255.014 86.1184 249.451 87.6223C244.583 89.0115 240.53 89.3618 236.356 88.8967C230.793 88.2021 229.404 88.5464 216.654 94.5743C204.483 100.252 197.072 103.03 201.819 100.022C202.979 99.3278 203.209 97.7031 202.75 94.8099C201.94 89.7122 204.374 86.4686 215.729 77.4268C221.987 72.4438 224.651 71.0546 230.908 69.8949C240.179 68.0406 250.26 63.2872 241.683 64.9119C237.28 65.6065 239.6 63.1724 244.583 61.7832C247.597 60.853 248.521 61.0886 249.336 62.5925C250.266 64.2173 250.725 64.3321 251.885 63.0576C252.694 62.363 253.045 61.6684 252.58 61.6684C252.114 61.6684 252.694 60.7443 253.854 59.5846C254.899 58.5397 258.952 56.6854 262.775 55.411C271.116 52.8621 280.738 48.1086 280.738 46.7194C280.738 46.1396 280.043 45.445 279.349 45.0947C275.296 43.7055 280.974 42.89 294.648 42.89C309.827 43.0048 314 42.1954 303.225 41.3861C286.887 40.1116 282.018 39.3023 282.248 38.1426C282.363 37.3333 280.859 36.7534 278.539 36.7534C273.671 36.7534 272.512 34.3193 276.57 32.5798C278.195 31.7704 279.234 30.8402 279.005 30.3752C278.425 29.451 287.116 27.5968 289.895 27.941C290.825 28.0558 291.054 27.7115 290.589 26.8961C290.124 26.0807 290.474 25.0419 291.284 24.462C292.444 23.7674 292.208 23.4171 290.354 23.4171C287.454 23.4171 286.76 21.6775 289.194 20.6387C291.169 19.8172 297.427 20.9769 297.886 22.2514ZM285.951 22.2514C286.301 22.946 285.371 23.411 283.746 23.411C282.121 23.411 280.502 23.8761 280.152 24.5707C279.802 25.1506 276.673 25.7304 273.43 25.8452C267.982 25.9599 267.752 26.0747 271.225 26.8901C275.628 27.935 277.368 29.2094 274.469 29.2094C273.424 29.2094 272.729 29.6745 273.079 30.2544C273.43 30.7194 268.326 31.5288 261.839 31.7583C254.651 32.2234 247.355 33.3831 243.067 34.7723C239.243 36.0467 235.07 37.4359 233.795 37.7862C232.521 38.1366 233.91 38.1366 237.039 37.7862C240.518 37.4359 242.487 37.6715 242.487 38.3661C242.487 39.0607 241.792 39.6405 241.098 39.7553C240.288 39.7553 240.632 40.3351 241.907 40.915C243.646 41.7243 243.296 41.8451 240.518 41.2653C238.434 40.9149 236.694 41.0358 236.694 41.6156C236.694 42.8901 222.096 42.6605 218.266 41.3861C216.297 40.6915 215.717 40.8063 216.297 41.7364C216.992 42.7814 209.46 47.7643 207.141 47.7643C205.516 47.7643 207.491 44.6356 210.04 43.4759C215.717 40.6975 199.494 41.6216 193.237 44.4061C184.315 48.3441 174.808 54.2573 168.787 59.6994C163.574 64.332 161.369 65.8421 152.448 70.7103C148.51 72.9149 149.9 73.839 154.073 71.7552C155.813 70.8311 159.4 69.4359 161.955 68.6265C164.504 67.9319 171.807 64.6884 178.179 61.5597C184.551 58.5457 191.968 55.6465 194.753 55.1875C199.736 54.3781 199.736 54.3782 198.926 57.6216L198.117 60.7503L202.405 57.9659C205.184 56.2263 206.464 54.6077 206.114 53.3332C205.534 50.6696 208.892 49.7394 213.066 51.2494C215.615 52.2944 217.819 52.0588 223.032 50.5548C227.091 49.2804 229.175 48.1207 228.359 47.6556C227.314 46.961 227.55 46.4959 229.054 45.9161C230.328 45.451 231.488 45.6866 232.182 46.7254C232.992 47.9999 233.227 47.9999 233.227 46.8402C233.227 46.0309 233.692 45.5658 234.387 46.0308C234.967 46.3812 236.356 46.1456 237.516 45.5658C238.675 44.9859 240.53 44.1766 241.689 43.8263C242.734 43.4759 244.238 41.8572 244.818 40.2325C246.322 36.1796 254.204 32.7006 262.087 32.7006C266.84 32.7006 268.114 33.0509 267.649 34.3253C267.299 35.1347 267.535 36.4091 268.229 37.1037C270.313 39.1936 266.025 40.2325 262.781 38.4929C261.277 37.6836 259.423 37.448 258.607 38.0278C257.563 38.6077 257.683 39.0728 259.417 39.7674C261.271 40.462 260.691 40.927 256.288 42.8961C253.274 44.1705 250.496 45.7953 250.145 46.4899C249.68 47.1845 245.742 48.8093 241.224 50.1985C233.922 52.397 229.754 55.411 228.359 59.4699C227.894 60.9738 217.004 62.3691 217.004 61.0946C217.004 60.6296 217.928 59.4698 219.088 58.6605C223.606 55.1814 218.164 57.3861 212.83 61.0946C207.382 64.918 207.153 65.0327 206.573 62.7194C205.993 60.4 205.878 60.4 203.215 63.2992C199.856 66.893 198.461 67.1226 198.461 63.9938C198.461 62.7194 198.111 61.6744 197.652 61.6744C195.797 61.6744 190.349 65.9629 191.165 66.7722C191.63 67.2373 191.165 67.2373 190.235 66.887C188.38 66.1924 182.238 70.2452 182.238 72.0995C182.238 72.6794 183.862 72.9089 185.717 72.4498C187.686 72.0995 189.196 72.0995 189.196 72.5646C189.196 72.9149 185.258 76.1584 180.389 79.7522C173.782 84.6204 171.003 87.5136 169.264 91.3429C168.104 94.1213 166.365 96.4407 165.44 96.4407C164.516 96.4407 164.166 97.25 164.516 98.76C164.981 100.614 164.166 101.424 160.808 102.934C155.245 105.253 150.377 104.208 145.049 99.3399C141.691 96.326 140.181 95.6313 137.518 96.2112L134.159 96.9058L137.059 97.6004C141.232 98.6453 141.462 101.889 137.409 103.628C132.655 105.597 130.227 108.031 130.922 109.886C131.846 112.435 125.359 118.463 121.765 118.463C117.247 118.463 117.592 115.219 122.23 113.594L126.054 112.205L122.81 111.396C120.841 110.816 117.247 111.166 113.539 112.205C110.18 113.129 106.236 114.289 104.618 114.639C102.993 114.99 100.565 116.143 99.1696 117.073C97.6656 118.004 96.5059 118.348 96.5059 118.004C96.5059 116.034 87.3493 126 86.6547 128.664L85.7306 131.793L84.6856 127.969C83.6407 124.261 83.991 123.796 94.8812 112.09C112.844 92.7382 130.807 77.6744 152.708 63.8851C177.738 48.1267 213.549 33.522 239.618 28.3095C259.664 24.3714 271.835 22.2815 277.857 21.9373C281.1 21.7077 284 21.4722 284.465 21.3574C284.912 21.2064 285.606 21.5568 285.951 22.2514ZM312.025 26.8841C312.025 29.6685 311.095 30.2423 304.258 31.0577C299.625 31.7523 298.931 31.5228 300.205 30.2483C301.014 29.3242 303.334 28.8591 305.653 29.0886C309.476 29.3182 311.101 27.8142 308.552 26.3042C307.972 25.9539 307.393 26.1894 307.393 26.7693C307.393 27.4639 306.348 28.0437 305.073 28.0437C303.799 28.0437 302.754 27.4639 302.754 26.8841C302.754 26.1895 303.563 25.7244 304.493 25.7244C305.538 25.7244 305.883 25.0298 305.538 23.9848C304.958 22.5956 305.424 22.4809 308.437 23.5198C310.751 24.3352 312.025 25.6096 312.025 26.8841ZM298.121 31.5228C298.121 32.1026 297.892 32.6824 297.656 32.6824C297.306 32.6824 296.726 32.1026 296.382 31.5228C296.031 30.8282 296.267 30.3631 296.847 30.3631C297.541 30.3631 298.121 30.8282 298.121 31.5228ZM388.51 38.9399C388.51 40.6794 387.93 40.9089 385.611 40.3291C382.597 39.5197 382.597 39.6345 384.566 42.5276C385.611 44.1524 386.885 45.4268 387.465 45.4268C388.045 45.4268 388.51 46.0067 388.51 46.7013C388.51 47.3959 387.586 47.7462 386.541 47.5107C385.381 47.2811 384.572 46.351 384.801 45.6564C385.145 43.4518 383.871 44.0316 381.558 46.8161L379.474 49.4797L378.314 46.4657C375.651 39.6285 376.11 36.1494 379.818 36.1494C381.443 36.1494 382.717 35.6843 382.717 35.1045C382.717 34.5246 383.992 34.6394 385.617 35.334C387.235 36.1555 388.51 37.6654 388.51 38.9399ZM427.564 55.3928C428.259 59.9108 429.304 61.5355 435.211 67.2131C440.659 72.5465 438.684 73.8209 431.968 69.4177C426.985 66.289 421.536 54.9338 422.696 50.4159C423.276 47.7522 423.62 47.6375 425.13 49.1414C426.054 50.0595 427.099 52.844 427.564 55.3928ZM453.168 64.6642C456.411 67.5634 459.196 69.4177 459.196 68.6023C459.196 67.6722 459.89 67.6722 461.515 68.6023C462.79 69.2969 463.835 70.3418 463.835 71.0364C463.835 71.731 463.369 71.8458 462.675 71.5015C459.776 69.762 461.866 72.1962 465.339 74.5155C467.773 76.3698 468.467 76.4846 467.422 75.2101C460.47 66.5186 487.819 88.1901 503.463 103.719C525.714 125.97 544.022 151.465 557.696 179.273C567.547 199.435 572.645 213.224 577.513 233.041L581.337 248.341L576.934 260.741C571.6 275.46 569.287 294.347 572.301 298.521C574.385 301.65 574.385 307.792 572.186 309.647C569.752 311.616 568.828 308.716 569.637 302.344L570.332 297.476L568.478 301.299C566.158 305.817 564.539 305.588 563.144 300.254C562.564 298.05 561.755 295.737 561.175 295.157C559.436 292.958 553.178 267.228 553.063 261.55L552.949 258.071L551.324 261.894C549.82 265.253 549.355 265.603 547.15 264.443C545.526 263.519 544.946 262.36 545.296 260.735C545.761 258.995 544.716 257.606 540.778 254.828C537.994 252.859 535.68 250.89 535.68 250.424C535.68 250.074 533.476 250.775 530.812 252.043C528.148 253.432 522.815 254.713 519.107 254.942C512.849 255.407 511.919 255.172 510.071 252.744C508.102 250.08 508.102 250.08 504.158 252.164C500.449 254.133 499.984 254.248 496.396 252.394C494.312 251.234 491.528 248.57 490.254 246.366C487.819 242.192 485.041 240.108 481.912 240.108C478.784 240.108 479.829 245.321 484.117 250.654C486.322 253.432 488.176 256.446 488.176 257.376C488.176 258.536 488.52 258.651 489.801 257.606C491.075 256.561 491.54 256.797 492.12 258.995C493.165 263.513 498.957 262.933 503.131 257.836C506.374 253.897 506.489 253.897 507.304 256.332C507.77 257.836 510.089 259.69 512.982 260.964C519.239 263.628 520.049 265.718 517.156 272.205C515.881 275.104 514.836 278.112 514.836 278.812C514.836 280.437 503.246 291.098 501.512 291.098C500.817 291.098 498.498 292.952 496.414 295.151C490.024 301.988 468.818 311.724 464.988 309.641C462.904 308.481 461.509 303.733 461.509 297.935C461.509 294.577 455.946 285.305 452.353 282.757C449.224 280.558 447.599 276.729 447.599 271.631C447.599 268.387 446.79 266.418 444.7 264.443C443.075 262.939 441.801 261.085 441.801 260.39C441.801 259.581 440.641 258.071 439.367 256.797C437.977 255.637 436.467 253.318 435.888 251.814C434.957 249.609 434.263 249.265 431.835 249.845C429.63 250.424 428.356 250.074 427.081 248.57C424.762 245.556 429.63 255.407 433.109 260.505C434.734 262.825 436.008 265.718 436.008 266.877C436.008 268.152 437.053 270.121 438.328 271.395C441.456 274.524 442.96 278.583 442.151 281.712C441.686 283.451 442.501 285.07 444.935 287.275C446.904 289.129 448.759 292.257 449.109 294.577C449.804 297.706 451.543 299.91 456.756 304.193C462.204 308.596 463.708 310.565 464.058 313.464C464.408 316.822 464.867 317.173 468.576 317.517C470.781 317.746 476.688 316.587 481.671 314.853C486.654 313.234 490.942 311.954 491.172 311.954C492.911 311.954 490.942 318.447 486.768 326.788C481.091 338.143 474.483 345.911 465.792 351.703C462.548 354.023 457.68 357.961 455.131 360.624C452.582 363.288 448.294 366.996 445.63 368.851C442.852 370.82 440.647 372.789 440.647 373.483C440.647 374.063 439.487 376.147 438.098 378.001C436.244 380.665 435.9 381.71 436.938 382.984C437.983 384.144 437.983 385.533 437.053 388.197C436.123 390.981 436.244 392.371 437.518 394.454C439.022 396.774 439.022 397.933 437.633 403.261C434.849 413.921 431.605 417.05 420.25 419.834C417.121 420.644 412.603 422.498 410.169 424.008C406.69 426.213 405.881 427.251 406.461 429.106C406.926 430.495 406.926 433.279 406.575 435.363C405.766 439.301 404.377 440.231 395.22 442.201C393.022 442.666 391.977 443.704 391.977 445.214C391.977 448.114 386.529 452.167 375.173 457.615L365.902 462.018L350.258 461.788C341.682 461.673 332.99 461.208 330.906 460.858C326.733 460.163 324.878 456.92 327.663 454.951C329.281 453.676 329.167 453.097 326.853 449.159C325.464 446.61 323.145 443.481 321.641 442.092C319.322 439.893 318.977 438.383 318.977 431.316C318.977 426.913 318.627 423.205 318.168 423.205C317.123 423.205 314.345 417.527 314.345 415.443C314.345 414.634 313.765 413.939 313.185 413.939C311.331 413.939 309.827 409.071 310.521 405.483C310.872 403.859 313.88 399.576 317.359 396.097C323.272 390.184 323.501 389.604 322.342 386.246C321.532 384.041 321.532 382.072 322.227 380.798C323.852 377.899 319.563 366.894 314.58 360.751C312.146 358.087 309.368 354.258 308.323 352.525C306.468 349.281 306.468 349.046 309.712 343.024C313.42 336.301 314.115 331.554 311.566 329.464C310.177 328.189 304.958 327.259 298.937 327.145C297.547 327.03 296.152 325.405 294.998 322.391C293.494 318.568 292.335 317.523 288.856 316.599C286.422 315.904 282.713 315.439 280.629 315.554C270.083 316.019 255.134 314.509 252.471 312.655C250.731 311.61 247.138 310.8 243.665 310.8C235.903 310.8 234.508 309.876 226.861 300.369C222.229 294.577 219.909 290.288 218.635 285.885C217.825 282.292 215.856 276.964 214.346 273.95C209.828 265.029 209.593 260.626 213.652 255.643C217.246 251.125 218.985 246.142 220.024 237.795C220.719 233.041 221.413 232.117 227.671 227.364C237.171 220.297 242.734 216.933 245.054 216.933C246.213 216.933 249.227 216.123 251.776 215.078C255.37 213.574 256.644 212.415 257.454 209.286C258.843 204.188 262.902 200.824 267.649 200.709C270.198 200.709 272.747 199.435 275.646 197.001C279.355 193.757 280.049 193.522 281.209 195.146C283.414 198.16 290.71 199.55 300.447 198.74C307.169 198.275 313.076 198.74 323.737 200.709C331.613 202.098 339.61 203.838 341.349 204.533C344.134 205.463 344.363 205.922 342.974 207.546C342.044 208.591 341.585 210.095 341.815 210.905C342.165 211.714 341.464 213.454 340.305 214.843C338.106 217.162 338.221 217.162 341.579 219.941C343.433 221.445 346.447 222.955 348.066 223.299C349.805 223.649 353.164 225.733 355.598 227.702C364.754 235.469 374.835 237.668 375.53 232.22C376.11 227.931 380.863 226.772 386.655 229.556C397.896 235.119 405.198 236.859 418.172 237.438C432.656 238.133 432.076 238.363 435.555 228.747C436.715 225.733 436.6 215.767 435.441 215.767C435.326 215.767 432.892 216.576 430.228 217.506C425.71 219.131 424.901 219.131 422.581 217.506C420.377 216.117 419.338 216.003 416.904 217.156C414.584 218.201 413.66 218.08 411.921 216.576C410.761 215.417 409.257 214.607 408.563 214.607C406.708 214.607 403.35 208.815 404.045 206.961C404.389 206.03 403.93 205.336 403.114 205.336C400.68 205.336 402.19 201.162 405.083 199.658L407.632 198.384L405.083 198.964C403.694 199.314 402.305 199.078 401.84 198.384C400.91 196.88 393.499 196.88 392.569 198.384C392.104 199.078 391.409 199.308 390.829 198.964C388.625 197.574 391.409 203.832 394.073 205.916L396.857 208.35L392.224 210.434C389.561 211.593 386.662 212.288 385.731 211.938C383.762 211.128 383.182 207.649 384.922 207.649C385.502 207.649 384.457 206.024 382.603 204.055C380.748 202.086 378.665 198.142 377.97 195.364C376.81 190.961 375.651 189.451 369.973 185.513C366.379 182.964 362.671 179.599 361.861 178.095C361.052 176.591 359.892 175.547 359.312 175.897C358.733 176.247 357.923 175.547 357.573 174.157C357.223 172.768 356.528 171.723 356.069 171.723C354.329 171.723 352.475 175.202 353.055 177.171C353.75 179.376 359.663 185.513 366.844 191.54C371.598 195.479 372.407 197.798 368.813 196.874C367.074 196.409 366.494 196.874 366.494 198.613C366.494 201.972 364.41 205.336 362.671 204.641C361.74 204.291 361.281 202.787 361.626 200.703C362.091 197.109 361.046 195.72 351.545 188.188C348.531 185.754 346.447 182.976 345.982 180.886C344.937 175.553 342.968 174.629 336.016 176.018C332.422 176.712 329.179 176.827 328.019 176.247C324.89 174.622 323.151 174.973 317.703 178.681C314.924 180.536 311.796 182.16 310.751 182.16C309.827 182.16 307.157 184.015 304.958 186.334C298.816 192.706 295.457 194.095 287.805 193.171C282.937 192.591 279.923 191.317 275.87 188.188C272.741 185.869 270.307 183.205 270.307 182.16C270.307 181.115 271.811 178.222 273.786 175.673C275.64 173.239 277.495 169.416 277.96 167.332C279.234 160.96 285.147 160.495 296.037 166.058C302.295 169.301 306.003 168.957 307.507 165.128C309.011 161.19 307.972 157.131 304.379 152.383C300.32 146.935 300.67 146.011 306.813 146.935C310.521 147.4 312.031 147.285 312.031 146.24C312.031 145.316 313.07 145.081 314.93 145.546C316.899 146.011 319.684 145.316 323.622 143.341C326.751 141.723 330.345 140.442 331.504 140.442C332.779 140.442 334.403 139.633 335.213 138.703C336.022 137.778 337.411 136.963 338.227 136.963C339.151 136.963 339.852 136.268 339.852 135.459C339.852 134.535 340.081 134.414 340.782 135.344C342.171 137.543 346.81 138.473 348.664 136.848C349.588 136.039 350.289 134.064 350.289 132.445C349.824 126.302 350.289 124.219 352.028 124.219C352.952 124.219 353.768 123.524 353.768 122.594C353.768 121.205 357.011 119 357.941 119.809C358.636 120.619 355.857 131.165 354.813 131.165C353.194 131.165 353.538 133.134 355.622 135.103C356.667 136.148 358.865 136.957 360.49 137.072C362.23 137.072 367.907 137.301 373.12 137.537C383.666 137.887 384.825 137.307 386.1 130.814C386.794 127.571 387.374 127.106 390.618 127.106C393.982 127.106 394.326 126.876 394.326 123.397C394.326 118.994 394.906 118.529 402.438 117.605C407.771 117.025 408.23 116.796 406.612 115.171C404.993 113.546 404.063 113.546 398.85 114.82C394.562 115.98 392.593 115.98 391.669 115.05C390.974 114.355 390.739 113.775 391.318 113.775C391.783 113.775 391.318 112.616 390.388 111.227C387.725 107.403 388.069 104.275 392.013 99.1768C395.951 94.0791 396.301 92.3396 393.638 91.2946C391.089 90.3645 389.929 91.2947 387.96 95.9273C387.036 98.2467 385.061 100.33 383.327 101.025C378.23 102.994 377.185 109.252 381.244 113.89C382.633 115.509 382.633 116.089 381.014 117.714C379.969 118.759 378.35 119.568 377.541 119.568C376.617 119.568 375.802 121.072 375.572 123.276C375.228 126.52 374.412 127.45 370.009 129.649C367.11 130.923 364.446 131.853 364.102 131.618C363.637 131.388 363.057 128.024 362.592 124.086L361.783 116.898L355.755 117.593C349.147 118.402 346.133 117.242 347.178 114.464C347.528 113.534 347.293 112.374 346.598 111.915C345.904 111.45 346.369 110.526 348.102 109.596C350.307 108.436 350.421 108.092 348.911 107.971C346.707 107.971 346.248 106.002 347.752 103.797C348.217 103.103 350.766 101.363 353.544 99.8593C356.208 98.3554 358.412 96.7306 358.412 96.2655C358.412 95.8005 359.343 95.5709 360.611 95.8005C361.885 96.03 365.594 93.8314 369.882 90.3524C377.185 84.3305 381.123 78.7616 379.734 76.4483C379.269 75.7537 379.619 75.4034 380.543 75.7537C381.473 76.104 383.092 75.639 384.137 74.594C385.296 73.6699 387.38 72.7398 388.769 72.5102C393.287 71.8156 394.912 71.4653 396.301 70.5412C397.926 69.4962 402.444 71.9304 402.444 73.7847C402.444 74.4793 405.573 76.2188 409.396 77.7227C418.667 81.4313 424.46 85.4841 424.46 88.3833C424.46 91.6268 421.331 92.4362 415.654 90.3524L410.671 88.6129L416.119 94.7555C421.567 101.128 424.46 102.982 422.147 98.5788C420.522 95.5649 421.452 94.4052 423.886 96.3743C425.39 97.6487 425.626 97.2984 425.626 94.1757C425.626 91.6268 426.205 90.5819 427.48 90.5819C429.334 90.5819 429.219 88.3833 427.25 83.1648C426.785 82.0051 427.136 81.3105 428.18 81.3105C430.615 81.3105 432.584 83.7446 432.584 86.7586C432.584 88.2625 433.163 89.4222 433.743 89.4222C434.438 89.4222 434.903 88.4981 434.903 87.3384C434.903 83.1648 438.146 80.5011 444.174 79.6918C449.502 78.9972 449.852 78.7616 448.578 76.6778C446.029 72.625 448.348 72.5042 457.034 75.9832C458.078 76.4483 455.53 73.4344 451.471 69.2607C447.533 65.0871 444.168 61.149 444.168 60.5691C444.132 58.0565 447.261 59.4517 453.168 64.6642ZM390.249 70.9217C390.594 71.6163 390.135 71.731 389.204 71.3868C387.121 70.5774 386.77 69.762 388.395 69.762C389.09 69.762 389.899 70.2271 390.249 70.9217ZM383.871 73.2411C383.871 73.8209 383.291 74.4007 382.597 74.4007C382.017 74.4007 381.787 73.8209 382.132 73.2411C382.482 72.5465 383.056 72.0814 383.406 72.0814C383.642 72.0814 383.871 72.5465 383.871 73.2411ZM445.872 73.2411C446.216 73.8209 445.757 74.4007 444.827 74.4007C443.903 74.4007 442.743 73.8209 442.393 73.2411C442.042 72.5465 442.507 72.0814 443.438 72.0814C444.362 72.0814 445.521 72.5465 445.872 73.2411ZM378.544 79.1482C378.193 79.728 377.034 80.1931 375.995 80.0723C374.72 80.0723 374.606 79.8428 375.53 79.3777C376.224 79.1482 376.689 78.3328 376.339 77.759C375.874 77.1791 376.454 77.0644 377.384 77.4087C378.429 77.759 378.888 78.5683 378.544 79.1482ZM433.701 79.1482C433.701 79.8428 433.236 79.9575 432.541 79.6133C431.962 79.2629 431.382 78.3388 431.382 77.759C431.382 77.0644 431.962 76.9497 432.541 77.2939C433.236 77.6443 433.701 78.5683 433.701 79.1482ZM268.688 96.7608C269.039 97.8058 270.543 98.15 272.626 97.8057C276.564 97.2259 281.898 100.125 281.898 102.789C281.898 105.223 275.87 108.001 270.657 108.001C264.98 108.001 260.921 105.223 261.271 101.744C261.966 96.8816 267.293 93.2878 268.688 96.7608ZM143.998 101.514C143.998 102.324 143.189 103.713 142.259 104.528C140.405 106.032 139.94 104.879 141.214 101.75C142.144 99.4305 143.998 99.3097 143.998 101.514ZM155.583 106.727C155.583 107.307 154.538 108.231 153.149 108.581C151.18 109.276 150.83 109.97 151.41 112.869C151.875 115.189 151.295 117.623 149.44 120.866C146.427 126.2 144.343 126.659 144.343 121.911C144.343 120.057 143.533 117.508 142.488 116.349C141.444 115.189 140.519 113.685 140.519 113.105C140.519 112.181 152.805 105.688 154.774 105.688C155.239 105.688 155.583 106.147 155.583 106.727ZM315.619 107.307C314.924 108.231 313.07 109.161 311.681 109.626C309.247 110.206 309.247 110.091 312.031 108.001C315.389 105.338 317.588 104.993 315.619 107.307ZM322.456 107.772C322.456 108.237 321.876 109.282 321.067 110.091C320.022 111.136 320.143 111.48 321.647 111.48C324.196 111.48 324.196 113.564 321.762 116.349C319.907 118.203 320.022 118.783 322.342 124.345C323.616 127.589 324.431 130.832 323.966 131.527C323.622 132.107 324.196 133.381 325.241 134.197C327.21 135.586 327.095 135.815 324.661 139.294C322.807 141.614 321.417 142.538 320.143 142.079C319.213 141.614 314.81 140.805 310.406 140.339C306.118 139.874 302.18 139.18 301.83 138.835C301.479 138.485 302.989 137.446 305.073 136.516C307.622 135.471 308.317 134.777 307.272 134.312C305.997 133.732 306.112 133.267 307.737 131.992C308.896 130.947 309.821 129.788 309.706 129.208C309.706 128.743 310.98 128.163 312.605 127.933C316.199 127.468 316.314 124.805 312.955 121.676C311.101 120.172 310.751 119.242 311.796 118.897C312.49 118.547 313.185 117.738 313.185 117.158C313.185 116.463 312.72 116.349 312.025 116.693C311.445 117.043 310.866 116.578 310.866 115.533C310.866 114.488 311.445 114.029 312.025 114.373C312.72 114.724 313.185 114.488 313.185 113.794C313.185 111.939 318.633 106.842 320.717 106.842C321.647 106.842 322.456 107.307 322.456 107.772ZM133.567 114.724C133.567 115.304 132.873 116.578 132.178 117.623C131.018 119.012 130.209 119.248 128.935 118.432C127.431 117.387 127.545 117.043 129.4 115.533C131.943 113.564 133.567 113.335 133.567 114.724ZM308.317 119.822C309.941 121.446 303.799 129.673 299.51 131.298C293.833 133.496 289.544 129.328 294.642 126.544C295.802 125.849 296.611 124.69 296.267 123.766C294.878 120.287 305.188 116.693 308.317 119.822ZM392.677 123.995C392.333 124.225 391.288 124.225 390.243 123.766C388.739 123.186 388.739 122.721 389.893 120.752C391.397 118.432 391.397 118.432 392.327 120.981C392.798 122.256 392.913 123.645 392.677 123.995ZM381.558 126.544C380.863 127.818 380.054 128.863 379.818 128.863C379.468 128.863 379.238 127.818 379.238 126.544C379.238 125.27 380.048 124.225 380.978 124.225C382.482 124.225 382.597 124.69 381.558 126.544ZM361.511 131.992C361.281 133.846 360.466 135.236 359.771 135.121C356.643 134.891 356.063 134.541 356.063 133.381C356.063 132.802 356.643 132.572 357.452 133.031C358.261 133.496 358.376 133.381 357.917 132.566C356.872 130.826 358.032 128.857 360.237 128.857C361.39 128.863 361.855 129.788 361.511 131.992ZM50.9462 177.763C50.5959 178.687 50.2516 178.343 50.2516 177.069C50.1368 175.794 50.4811 175.1 50.8314 175.559C51.1757 175.909 51.2905 176.954 50.9462 177.763ZM342.159 181.822C342.159 182.982 341.694 184.721 340.999 185.645C340.419 186.69 340.419 187.85 341.114 188.659C342.739 190.628 339.954 196.306 337.635 195.841C335.201 195.376 334.621 189.934 336.825 188.08C337.756 187.27 338.215 185.875 337.87 184.951C336.946 182.631 338.335 179.853 340.419 179.853C341.343 179.853 342.159 180.777 342.159 181.822ZM50.016 188.194C50.016 190.278 49.551 193.063 49.0919 194.337C48.1618 196.542 48.1618 196.542 46.8873 194.107C45.1478 190.864 45.1478 187.621 46.8873 185.881C49.2067 183.562 50.1308 184.256 50.016 188.194ZM318.053 188.539C318.053 189.118 317.473 189.813 316.779 190.043C316.084 190.272 315.504 189.577 315.504 188.539C315.504 187.494 316.084 186.799 316.779 187.035C317.473 187.264 318.053 187.965 318.053 188.539ZM50.1308 200.709C50.1308 201.289 49.6657 201.869 48.9711 201.869C48.3913 201.869 47.8114 201.289 47.8114 200.709C47.8114 200.015 48.3913 199.55 48.9711 199.55C49.6657 199.55 50.1308 200.015 50.1308 200.709ZM359.536 205.463C359.536 208.942 356.292 209.401 353.164 206.508C349.57 203.149 350.15 202.219 355.362 202.799C358.497 203.143 359.536 203.838 359.536 205.463ZM34.602 216.353C34.1369 217.978 34.2516 219.252 34.8315 219.252C35.2966 219.252 35.5261 221.336 35.2966 224.006C34.9462 226.669 35.6469 230.843 36.8005 233.971C38.075 237.215 38.54 240.809 38.1897 243.708C37.8394 246.142 37.9602 247.996 38.54 247.646C39.0051 247.417 39.2346 249.851 39.1199 253.209C38.8904 258.077 39.585 260.741 42.9432 267.349C46.1867 273.956 47.1168 277.2 47.5759 284.381C48.2705 296.781 47.3464 301.07 43.523 302.109C41.3184 302.574 40.8594 303.154 41.7835 304.078C42.7137 305.002 43.6378 304.887 45.027 303.727C46.6518 302.453 47.1108 302.453 48.506 304.422C49.4302 305.582 49.8952 307.551 49.551 308.596C49.0859 309.87 49.6657 310.915 51.1757 311.374C53.1448 311.954 57.0828 319.371 57.0828 322.385C57.0828 323.08 60.0968 326.559 63.8054 330.267C70.4131 336.99 80.6086 352.633 81.9978 358.655C83.2723 363.523 80.7234 367.697 74.1156 372.215L68.0877 376.274L67.3931 385.545C66.928 390.643 65.7684 397.366 64.6147 400.38C62.6457 406.057 62.5309 406.057 58.3573 405.133C56.0379 404.668 53.1448 404.324 51.8703 404.203C49.4362 404.088 49.4362 403.973 50.8254 415.329C51.4052 419.267 51.1757 420.891 50.2456 420.891C49.4362 420.891 49.0859 421.242 49.3154 421.701C49.6657 422.281 49.4302 423.67 48.9651 424.944C46.7605 430.622 30.7726 388.324 25.4393 362.37C19.8885 335.83 18.0342 309.641 20.0033 285.305C21.5072 266.183 25.6809 242.083 29.5042 230.263C30.8934 225.745 32.1678 221.342 32.2826 220.412C32.5121 217.633 34.0221 213.46 34.7167 213.46C35.067 213.454 34.9523 214.734 34.602 216.353ZM401.254 220.526C402.529 221.221 401.949 221.451 399.515 221.571C395.111 221.571 390.823 220.412 390.823 219.137C390.829 218.092 398.705 219.137 401.254 220.526ZM429.413 222.846C427.214 225.165 424.43 225.044 424.43 222.731C424.43 221.922 426.513 221.227 430.802 220.533C431.388 220.526 430.808 221.565 429.413 222.846ZM40.5151 240.338C40.1648 241.268 39.8205 240.917 39.8205 239.643C39.7058 238.369 40.05 237.674 40.4004 238.133C40.7446 238.489 40.8594 239.528 40.5151 240.338ZM309.132 330.497C309.482 331.077 309.017 331.656 307.972 331.656C306.927 331.656 306.462 331.077 306.813 330.497C307.163 329.802 307.743 329.337 307.972 329.337C308.202 329.337 308.782 329.802 309.132 330.497ZM471.481 403.967C472.176 407.096 467.308 415.437 457.342 427.952C449.459 437.918 444.712 441.741 440.653 441.741C436.944 441.741 436.594 441.391 435.555 436.408C434.861 433.165 435.326 432.12 438.799 428.647C441.462 426.213 443.087 423.319 443.431 421C443.897 416.597 446.675 414.278 452.353 413.239C454.787 412.888 458.266 411.034 460.35 409.186C462.319 407.332 464.408 405.828 464.982 405.828C465.556 405.828 466.371 404.783 466.722 403.508C467.773 400.374 470.551 400.603 471.481 403.967ZM301.014 557.86C311.095 561.799 313.994 562.034 330.218 560.059C339.139 558.899 341.573 559.014 344.122 560.409C345.976 561.219 350.844 563.073 355.133 564.347C360.46 565.972 364.634 568.171 368.693 571.65C371.936 574.434 374.6 577.327 374.6 577.907C374.6 579.182 361.62 582.196 343.892 584.974C328.593 587.408 294.413 588.332 277.259 586.714C261.615 585.21 238.555 580.921 225.925 577.213C218.973 575.123 218.278 574.664 219.317 572.695C219.897 571.535 220.127 569.796 219.782 568.871C219.088 566.902 221.751 561.11 224.536 558.791C225.925 557.631 232.762 557.166 252.694 557.051C268.223 556.936 280.158 556.242 281.898 555.547C286.766 553.457 291.399 554.037 301.014 557.86ZM204.948 568.751C207.032 570.49 207.032 570.49 203.674 569.795C199.385 568.871 197.066 566.896 200.315 566.896C201.59 566.896 203.674 567.706 204.948 568.751ZM214.219 572.109C215.379 573.039 215.844 573.848 215.029 573.848C212.824 573.848 210.046 572.574 210.046 571.414C210.052 569.91 211.671 570.14 214.219 572.109Z"/>
<path d="M308.552 38.4748C308.552 39.0547 309.827 39.6345 311.451 39.6345C313.07 39.6345 314.351 39.0547 314.351 38.4748C314.351 37.7802 313.076 37.3152 311.451 37.3152C309.827 37.3152 308.552 37.7802 308.552 38.4748Z"/>
<path d="M250.031 27.929C247.252 30.5926 260.347 31.2872 263.82 28.6236C265.674 27.2344 265.094 27.0049 258.142 27.2344C253.969 27.3491 250.26 27.6995 250.031 27.929Z"/>
<path d="M240.759 30.943C238.096 32.2174 237.86 32.5677 239.6 32.5677C240.874 32.5677 242.958 31.8731 244.118 30.943C246.902 28.8531 245.392 28.8531 240.759 30.943Z"/>
<path d="M469.391 80.6582C469.971 82.5125 470.895 84.252 471.711 84.5963C473.68 85.1761 473.336 83.5514 470.787 80.1932L468.582 77.294L469.391 80.6582Z"/>
<path d="M433.121 176.259L428.489 178.343L431.968 180.197L435.447 181.937L432.203 183.211C430.349 183.906 428.495 184.486 428.15 184.486C426.646 184.486 423.397 179.968 424.442 179.618C425.022 179.388 423.977 178.343 422.008 177.183C418.414 175.214 418.414 175.214 415.4 178.458C411.347 182.746 407.638 192.712 409.487 193.872C410.296 194.337 410.532 195.611 410.066 196.65C409.487 198.275 409.837 198.505 411.921 197.925C426.519 193.407 429.189 193.171 435.211 195.491C438.11 196.536 442.513 197.23 445.986 196.995C450.74 196.644 451.664 196.3 452.014 194.216C452.244 192.362 451.084 190.973 447.382 188.653C440.194 184.365 436.256 180.771 438.11 180.191C439.614 179.612 440.079 173.934 438.69 174.163C438.104 174.176 435.676 175.1 433.121 176.259Z"/>
</mask>
<path d="M282.478 9.50094C210.167 15.0638 145.738 44.7323 94.6335 95.7159C47.3524 143.118 19.653 199.205 10.0373 267.342C7.37364 286.23 7.37364 323.774 10.0373 342.667C19.653 410.925 47.2376 466.548 94.7483 514.173C141.794 561.339 199.856 589.963 266.834 598.884C297.312 602.937 337.061 601.089 368.813 594.016C469.627 571.535 552.484 496.554 584.931 398.404C601.734 347.88 604.518 292.258 592.927 240.108C570.561 139.524 494.892 55.9727 397.201 23.9909C361.161 12.1706 318.168 6.72254 282.478 9.50094ZM297.886 22.2514C298.115 22.946 299.396 23.411 300.67 23.411C302.639 23.411 302.639 23.6406 301.25 25.0358C300.44 25.966 298.351 26.8901 296.847 27.1196C295.343 27.3492 294.183 28.0498 294.298 28.8591C294.413 29.5537 292.093 30.8282 289.085 31.6436L283.752 33.1475L287.11 34.5367C291.163 36.2763 296.611 36.6205 297.191 35.1166C297.42 34.5367 301.365 34.422 306.807 35.0018C320.137 36.391 336.59 44.2732 326.274 44.2732C323.725 44.2732 323.374 44.5027 324.77 45.4329C325.7 46.0127 329.523 46.5926 333.346 46.5926C339.26 46.5926 339.954 46.8221 338.68 48.3321C337.87 49.2562 335.436 50.0716 333.232 50.0716H329.179L331.842 52.2762L334.506 54.36L328.484 56.2143C320.487 58.5336 304.958 68.1493 305.768 70.3539C306.233 71.3989 305.653 71.8579 304.264 71.8579C303.104 71.7432 300.211 72.6673 297.777 73.8269C294.419 75.3309 293.023 75.5665 291.984 74.5215C291.29 73.8269 290.13 73.2471 289.436 73.2471C288.856 73.2471 288.971 73.7122 289.901 74.292C291.06 75.1014 291.175 75.796 290.13 77.771C288.276 81.1293 286.772 80.785 286.192 76.9617C285.842 74.2981 285.727 74.4128 285.498 78.0066C285.268 84.0346 280.744 87.8579 280.744 81.9447C280.744 78.5865 280.049 78.3509 277.73 80.6702C276.685 81.7152 276.57 82.6393 277.265 83.1044C277.845 83.4547 278.425 84.4936 278.425 85.4237C278.425 87.5075 270.083 88.3229 262.546 86.8129C257.677 85.8828 255.014 86.1184 249.451 87.6223C244.583 89.0115 240.53 89.3618 236.356 88.8967C230.793 88.2021 229.404 88.5464 216.654 94.5743C204.483 100.252 197.072 103.03 201.819 100.022C202.979 99.3278 203.209 97.7031 202.75 94.8099C201.94 89.7122 204.374 86.4686 215.729 77.4268C221.987 72.4438 224.651 71.0546 230.908 69.8949C240.179 68.0406 250.26 63.2872 241.683 64.9119C237.28 65.6065 239.6 63.1724 244.583 61.7832C247.597 60.853 248.521 61.0886 249.336 62.5925C250.266 64.2173 250.725 64.3321 251.885 63.0576C252.694 62.363 253.045 61.6684 252.58 61.6684C252.114 61.6684 252.694 60.7443 253.854 59.5846C254.899 58.5397 258.952 56.6854 262.775 55.411C271.116 52.8621 280.738 48.1086 280.738 46.7194C280.738 46.1396 280.043 45.445 279.349 45.0947C275.296 43.7055 280.974 42.89 294.648 42.89C309.827 43.0048 314 42.1954 303.225 41.3861C286.887 40.1116 282.018 39.3023 282.248 38.1426C282.363 37.3333 280.859 36.7534 278.539 36.7534C273.671 36.7534 272.512 34.3193 276.57 32.5798C278.195 31.7704 279.234 30.8402 279.005 30.3752C278.425 29.451 287.116 27.5968 289.895 27.941C290.825 28.0558 291.054 27.7115 290.589 26.8961C290.124 26.0807 290.474 25.0419 291.284 24.462C292.444 23.7674 292.208 23.4171 290.354 23.4171C287.454 23.4171 286.76 21.6775 289.194 20.6387C291.169 19.8172 297.427 20.9769 297.886 22.2514ZM285.951 22.2514C286.301 22.946 285.371 23.411 283.746 23.411C282.121 23.411 280.502 23.8761 280.152 24.5707C279.802 25.1506 276.673 25.7304 273.43 25.8452C267.982 25.9599 267.752 26.0747 271.225 26.8901C275.628 27.935 277.368 29.2094 274.469 29.2094C273.424 29.2094 272.729 29.6745 273.079 30.2544C273.43 30.7194 268.326 31.5288 261.839 31.7583C254.651 32.2234 247.355 33.3831 243.067 34.7723C239.243 36.0467 235.07 37.4359 233.795 37.7862C232.521 38.1366 233.91 38.1366 237.039 37.7862C240.518 37.4359 242.487 37.6715 242.487 38.3661C242.487 39.0607 241.792 39.6405 241.098 39.7553C240.288 39.7553 240.632 40.3351 241.907 40.915C243.646 41.7243 243.296 41.8451 240.518 41.2653C238.434 40.9149 236.694 41.0358 236.694 41.6156C236.694 42.8901 222.096 42.6605 218.266 41.3861C216.297 40.6915 215.717 40.8063 216.297 41.7364C216.992 42.7814 209.46 47.7643 207.141 47.7643C205.516 47.7643 207.491 44.6356 210.04 43.4759C215.717 40.6975 199.494 41.6216 193.237 44.4061C184.315 48.3441 174.808 54.2573 168.787 59.6994C163.574 64.332 161.369 65.8421 152.448 70.7103C148.51 72.9149 149.9 73.839 154.073 71.7552C155.813 70.8311 159.4 69.4359 161.955 68.6265C164.504 67.9319 171.807 64.6884 178.179 61.5597C184.551 58.5457 191.968 55.6465 194.753 55.1875C199.736 54.3781 199.736 54.3782 198.926 57.6216L198.117 60.7503L202.405 57.9659C205.184 56.2263 206.464 54.6077 206.114 53.3332C205.534 50.6696 208.892 49.7394 213.066 51.2494C215.615 52.2944 217.819 52.0588 223.032 50.5548C227.091 49.2804 229.175 48.1207 228.359 47.6556C227.314 46.961 227.55 46.4959 229.054 45.9161C230.328 45.451 231.488 45.6866 232.182 46.7254C232.992 47.9999 233.227 47.9999 233.227 46.8402C233.227 46.0309 233.692 45.5658 234.387 46.0308C234.967 46.3812 236.356 46.1456 237.516 45.5658C238.675 44.9859 240.53 44.1766 241.689 43.8263C242.734 43.4759 244.238 41.8572 244.818 40.2325C246.322 36.1796 254.204 32.7006 262.087 32.7006C266.84 32.7006 268.114 33.0509 267.649 34.3253C267.299 35.1347 267.535 36.4091 268.229 37.1037C270.313 39.1936 266.025 40.2325 262.781 38.4929C261.277 37.6836 259.423 37.448 258.607 38.0278C257.563 38.6077 257.683 39.0728 259.417 39.7674C261.271 40.462 260.691 40.927 256.288 42.8961C253.274 44.1705 250.496 45.7953 250.145 46.4899C249.68 47.1845 245.742 48.8093 241.224 50.1985C233.922 52.397 229.754 55.411 228.359 59.4699C227.894 60.9738 217.004 62.3691 217.004 61.0946C217.004 60.6296 217.928 59.4698 219.088 58.6605C223.606 55.1814 218.164 57.3861 212.83 61.0946C207.382 64.918 207.153 65.0327 206.573 62.7194C205.993 60.4 205.878 60.4 203.215 63.2992C199.856 66.893 198.461 67.1226 198.461 63.9938C198.461 62.7194 198.111 61.6744 197.652 61.6744C195.797 61.6744 190.349 65.9629 191.165 66.7722C191.63 67.2373 191.165 67.2373 190.235 66.887C188.38 66.1924 182.238 70.2452 182.238 72.0995C182.238 72.6794 183.862 72.9089 185.717 72.4498C187.686 72.0995 189.196 72.0995 189.196 72.5646C189.196 72.9149 185.258 76.1584 180.389 79.7522C173.782 84.6204 171.003 87.5136 169.264 91.3429C168.104 94.1213 166.365 96.4407 165.44 96.4407C164.516 96.4407 164.166 97.25 164.516 98.76C164.981 100.614 164.166 101.424 160.808 102.934C155.245 105.253 150.377 104.208 145.049 99.3399C141.691 96.326 140.181 95.6313 137.518 96.2112L134.159 96.9058L137.059 97.6004C141.232 98.6453 141.462 101.889 137.409 103.628C132.655 105.597 130.227 108.031 130.922 109.886C131.846 112.435 125.359 118.463 121.765 118.463C117.247 118.463 117.592 115.219 122.23 113.594L126.054 112.205L122.81 111.396C120.841 110.816 117.247 111.166 113.539 112.205C110.18 113.129 106.236 114.289 104.618 114.639C102.993 114.99 100.565 116.143 99.1696 117.073C97.6656 118.004 96.5059 118.348 96.5059 118.004C96.5059 116.034 87.3493 126 86.6547 128.664L85.7306 131.793L84.6856 127.969C83.6407 124.261 83.991 123.796 94.8812 112.09C112.844 92.7382 130.807 77.6744 152.708 63.8851C177.738 48.1267 213.549 33.522 239.618 28.3095C259.664 24.3714 271.835 22.2815 277.857 21.9373C281.1 21.7077 284 21.4722 284.465 21.3574C284.912 21.2064 285.606 21.5568 285.951 22.2514ZM312.025 26.8841C312.025 29.6685 311.095 30.2423 304.258 31.0577C299.625 31.7523 298.931 31.5228 300.205 30.2483C301.014 29.3242 303.334 28.8591 305.653 29.0886C309.476 29.3182 311.101 27.8142 308.552 26.3042C307.972 25.9539 307.393 26.1894 307.393 26.7693C307.393 27.4639 306.348 28.0437 305.073 28.0437C303.799 28.0437 302.754 27.4639 302.754 26.8841C302.754 26.1895 303.563 25.7244 304.493 25.7244C305.538 25.7244 305.883 25.0298 305.538 23.9848C304.958 22.5956 305.424 22.4809 308.437 23.5198C310.751 24.3352 312.025 25.6096 312.025 26.8841ZM298.121 31.5228C298.121 32.1026 297.892 32.6824 297.656 32.6824C297.306 32.6824 296.726 32.1026 296.382 31.5228C296.031 30.8282 296.267 30.3631 296.847 30.3631C297.541 30.3631 298.121 30.8282 298.121 31.5228ZM388.51 38.9399C388.51 40.6794 387.93 40.9089 385.611 40.3291C382.597 39.5197 382.597 39.6345 384.566 42.5276C385.611 44.1524 386.885 45.4268 387.465 45.4268C388.045 45.4268 388.51 46.0067 388.51 46.7013C388.51 47.3959 387.586 47.7462 386.541 47.5107C385.381 47.2811 384.572 46.351 384.801 45.6564C385.145 43.4518 383.871 44.0316 381.558 46.8161L379.474 49.4797L378.314 46.4657C375.651 39.6285 376.11 36.1494 379.818 36.1494C381.443 36.1494 382.717 35.6843 382.717 35.1045C382.717 34.5246 383.992 34.6394 385.617 35.334C387.235 36.1555 388.51 37.6654 388.51 38.9399ZM427.564 55.3928C428.259 59.9108 429.304 61.5355 435.211 67.2131C440.659 72.5465 438.684 73.8209 431.968 69.4177C426.985 66.289 421.536 54.9338 422.696 50.4159C423.276 47.7522 423.62 47.6375 425.13 49.1414C426.054 50.0595 427.099 52.844 427.564 55.3928ZM453.168 64.6642C456.411 67.5634 459.196 69.4177 459.196 68.6023C459.196 67.6722 459.89 67.6722 461.515 68.6023C462.79 69.2969 463.835 70.3418 463.835 71.0364C463.835 71.731 463.369 71.8458 462.675 71.5015C459.776 69.762 461.866 72.1962 465.339 74.5155C467.773 76.3698 468.467 76.4846 467.422 75.2101C460.47 66.5186 487.819 88.1901 503.463 103.719C525.714 125.97 544.022 151.465 557.696 179.273C567.547 199.435 572.645 213.224 577.513 233.041L581.337 248.341L576.934 260.741C571.6 275.46 569.287 294.347 572.301 298.521C574.385 301.65 574.385 307.792 572.186 309.647C569.752 311.616 568.828 308.716 569.637 302.344L570.332 297.476L568.478 301.299C566.158 305.817 564.539 305.588 563.144 300.254C562.564 298.05 561.755 295.737 561.175 295.157C559.436 292.958 553.178 267.228 553.063 261.55L552.949 258.071L551.324 261.894C549.82 265.253 549.355 265.603 547.15 264.443C545.526 263.519 544.946 262.36 545.296 260.735C545.761 258.995 544.716 257.606 540.778 254.828C537.994 252.859 535.68 250.89 535.68 250.424C535.68 250.074 533.476 250.775 530.812 252.043C528.148 253.432 522.815 254.713 519.107 254.942C512.849 255.407 511.919 255.172 510.071 252.744C508.102 250.08 508.102 250.08 504.158 252.164C500.449 254.133 499.984 254.248 496.396 252.394C494.312 251.234 491.528 248.57 490.254 246.366C487.819 242.192 485.041 240.108 481.912 240.108C478.784 240.108 479.829 245.321 484.117 250.654C486.322 253.432 488.176 256.446 488.176 257.376C488.176 258.536 488.52 258.651 489.801 257.606C491.075 256.561 491.54 256.797 492.12 258.995C493.165 263.513 498.957 262.933 503.131 257.836C506.374 253.897 506.489 253.897 507.304 256.332C507.77 257.836 510.089 259.69 512.982 260.964C519.239 263.628 520.049 265.718 517.156 272.205C515.881 275.104 514.836 278.112 514.836 278.812C514.836 280.437 503.246 291.098 501.512 291.098C500.817 291.098 498.498 292.952 496.414 295.151C490.024 301.988 468.818 311.724 464.988 309.641C462.904 308.481 461.509 303.733 461.509 297.935C461.509 294.577 455.946 285.305 452.353 282.757C449.224 280.558 447.599 276.729 447.599 271.631C447.599 268.387 446.79 266.418 444.7 264.443C443.075 262.939 441.801 261.085 441.801 260.39C441.801 259.581 440.641 258.071 439.367 256.797C437.977 255.637 436.467 253.318 435.888 251.814C434.957 249.609 434.263 249.265 431.835 249.845C429.63 250.424 428.356 250.074 427.081 248.57C424.762 245.556 429.63 255.407 433.109 260.505C434.734 262.825 436.008 265.718 436.008 266.877C436.008 268.152 437.053 270.121 438.328 271.395C441.456 274.524 442.96 278.583 442.151 281.712C441.686 283.451 442.501 285.07 444.935 287.275C446.904 289.129 448.759 292.257 449.109 294.577C449.804 297.706 451.543 299.91 456.756 304.193C462.204 308.596 463.708 310.565 464.058 313.464C464.408 316.822 464.867 317.173 468.576 317.517C470.781 317.746 476.688 316.587 481.671 314.853C486.654 313.234 490.942 311.954 491.172 311.954C492.911 311.954 490.942 318.447 486.768 326.788C481.091 338.143 474.483 345.911 465.792 351.703C462.548 354.023 457.68 357.961 455.131 360.624C452.582 363.288 448.294 366.996 445.63 368.851C442.852 370.82 440.647 372.789 440.647 373.483C440.647 374.063 439.487 376.147 438.098 378.001C436.244 380.665 435.9 381.71 436.938 382.984C437.983 384.144 437.983 385.533 437.053 388.197C436.123 390.981 436.244 392.371 437.518 394.454C439.022 396.774 439.022 397.933 437.633 403.261C434.849 413.921 431.605 417.05 420.25 419.834C417.121 420.644 412.603 422.498 410.169 424.008C406.69 426.213 405.881 427.251 406.461 429.106C406.926 430.495 406.926 433.279 406.575 435.363C405.766 439.301 404.377 440.231 395.22 442.201C393.022 442.666 391.977 443.704 391.977 445.214C391.977 448.114 386.529 452.167 375.173 457.615L365.902 462.018L350.258 461.788C341.682 461.673 332.99 461.208 330.906 460.858C326.733 460.163 324.878 456.92 327.663 454.951C329.281 453.676 329.167 453.097 326.853 449.159C325.464 446.61 323.145 443.481 321.641 442.092C319.322 439.893 318.977 438.383 318.977 431.316C318.977 426.913 318.627 423.205 318.168 423.205C317.123 423.205 314.345 417.527 314.345 415.443C314.345 414.634 313.765 413.939 313.185 413.939C311.331 413.939 309.827 409.071 310.521 405.483C310.872 403.859 313.88 399.576 317.359 396.097C323.272 390.184 323.501 389.604 322.342 386.246C321.532 384.041 321.532 382.072 322.227 380.798C323.852 377.899 319.563 366.894 314.58 360.751C312.146 358.087 309.368 354.258 308.323 352.525C306.468 349.281 306.468 349.046 309.712 343.024C313.42 336.301 314.115 331.554 311.566 329.464C310.177 328.189 304.958 327.259 298.937 327.145C297.547 327.03 296.152 325.405 294.998 322.391C293.494 318.568 292.335 317.523 288.856 316.599C286.422 315.904 282.713 315.439 280.629 315.554C270.083 316.019 255.134 314.509 252.471 312.655C250.731 311.61 247.138 310.8 243.665 310.8C235.903 310.8 234.508 309.876 226.861 300.369C222.229 294.577 219.909 290.288 218.635 285.885C217.825 282.292 215.856 276.964 214.346 273.95C209.828 265.029 209.593 260.626 213.652 255.643C217.246 251.125 218.985 246.142 220.024 237.795C220.719 233.041 221.413 232.117 227.671 227.364C237.171 220.297 242.734 216.933 245.054 216.933C246.213 216.933 249.227 216.123 251.776 215.078C255.37 213.574 256.644 212.415 257.454 209.286C258.843 204.188 262.902 200.824 267.649 200.709C270.198 200.709 272.747 199.435 275.646 197.001C279.355 193.757 280.049 193.522 281.209 195.146C283.414 198.16 290.71 199.55 300.447 198.74C307.169 198.275 313.076 198.74 323.737 200.709C331.613 202.098 339.61 203.838 341.349 204.533C344.134 205.463 344.363 205.922 342.974 207.546C342.044 208.591 341.585 210.095 341.815 210.905C342.165 211.714 341.464 213.454 340.305 214.843C338.106 217.162 338.221 217.162 341.579 219.941C343.433 221.445 346.447 222.955 348.066 223.299C349.805 223.649 353.164 225.733 355.598 227.702C364.754 235.469 374.835 237.668 375.53 232.22C376.11 227.931 380.863 226.772 386.655 229.556C397.896 235.119 405.198 236.859 418.172 237.438C432.656 238.133 432.076 238.363 435.555 228.747C436.715 225.733 436.6 215.767 435.441 215.767C435.326 215.767 432.892 216.576 430.228 217.506C425.71 219.131 424.901 219.131 422.581 217.506C420.377 216.117 419.338 216.003 416.904 217.156C414.584 218.201 413.66 218.08 411.921 216.576C410.761 215.417 409.257 214.607 408.563 214.607C406.708 214.607 403.35 208.815 404.045 206.961C404.389 206.03 403.93 205.336 403.114 205.336C400.68 205.336 402.19 201.162 405.083 199.658L407.632 198.384L405.083 198.964C403.694 199.314 402.305 199.078 401.84 198.384C400.91 196.88 393.499 196.88 392.569 198.384C392.104 199.078 391.409 199.308 390.829 198.964C388.625 197.574 391.409 203.832 394.073 205.916L396.857 208.35L392.224 210.434C389.561 211.593 386.662 212.288 385.731 211.938C383.762 211.128 383.182 207.649 384.922 207.649C385.502 207.649 384.457 206.024 382.603 204.055C380.748 202.086 378.665 198.142 377.97 195.364C376.81 190.961 375.651 189.451 369.973 185.513C366.379 182.964 362.671 179.599 361.861 178.095C361.052 176.591 359.892 175.547 359.312 175.897C358.733 176.247 357.923 175.547 357.573 174.157C357.223 172.768 356.528 171.723 356.069 171.723C354.329 171.723 352.475 175.202 353.055 177.171C353.75 179.376 359.663 185.513 366.844 191.54C371.598 195.479 372.407 197.798 368.813 196.874C367.074 196.409 366.494 196.874 366.494 198.613C366.494 201.972 364.41 205.336 362.671 204.641C361.74 204.291 361.281 202.787 361.626 200.703C362.091 197.109 361.046 195.72 351.545 188.188C348.531 185.754 346.447 182.976 345.982 180.886C344.937 175.553 342.968 174.629 336.016 176.018C332.422 176.712 329.179 176.827 328.019 176.247C324.89 174.622 323.151 174.973 317.703 178.681C314.924 180.536 311.796 182.16 310.751 182.16C309.827 182.16 307.157 184.015 304.958 186.334C298.816 192.706 295.457 194.095 287.805 193.171C282.937 192.591 279.923 191.317 275.87 188.188C272.741 185.869 270.307 183.205 270.307 182.16C270.307 181.115 271.811 178.222 273.786 175.673C275.64 173.239 277.495 169.416 277.96 167.332C279.234 160.96 285.147 160.495 296.037 166.058C302.295 169.301 306.003 168.957 307.507 165.128C309.011 161.19 307.972 157.131 304.379 152.383C300.32 146.935 300.67 146.011 306.813 146.935C310.521 147.4 312.031 147.285 312.031 146.24C312.031 145.316 313.07 145.081 314.93 145.546C316.899 146.011 319.684 145.316 323.622 143.341C326.751 141.723 330.345 140.442 331.504 140.442C332.779 140.442 334.403 139.633 335.213 138.703C336.022 137.778 337.411 136.963 338.227 136.963C339.151 136.963 339.852 136.268 339.852 135.459C339.852 134.535 340.081 134.414 340.782 135.344C342.171 137.543 346.81 138.473 348.664 136.848C349.588 136.039 350.289 134.064 350.289 132.445C349.824 126.302 350.289 124.219 352.028 124.219C352.952 124.219 353.768 123.524 353.768 122.594C353.768 121.205 357.011 119 357.941 119.809C358.636 120.619 355.857 131.165 354.813 131.165C353.194 131.165 353.538 133.134 355.622 135.103C356.667 136.148 358.865 136.957 360.49 137.072C362.23 137.072 367.907 137.301 373.12 137.537C383.666 137.887 384.825 137.307 386.1 130.814C386.794 127.571 387.374 127.106 390.618 127.106C393.982 127.106 394.326 126.876 394.326 123.397C394.326 118.994 394.906 118.529 402.438 117.605C407.771 117.025 408.23 116.796 406.612 115.171C404.993 113.546 404.063 113.546 398.85 114.82C394.562 115.98 392.593 115.98 391.669 115.05C390.974 114.355 390.739 113.775 391.318 113.775C391.783 113.775 391.318 112.616 390.388 111.227C387.725 107.403 388.069 104.275 392.013 99.1768C395.951 94.0791 396.301 92.3396 393.638 91.2946C391.089 90.3645 389.929 91.2947 387.96 95.9273C387.036 98.2467 385.061 100.33 383.327 101.025C378.23 102.994 377.185 109.252 381.244 113.89C382.633 115.509 382.633 116.089 381.014 117.714C379.969 118.759 378.35 119.568 377.541 119.568C376.617 119.568 375.802 121.072 375.572 123.276C375.228 126.52 374.412 127.45 370.009 129.649C367.11 130.923 364.446 131.853 364.102 131.618C363.637 131.388 363.057 128.024 362.592 124.086L361.783 116.898L355.755 117.593C349.147 118.402 346.133 117.242 347.178 114.464C347.528 113.534 347.293 112.374 346.598 111.915C345.904 111.45 346.369 110.526 348.102 109.596C350.307 108.436 350.421 108.092 348.911 107.971C346.707 107.971 346.248 106.002 347.752 103.797C348.217 103.103 350.766 101.363 353.544 99.8593C356.208 98.3554 358.412 96.7306 358.412 96.2655C358.412 95.8005 359.343 95.5709 360.611 95.8005C361.885 96.03 365.594 93.8314 369.882 90.3524C377.185 84.3305 381.123 78.7616 379.734 76.4483C379.269 75.7537 379.619 75.4034 380.543 75.7537C381.473 76.104 383.092 75.639 384.137 74.594C385.296 73.6699 387.38 72.7398 388.769 72.5102C393.287 71.8156 394.912 71.4653 396.301 70.5412C397.926 69.4962 402.444 71.9304 402.444 73.7847C402.444 74.4793 405.573 76.2188 409.396 77.7227C418.667 81.4313 424.46 85.4841 424.46 88.3833C424.46 91.6268 421.331 92.4362 415.654 90.3524L410.671 88.6129L416.119 94.7555C421.567 101.128 424.46 102.982 422.147 98.5788C420.522 95.5649 421.452 94.4052 423.886 96.3743C425.39 97.6487 425.626 97.2984 425.626 94.1757C425.626 91.6268 426.205 90.5819 427.48 90.5819C429.334 90.5819 429.219 88.3833 427.25 83.1648C426.785 82.0051 427.136 81.3105 428.18 81.3105C430.615 81.3105 432.584 83.7446 432.584 86.7586C432.584 88.2625 433.163 89.4222 433.743 89.4222C434.438 89.4222 434.903 88.4981 434.903 87.3384C434.903 83.1648 438.146 80.5011 444.174 79.6918C449.502 78.9972 449.852 78.7616 448.578 76.6778C446.029 72.625 448.348 72.5042 457.034 75.9832C458.078 76.4483 455.53 73.4344 451.471 69.2607C447.533 65.0871 444.168 61.149 444.168 60.5691C444.132 58.0565 447.261 59.4517 453.168 64.6642ZM390.249 70.9217C390.594 71.6163 390.135 71.731 389.204 71.3868C387.121 70.5774 386.77 69.762 388.395 69.762C389.09 69.762 389.899 70.2271 390.249 70.9217ZM383.871 73.2411C383.871 73.8209 383.291 74.4007 382.597 74.4007C382.017 74.4007 381.787 73.8209 382.132 73.2411C382.482 72.5465 383.056 72.0814 383.406 72.0814C383.642 72.0814 383.871 72.5465 383.871 73.2411ZM445.872 73.2411C446.216 73.8209 445.757 74.4007 444.827 74.4007C443.903 74.4007 442.743 73.8209 442.393 73.2411C442.042 72.5465 442.507 72.0814 443.438 72.0814C444.362 72.0814 445.521 72.5465 445.872 73.2411ZM378.544 79.1482C378.193 79.728 377.034 80.1931 375.995 80.0723C374.72 80.0723 374.606 79.8428 375.53 79.3777C376.224 79.1482 376.689 78.3328 376.339 77.759C375.874 77.1791 376.454 77.0644 377.384 77.4087C378.429 77.759 378.888 78.5683 378.544 79.1482ZM433.701 79.1482C433.701 79.8428 433.236 79.9575 432.541 79.6133C431.962 79.2629 431.382 78.3388 431.382 77.759C431.382 77.0644 431.962 76.9497 432.541 77.2939C433.236 77.6443 433.701 78.5683 433.701 79.1482ZM268.688 96.7608C269.039 97.8058 270.543 98.15 272.626 97.8057C276.564 97.2259 281.898 100.125 281.898 102.789C281.898 105.223 275.87 108.001 270.657 108.001C264.98 108.001 260.921 105.223 261.271 101.744C261.966 96.8816 267.293 93.2878 268.688 96.7608ZM143.998 101.514C143.998 102.324 143.189 103.713 142.259 104.528C140.405 106.032 139.94 104.879 141.214 101.75C142.144 99.4305 143.998 99.3097 143.998 101.514ZM155.583 106.727C155.583 107.307 154.538 108.231 153.149 108.581C151.18 109.276 150.83 109.97 151.41 112.869C151.875 115.189 151.295 117.623 149.44 120.866C146.427 126.2 144.343 126.659 144.343 121.911C144.343 120.057 143.533 117.508 142.488 116.349C141.444 115.189 140.519 113.685 140.519 113.105C140.519 112.181 152.805 105.688 154.774 105.688C155.239 105.688 155.583 106.147 155.583 106.727ZM315.619 107.307C314.924 108.231 313.07 109.161 311.681 109.626C309.247 110.206 309.247 110.091 312.031 108.001C315.389 105.338 317.588 104.993 315.619 107.307ZM322.456 107.772C322.456 108.237 321.876 109.282 321.067 110.091C320.022 111.136 320.143 111.48 321.647 111.48C324.196 111.48 324.196 113.564 321.762 116.349C319.907 118.203 320.022 118.783 322.342 124.345C323.616 127.589 324.431 130.832 323.966 131.527C323.622 132.107 324.196 133.381 325.241 134.197C327.21 135.586 327.095 135.815 324.661 139.294C322.807 141.614 321.417 142.538 320.143 142.079C319.213 141.614 314.81 140.805 310.406 140.339C306.118 139.874 302.18 139.18 301.83 138.835C301.479 138.485 302.989 137.446 305.073 136.516C307.622 135.471 308.317 134.777 307.272 134.312C305.997 133.732 306.112 133.267 307.737 131.992C308.896 130.947 309.821 129.788 309.706 129.208C309.706 128.743 310.98 128.163 312.605 127.933C316.199 127.468 316.314 124.805 312.955 121.676C311.101 120.172 310.751 119.242 311.796 118.897C312.49 118.547 313.185 117.738 313.185 117.158C313.185 116.463 312.72 116.349 312.025 116.693C311.445 117.043 310.866 116.578 310.866 115.533C310.866 114.488 311.445 114.029 312.025 114.373C312.72 114.724 313.185 114.488 313.185 113.794C313.185 111.939 318.633 106.842 320.717 106.842C321.647 106.842 322.456 107.307 322.456 107.772ZM133.567 114.724C133.567 115.304 132.873 116.578 132.178 117.623C131.018 119.012 130.209 119.248 128.935 118.432C127.431 117.387 127.545 117.043 129.4 115.533C131.943 113.564 133.567 113.335 133.567 114.724ZM308.317 119.822C309.941 121.446 303.799 129.673 299.51 131.298C293.833 133.496 289.544 129.328 294.642 126.544C295.802 125.849 296.611 124.69 296.267 123.766C294.878 120.287 305.188 116.693 308.317 119.822ZM392.677 123.995C392.333 124.225 391.288 124.225 390.243 123.766C388.739 123.186 388.739 122.721 389.893 120.752C391.397 118.432 391.397 118.432 392.327 120.981C392.798 122.256 392.913 123.645 392.677 123.995ZM381.558 126.544C380.863 127.818 380.054 128.863 379.818 128.863C379.468 128.863 379.238 127.818 379.238 126.544C379.238 125.27 380.048 124.225 380.978 124.225C382.482 124.225 382.597 124.69 381.558 126.544ZM361.511 131.992C361.281 133.846 360.466 135.236 359.771 135.121C356.643 134.891 356.063 134.541 356.063 133.381C356.063 132.802 356.643 132.572 357.452 133.031C358.261 133.496 358.376 133.381 357.917 132.566C356.872 130.826 358.032 128.857 360.237 128.857C361.39 128.863 361.855 129.788 361.511 131.992ZM50.9462 177.763C50.5959 178.687 50.2516 178.343 50.2516 177.069C50.1368 175.794 50.4811 175.1 50.8314 175.559C51.1757 175.909 51.2905 176.954 50.9462 177.763ZM342.159 181.822C342.159 182.982 341.694 184.721 340.999 185.645C340.419 186.69 340.419 187.85 341.114 188.659C342.739 190.628 339.954 196.306 337.635 195.841C335.201 195.376 334.621 189.934 336.825 188.08C337.756 187.27 338.215 185.875 337.87 184.951C336.946 182.631 338.335 179.853 340.419 179.853C341.343 179.853 342.159 180.777 342.159 181.822ZM50.016 188.194C50.016 190.278 49.551 193.063 49.0919 194.337C48.1618 196.542 48.1618 196.542 46.8873 194.107C45.1478 190.864 45.1478 187.621 46.8873 185.881C49.2067 183.562 50.1308 184.256 50.016 188.194ZM318.053 188.539C318.053 189.118 317.473 189.813 316.779 190.043C316.084 190.272 315.504 189.577 315.504 188.539C315.504 187.494 316.084 186.799 316.779 187.035C317.473 187.264 318.053 187.965 318.053 188.539ZM50.1308 200.709C50.1308 201.289 49.6657 201.869 48.9711 201.869C48.3913 201.869 47.8114 201.289 47.8114 200.709C47.8114 200.015 48.3913 199.55 48.9711 199.55C49.6657 199.55 50.1308 200.015 50.1308 200.709ZM359.536 205.463C359.536 208.942 356.292 209.401 353.164 206.508C349.57 203.149 350.15 202.219 355.362 202.799C358.497 203.143 359.536 203.838 359.536 205.463ZM34.602 216.353C34.1369 217.978 34.2516 219.252 34.8315 219.252C35.2966 219.252 35.5261 221.336 35.2966 224.006C34.9462 226.669 35.6469 230.843 36.8005 233.971C38.075 237.215 38.54 240.809 38.1897 243.708C37.8394 246.142 37.9602 247.996 38.54 247.646C39.0051 247.417 39.2346 249.851 39.1199 253.209C38.8904 258.077 39.585 260.741 42.9432 267.349C46.1867 273.956 47.1168 277.2 47.5759 284.381C48.2705 296.781 47.3464 301.07 43.523 302.109C41.3184 302.574 40.8594 303.154 41.7835 304.078C42.7137 305.002 43.6378 304.887 45.027 303.727C46.6518 302.453 47.1108 302.453 48.506 304.422C49.4302 305.582 49.8952 307.551 49.551 308.596C49.0859 309.87 49.6657 310.915 51.1757 311.374C53.1448 311.954 57.0828 319.371 57.0828 322.385C57.0828 323.08 60.0968 326.559 63.8054 330.267C70.4131 336.99 80.6086 352.633 81.9978 358.655C83.2723 363.523 80.7234 367.697 74.1156 372.215L68.0877 376.274L67.3931 385.545C66.928 390.643 65.7684 397.366 64.6147 400.38C62.6457 406.057 62.5309 406.057 58.3573 405.133C56.0379 404.668 53.1448 404.324 51.8703 404.203C49.4362 404.088 49.4362 403.973 50.8254 415.329C51.4052 419.267 51.1757 420.891 50.2456 420.891C49.4362 420.891 49.0859 421.242 49.3154 421.701C49.6657 422.281 49.4302 423.67 48.9651 424.944C46.7605 430.622 30.7726 388.324 25.4393 362.37C19.8885 335.83 18.0342 309.641 20.0033 285.305C21.5072 266.183 25.6809 242.083 29.5042 230.263C30.8934 225.745 32.1678 221.342 32.2826 220.412C32.5121 217.633 34.0221 213.46 34.7167 213.46C35.067 213.454 34.9523 214.734 34.602 216.353ZM401.254 220.526C402.529 221.221 401.949 221.451 399.515 221.571C395.111 221.571 390.823 220.412 390.823 219.137C390.829 218.092 398.705 219.137 401.254 220.526ZM429.413 222.846C427.214 225.165 424.43 225.044 424.43 222.731C424.43 221.922 426.513 221.227 430.802 220.533C431.388 220.526 430.808 221.565 429.413 222.846ZM40.5151 240.338C40.1648 241.268 39.8205 240.917 39.8205 239.643C39.7058 238.369 40.05 237.674 40.4004 238.133C40.7446 238.489 40.8594 239.528 40.5151 240.338ZM309.132 330.497C309.482 331.077 309.017 331.656 307.972 331.656C306.927 331.656 306.462 331.077 306.813 330.497C307.163 329.802 307.743 329.337 307.972 329.337C308.202 329.337 308.782 329.802 309.132 330.497ZM471.481 403.967C472.176 407.096 467.308 415.437 457.342 427.952C449.459 437.918 444.712 441.741 440.653 441.741C436.944 441.741 436.594 441.391 435.555 436.408C434.861 433.165 435.326 432.12 438.799 428.647C441.462 426.213 443.087 423.319 443.431 421C443.897 416.597 446.675 414.278 452.353 413.239C454.787 412.888 458.266 411.034 460.35 409.186C462.319 407.332 464.408 405.828 464.982 405.828C465.556 405.828 466.371 404.783 466.722 403.508C467.773 400.374 470.551 400.603 471.481 403.967ZM301.014 557.86C311.095 561.799 313.994 562.034 330.218 560.059C339.139 558.899 341.573 559.014 344.122 560.409C345.976 561.219 350.844 563.073 355.133 564.347C360.46 565.972 364.634 568.171 368.693 571.65C371.936 574.434 374.6 577.327 374.6 577.907C374.6 579.182 361.62 582.196 343.892 584.974C328.593 587.408 294.413 588.332 277.259 586.714C261.615 585.21 238.555 580.921 225.925 577.213C218.973 575.123 218.278 574.664 219.317 572.695C219.897 571.535 220.127 569.796 219.782 568.871C219.088 566.902 221.751 561.11 224.536 558.791C225.925 557.631 232.762 557.166 252.694 557.051C268.223 556.936 280.158 556.242 281.898 555.547C286.766 553.457 291.399 554.037 301.014 557.86ZM204.948 568.751C207.032 570.49 207.032 570.49 203.674 569.795C199.385 568.871 197.066 566.896 200.315 566.896C201.59 566.896 203.674 567.706 204.948 568.751ZM214.219 572.109C215.379 573.039 215.844 573.848 215.029 573.848C212.824 573.848 210.046 572.574 210.046 571.414C210.052 569.91 211.671 570.14 214.219 572.109Z" stroke="#6CDEEB" stroke-width="2" mask="url(#path-1-inside-1)"/>
<path d="M308.552 38.4748C308.552 39.0547 309.827 39.6345 311.451 39.6345C313.07 39.6345 314.351 39.0547 314.351 38.4748C314.351 37.7802 313.076 37.3152 311.451 37.3152C309.827 37.3152 308.552 37.7802 308.552 38.4748Z" stroke="#6CDEEB" stroke-width="2" mask="url(#path-1-inside-1)"/>
<path d="M250.031 27.929C247.252 30.5926 260.347 31.2872 263.82 28.6236C265.674 27.2344 265.094 27.0049 258.142 27.2344C253.969 27.3491 250.26 27.6995 250.031 27.929Z" stroke="#6CDEEB" stroke-width="2" mask="url(#path-1-inside-1)"/>
<path d="M240.759 30.943C238.096 32.2174 237.86 32.5677 239.6 32.5677C240.874 32.5677 242.958 31.8731 244.118 30.943C246.902 28.8531 245.392 28.8531 240.759 30.943Z" stroke="#6CDEEB" stroke-width="2" mask="url(#path-1-inside-1)"/>
<path d="M469.391 80.6582C469.971 82.5125 470.895 84.252 471.711 84.5963C473.68 85.1761 473.336 83.5514 470.787 80.1932L468.582 77.294L469.391 80.6582Z" stroke="#6CDEEB" stroke-width="2" mask="url(#path-1-inside-1)"/>
<path d="M433.121 176.259L428.489 178.343L431.968 180.197L435.447 181.937L432.203 183.211C430.349 183.906 428.495 184.486 428.15 184.486C426.646 184.486 423.397 179.968 424.442 179.618C425.022 179.388 423.977 178.343 422.008 177.183C418.414 175.214 418.414 175.214 415.4 178.458C411.347 182.746 407.638 192.712 409.487 193.872C410.296 194.337 410.532 195.611 410.066 196.65C409.487 198.275 409.837 198.505 411.921 197.925C426.519 193.407 429.189 193.171 435.211 195.491C438.11 196.536 442.513 197.23 445.986 196.995C450.74 196.644 451.664 196.3 452.014 194.216C452.244 192.362 451.084 190.973 447.382 188.653C440.194 184.365 436.256 180.771 438.11 180.191C439.614 179.612 440.079 173.934 438.69 174.163C438.104 174.176 435.676 175.1 433.121 176.259Z" stroke="#6CDEEB" stroke-width="2" mask="url(#path-1-inside-1)"/>
</g>
<defs>
<filter id="filter0_d" x="0.0395508" y="0.787964" width="607.921" height="608.212" filterUnits="userSpaceOnUse" color-interpolation-filters="sRGB">
<feFlood flood-opacity="0" result="BackgroundImageFix"/>
<feColorMatrix in="SourceAlpha" type="matrix" values="0 0 0 0 0 0 0 0 0 0 0 0 0 0 0 0 0 0 127 0"/>
<feOffset/>
<feGaussianBlur stdDeviation="4"/>
<feColorMatrix type="matrix" values="0 0 0 0 0.352941 0 0 0 0 0.729412 0 0 0 0 0.768627 0 0 0 1 0"/>
<feBlend mode="normal" in2="BackgroundImageFix" result="effect1_dropShadow"/>
<feBlend mode="normal" in="SourceGraphic" in2="effect1_dropShadow" result="shape"/>
</filter>
</defs>
</svg>
