<svg xmlns="http://www.w3.org/2000/svg" fill="none" viewBox="0 0 48 48">
  <defs/>
  <g fill="#526065" fill-rule="evenodd" clip-path="url(#clip0)" clip-rule="evenodd">
    <path d="M46.2399 15.0013c-.1362-.337-.2798-.6704-.4307-1-1.6151-3.5276-4.0646-6.61615-7.1432-8.99489C28.1838-3.09257 13.1207-1.16066 5.02172 9.32153L16.1412 28.4007c-.6777-1.2092-1.0658-2.5567-1.137-3.9368-.008-.1569-.012-.3143-.0119-.4719.005-4.9703 4.0382-8.9956 9.0085-8.9907h22.2391zm-1.5356-1c-1.5468-3.2074-3.8212-6.01807-6.6497-8.20358-9.868-7.62436-23.9722-5.97228-31.82455 3.61113L14.0588 22.8417c.575-4.9804 4.8086-8.8449 9.942-8.8404.0004 0-.0003 0 0 0m0 0h20.7035z"/>
    <path d="M46.9998 24.0001v-.001c.0051-2.7329-.4841-5.4422-1.4421-7.9978H30.0075c3.9871 2.9953 5.2058 8.5599 2.663 12.9925L22.6178 46.9584c.459.0293.919.0432 1.3793.0415H24c12.698-.0106 22.9892-10.3018 22.9998-22.9998zM22.0793 47.9206c-.3603-.0311-.7199-.0713-1.0783-.1207l10.7995-19.2992c2.4752-4.3089.9997-9.8081-3.2999-12.2994-.1201-.0696-.2418-.1363-.3647-.2-1.2621-.6541-2.6643-.9979-4.0896-1h22.1936c1.1679 2.8564 1.7657 5.9137 1.7599 8.9996-.0111 13.2497-10.7493 23.9879-23.999 23.999-.6415.0024-1.2827-.0241-1.9215-.0793zm1.9415-32.9193h.0255-.0255z"/>
    <path d="M16.1412 28.4007L5.02172 9.32153c-.22255.28747-.43823.57956-.64691.87597-2.2525 3.1998-3.691196 6.907-4.183071 10.8001C-1.46869 34.1396 7.83896 46.1394 20.981 47.7999h.02l10.7995-19.2992c-.6986 1.2138-1.6696 2.2454-2.8333 3.0155-.1555.1028-.3144.201-.4766.2944-4.3076 2.4796-9.8098.9977-12.2894-3.3099l-.06-.1zm-.8021.6069l-.062-.1034L4.93126 11.1523c-2.00873 2.9785-3.29534 6.3927-3.74741 9.9706C-.380027 33.5008 8.20906 44.8214 20.4609 46.7171l7.5893-13.5623c-4.6172 2.0514-10.1312.3251-12.7111-4.1472z"/>
  </g>
  <defs>
    <clipPath id="clip0">
      <path fill="#fff" d="M0 0h48v48H0z"/>
    </clipPath>
  </defs>
</svg>
