<svg viewBox="0 0 592 593" fill="none" xmlns="http://www.w3.org/2000/svg">
<path d="M274.478 1.50094C202.167 7.06378 137.738 36.7323 86.6335 87.7159C39.3524 135.118 11.653 191.205 2.03728 259.342C-0.626359 278.23 -0.626359 315.774 2.03728 334.667C11.653 402.925 39.2376 458.548 86.7483 506.173C133.794 553.339 191.856 581.963 258.834 590.884C289.312 594.937 329.061 593.089 360.813 586.016C461.627 563.535 544.484 488.554 576.931 390.404C593.734 339.88 596.518 284.258 584.927 232.108C562.561 131.524 486.892 47.9727 389.201 15.9909C353.161 4.17059 310.168 -1.27746 274.478 1.50094ZM289.886 14.2514C290.115 14.946 291.396 15.411 292.67 15.411C294.639 15.411 294.639 15.6406 293.25 17.0358C292.44 17.966 290.351 18.8901 288.847 19.1196C287.343 19.3492 286.183 20.0498 286.298 20.8591C286.413 21.5537 284.093 22.8282 281.085 23.6436L275.752 25.1475L279.11 26.5367C283.163 28.2763 288.611 28.6205 289.191 27.1166C289.42 26.5367 293.365 26.422 298.807 27.0018C312.137 28.391 328.59 36.2732 318.274 36.2732C315.725 36.2732 315.374 36.5027 316.77 37.4329C317.7 38.0127 321.523 38.5926 325.346 38.5926C331.26 38.5926 331.954 38.8221 330.68 40.3321C329.87 41.2562 327.436 42.0716 325.232 42.0716H321.179L323.842 44.2762L326.506 46.36L320.484 48.2143C312.487 50.5336 296.958 60.1493 297.768 62.3539C298.233 63.3989 297.653 63.8579 296.264 63.8579C295.104 63.7432 292.211 64.6673 289.777 65.8269C286.419 67.3309 285.023 67.5665 283.984 66.5215C283.29 65.8269 282.13 65.2471 281.436 65.2471C280.856 65.2471 280.971 65.7122 281.901 66.292C283.06 67.1014 283.175 67.796 282.13 69.771C280.276 73.1293 278.772 72.785 278.192 68.9617C277.842 66.2981 277.727 66.4128 277.498 70.0066C277.268 76.0346 272.744 79.8579 272.744 73.9447C272.744 70.5865 272.049 70.3509 269.73 72.6702C268.685 73.7152 268.57 74.6393 269.265 75.1044C269.845 75.4547 270.425 76.4936 270.425 77.4237C270.425 79.5075 262.083 80.3229 254.546 78.8129C249.677 77.8828 247.014 78.1184 241.451 79.6223C236.583 81.0115 232.53 81.3618 228.356 80.8967C222.793 80.2021 221.404 80.5464 208.654 86.5743C196.483 92.2519 189.072 95.0304 193.819 92.0224C194.979 91.3278 195.209 89.7031 194.75 86.8099C193.94 81.7122 196.374 78.4686 207.729 69.4268C213.987 64.4438 216.651 63.0546 222.908 61.8949C232.179 60.0406 242.26 55.2872 233.683 56.9119C229.28 57.6065 231.6 55.1724 236.583 53.7832C239.597 52.853 240.521 53.0886 241.336 54.5925C242.266 56.2173 242.725 56.3321 243.885 55.0576C244.694 54.363 245.045 53.6684 244.58 53.6684C244.114 53.6684 244.694 52.7443 245.854 51.5846C246.899 50.5397 250.952 48.6854 254.775 47.411C263.116 44.8621 272.738 40.1086 272.738 38.7194C272.738 38.1396 272.043 37.445 271.349 37.0947C267.296 35.7055 272.974 34.89 286.648 34.89C301.827 35.0048 306 34.1954 295.225 33.3861C278.887 32.1116 274.018 31.3023 274.248 30.1426C274.363 29.3333 272.859 28.7534 270.539 28.7534C265.671 28.7534 264.512 26.3193 268.57 24.5798C270.195 23.7704 271.234 22.8402 271.005 22.3752C270.425 21.451 279.116 19.5968 281.895 19.941C282.825 20.0558 283.054 19.7115 282.589 18.8961C282.124 18.0807 282.474 17.0419 283.284 16.462C284.444 15.7674 284.208 15.4171 282.354 15.4171C279.454 15.4171 278.76 13.6775 281.194 12.6387C283.169 11.8172 289.427 12.9769 289.886 14.2514ZM277.951 14.2514C278.301 14.946 277.371 15.411 275.746 15.411C274.121 15.411 272.502 15.8761 272.152 16.5707C271.802 17.1506 268.673 17.7304 265.43 17.8452C259.982 17.9599 259.752 18.0747 263.225 18.8901C267.628 19.935 269.368 21.2094 266.469 21.2094C265.424 21.2094 264.729 21.6745 265.079 22.2544C265.43 22.7194 260.326 23.5288 253.839 23.7583C246.651 24.2234 239.355 25.3831 235.067 26.7723C231.243 28.0467 227.07 29.4359 225.795 29.7862C224.521 30.1366 225.91 30.1366 229.039 29.7862C232.518 29.4359 234.487 29.6715 234.487 30.3661C234.487 31.0607 233.792 31.6405 233.098 31.7553C232.288 31.7553 232.632 32.3351 233.907 32.915C235.646 33.7243 235.296 33.8451 232.518 33.2653C230.434 32.9149 228.694 33.0358 228.694 33.6156C228.694 34.8901 214.096 34.6605 210.266 33.3861C208.297 32.6915 207.717 32.8063 208.297 33.7364C208.992 34.7814 201.46 39.7643 199.141 39.7643C197.516 39.7643 199.491 36.6356 202.04 35.4759C207.717 32.6975 191.494 33.6216 185.237 36.4061C176.315 40.3441 166.808 46.2573 160.787 51.6994C155.574 56.332 153.369 57.8421 144.448 62.7103C140.51 64.9149 141.9 65.839 146.073 63.7552C147.813 62.8311 151.4 61.4359 153.955 60.6265C156.504 59.9319 163.807 56.6884 170.179 53.5597C176.551 50.5457 183.968 47.6465 186.753 47.1875C191.736 46.3781 191.736 46.3782 190.926 49.6216L190.117 52.7503L194.405 49.9659C197.184 48.2263 198.464 46.6077 198.114 45.3332C197.534 42.6696 200.892 41.7394 205.066 43.2494C207.615 44.2944 209.819 44.0588 215.032 42.5548C219.091 41.2804 221.175 40.1207 220.359 39.6556C219.314 38.961 219.55 38.4959 221.054 37.9161C222.328 37.451 223.488 37.6866 224.182 38.7254C224.992 39.9999 225.227 39.9999 225.227 38.8402C225.227 38.0309 225.692 37.5658 226.387 38.0308C226.967 38.3812 228.356 38.1456 229.516 37.5658C230.675 36.9859 232.53 36.1766 233.689 35.8263C234.734 35.4759 236.238 33.8572 236.818 32.2325C238.322 28.1796 246.204 24.7006 254.087 24.7006C258.84 24.7006 260.114 25.0509 259.649 26.3253C259.299 27.1347 259.535 28.4091 260.229 29.1037C262.313 31.1936 258.025 32.2325 254.781 30.4929C253.277 29.6836 251.423 29.448 250.607 30.0278C249.563 30.6077 249.683 31.0728 251.417 31.7674C253.271 32.462 252.691 32.927 248.288 34.8961C245.274 36.1705 242.496 37.7953 242.145 38.4899C241.68 39.1845 237.742 40.8093 233.224 42.1985C225.922 44.397 221.754 47.411 220.359 51.4699C219.894 52.9738 209.004 54.3691 209.004 53.0946C209.004 52.6296 209.928 51.4698 211.088 50.6605C215.606 47.1814 210.164 49.3861 204.83 53.0946C199.382 56.918 199.153 57.0327 198.573 54.7194C197.993 52.4 197.878 52.4 195.215 55.2992C191.856 58.893 190.461 59.1226 190.461 55.9938C190.461 54.7194 190.111 53.6744 189.652 53.6744C187.797 53.6744 182.349 57.9629 183.165 58.7722C183.63 59.2373 183.165 59.2373 182.235 58.887C180.38 58.1924 174.238 62.2452 174.238 64.0995C174.238 64.6794 175.862 64.9089 177.717 64.4498C179.686 64.0995 181.196 64.0995 181.196 64.5646C181.196 64.9149 177.258 68.1584 172.389 71.7522C165.782 76.6204 163.003 79.5136 161.264 83.3429C160.104 86.1213 158.365 88.4407 157.44 88.4407C156.516 88.4407 156.166 89.25 156.516 90.76C156.981 92.6143 156.166 93.4237 152.808 94.9337C147.245 97.2531 142.377 96.2082 137.049 91.3399C133.691 88.326 132.181 87.6313 129.518 88.2112L126.159 88.9058L129.059 89.6004C133.232 90.6453 133.462 93.8888 129.409 95.6283C124.655 97.5974 122.227 100.031 122.922 101.886C123.846 104.435 117.359 110.463 113.765 110.463C109.247 110.463 109.592 107.219 114.23 105.594L118.054 104.205L114.81 103.396C112.841 102.816 109.247 103.166 105.539 104.205C102.18 105.129 98.2364 106.289 96.6176 106.639C94.9929 106.99 92.5648 108.143 91.1696 109.073C89.6656 110.004 88.5059 110.348 88.5059 110.004C88.5059 108.034 79.3493 118 78.6547 120.664L77.7306 123.793L76.6856 119.969C75.6407 116.261 75.991 115.796 86.8812 104.09C104.844 84.7382 122.807 69.6744 144.708 55.8851C169.738 40.1267 205.549 25.522 231.618 20.3095C251.664 16.3714 263.835 14.2815 269.857 13.9373C273.1 13.7077 276 13.4722 276.465 13.3574C276.912 13.2064 277.606 13.5568 277.951 14.2514ZM304.025 18.8841C304.025 21.6685 303.095 22.2423 296.258 23.0577C291.625 23.7523 290.931 23.5228 292.205 22.2483C293.014 21.3242 295.334 20.8591 297.653 21.0886C301.476 21.3182 303.101 19.8142 300.552 18.3042C299.972 17.9539 299.393 18.1894 299.393 18.7693C299.393 19.4639 298.348 20.0437 297.073 20.0437C295.799 20.0437 294.754 19.4639 294.754 18.8841C294.754 18.1895 295.563 17.7244 296.493 17.7244C297.538 17.7244 297.883 17.0298 297.538 15.9848C296.958 14.5956 297.424 14.4809 300.437 15.5198C302.751 16.3352 304.025 17.6096 304.025 18.8841ZM290.121 23.5228C290.121 24.1026 289.892 24.6824 289.656 24.6824C289.306 24.6824 288.726 24.1026 288.382 23.5228C288.031 22.8282 288.267 22.3631 288.847 22.3631C289.541 22.3631 290.121 22.8282 290.121 23.5228ZM380.51 30.9399C380.51 32.6794 379.93 32.9089 377.611 32.3291C374.597 31.5197 374.597 31.6345 376.566 34.5276C377.611 36.1524 378.885 37.4268 379.465 37.4268C380.045 37.4268 380.51 38.0067 380.51 38.7013C380.51 39.3959 379.586 39.7462 378.541 39.5107C377.381 39.2811 376.572 38.351 376.801 37.6564C377.145 35.4518 375.871 36.0316 373.558 38.8161L371.474 41.4797L370.314 38.4657C367.651 31.6285 368.11 28.1494 371.818 28.1494C373.443 28.1494 374.717 27.6843 374.717 27.1045C374.717 26.5246 375.992 26.6394 377.617 27.334C379.235 28.1555 380.51 29.6654 380.51 30.9399ZM419.564 47.3928C420.259 51.9108 421.304 53.5355 427.211 59.2131C432.659 64.5465 430.684 65.8209 423.968 61.4177C418.985 58.289 413.536 46.9338 414.696 42.4159C415.276 39.7522 415.62 39.6375 417.13 41.1414C418.054 42.0595 419.099 44.844 419.564 47.3928ZM445.168 56.6642C448.411 59.5634 451.196 61.4177 451.196 60.6023C451.196 59.6722 451.89 59.6722 453.515 60.6023C454.79 61.2969 455.835 62.3418 455.835 63.0364C455.835 63.731 455.369 63.8458 454.675 63.5015C451.776 61.762 453.866 64.1962 457.339 66.5155C459.773 68.3698 460.467 68.4846 459.422 67.2101C452.47 58.5186 479.819 80.1901 495.463 95.7189C517.714 117.97 536.022 143.465 549.696 171.273C559.547 191.435 564.645 205.224 569.513 225.041L573.337 240.341L568.934 252.741C563.6 267.46 561.287 286.347 564.301 290.521C566.385 293.65 566.385 299.792 564.186 301.647C561.752 303.616 560.828 300.716 561.637 294.344L562.332 289.476L560.478 293.299C558.158 297.817 556.539 297.588 555.144 292.254C554.564 290.05 553.755 287.737 553.175 287.157C551.436 284.958 545.178 259.228 545.063 253.55L544.949 250.071L543.324 253.894C541.82 257.253 541.355 257.603 539.15 256.443C537.526 255.519 536.946 254.36 537.296 252.735C537.761 250.995 536.716 249.606 532.778 246.828C529.994 244.859 527.68 242.89 527.68 242.424C527.68 242.074 525.476 242.775 522.812 244.043C520.148 245.432 514.815 246.713 511.107 246.942C504.849 247.407 503.919 247.172 502.071 244.744C500.102 242.08 500.102 242.08 496.158 244.164C492.449 246.133 491.984 246.248 488.396 244.394C486.312 243.234 483.528 240.57 482.254 238.366C479.819 234.192 477.041 232.108 473.912 232.108C470.784 232.108 471.829 237.321 476.117 242.654C478.322 245.432 480.176 248.446 480.176 249.376C480.176 250.536 480.52 250.651 481.801 249.606C483.075 248.561 483.54 248.797 484.12 250.995C485.165 255.513 490.957 254.933 495.131 249.836C498.374 245.897 498.489 245.897 499.304 248.332C499.77 249.836 502.089 251.69 504.982 252.964C511.239 255.628 512.049 257.718 509.156 264.205C507.881 267.104 506.836 270.112 506.836 270.812C506.836 272.437 495.246 283.098 493.512 283.098C492.817 283.098 490.498 284.952 488.414 287.151C482.024 293.988 460.818 303.724 456.988 301.641C454.904 300.481 453.509 295.733 453.509 289.935C453.509 286.577 447.946 277.305 444.353 274.757C441.224 272.558 439.599 268.729 439.599 263.631C439.599 260.387 438.79 258.418 436.7 256.443C435.075 254.939 433.801 253.085 433.801 252.39C433.801 251.581 432.641 250.071 431.367 248.797C429.977 247.637 428.467 245.318 427.888 243.814C426.957 241.609 426.263 241.265 423.835 241.845C421.63 242.424 420.356 242.074 419.081 240.57C416.762 237.556 421.63 247.407 425.109 252.505C426.734 254.825 428.008 257.718 428.008 258.877C428.008 260.152 429.053 262.121 430.328 263.395C433.456 266.524 434.96 270.583 434.151 273.712C433.686 275.451 434.501 277.07 436.935 279.275C438.904 281.129 440.759 284.257 441.109 286.577C441.804 289.706 443.543 291.91 448.756 296.193C454.204 300.596 455.708 302.565 456.058 305.464C456.408 308.822 456.867 309.173 460.576 309.517C462.781 309.746 468.688 308.587 473.671 306.853C478.654 305.234 482.942 303.954 483.172 303.954C484.911 303.954 482.942 310.447 478.768 318.788C473.091 330.143 466.483 337.911 457.792 343.703C454.548 346.023 449.68 349.961 447.131 352.624C444.582 355.288 440.294 358.996 437.63 360.851C434.852 362.82 432.647 364.789 432.647 365.483C432.647 366.063 431.487 368.147 430.098 370.001C428.244 372.665 427.9 373.71 428.938 374.984C429.983 376.144 429.983 377.533 429.053 380.197C428.123 382.981 428.244 384.371 429.518 386.454C431.022 388.774 431.022 389.933 429.633 395.261C426.849 405.921 423.605 409.05 412.25 411.834C409.121 412.644 404.603 414.498 402.169 416.008C398.69 418.213 397.881 419.251 398.461 421.106C398.926 422.495 398.926 425.279 398.575 427.363C397.766 431.301 396.377 432.231 387.22 434.201C385.022 434.666 383.977 435.704 383.977 437.214C383.977 440.114 378.529 444.167 367.173 449.615L357.902 454.018L342.258 453.788C333.682 453.673 324.99 453.208 322.906 452.858C318.733 452.163 316.878 448.92 319.663 446.951C321.281 445.676 321.167 445.097 318.853 441.159C317.464 438.61 315.145 435.481 313.641 434.092C311.322 431.893 310.977 430.383 310.977 423.316C310.977 418.913 310.627 415.205 310.168 415.205C309.123 415.205 306.345 409.527 306.345 407.443C306.345 406.634 305.765 405.939 305.185 405.939C303.331 405.939 301.827 401.071 302.521 397.483C302.872 395.859 305.88 391.576 309.359 388.097C315.272 382.184 315.501 381.604 314.342 378.246C313.532 376.041 313.532 374.072 314.227 372.798C315.852 369.899 311.563 358.894 306.58 352.751C304.146 350.087 301.368 346.258 300.323 344.525C298.468 341.281 298.468 341.046 301.712 335.024C305.42 328.301 306.115 323.554 303.566 321.464C302.177 320.189 296.958 319.259 290.937 319.145C289.547 319.03 288.152 317.405 286.998 314.391C285.494 310.568 284.335 309.523 280.856 308.599C278.422 307.904 274.713 307.439 272.629 307.554C262.083 308.019 247.134 306.509 244.471 304.655C242.731 303.61 239.138 302.8 235.665 302.8C227.903 302.8 226.508 301.876 218.861 292.369C214.229 286.577 211.909 282.288 210.635 277.885C209.825 274.292 207.856 268.964 206.346 265.95C201.828 257.029 201.593 252.626 205.652 247.643C209.246 243.125 210.985 238.142 212.024 229.795C212.719 225.041 213.413 224.117 219.671 219.364C229.171 212.297 234.734 208.933 237.054 208.933C238.213 208.933 241.227 208.123 243.776 207.078C247.37 205.574 248.644 204.415 249.454 201.286C250.843 196.188 254.902 192.824 259.649 192.709C262.198 192.709 264.747 191.435 267.646 189.001C271.355 185.757 272.049 185.522 273.209 187.146C275.414 190.16 282.71 191.55 292.447 190.74C299.169 190.275 305.076 190.74 315.737 192.709C323.613 194.098 331.61 195.838 333.349 196.533C336.134 197.463 336.363 197.922 334.974 199.546C334.044 200.591 333.585 202.095 333.815 202.905C334.165 203.714 333.464 205.454 332.305 206.843C330.106 209.162 330.221 209.162 333.579 211.941C335.433 213.445 338.447 214.955 340.066 215.299C341.805 215.649 345.164 217.733 347.598 219.702C356.754 227.469 366.835 229.668 367.53 224.22C368.11 219.931 372.863 218.772 378.655 221.556C389.896 227.119 397.198 228.859 410.172 229.438C424.656 230.133 424.076 230.363 427.555 220.747C428.715 217.733 428.6 207.767 427.441 207.767C427.326 207.767 424.892 208.576 422.228 209.506C417.71 211.131 416.901 211.131 414.581 209.506C412.377 208.117 411.338 208.003 408.904 209.156C406.584 210.201 405.66 210.08 403.921 208.576C402.761 207.417 401.257 206.607 400.563 206.607C398.708 206.607 395.35 200.815 396.045 198.961C396.389 198.03 395.93 197.336 395.114 197.336C392.68 197.336 394.19 193.162 397.083 191.658L399.632 190.384L397.083 190.964C395.694 191.314 394.305 191.078 393.84 190.384C392.91 188.88 385.499 188.88 384.569 190.384C384.104 191.078 383.409 191.308 382.829 190.964C380.625 189.574 383.409 195.832 386.073 197.916L388.857 200.35L384.224 202.434C381.561 203.593 378.662 204.288 377.731 203.938C375.762 203.128 375.182 199.649 376.922 199.649C377.502 199.649 376.457 198.024 374.603 196.055C372.748 194.086 370.665 190.142 369.97 187.364C368.81 182.961 367.651 181.451 361.973 177.513C358.379 174.964 354.671 171.599 353.861 170.095C353.052 168.591 351.892 167.547 351.312 167.897C350.733 168.247 349.923 167.547 349.573 166.157C349.223 164.768 348.528 163.723 348.069 163.723C346.329 163.723 344.475 167.202 345.055 169.171C345.75 171.376 351.663 177.513 358.844 183.54C363.598 187.479 364.407 189.798 360.813 188.874C359.074 188.409 358.494 188.874 358.494 190.613C358.494 193.972 356.41 197.336 354.671 196.641C353.74 196.291 353.281 194.787 353.626 192.703C354.091 189.109 353.046 187.72 343.545 180.188C340.531 177.754 338.447 174.976 337.982 172.886C336.937 167.553 334.968 166.629 328.016 168.018C324.422 168.712 321.179 168.827 320.019 168.247C316.89 166.622 315.151 166.973 309.703 170.681C306.924 172.536 303.796 174.16 302.751 174.16C301.827 174.16 299.157 176.015 296.958 178.334C290.816 184.706 287.457 186.095 279.805 185.171C274.937 184.591 271.923 183.317 267.87 180.188C264.741 177.869 262.307 175.205 262.307 174.16C262.307 173.115 263.811 170.222 265.786 167.673C267.64 165.239 269.495 161.416 269.96 159.332C271.234 152.96 277.147 152.495 288.037 158.058C294.295 161.301 298.003 160.957 299.507 157.128C301.011 153.19 299.972 149.131 296.379 144.383C292.32 138.935 292.67 138.011 298.813 138.935C302.521 139.4 304.031 139.285 304.031 138.24C304.031 137.316 305.07 137.081 306.93 137.546C308.899 138.011 311.684 137.316 315.622 135.341C318.751 133.723 322.345 132.442 323.504 132.442C324.779 132.442 326.403 131.633 327.213 130.703C328.022 129.778 329.411 128.963 330.227 128.963C331.151 128.963 331.852 128.268 331.852 127.459C331.852 126.535 332.081 126.414 332.782 127.344C334.171 129.543 338.81 130.473 340.664 128.848C341.588 128.039 342.289 126.064 342.289 124.445C341.824 118.302 342.289 116.219 344.028 116.219C344.952 116.219 345.768 115.524 345.768 114.594C345.768 113.205 349.011 111 349.941 111.809C350.636 112.619 347.857 123.165 346.813 123.165C345.194 123.165 345.538 125.134 347.622 127.103C348.667 128.148 350.865 128.957 352.49 129.072C354.23 129.072 359.907 129.301 365.12 129.537C375.666 129.887 376.825 129.307 378.1 122.814C378.794 119.571 379.374 119.106 382.618 119.106C385.982 119.106 386.326 118.876 386.326 115.397C386.326 110.994 386.906 110.529 394.438 109.605C399.771 109.025 400.23 108.796 398.612 107.171C396.993 105.546 396.063 105.546 390.85 106.82C386.562 107.98 384.593 107.98 383.669 107.05C382.974 106.355 382.739 105.775 383.318 105.775C383.783 105.775 383.318 104.616 382.388 103.227C379.725 99.4033 380.069 96.2746 384.013 91.1768C387.951 86.0791 388.301 84.3396 385.638 83.2946C383.089 82.3645 381.929 83.2947 379.96 87.9273C379.036 90.2467 377.061 92.3305 375.327 93.0251C370.23 94.9941 369.185 101.252 373.244 105.89C374.633 107.509 374.633 108.089 373.014 109.714C371.969 110.759 370.35 111.568 369.541 111.568C368.617 111.568 367.802 113.072 367.572 115.276C367.228 118.52 366.412 119.45 362.009 121.649C359.11 122.923 356.446 123.853 356.102 123.618C355.637 123.388 355.057 120.024 354.592 116.086L353.783 108.898L347.755 109.593C341.147 110.402 338.133 109.242 339.178 106.464C339.528 105.534 339.293 104.374 338.598 103.915C337.904 103.45 338.369 102.526 340.102 101.596C342.307 100.436 342.421 100.092 340.911 99.9711C338.707 99.9711 338.248 98.002 339.752 95.7974C340.217 95.1028 342.766 93.3633 345.544 91.8593C348.208 90.3554 350.412 88.7306 350.412 88.2655C350.412 87.8005 351.343 87.5709 352.611 87.8005C353.885 88.03 357.594 85.8314 361.882 82.3524C369.185 76.3305 373.123 70.7616 371.734 68.4483C371.269 67.7537 371.619 67.4034 372.543 67.7537C373.473 68.104 375.092 67.639 376.137 66.594C377.296 65.6699 379.38 64.7398 380.769 64.5102C385.287 63.8156 386.912 63.4653 388.301 62.5412C389.926 61.4962 394.444 63.9304 394.444 65.7847C394.444 66.4793 397.573 68.2188 401.396 69.7227C410.667 73.4313 416.46 77.4841 416.46 80.3833C416.46 83.6268 413.331 84.4362 407.654 82.3524L402.671 80.6129L408.119 86.7555C413.567 93.1277 416.46 94.982 414.147 90.5788C412.522 87.5649 413.452 86.4052 415.886 88.3743C417.39 89.6487 417.626 89.2984 417.626 86.1757C417.626 83.6268 418.205 82.5819 419.48 82.5819C421.334 82.5819 421.219 80.3833 419.25 75.1648C418.785 74.0051 419.136 73.3105 420.18 73.3105C422.615 73.3105 424.584 75.7446 424.584 78.7586C424.584 80.2625 425.163 81.4222 425.743 81.4222C426.438 81.4222 426.903 80.4981 426.903 79.3384C426.903 75.1648 430.146 72.5011 436.174 71.6918C441.502 70.9972 441.852 70.7616 440.578 68.6778C438.029 64.625 440.348 64.5042 449.034 67.9832C450.078 68.4483 447.53 65.4344 443.471 61.2607C439.533 57.0871 436.168 53.149 436.168 52.5691C436.132 50.0565 439.261 51.4517 445.168 56.6642ZM382.249 62.9217C382.594 63.6163 382.135 63.731 381.204 63.3868C379.121 62.5774 378.77 61.762 380.395 61.762C381.09 61.762 381.899 62.2271 382.249 62.9217ZM375.871 65.2411C375.871 65.8209 375.291 66.4007 374.597 66.4007C374.017 66.4007 373.787 65.8209 374.132 65.2411C374.482 64.5465 375.056 64.0814 375.406 64.0814C375.642 64.0814 375.871 64.5465 375.871 65.2411ZM437.872 65.2411C438.216 65.8209 437.757 66.4007 436.827 66.4007C435.903 66.4007 434.743 65.8209 434.393 65.2411C434.042 64.5465 434.507 64.0814 435.438 64.0814C436.362 64.0814 437.521 64.5465 437.872 65.2411ZM370.544 71.1482C370.193 71.728 369.034 72.1931 367.995 72.0723C366.72 72.0723 366.606 71.8428 367.53 71.3777C368.224 71.1482 368.689 70.3328 368.339 69.759C367.874 69.1791 368.454 69.0644 369.384 69.4087C370.429 69.759 370.888 70.5683 370.544 71.1482ZM425.701 71.1482C425.701 71.8428 425.236 71.9575 424.541 71.6133C423.962 71.2629 423.382 70.3388 423.382 69.759C423.382 69.0644 423.962 68.9497 424.541 69.2939C425.236 69.6443 425.701 70.5683 425.701 71.1482ZM260.688 88.7608C261.039 89.8058 262.543 90.15 264.626 89.8057C268.564 89.2259 273.898 92.1251 273.898 94.7887C273.898 97.2229 267.87 100.001 262.657 100.001C256.98 100.001 252.921 97.2229 253.271 93.7438C253.966 88.8816 259.293 85.2878 260.688 88.7608ZM135.998 93.5143C135.998 94.3237 135.189 95.7129 134.259 96.5283C132.405 98.0322 131.94 96.8786 133.214 93.7499C134.144 91.4305 135.998 91.3097 135.998 93.5143ZM147.583 98.7268C147.583 99.3067 146.538 100.231 145.149 100.581C143.18 101.276 142.83 101.97 143.41 104.869C143.875 107.189 143.295 109.623 141.44 112.866C138.427 118.2 136.343 118.659 136.343 113.911C136.343 112.057 135.533 109.508 134.488 108.349C133.444 107.189 132.519 105.685 132.519 105.105C132.519 104.181 144.805 97.6879 146.774 97.6879C147.239 97.6879 147.583 98.147 147.583 98.7268ZM307.619 99.3066C306.924 100.231 305.07 101.161 303.681 101.626C301.247 102.206 301.247 102.091 304.031 100.001C307.389 97.3376 309.588 96.9933 307.619 99.3066ZM314.456 99.7717C314.456 100.237 313.876 101.282 313.067 102.091C312.022 103.136 312.143 103.48 313.647 103.48C316.196 103.48 316.196 105.564 313.762 108.349C311.907 110.203 312.022 110.783 314.342 116.345C315.616 119.589 316.431 122.832 315.966 123.527C315.622 124.107 316.196 125.381 317.241 126.197C319.21 127.586 319.095 127.815 316.661 131.294C314.807 133.614 313.417 134.538 312.143 134.079C311.213 133.614 306.81 132.805 302.406 132.339C298.118 131.874 294.18 131.18 293.83 130.835C293.479 130.485 294.989 129.446 297.073 128.516C299.622 127.471 300.317 126.777 299.272 126.312C297.997 125.732 298.112 125.267 299.737 123.992C300.896 122.947 301.821 121.788 301.706 121.208C301.706 120.743 302.98 120.163 304.605 119.933C308.199 119.468 308.314 116.805 304.955 113.676C303.101 112.172 302.751 111.242 303.796 110.897C304.49 110.547 305.185 109.738 305.185 109.158C305.185 108.463 304.72 108.349 304.025 108.693C303.445 109.043 302.866 108.578 302.866 107.533C302.866 106.488 303.445 106.029 304.025 106.373C304.72 106.724 305.185 106.488 305.185 105.794C305.185 103.939 310.633 98.8416 312.717 98.8416C313.647 98.8416 314.456 99.3067 314.456 99.7717ZM125.567 106.724C125.567 107.304 124.873 108.578 124.178 109.623C123.018 111.012 122.209 111.248 120.935 110.432C119.431 109.387 119.545 109.043 121.4 107.533C123.943 105.564 125.567 105.335 125.567 106.724ZM300.317 111.822C301.941 113.446 295.799 121.673 291.51 123.298C285.833 125.496 281.544 121.328 286.642 118.544C287.802 117.849 288.611 116.69 288.267 115.766C286.878 112.287 297.188 108.693 300.317 111.822ZM384.677 115.995C384.333 116.225 383.288 116.225 382.243 115.766C380.739 115.186 380.739 114.721 381.893 112.752C383.397 110.432 383.397 110.432 384.327 112.981C384.798 114.256 384.913 115.645 384.677 115.995ZM373.558 118.544C372.863 119.818 372.054 120.863 371.818 120.863C371.468 120.863 371.238 119.818 371.238 118.544C371.238 117.27 372.048 116.225 372.978 116.225C374.482 116.225 374.597 116.69 373.558 118.544ZM353.511 123.992C353.281 125.846 352.466 127.236 351.771 127.121C348.643 126.891 348.063 126.541 348.063 125.381C348.063 124.802 348.643 124.572 349.452 125.031C350.261 125.496 350.376 125.381 349.917 124.566C348.872 122.826 350.032 120.857 352.237 120.857C353.39 120.863 353.855 121.788 353.511 123.992ZM42.9462 169.763C42.5959 170.687 42.2516 170.343 42.2516 169.069C42.1368 167.794 42.4811 167.1 42.8314 167.559C43.1757 167.909 43.2905 168.954 42.9462 169.763ZM334.159 173.822C334.159 174.982 333.694 176.721 332.999 177.645C332.419 178.69 332.419 179.85 333.114 180.659C334.739 182.628 331.954 188.306 329.635 187.841C327.201 187.376 326.621 181.934 328.825 180.08C329.756 179.27 330.215 177.875 329.87 176.951C328.946 174.631 330.335 171.853 332.419 171.853C333.343 171.853 334.159 172.777 334.159 173.822ZM42.016 180.194C42.016 182.278 41.551 185.063 41.0919 186.337C40.1618 188.542 40.1618 188.542 38.8873 186.107C37.1478 182.864 37.1478 179.621 38.8873 177.881C41.2067 175.562 42.1308 176.256 42.016 180.194ZM310.053 180.539C310.053 181.118 309.473 181.813 308.779 182.043C308.084 182.272 307.504 181.577 307.504 180.539C307.504 179.494 308.084 178.799 308.779 179.035C309.473 179.264 310.053 179.965 310.053 180.539ZM42.1308 192.709C42.1308 193.289 41.6657 193.869 40.9711 193.869C40.3913 193.869 39.8114 193.289 39.8114 192.709C39.8114 192.015 40.3913 191.55 40.9711 191.55C41.6657 191.55 42.1308 192.015 42.1308 192.709ZM351.536 197.463C351.536 200.942 348.292 201.401 345.164 198.508C341.57 195.149 342.15 194.219 347.362 194.799C350.497 195.143 351.536 195.838 351.536 197.463ZM26.602 208.353C26.1369 209.978 26.2516 211.252 26.8315 211.252C27.2966 211.252 27.5261 213.336 27.2966 216.006C26.9462 218.669 27.6469 222.843 28.8005 225.971C30.075 229.215 30.54 232.809 30.1897 235.708C29.8394 238.142 29.9602 239.996 30.54 239.646C31.0051 239.417 31.2346 241.851 31.1199 245.209C30.8904 250.077 31.585 252.741 34.9432 259.349C38.1867 265.956 39.1168 269.2 39.5759 276.381C40.2705 288.781 39.3464 293.07 35.523 294.109C33.3184 294.574 32.8594 295.154 33.7835 296.078C34.7137 297.002 35.6378 296.887 37.027 295.727C38.6518 294.453 39.1108 294.453 40.506 296.422C41.4302 297.582 41.8952 299.551 41.551 300.596C41.0859 301.87 41.6657 302.915 43.1757 303.374C45.1448 303.954 49.0828 311.371 49.0828 314.385C49.0828 315.08 52.0968 318.559 55.8054 322.267C62.4131 328.99 72.6086 344.633 73.9978 350.655C75.2723 355.523 72.7234 359.697 66.1156 364.215L60.0877 368.274L59.3931 377.545C58.928 382.643 57.7684 389.366 56.6147 392.38C54.6457 398.057 54.5309 398.057 50.3573 397.133C48.0379 396.668 45.1448 396.324 43.8703 396.203C41.4362 396.088 41.4362 395.973 42.8254 407.329C43.4052 411.267 43.1757 412.891 42.2456 412.891C41.4362 412.891 41.0859 413.242 41.3154 413.701C41.6657 414.281 41.4302 415.67 40.9651 416.944C38.7605 422.622 22.7726 380.324 17.4393 354.37C11.8885 327.83 10.0342 301.641 12.0033 277.305C13.5072 258.183 17.6809 234.083 21.5042 222.263C22.8934 217.745 24.1678 213.342 24.2826 212.412C24.5121 209.633 26.0221 205.46 26.7167 205.46C27.067 205.454 26.9523 206.734 26.602 208.353ZM393.254 212.526C394.529 213.221 393.949 213.451 391.515 213.571C387.111 213.571 382.823 212.412 382.823 211.137C382.829 210.092 390.705 211.137 393.254 212.526ZM421.413 214.846C419.214 217.165 416.43 217.044 416.43 214.731C416.43 213.922 418.513 213.227 422.802 212.533C423.388 212.526 422.808 213.565 421.413 214.846ZM32.5151 232.338C32.1648 233.268 31.8205 232.917 31.8205 231.643C31.7058 230.369 32.05 229.674 32.4004 230.133C32.7446 230.489 32.8594 231.528 32.5151 232.338ZM301.132 322.497C301.482 323.077 301.017 323.656 299.972 323.656C298.927 323.656 298.462 323.077 298.813 322.497C299.163 321.802 299.743 321.337 299.972 321.337C300.202 321.337 300.782 321.802 301.132 322.497ZM463.481 395.967C464.176 399.096 459.308 407.437 449.342 419.952C441.459 429.918 436.712 433.741 432.653 433.741C428.944 433.741 428.594 433.391 427.555 428.408C426.861 425.165 427.326 424.12 430.799 420.647C433.462 418.213 435.087 415.319 435.431 413C435.897 408.597 438.675 406.278 444.353 405.239C446.787 404.888 450.266 403.034 452.35 401.186C454.319 399.332 456.408 397.828 456.982 397.828C457.556 397.828 458.371 396.783 458.722 395.508C459.773 392.374 462.551 392.603 463.481 395.967ZM293.014 549.86C303.095 553.799 305.994 554.034 322.218 552.059C331.139 550.899 333.573 551.014 336.122 552.409C337.976 553.219 342.844 555.073 347.133 556.347C352.46 557.972 356.634 560.171 360.693 563.65C363.936 566.434 366.6 569.327 366.6 569.907C366.6 571.182 353.62 574.196 335.892 576.974C320.593 579.408 286.413 580.332 269.259 578.714C253.615 577.21 230.555 572.921 217.925 569.213C210.973 567.123 210.278 566.664 211.317 564.695C211.897 563.535 212.127 561.796 211.782 560.871C211.088 558.902 213.751 553.11 216.536 550.791C217.925 549.631 224.762 549.166 244.694 549.051C260.223 548.936 272.158 548.242 273.898 547.547C278.766 545.457 283.399 546.037 293.014 549.86ZM196.948 560.751C199.032 562.49 199.032 562.49 195.674 561.795C191.385 560.871 189.066 558.896 192.315 558.896C193.59 558.896 195.674 559.706 196.948 560.751ZM206.219 564.109C207.379 565.039 207.844 565.848 207.029 565.848C204.824 565.848 202.046 564.574 202.046 563.414C202.052 561.91 203.671 562.14 206.219 564.109Z" stroke="#6CDEEB" stroke-width="2"/>
</svg>
