<svg width="49" height="48" fill="none" xmlns="http://www.w3.org/2000/svg">
  <path fill="#fff" d="M4.48999 4h41v41h-41z"/>
  <path d="M41.384 40.904h-7.108V29.766c0-2.656-.054-6.074-3.704-6.074-3.706 0-4.272 2.89-4.272 5.878v11.334h-7.108V18h6.828v3.122h.092c.954-1.8 3.274-3.7 6.74-3.7 7.202 0 8.534 4.74 8.534 10.91v12.572h-.002zm-30.22-26.038c-2.28801 0-4.12601-1.852-4.12601-4.13 0-2.276 1.84-4.126 4.12601-4.126 2.28 0 4.128 1.85 4.128 4.126 0 2.278-1.85 4.13-4.128 4.13zm3.564 26.038H7.59999V18H14.728v22.904zM44.94 0H4.03199c-1.958 0-3.542 1.548-3.542 3.458v41.084c0 1.912 1.584 3.458 3.542 3.458H44.934c1.956 0 3.556-1.546 3.556-3.458V3.458c0-1.91-1.6-3.458-3.556-3.458h.006z" fill="#0E6BA9"/>
</svg>
