<svg width="231" height="45" fill="none" xmlns="http://www.w3.org/2000/svg">
  <path d="M24.364 35L12.376 14.948l-.108 1.152V35H10V16.352c.108-1.8.396-3.132.9-4.032.504-.9 1.332-1.512 2.448-1.908 1.08-.396 2.628-.612 4.68-.612 2.016 0 3.6.18 4.716.576 1.116.396 1.944 1.044 2.448 1.872.468.864.756 2.196.864 3.996V35h-1.692zM13.672 12.644l10.116 17.532V15.992c-.108-1.332-.324-2.232-.576-2.664-.468-.864-2.196-1.296-5.184-1.296-1.98 0-3.42.216-4.356.612zM33.8179 9.8v18.936c.108 1.404.324 2.268.576 2.664.18.288.756.576 1.764.9 1.008.324 2.448.468 4.32.468h7.2V35h-7.2c-1.116 0-2.16-.036-3.204-.144-1.044-.108-1.872-.252-2.412-.432-.648-.18-1.224-.54-1.692-1.008-.54-.468-.9-1.116-1.152-1.872-.252-.756-.432-1.764-.504-3.06V9.8h2.304zM67.5359 35l-11.988-20.052-.108 1.152V35h-2.268V16.352c.108-1.8.396-3.132.9-4.032.504-.9 1.332-1.512 2.448-1.908 1.08-.396 2.628-.612 4.68-.612 2.016 0 3.6.18 4.716.576 1.116.396 1.944 1.044 2.448 1.872.468.864.756 2.196.864 3.996V35h-1.692zm-10.692-22.356l10.116 17.532V15.992c-.108-1.332-.324-2.232-.576-2.664-.468-.864-2.196-1.296-5.184-1.296-1.98 0-3.42.216-4.356.612zM75.0098 35V9.8h1.764l11.592 20.052V9.8h2.232V35h-1.764l-11.592-20.088V35h-2.232zM118.146 9.8h2.196v11.988h11.196V9.8h2.232V35h-2.196l-.036-10.8h-11.196V35h-2.196V9.8zM153.88 35l-11.988-20.052-.108 1.152V35h-2.268V16.352c.108-1.8.396-3.132.9-4.032.504-.9 1.332-1.512 2.448-1.908 1.08-.396 2.628-.612 4.68-.612 2.016 0 3.6.18 4.716.576 1.116.396 1.944 1.044 2.448 1.872.468.864.756 2.196.864 3.996V35h-1.692zm-10.692-22.356l10.116 17.532V15.992c-.108-1.332-.324-2.232-.576-2.664-.468-.864-2.196-1.296-5.184-1.296-1.98 0-3.42.216-4.356.612zM168.23 9.8c2.628.036 4.572.18 5.796.432 1.224.288 2.124.936 2.7 1.944.576 1.044.864 2.7.864 4.968V27.62c0 2.196-.288 3.816-.828 4.788-.54 1.008-1.368 1.692-2.448 2.016l-.756.252-.684.18-1.656.144H160.67V9.8h7.56zm7.092 17.82V17.144c0-2.628-.396-4.104-1.188-4.464-.468-.288-1.296-.468-2.556-.576l-8.604-.036V32.66h8.244c1.368-.072 2.34-.252 2.88-.576.324-.18.612-.576.864-1.152s.36-1.692.36-3.312zM182.939 9.8h2.196v6.984c.073 1.188.252 2.088.577 2.628.468.864 2.16 1.296 5.003 1.296 2.881 0 4.536-.432 5.004-1.26.325-.54.504-1.404.577-2.592V9.8h2.196v6.804c-.109 1.764-.36 3.024-.829 3.852-.468.828-1.259 1.44-2.375 1.836-.864.288-1.981.468-3.349.54V35h-2.16V22.868c-1.548-.072-2.736-.252-3.636-.576-1.08-.396-1.872-1.008-2.34-1.872-.468-.828-.755-2.124-.864-3.888V9.8zM213.345 21.14L221.409 35h-2.628l-6.732-11.592L205.209 35h-2.052V9.8h2.232v20.556L217.305 9.8h2.556l-6.516 11.34zM1 8H0V0h1v8z" fill="#fff"/>
  <path d="M8 0v1H0V0h8zM230 37h1v8h-1v-8z" fill="#fff"/>
  <path d="M223 45v-1h8v1h-8z" fill="#fff"/>
</svg>
