<svg xmlns="http://www.w3.org/2000/svg" fill="none" viewBox="0 0 43 49">
  <defs/>
  <path fill="#526065" fill-rule="evenodd" d="M21.51 1.19474L1.72534 12.6174v22.8453L21.51 46.8853l19.7846-11.4226V12.6174L21.51 1.19474zM42.2946 12.04L21.51.0400391.725342 12.04v24L21.51 48.04l20.7846-12v-24z" clip-rule="evenodd"/>
  <path fill="#526065" d="M10.79 20.0634H5.95609v-7.5639H10.79v.6782H6.75015v2.7068h2.9792v.6781h-2.9792v2.8227H10.79v.6781zM17.6236 20.0634h-1.0085l-2.2083-3.24h-1.1766v3.24h-.7941v-7.5639h2.4924c.8307 0 1.4741.1816 1.9301.5449.4559.3593.6839.8984.6839 1.6171 0 .3168-.056.6028-.1681.8578-.112.2512-.2647.4656-.4579.6434-.1932.1777-.425.3207-.6955.4289-.2666.1082-.5584.1739-.8752.197l2.2778 3.2748zm-.9042-5.4019c0-.5139-.1603-.8888-.481-1.1245-.3169-.2395-.7535-.3593-1.3099-.3593h-1.6983v2.9676h1.6983c.5564 0 .993-.1159 1.3099-.3478.3207-.2357.481-.6144.481-1.136zM24.1037 20.0634h-1.0085l-2.2084-3.24h-1.1766v3.24h-.794v-7.5639h2.4923c.8308 0 1.4741.1816 1.9301.5449.456.3593.6839.8984.6839 1.6171 0 .3168-.056.6028-.168.8578-.1121.2512-.2647.4656-.4579.6434-.1932.1777-.4251.3207-.6956.4289-.2666.1082-.5583.1739-.8752.197l2.2779 3.2748zm-.9042-5.4019c0-.5139-.1604-.8888-.4811-1.1245-.3168-.2395-.7535-.3593-1.3099-.3593h-1.6983v2.9676h1.6983c.5564 0 .9931-.1159 1.3099-.3478.3207-.2357.4811-.6144.4811-1.136zM30.717 16.2902c0 .5062-.0521.995-.1565 1.4664-.1043.4714-.2704.8868-.4984 1.2462-.228.3593-.5275.6491-.8984.8694-.3671.2164-.8153.3246-1.3447.3246s-.9796-.1082-1.3505-.3246c-.3671-.2203-.6666-.5101-.8984-.8694-.228-.3594-.3922-.7748-.4927-1.2462-.1043-.4714-.1565-.9602-.1565-1.4664 0-.5062.0522-.995.1565-1.4664.1005-.4714.2667-.8888.4985-1.252.2357-.3632.5371-.653.9042-.8694.3709-.2203.8172-.3304 1.3389-.3304.5216 0 .966.1101 1.3331.3304.3709.2164.6704.5062.8984.8694.228.3632.3961.7806.5042 1.252.1082.4714.1623.9602.1623 1.4664zm-.7998 0c0-.4985-.0483-.9467-.1449-1.3447-.0928-.4019-.228-.7438-.4058-1.0259-.1777-.2821-.398-.4966-.6607-.6434-.2589-.1507-.5545-.226-.8868-.226-.4135 0-.7554.0966-1.0259.2898-.2666.1932-.4811.4463-.6434.7593-.1623.3129-.2763.6607-.342 1.0433-.0618.3825-.0927.765-.0927 1.1476 0 .3787.0309.7612.0927 1.1476.0657.3826.1797.7284.342 1.0375.1623.3053.3768.5564.6434.7535.2705.1932.6124.2898 1.0259.2898.4096 0 .7496-.0966 1.0201-.2898.2705-.1971.4869-.4482.6492-.7535.1623-.3091.2743-.6549.3361-1.0375.0619-.3864.0928-.7689.0928-1.1476zM37.0638 20.0634h-1.0085l-2.2084-3.24h-1.1766v3.24h-.794v-7.5639h2.4923c.8308 0 1.4741.1816 1.9301.5449.4559.3593.6839.8984.6839 1.6171 0 .3168-.056.6028-.1681.8578-.112.2512-.2646.4656-.4579.6434-.1932.1777-.425.3207-.6955.4289-.2666.1082-.5583.1739-.8752.197l2.2779 3.2748zm-.9042-5.4019c0-.5139-.1604-.8888-.4811-1.1245-.3168-.2395-.7535-.3593-1.3099-.3593h-1.6983v2.9676h1.6983c.5564 0 .9931-.1159 1.3099-.3478.3207-.2357.4811-.6144.4811-1.136zM14.9632 35.495h-5.184V34.41h1.9568v-2.3741H6.32008v-1.1036l5.07272-7.5396h1.6137v7.5396h1.9567v1.1036h-1.9567V34.41h1.9567v1.085zm-3.2272-4.5627v-6.0372l-4.07122 6.0372H11.736zM23.5971 35.495h-5.184V34.41h1.9567v-8.263c-.1112.2535-.2874.5256-.5286.8161-.2411.2844-.5255.5472-.8532.7883-.3276.2349-.6893.4328-1.085.5935-.3895.1608-.7944.2411-1.2148.2411v-1.3168c.3771 0 .782-.1175 1.2148-.3524.4328-.235.8316-.5348 1.1963-.8996.3648-.3648.6677-.779.9089-1.2427.2411-.4637.3616-.9243.3616-1.3818h1.2798V34.41h1.9475v1.085zM35.7921 32.0915c0 .6368-.1144 1.1809-.3431 1.6322-.2288.4451-.5441.8161-.9459 1.1129-.3957.2967-.8625.5162-1.4004.6584s-1.1097.2133-1.7156.2133c-.6183 0-1.1933-.0711-1.725-.2133-.5316-.1422-.9984-.3617-1.4003-.6584-.3957-.2968-.7079-.6678-.9366-1.1129-.2288-.4513-.3432-.9954-.3432-1.6322 0-.3277.0588-.6584.1762-.9923.1237-.3338.2968-.643.5194-.9273.2287-.2906.5038-.5287.8253-.7141.3277-.1917.6863-.3122 1.0758-.3617-.3401-.0371-.643-.1484-.9088-.3339-.2659-.1854-.4916-.4018-.677-.6491-.1793-.2473-.3215-.5163-.4266-.8068-.0989-.2906-.1484-.5688-.1484-.8347 0-.544.1082-1.0201.3246-1.4281.2164-.4143.5069-.7574.8717-1.0294.3648-.2721.7883-.4761 1.2705-.6121.4823-.1422.983-.2133 1.5024-.2133.5193 0 1.0201.0711 1.5023.2133.4823.136.9058.34 1.2705.6121.3648.272.6554.6151.8718 1.0294.2163.408.3245.8841.3245 1.4281 0 .2659-.0525.5441-.1576.8347-.0989.2905-.2411.5595-.4266.8068-.1793.2473-.405.4637-.677.6491-.272.1855-.5811.2968-.9274.3339.3957.0495.7543.17 1.0758.3617.3215.1854.5966.4235.8254.7141.2287.2843.4049.5935.5286.9273.1298.3339.1947.6646.1947.9923zm-1.7064-5.6199c0-.6801-.2411-1.2148-.7233-1.6043-.4823-.3957-1.1407-.5936-1.9753-.5936-.8347 0-1.4931.1979-1.9753.5936-.4823.3895-.7234.9242-.7234 1.6043 0 .6368.2288 1.1438.6863 1.5209.4575.3772 1.1283.5657 2.0124.5657.8841 0 1.5549-.1885 2.0124-.5657.4575-.3771.6862-.8841.6862-1.5209zm.4359 5.6199c0-.4389-.0866-.813-.2597-1.1221-.1669-.3153-.3987-.5688-.6955-.7605-.2906-.1978-.6213-.34-.9923-.4265-.3709-.0928-.7666-.1392-1.187-.1392-.4204 0-.8161.0464-1.1871.1392-.3709.0865-.7048.2287-1.0015.4265-.2906.1917-.5225.4452-.6956.7605-.1669.3091-.2504.6832-.2504 1.1221 0 .4328.0835.8068.2504 1.1221.1731.3154.405.5781.6956.7883.2967.2102.6306.3679 1.0015.473.371.0989.7667.1484 1.1871.1484s.8161-.0495 1.187-.1484c.371-.1051.7017-.2628.9923-.473.2968-.2102.5286-.4729.6955-.7883.1731-.3153.2597-.6893.2597-1.1221z"/>
</svg>
