<svg viewBox="0 0 72 72" fill="none" xmlns="http://www.w3.org/2000/svg">
  <path d="M5.32309 18.2887L36 .57735 66.6769 18.2887v35.4226L36 71.4226 5.32309 53.7113V18.2887z" stroke="#78B0B5"/>
  <path d="M36.4811 18l15.9095 8.999v18.002L36.4811 54l-15.9096-8.999V26.999L36.4811 18z" fill="#78B0B5"/>
  <path d="M49.5499 44.3801l-12.5426 7.0956v-5.5252l7.815-4.3001 4.7276 2.7297zm.8592-.777V28.7665l-4.5879 2.6516v9.5375l4.5879 2.6475zm-27.0462.777l12.5426 7.0956v-5.5252l-7.8191-4.3001-4.7235 2.7297zm-.8592-.777V28.7665l4.5878 2.6516v9.5375l-4.5878 2.6475zm.5385-15.7986l12.8633-7.2764v5.3402l-8.2425 4.5344-.0658.037-4.555-2.6352zm26.8284 0l-12.8633-7.2764v5.3402l8.2425 4.5303.0658.037 4.555-2.6311z" fill="#1E2224"/>
  <path d="M35.9056 44.6928l-7.7122-4.2425v-8.3988l7.7122 4.4522v8.1891zm1.1017 0l7.7123-4.2384v-8.4029l-7.7123 4.4522v8.1891zm-8.2918-13.6115l7.741-4.2549 7.741 4.2549-7.741 4.4687-7.741-4.4687z" fill="#BCD8DB"/>
</svg>
