<svg xmlns="http://www.w3.org/2000/svg" fill="none" viewBox="0 0 111 23">
  <path fill="#fff" d="M25.2457 18.2786c1.6471-.372 3.4012-1.3195 5.0759-1.2845v.0386c.8357.0177 1.6127 1.0039 1.0429 1.748-2.2998 2.9937-9.1025 3.0078-12.6246 3.2815-5.1693.4-10.4595.6106-15.6322.2105-1.036-.0806-1.4262-1.6706-.2625-1.8602l14.0542-1.0528c2.7867-.2176 5.6182-.4598 8.3463-1.0811Zm-1.1223-7.2159c1.6506-.4211 3.4116-1.453 5.1036-1.4179l-.0068-.0105c.8459.021 1.5262.9686 1.0186 1.7057-2.127 3.0954-9.3304 3.3167-12.7903 3.615-5.2315.4562-10.7495.7826-15.988.1754-1.1291-.1298-1.1256-1.5512 0-1.6846l15.0453-1.1407c2.5519-.2948 5.1313-.6036 7.6176-1.2424Zm.1484-7.0581c1.5471-.386 3.0215-1.2634 4.5926-1.439l-.0068-.0034c1.0359-.1123 1.3881 1.067 1.0636 1.7829-1.4641 3.2078-9.5963 3.3693-12.5556 3.7203L1.129 9.7079C-.2867 9.8062-.3489 7.9004.8183 7.4792 5.3763 5.8437 10.967 5.949 15.7495 5.3875c2.8489-.337 5.7426-.681 8.5223-1.3829Zm21.8135-.8272a.2076.2076 0 0 0-.2075-.2077h-3.8602a.2076.2076 0 0 0-.2076.2044l-.0214 1.376v5.3537l.0245 1.4005v6.3858c0 2.9682 1.7943 4.7969 4.728 4.7969 1.1636 0 1.8526-.2389 2.1373-.3655.0705-.0314.1127-.1026.1127-.1796v-3.3904c0-.1338-.1245-.2321-.2557-.2064-.245.0484-.557.0945-.8836.0945-.9399 0-1.5665-.3298-1.5665-1.5589v-5.3688c0-.1147.093-.2076.2078-.2076h2.3474a.2076.2076 0 0 0 .2075-.2076V7.5245a.2076.2076 0 0 0-.2075-.2076h-2.3474a.2077.2077 0 0 1-.2078-.2077V3.1774Zm13.975 4.2472c0-.091-.0592-.1721-.1479-.1933-.2787-.0666-.6437-.1087-1.0085-.1087-.9417 0-2.3239.3158-3.2109 1.3332-.147.1686-.5187.0686-.5187-.155V7.479a.2076.2076 0 0 0-.2075-.2076h-3.8347a.2076.2076 0 0 0-.2075.2076v14.3853c0 .1145.0929.2075.2075.2075h3.9791a.2076.2076 0 0 0 .2077-.2075v-6.2547c0-2.9481 1.59-4.0202 3.3536-4.0202.3569 0 .7334.0202 1.1296.0937.1323.0246.2582-.0743.2582-.2088V7.4246Zm6.8424 14.6472a.2075.2075 0 0 0 .2075-.2077V7.4578a.2076.2076 0 0 0-.2075-.2076h-4.5493a.2077.2077 0 0 0-.2077.2076V21.864c0 .1148.093.2077.2077.2077h4.5493ZM61.7212 2.7172c0 1.4613 1.3065 2.6542 2.8742 2.6542 1.633 0 2.9395-1.193 2.9395-2.6542 0-1.4613-1.3065-2.6542-2.9395-2.6542-1.5677 0-2.8742 1.1929-2.8742 2.6542Zm11.6941 19.4407a.2074.2074 0 0 0 .2075-.2075v-.7288c0-.21.3074-.3079.4528-.1566.8063.838 2.1329 1.4224 3.7632 1.4224 4.1859 0 7.1371-3.2639 7.1371-7.8154 0-4.4617-2.62-7.7555-6.9563-7.7555-1.6708 0-3.0809.558-3.8869 1.2677-.1535.135-.4497.0298-.4497-.1746V.6861a.2076.2076 0 0 0-.2075-.2076h-4.0717a.2077.2077 0 0 0-.2078.2076v21.2643c0 .1147.093.2075.2078.2075h4.0115Zm6.9833-7.456c0 2.4853-1.596 3.7131-3.3728 3.7131-1.7768 0-3.403-1.2576-3.403-3.7131 0-2.5153 1.6262-3.6831 3.403-3.6831s3.3728 1.1678 3.3728 3.6831Zm11.4209-1.8865c-.1214 0-.2175-.1038-.1959-.2231.1923-1.0647 1.1506-2.2921 2.9485-2.2921 2.0289 0 2.8434 1.209 2.9877 2.2973.0156.1179-.0798.2179-.1986.2179h-5.5417Zm6.2775 3.9152c-.1048-.0296-.2142.0273-.2566.1276-.4503 1.0671-1.3698 1.7662-2.9375 1.7662-1.6967 0-3.1733-1.0948-3.3788-2.6562-.0154-.118.08-.2183.199-.2183h10.0389c.089 0 .163-.0585.174-.1472.03-.2537.066-.7747.066-1.2602 0-4.7909-2.8579-7.6355-7.4901-7.6355-3.8802 0-7.4597 3.0542-7.4597 7.8451 0 5.0004 3.6697 7.935 7.7905 7.935 3.6922 0 6.0423-2.0461 6.8293-4.5325.034-.1092-.03-.2238-.141-.2549l-3.434-.9691Zm5.981 2.6269c0 1.6713 1.304 3.1298 2.893 3.1298 1.588 0 2.921-1.4585 2.921-3.1298 0-1.7015-1.333-3.0992-2.921-3.0992-1.589 0-2.893 1.3977-2.893 3.0992Z"/>
</svg>