<svg xmlns="http://www.w3.org/2000/svg" fill="none" viewBox="0 0 93 48">
  <defs/>
  <path fill="#FFFFFE" fill-rule="evenodd" d="M53.592 24.007v14.365h7.274V9.613h-7.274v14.394z" clip-rule="evenodd"/>
  <path fill="#FFFFFE" d="M7.477.747C3.552 1.972.93 5.627.907 9.904c-.023 4.698 2.727 8.217 10.945 12.093 6.076 3.195 7.797 4.627 7.472 7.34-.3 2.513-.601 3.823-6.185 3.33l-9.878-.624.037 5.783 6.625.38c8.643.414 11.994-.05 14.877-2.662 1.94-1.759 2.877-3.917 2.877-7.141 0-5.335-3.179-9.215-11.21-12.81-6.46-3.563-7.325-4.413-7.325-6.548 0-2.772 1.28-3.73 7.126-3.374 2.361.143 6.364.426 7.534.594l2.288.165V.501L23.3.324C17.001-.232 9.542.103 7.477.747zM72.793 38.372V9.613h7.275v28.759h-7.275zM29.729 19.188l-.045 19.184h7.26l-.075-22.678 2.25-.439c1.195-.179 2.897-.384 3.56-.29 1.063.025 1.333.93 1.375 1.29V38.372H51.212V26.01c0-4.397.118-7.35 0-9.473 0-3.75-1.064-5.049-3.055-6.353-1.445-.947-4.767-1.166-8.45-.501l-2.838.659V0H29.729v19.188zM59.663 47.797c2.149.48 6.985.08 8.041-.906 1.61-1.227 2.482-2.204 2.793-5.946v-15.07l-.1-16.262h-7.15v32.216c-.563 1.395-1.34 1.854-3.584 2.094v3.874z"/>
  <circle cx="42.859" cy="3.591" r="1.235" fill="#93A2C4"/>
  <circle cx="90.781" cy="3.591" r="1.235" fill="#93A2C4"/>
  <circle cx="48.837" cy="3.591" r="2.451" fill="#ABB5CF"/>
  <circle cx="84.807" cy="3.591" r="2.451" fill="#ABB5CF"/>
  <circle cx="57.262" cy="3.591" r="2.959" fill="#C3CADB"/>
  <circle cx="76.424" cy="3.591" r="2.959" fill="#C3CADB"/>
  <circle cx="66.814" cy="3.602" r="3.602" fill="#FFFFFE"/>
</svg>