<svg  viewBox="0 0 72 72" fill="none" xmlns="http://www.w3.org/2000/svg">
  <path d="M5.32309 18.2887L36 .57735 66.6769 18.2887v35.4226L36 71.4226 5.32309 53.7113V18.2887z" stroke="#78B0B5"/>
  <path d="M18 18h36v36H18V18zm33.051 27.414c-.2625-1.6425-1.332-3.0225-4.5045-4.3095-1.104-.5175-2.331-.8775-2.6955-1.71-.1365-.495-.1575-.765-.069-1.0575.225-.969 1.3725-1.26 2.2725-.99.585.18 1.125.63 1.464 1.35 1.551-1.014 1.551-1.014 2.6325-1.6875-.405-.63-.606-.9015-.879-1.17-.945-1.0575-2.2035-1.5975-4.251-1.551l-1.0575.1335c-1.014.2475-1.98.7875-2.565 1.5075-1.71 1.9365-1.2165 5.3115.8535 6.7065 2.0475 1.53 5.0415 1.866 5.424 3.3075.36 1.755-1.305 2.3175-2.949 2.115-1.2165-.27-1.89-.879-2.6325-2.004l-2.745 1.5765c.315.72.675 1.0335 1.215 1.6635 2.61 2.634 9.135 2.499 10.3065-1.506.0435-.135.36-1.0575.111-2.475l.069.1005zM37.5765 34.5465h-3.372c0 2.907-.0135 5.796-.0135 8.7075 0 1.848.0945 3.5445-.207 4.0665-.495 1.0335-1.77.9015-2.349.72-.594-.294-.8955-.699-1.245-1.2825-.0945-.1575-.165-.294-.1905-.294l-2.7375 1.6875c.4575.945 1.125 1.758 1.986 2.2755 1.2825.765 3.006 1.0125 4.8105.6075 1.1745-.339 2.187-1.0365 2.7165-2.1165.765-1.395.603-3.105.5955-5.019.018-3.081 0-6.1635 0-9.2685l.006-.084z" fill="#78B0B5"/>
</svg>
