<svg viewBox="0 0 51 48" fill="none" xmlns="http://www.w3.org/2000/svg">
  <path d="M50.358 17.565c-.252.632-.451 1.281-.704 1.913-.18-2.652-.613-5.287-1.461-7.795-.578-1.551-1.245-3.103-2.4-4.312.163 1.48.541 2.923.505 4.42-.324-1.136-.703-2.29-1.389-3.265-1.48-2.292-3.88-3.843-6.441-4.673-.668-.217-1.372-.343-1.967-.704-3.68-2.147-7.975-3.212-12.233-3.103C18.728.118 13.28 2.3 9.22 6.054c-.632.595-1.209 1.245-1.84 1.858-1.101-1.28-1.66-2.905-1.733-4.583-.992.848-1.57 2.075-1.984 3.284-.578 1.696-.884 3.5-.704 5.287.018.397.126.83-.144 1.173C1.407 15.13.27 17.475 0 19.983c.451-.307.884-.631 1.335-.938-.18.902-.433 1.804-.577 2.724-.632 4.42.18 9.022 2.291 12.973 2.31 4.259 5.882 7.777 10.086 10.177 4.728 2.688 10.375 3.68 15.752 2.814 4.691-.776 9.238-2.832 12.594-6.243 2.382-2.417 4.456-5.142 5.954-8.191 2.454-4.836 3.482-10.375 2.923-15.734zm-8.787 6.929c-.487-.992-.74-2.165-1.678-2.85.235 2.489.343 5.015-.216 7.469-.343 1.66-1.083 3.266-2.292 4.475.217-1.191.415-2.4.343-3.609-1.75 2.364-3.861 4.547-6.55 5.828-2.273 1.1-4.962 1.046-7.343.307-2.165-.704-4.042-2.04-5.702-3.555h.578c1.623.108 3.265-.126 4.817-.577 1.552-.451 2.707-1.606 4.06-2.418.631-.379 1.425-.216 2.11-.415.434-.235.578-.866.181-1.209-1.01-1.1-2.472-1.985-4.005-1.804-1.48.216-2.689 1.227-4.15 1.57-1.047.18-2.111-.145-3.031-.614-1.318-.668-2.31-1.786-3.248-2.887l-.415-.343c0-.162 0-.342.018-.505.09-.45.343-.848.56-1.263l.252-.505c1.461.108 2.905.343 4.33.704-.018-1.354-.108-2.887-.938-4.006l.289-.216c.92-.722 1.768-1.57 2.796-2.13a3.904 3.904 0 001.1-.848l.073-.613h-.018c.018-.235-.018-.487-.018-.722-.505-.054-1.01-.09-1.534-.09l-1.407-.09a3.14 3.14 0 00-.325-.199c-.956-.595-1.786-1.389-2.688-2.056l-.361-.325.054-.487c.343-2.256 2.003-4.024 3.735-5.377-1.227.18-2.436.523-3.537 1.082-1.154.56-2.147 1.408-3.12 2.238-1.968-.506-4.079-.199-5.955.523-.92.415-1.75 1.028-2.652 1.498.577-.578 1.245-1.029 1.894-1.534.577-.433 1.01-1.029 1.516-1.534 3.753-3.861 9.003-6.189 14.362-6.46 3.554-.18 7.217.38 10.429 1.95-.866-.037-1.714-.09-2.58-.073 1.93.578 4.186 1.191 5.268 3.068-.992.036-2.003.054-2.959.378 2.76 1.065 5.54 2.382 7.596 4.583 1.227 1.318 2.075 3.032 2.04 4.872-.65-.487-1.318-.938-2.04-1.3.776 3.267 1.263 6.749.361 10.069z"/>
  <path d="M50.358 17.565l.995-.104-1.923-.267.928.371zm-.704 1.913l-.997.068 1.926.303-.929-.371zm-1.461-7.795l.947-.32-.005-.014-.005-.014-.937.348zm-2.4-4.312l.723-.69-2.039-2.136.322 2.935.994-.109zm.505 4.42l-.961.275 1.961-.25-1-.024zM44.91 8.527l-.84.542.01.017.012.016.818-.575zm-6.441-4.673l-.309.95v.001l.309-.951zM36.5 3.149l.518-.855-.007-.005-.007-.004-.504.864zM24.268.046l.013 1h.012l-.025-1zM9.22 6.054l-.679-.734-.007.006.686.728zM7.38 7.912l-.759.652.693.806.762-.74-.696-.718zM5.647 3.33l1-.043-.089-2.05-1.56 1.333.65.76zM3.663 6.613l-.946-.324v.002l.946.322zM2.959 11.9l.999-.046-.001-.027-.003-.028-.995.1zm-.144 1.173l-.785-.62-.021.027-.02.028.826.565zM0 19.983l-.994-.107-.232 2.15L.562 20.81 0 19.983zm1.335-.938l.98.196.48-2.398-2.022 1.375.562.827zm-.577 2.724l-.988-.155-.002.014.99.141zm2.291 12.973l-.882.472.003.005.88-.477zM13.135 44.92l-.495.868h.001l.494-.868zm15.752 2.814l.159.988.004-.001-.163-.987zM41.48 41.49l-.712-.701.712.701zm5.954-8.191l-.892-.453-.005.012.897.44zm-7.542-11.656l.59-.807-1.794-1.311.209 2.212.995-.094zm-.216 7.47l-.975-.222-.003.01-.002.01.98.202zm-2.292 4.475l-.984-.18-.572 3.15 2.263-2.263-.707-.707zm.343-3.609l.998-.06-.164-2.747-1.638 2.212.804.595zm-6.55 5.828l-.43-.903-.005.003.435.9zm-7.343.307l-.31.95.013.005.297-.955zm-5.702-3.555v-1h-2.578l1.904 1.739.674-.739zm.578 0l.066-.998-.033-.002h-.033v1zm8.877-2.995l-.515-.858.515.858zm2.11-.415l.279.96.103-.03.095-.05-.476-.88zm.181-1.209l-.736.676.039.043.044.038.653-.757zm-4.005-1.804l-.117-.993-.014.001-.014.002.145.99zm-4.15 1.57l.17.985.03-.005.028-.007-.228-.973zm-3.031-.614l.454-.89-.002-.002-.452.892zm-3.248-2.887l.76-.648-.056-.067-.067-.056-.637.771zm-.415-.343h-1v.471l.363.3.637-.77zm.018-.505l-.98-.196-.01.043-.004.043.994.11zm.56-1.263l.886.463.004-.008.004-.008-.895-.447zm.252-.505l.074-.997-.669-.05-.3.6.895.447zm4.33.704l-.245.97 1.262.319-.017-1.303-1 .014zm-.938-4.006l-.6-.8-.796.597.593.799.803-.596zm.289-.216l.6.8.008-.007.009-.007-.617-.786zm2.796-2.13l-.462-.886-.008.004-.008.004.478.878zm1.1-.848l.746.667.211-.236.037-.314-.993-.117zm.073-.613l.993.117.132-1.117H23.51v1zm-.018 0l-.997-.077-.083 1.077h1.08v-1zm-.018-.722h1v-.898l-.893-.096-.107.994zm-1.534-.09l-.064.998.032.002h.032v-1zm-1.407-.09l-.555.832.223.149.268.017.064-.998zm-.325-.199l-.528.85.04.024.041.02.447-.894zm-2.688-2.056l-.67.743.036.032.039.028.595-.803zm-.361-.325l-.994-.11-.057.51.382.343.669-.743zm.054-.487l-.989-.15-.003.02-.002.02.994.11zm3.735-5.377l.616.788 2.979-2.328-3.74.55.145.99zm-3.537 1.082l.436.9.009-.004.009-.004-.453-.892zm-3.12 2.238l-.25.968.503.13.394-.337-.648-.761zm-5.955.523l-.36-.933-.025.01-.026.011.41.912zm-2.652 1.498l-.708-.708 1.169 1.595-.461-.887zM7.578 8.94l-.6-.8-.007.005-.007.005.614.79zm1.516-1.534l.707.707.005-.005.005-.005-.717-.697zM23.456.947l.05 1-.05-1zm10.429 1.95l-.042.999.48-1.898-.438.898zm-2.58-.073l-.021-1-.266 1.958.287-.958zm5.268 3.068l.036.999 1.66-.06-.83-1.44-.866.5zm-2.959.378l-.321-.946-2.613.887 2.574.992.36-.933zm7.596 4.583l.732-.681-.001-.001-.73.682zm2.04 4.872l-.6.8 1.56 1.171.039-1.951-1-.02zm-2.04-1.3l.447-.894-1.914-.957.494 2.083.973-.231zm8.22 2.769c-.136.338-.255.678-.367.995-.114.324-.22.625-.337.918l1.857.742c.135-.338.255-.678.367-.995.113-.324.22-.624.337-.917l-1.857-.743zm1.222 2.216c-.184-2.713-.63-5.437-1.512-8.047l-1.894.64c.813 2.406 1.234 4.952 1.41 7.543l1.996-.136zm-1.522-8.075c-.581-1.562-1.306-3.286-2.614-4.655L45.07 8.062c1.002 1.049 1.612 2.429 2.186 3.97l1.874-.697zM44.8 7.48c.083.765.228 1.556.331 2.244.108.716.184 1.383.168 2.043l2 .049c.02-.837-.077-1.64-.19-2.39-.117-.78-.243-1.45-.322-2.164L44.8 7.48zm2.46 4.037c-.327-1.143-.742-2.443-1.533-3.567L44.09 9.101c.58.825.923 1.835 1.246 2.965l1.923-.55zm-1.51-3.534c-1.636-2.531-4.253-4.2-6.974-5.082l-.617 1.903c2.403.778 4.586 2.213 5.91 4.264l1.68-1.085zm-6.974-5.082c-.186-.06-.372-.113-.54-.161-.175-.05-.33-.093-.482-.14a3.296 3.296 0 01-.735-.306l-1.036 1.71c.4.242.813.393 1.178.506.181.056.365.108.529.154.17.048.322.092.47.14l.616-1.903zm-1.771-.616C33.159.042 28.68-1.067 24.242-.955l.051 2c4.079-.103 8.189.917 11.704 2.968l1.008-1.728zm-12.75-3.24C18.468-.878 12.782 1.4 8.54 5.32L9.9 6.788c3.879-3.586 9.09-5.674 14.382-5.743l-.026-2zM8.534 5.327c-.335.316-.652.643-.954.956-.307.318-.596.62-.897.913L8.076 8.63c.33-.321.646-.65.944-.96.302-.313.59-.609.886-.888L8.534 5.326zm-.396 1.935C7.204 6.173 6.71 4.773 6.647 3.286l-1.999.086c.08 1.87.706 3.717 1.973 5.192l1.517-1.303zm-3.14-4.692c-1.2 1.026-1.85 2.462-2.281 3.72l1.892.649c.398-1.16.904-2.178 1.688-2.848l-1.3-1.52zM2.716 6.291c-.61 1.794-.95 3.745-.752 5.71l1.99-.202c-.162-1.608.111-3.265.655-4.863L2.716 6.29zm-.756 5.654c.006.124.02.261.026.34.008.095.01.154.01.2-.002.079-.015.03.034-.032l1.57 1.24a1.9 1.9 0 00.395-1.164 3.875 3.875 0 00-.016-.41c-.01-.124-.018-.19-.021-.265l-1.998.091zm.03.563C.53 14.639-.7 17.143-.995 19.876l1.988.214c.247-2.282 1.29-4.47 2.646-6.453l-1.65-1.129zM.561 20.81c.237-.16.467-.325.687-.482.222-.16.434-.31.648-.456L.773 18.218c-.237.16-.467.326-.687.482-.222.16-.434.31-.648.456L.562 20.81zM.355 18.85c-.156.779-.44 1.842-.585 2.765l1.976.31c.144-.916.365-1.658.57-2.683l-1.961-.392zm-.587 2.779a22.313 22.313 0 002.4 13.586l1.763-.943a20.313 20.313 0 01-2.183-12.36l-1.98-.283zM2.17 35.219c2.405 4.433 6.115 8.083 10.47 10.568l.991-1.737c-4.054-2.314-7.488-5.701-9.703-9.784l-1.758.953zm10.471 10.569c4.929 2.803 10.807 3.834 16.405 2.933l-.318-1.975c-5.156.83-10.572-.123-15.098-2.697l-.989 1.739zM29.05 48.72c4.86-.804 9.613-2.94 13.144-6.528l-1.426-1.403c-3.181 3.233-7.522 5.21-12.044 5.958l.326 1.973zm13.143-6.528c2.44-2.477 4.585-5.287 6.14-8.452l-1.795-.882c-1.441 2.934-3.446 5.572-5.77 7.93l1.425 1.404zm6.134-8.44c2.54-5.007 3.605-10.739 3.026-16.29l-1.99.207c.54 5.166-.452 10.512-2.82 15.177l1.784.905zm-5.858-9.699c-.105-.213-.2-.443-.309-.707-.104-.253-.222-.543-.357-.825-.273-.57-.66-1.203-1.32-1.685l-1.18 1.615c.278.203.487.499.697.935.105.22.2.453.31.72.106.257.225.546.363.829l1.796-.882zm-3.572-2.316c.233 2.47.327 4.863-.195 7.154l1.95.444c.596-2.617.473-5.275.237-7.786l-1.992.188zm-.2 7.174c-.313 1.514-.978 2.928-2.019 3.97l1.414 1.414c1.377-1.377 2.191-3.175 2.564-4.98l-1.959-.404zm-.328 4.855c.216-1.186.437-2.503.357-3.847l-1.996.12c.064 1.074-.111 2.174-.329 3.37l1.968.358zm-1.445-4.382c-1.705 2.303-3.698 4.34-6.176 5.52l.86 1.806c2.9-1.382 5.128-3.711 6.924-6.136l-1.608-1.19zm-6.181 5.523c-1.985.96-4.4.939-6.611.252l-.594 1.91c2.552.792 5.514.878 8.076-.362l-.871-1.8zm-6.6.256c-1.976-.643-3.73-1.876-5.335-3.342l-1.349 1.477c1.714 1.565 3.713 3.002 6.067 3.767l.618-1.902zm-6.01-1.604h.578v-2h-.578v2zm.511-.002c1.762.117 3.522-.138 5.163-.615l-.558-1.92c-1.463.425-2.986.638-4.472.54l-.133 1.995zm5.163-.615c.929-.27 1.71-.742 2.39-1.209.73-.499 1.257-.923 1.905-1.311l-1.029-1.716c-.705.424-1.43.983-2.006 1.377-.622.427-1.195.757-1.818.939l.558 1.92zm4.295-2.52c.107-.065.266-.107.608-.137.273-.024.8-.04 1.267-.175l-.556-1.922c-.22.064-.432.065-.885.105-.384.033-.938.099-1.463.413l1.03 1.716zm2.073-.394c.503-.272.82-.76.91-1.27a1.678 1.678 0 00-.552-1.575l-1.307 1.514a.34.34 0 01-.1-.152.282.282 0 01-.01-.134.197.197 0 01.107-.141l.952 1.758zm.44-2.764c-1.114-1.214-2.87-2.355-4.858-2.121l.233 1.986c1.08-.127 2.247.5 3.153 1.487l1.473-1.352zm-4.886-2.118c-.909.133-1.706.506-2.37.826-.706.34-1.263.62-1.864.76l.457 1.947c.861-.202 1.64-.6 2.274-.905.675-.325 1.222-.565 1.793-.649l-.29-1.979zm-4.175 1.574c-.742.128-1.575-.095-2.407-.519l-.909 1.782c1.009.514 2.305.941 3.656.708l-.34-1.97zm-2.41-.52c-1.114-.565-1.989-1.53-2.938-2.643l-1.522 1.297c.927 1.087 2.037 2.36 3.557 3.13l.904-1.784zm-3.062-2.766l-.415-.343-1.274 1.542.415.343 1.274-1.542zm-.052.428c0-.174.001-.297.012-.394l-1.988-.221c-.025.227-.024.465-.024.615h2zm-.002-.309c.054-.267.192-.471.466-.996l-1.773-.925c-.16.305-.527.895-.654 1.53l1.962.391zm.474-1.012l.252-.505-1.789-.894-.252.505 1.789.894zm-.716.045c1.403.104 2.79.33 4.159.676l.49-1.939a26.206 26.206 0 00-4.501-.731l-.148 1.994zm5.404-.307c-.018-1.32-.088-3.176-1.135-4.588l-1.606 1.192c.612.826.723 2.037.741 3.423l2-.027zm-1.338-3.192l.289-.216-1.2-1.6-.29.216 1.2 1.6zm.306-.23c.457-.358.973-.81 1.373-1.137.438-.358.851-.665 1.284-.9l-.956-1.757c-.595.324-1.12.721-1.593 1.108-.511.417-.88.75-1.342 1.113l1.234 1.573zm2.642-2.029c.514-.268.991-.63 1.383-1.068l-1.49-1.333a2.903 2.903 0 01-.818.628l.925 1.773zm1.631-1.618l.072-.613-1.986-.234-.072.614 1.986.233zm-.92-1.73h-.019v2h.018v-2zm.978 1.077a3.72 3.72 0 000-.493c-.009-.149-.015-.225-.015-.306h-2c0 .154.012.321.017.417.007.116.008.182.004.228l1.994.154zm-.909-1.793a15.286 15.286 0 00-1.64-.096v2c.477 0 .945.033 1.427.085l.213-1.989zm-1.576-.094l-1.407-.09-.128 1.996 1.407.09.128-1.996zm-.916.076c-.097-.065-.258-.174-.433-.261l-.894 1.789c.042.021.098.056.217.136l1.11-1.664zm-.351-.216c-.423-.263-.83-.578-1.264-.929-.419-.34-.884-.731-1.358-1.082l-1.19 1.607c.427.317.828.656 1.29 1.029.445.362.931.741 1.465 1.073l1.057-1.697zm-2.548-1.95l-.361-.326-1.338 1.487.36.325 1.339-1.487zm-.036.528l.054-.487-1.988-.22-.054.486 1.988.221zm.049-.447c.283-1.861 1.678-3.424 3.362-4.74l-1.232-1.575c-1.78 1.391-3.705 3.365-4.108 6.014l1.978.3zm2.6-6.517c-1.31.193-2.628.563-3.843 1.18l.906 1.784c.985-.501 2.086-.817 3.228-.985l-.29-1.979zm-3.826 1.172c-1.29.625-2.379 1.563-3.334 2.376l1.296 1.523c.994-.846 1.89-1.605 2.91-2.099l-.872-1.8zm-2.437 2.17c-2.224-.572-4.554-.215-6.562.558l.718 1.866c1.745-.67 3.637-.927 5.346-.488l.498-1.937zm-6.614.58c-.52.234-1.003.519-1.44.784-.453.275-.849.522-1.263.737l.923 1.775c.488-.254.958-.548 1.376-.802.433-.262.826-.491 1.226-.672l-.822-1.823zM6.39 11.181c.518-.52 1.082-.893 1.801-1.452L6.964 8.151c-.58.451-1.352.98-1.988 1.616l1.415 1.415zM8.178 9.74c.365-.274.667-.586.923-.865.276-.302.467-.529.7-.762L8.387 6.7c-.273.273-.551.596-.762.826a4.835 4.835 0 01-.647.615l1.2 1.6zm1.633-1.637c3.573-3.676 8.583-5.9 13.695-6.158l-.1-1.997C17.8.232 12.31 2.664 8.376 6.71l1.435 1.394zm13.696-6.158c3.422-.173 6.91.368 9.939 1.849l.878-1.797C30.93.339 27.092-.238 23.405-.051l.102 1.997zm10.42-.049c-.837-.035-1.736-.091-2.643-.073l.042 2c.824-.017 1.622.034 2.517.072l.083-1.999zm-2.909 1.885c.993.297 1.95.571 2.8.987.834.408 1.481.915 1.889 1.622l1.732-1c-.674-1.168-1.696-1.906-2.743-2.419-1.03-.504-2.167-.826-3.105-1.106l-.573 1.916zm5.519 1.11c-.948.035-2.12.05-3.244.432l.643 1.893c.789-.268 1.637-.288 2.673-.326l-.072-1.999zm-3.283 2.311c2.734 1.055 5.331 2.306 7.226 4.333l1.46-1.365c-2.219-2.376-5.178-3.759-7.966-4.834l-.72 1.866zm7.224 4.332c1.1 1.18 1.801 2.655 1.771 4.17l2 .04c.042-2.165-.953-4.12-2.307-5.573l-1.464 1.363zm3.371 3.39c-.673-.505-1.394-.995-2.191-1.394l-.895 1.79c.646.322 1.26.734 1.886 1.204l1.2-1.6zm-3.612-.268c.766 3.224 1.203 6.504.37 9.575l1.93.524c.969-3.57.432-7.254-.354-10.561l-1.946.462z" fill="#526065" mask="url(#a)"/>
</svg>