<svg xmlns="http://www.w3.org/2000/svg" version="1" viewBox="0 0 700 700">
  <defs/>
  <path d="M0 350v350h700V0H0v350zm131-234v5H50v81H39v-38l-1-46v-8h93v5zm129 89c18 3 31 8 40 17 7 6 10 11 13 20 5 19 5 16 6 140v114h-20l-69-116-70-116-1 3-1 116v113h-26V386c0-116 0-121 4-138 6-21 18-33 40-39l17-4 12-1c6-1 47 0 54 1zm151 68v70h132V203h25v293h-25V370H411v126h-25V203h25v70zm250 262l1 46v8h-93v-11h81v-81h11v38z"/>
  <path d="M210 229a169 169 0 00-36 6l118 204c1 1 1-30 1-87l-2-95c-5-18-10-23-33-26-8-2-39-3-48-2z"/>
</svg>